<?xml version="1.0" encoding="UTF-8"?>
<svg id="Calque_1" xmlns="http://www.w3.org/2000/svg" version="1.1" viewBox="0 0 2385 2500">
  <!-- Generator: Adobe Illustrator 29.4.0, SVG Export Plug-In . SVG Version: 2.1.0 Build 152)  -->
  <defs>
    <style>
      .st0 {
        fill: #233485;
      }

      .st1 {
        fill: #fff;
      }

      .st2 {
        fill: #2490d7;
      }
    </style>
  </defs>
  <path d="M2145.3,2260.1H239.8v-506.6h1905.5v506.6ZM264.8,2235.1h1855.5v-456.6H264.8v456.6Z"/>
  <path class="st1" d="M1960.8,1823.3h-164.9v366.9h164.9v-366.9h0ZM1758.7,2006.8c0-101.3-81.5-183.5-182.1-183.5h-243.8v366.9h243.8c100.6,0,182.1-82.1,182.1-183.5M1607.3,2006.8c0,44-33.3,79.7-74.5,79.7h-35.3v-159.5h35.4c41.2,0,74.5,35.7,74.5,79.7M989.6,2190.3h311.5v-106h-144.1v-260.9h-167.5v366.9h0ZM801.6,2190.3h166.3l-188-366.9h-167.8l-188,366.9h166.3l17.7-38.6h175.7l17.7,38.6h0ZM734.6,2055.1h-77l37.5-81.5,39.4,81.5h0Z"/>
  <path class="st2" d="M779.4,1352.7h779.3s57.5,86.1,61.6,92.5h-901.7c8.8-14.5,60.8-92.5,60.8-92.5M1184.3,252.4L438.8,1374.3c-46.7,69.7-73.4,121.8-75.2,199.6-1.1,45.4,12.9,101.7,33.8,146.3h158.1c-25.4-46.8-38.8-95.8-37.7-150.2,1.2-61.6,26.7-101.3,61.6-153.6L1349.7,252.4h-165.5.1ZM1829.5,1720.1c25.5-46.8,38.8-95.8,37.7-150.2-1.2-61.6-26.7-101.3-61.5-153.6l-509.5-765,82.9-125.1,567.1,848.1c46.7,69.7,73.4,121.8,75.2,199.6,1.1,45.4-12.9,101.7-33.9,146.3h-158.1.1Z"/>
  <path class="st0" d="M1374.4,252.4l-775.2,1171.2c-34.9,52.4-58.2,89.2-59.4,146.6-1.1,54.3,12.9,103,39.6,149.9h146.6c-33.9-35.3-58.2-93-54.8-153.6.6-12.5,3-28.1,6.7-40.6h986.5c-6.7-19.4-13-35.4-29.9-58.5h-929.2c12-20.6,24.7-40.8,38-60.6l50.9-76.3h749.6l-41-61.6h-667.5L1507.8,252.4h-133.4ZM1023,252.4L298.7,1346.6c-55,82.6-80.9,130.8-80.9,207.4s23.3,125.9,41,166h115.7c-3.1-6.8-6.4-14.6-9.6-23.2-12.3-32.6-24.5-76.9-23.3-123.4,1.9-81.5,30.3-136.1,77.4-206.6L1159.6,252.4h-136.7.1ZM1659.1,1720.1c33.9-35.3,58.1-93,54.8-153.6-2.8-51.9-34.4-103-72.2-159.7l-424.8-637.1,65-97.7,501,751.5c34.9,52.4,58.2,89.2,59.3,146.6,1,54.3-12.9,103-39.6,149.9h-143.5ZM2011,1720.1c4.2-9.1,6.2-14.4,9.5-23,12.3-32.5,27.1-77.1,26-123.5-1.9-81.5-30.3-136.1-77.5-206.6l-576.4-860.8,66.7-99.9,627,940.4c55,82.6,80.9,130.7,80.9,207.5s-23.3,125.9-41,166h-115.2Z"/>
</svg>