<?xml version="1.0" encoding="UTF-8"?>
<svg id="Calque_1" xmlns="http://www.w3.org/2000/svg" xmlns:serif="http://www.serif.com/" version="1.1" viewBox="0 0 358 358">
  <!-- Generator: Adobe Illustrator 29.4.0, SVG Export Plug-In . SVG Version: 2.1.0 Build 152)  -->
  <defs>
    <style>
      .st0 {
        fill: #a9d035;
      }

      .st1 {
        fill: #fff;
      }

      .st2 {
        fill: #ffbb08;
      }
    </style>
  </defs>
  <path class="st1" d="M41.1,210.8h-2v8.4h5.7c0,0,0-1.9,0-1.9l-3.8.2v-6.7Z"/>
  <path class="st1" d="M52.6,210.8l-3.4,8.3,2.2.3.5-1.6h3.4l.5,1.6,2.2-.3-3.4-8.3h-2.1ZM52.5,216.2l1.1-3.2,1.1,3.2h-2.2Z"/>
  <path class="st1" d="M75.5,215.3c.7-.5,1.1-1.2,1.1-2.2,0-1.8-1.5-2.6-3.7-2.6s-2.7.3-3.4.8v7.9c.8.1,2.7.2,4.2.2s3.1-.7,3.1-2.2-.5-1.6-1.3-1.9M71.5,212.8c.3-.2.8-.4,1.4-.4,1,0,1.6.4,1.6,1.2s-.2,1.1-.6,1.4h-2.4v-2.3ZM73.5,217.9c-.8,0-1.8,0-2,0v-1.3h1.8c.9,0,1.5.2,1.5.7s-.4.7-1.3.7"/>
  <rect class="st1" x="82.1" y="210.8" width="2" height="8.4"/>
  <path class="st1" d="M93.5,210.6c-2.7,0-4.2,1.6-4.2,4.2s1.6,4.8,4.2,4.8,4.2-2.1,4.2-4.7-1.5-4.2-4.2-4.2M93.5,217.7c-1.5,0-2.1-1.3-2.1-2.9s.7-2.4,2.1-2.4,2.1.9,2.1,2.4-.6,2.9-2.1,2.9"/>
  <path class="st1" d="M114.9,216.3l-3.5-5.7-2,.2v8.4h2v-5.5l3.5,5.7,1.9-.2v-8.4h-2v5.5Z"/>
  <path class="st1" d="M126.3,210.6c-2.7,0-4.2,1.6-4.2,4.2s1.6,4.8,4.2,4.8,4.2-2.1,4.2-4.7-1.5-4.2-4.2-4.2M126.3,217.7c-1.5,0-2-1.3-2-2.9s.7-2.4,2-2.4,2.1.9,2.1,2.4-.6,2.9-2.1,2.9"/>
  <path class="st1" d="M141,215.1c0,1.8-.3,2.5-1.7,2.5s-1.7-.7-1.7-2.5v-4.3h-2v4.2c0,3,1,4.5,3.7,4.5s3.7-1.3,3.7-4.5v-4.2h-2v4.3Z"/>
  <path class="st1" d="M152.4,214.8h-.7c-1.1-.3-1.6-.6-1.6-1.3s.5-1.2,1.5-1.2,1.1.3,1.3.7h2.2c-.1-1.3-1.3-2.4-3.4-2.4s-3.8,1.4-3.8,3.1,1.1,2.3,3,2.7h.5c1.4.4,1.9.5,1.9.9s-.4.6-1.3.5c-1.2,0-2.5-.5-3.5-1.2l-.5,1.8c.9.6,2.5,1.1,4,1.1,2.3,0,3.4-.8,3.4-2.3s-.7-2-3-2.3"/>
  <path class="st1" d="M174.4,213.7c0-1.9-1.3-3.1-3.9-3.1s-2.6.4-3.3.7v7.9h2v-2.2h1.8l1.7,2.5,1.7-1.2-1.6-1.7c.9-.6,1.6-1.5,1.6-3M171.5,215.5h-2.3v-2.8c.3-.1,1-.3,1.5-.3,1.2,0,1.8.6,1.8,1.5s-.5,1.3-1,1.6"/>
  <path class="st1" d="M182,210.8l-3.4,8.3,2.2.3.5-1.6h3.4l.5,1.6,2.2-.3-3.4-8.3h-2.1ZM182,216.2l1.1-3.2,1.1,3.2h-2.2Z"/>
  <path class="st1" d="M196.4,214.8h-.7c-1.1-.3-1.6-.6-1.6-1.3s.5-1.2,1.5-1.2,1.1.3,1.3.7h2.2c-.1-1.3-1.3-2.4-3.4-2.4s-3.8,1.4-3.8,3.1,1.1,2.3,3,2.7h.5c1.4.4,1.9.5,1.9.9s-.4.6-1.3.5c-1.2,0-2.5-.5-3.6-1.2l-.5,1.8c.9.6,2.5,1.1,4,1.1,2.3,0,3.4-.8,3.4-2.3s-.7-2-3-2.3"/>
  <path class="st1" d="M208.6,214.8h-.7c-1.1-.3-1.6-.6-1.6-1.3s.5-1.2,1.5-1.2,1.1.3,1.3.7h2.2c-.1-1.3-1.3-2.4-3.4-2.4s-3.8,1.4-3.8,3.1,1.1,2.3,3,2.7h.5c1.4.4,1.9.5,1.9.9s-.4.6-1.3.5c-1.2,0-2.5-.5-3.6-1.2l-.5,1.8c.9.6,2.5,1.1,4,1.1,2.3,0,3.4-.8,3.4-2.3s-.7-2-3-2.3"/>
  <path class="st1" d="M218.7,216.3h3.5v-1.6h-3.5v-2h4.2c0,0,0-2,0-2l-6.2.2v8.4l6.2.2v-2c.1,0-4.2,0-4.2,0v-1.3Z"/>
  <path class="st1" d="M232.8,215.7l-2.2-5-2.3.2v8.4h2v-6.1l1.6,4.3h2c0,0,1.6-4.3,1.6-4.3v6.1h2v-8.4l-2.3-.2-2.2,5Z"/>
  <path class="st1" d="M248.8,215.3c.7-.5,1.1-1.2,1.1-2.2,0-1.8-1.5-2.6-3.7-2.6s-2.7.3-3.4.8v7.9c.8.1,2.7.2,4.2.2s3.1-.7,3.1-2.2-.5-1.6-1.3-1.9M244.8,212.8c.3-.2.8-.4,1.4-.4,1,0,1.6.4,1.6,1.2s-.2,1.1-.6,1.4h-2.4v-2.3ZM246.8,217.9c-.8,0-1.8,0-2,0v-1.3h1.8c.9,0,1.5.2,1.5.7s-.4.7-1.3.7"/>
  <path class="st1" d="M257.4,210.8h-2v8.4h5.7c0,0,0-1.9,0-1.9l-3.8.2v-6.7Z"/>
  <path class="st1" d="M268.2,217.6v-1.3h3.5v-1.6h-3.5v-2h4.2c0,0,0-2,0-2l-6.2.2v8.4l6.2.2v-2c.1,0-4.2,0-4.2,0Z"/>
  <path class="st1" d="M184.4,178.5c.6-1.8,1.2-4.4,1.2-6.8,0-7.8-5.8-14.7-17-14.7s-20.7,8.4-20.3,22.1c.3,13.5,8.5,19.3,20.1,19.5,7.7.1,15.5-2.8,16.5-3.7l-.7-9.7c-1.3,1-8.5,3.1-14.5,3.1s-9.4-3.2-9.4-10.6,3.3-10.9,8-10.9,6.4,3.1,6.4,6.4-.6,4-1.3,5.2h10.9Z"/>
  <path class="st1" d="M305.2,157c-5.6,0-9.8,3.3-11.9,7.8-.2-2.5-.6-4.7-1.2-6.5h-11.2c.9,3.4,1.5,8.4,1.5,13.5v43c0,3.1,2.5,5.6,5.5,5.6s5.6-2.5,5.6-5.6v-4.9h0v-15.5c2.4,2.6,5.7,4.1,9.6,4.2,10.3.1,16.6-10,16.5-23.5,0-12-5.8-18.2-14.4-18.2M299.7,189.1c-2.6,0-4.7-1.2-6.2-3.1v-6.1c0-8.2,2.8-13.5,7.9-13.5s7.2,3.5,7.2,10.1-3.9,12.8-8.9,12.6"/>
  <path class="st1" d="M62.1,157.5c-5.2,0-9.5,2.7-11.9,6.7v-18.6h0s0,0,0,0v-4.5c0-3.1-2.5-5.6-5.5-5.6s-5.5,2.5-5.5,5.6v53c3.8,2.5,11.7,4.6,18.7,4.6,10.3,0,19.1-7.5,19.1-23.4,0-11.6-5.6-17.8-14.8-17.8M56.4,189.1c-2.6,0-4.7-.7-6.1-1.6v-8.7c0-7.7,3.8-11.4,8.4-11.4s7.2,3.1,7.2,8.9-3.5,12.7-9.5,12.7"/>
  <path class="st1" d="M84.8,197.3h11.1v-38.7l-11.1.7v38Z"/>
  <path class="st1" d="M122.8,156.7c-12.3,0-19.5,7.1-19.5,19.2s7,22.5,19.7,22.5,19.5-10.7,19.5-22.5-7.1-19.1-19.7-19.1M122.8,188.9c-5.1,0-8.5-5.3-8.5-12.6s3.5-10.1,8.5-10.1,8.5,2.9,8.5,10-3.3,12.7-8.5,12.7"/>
  <path class="st1" d="M94.3,143.4c-1.5-1.1-3.5-2-5.5-1.5-3.6.9-6.2,5.8-4.2,9,3.3,5.2,13.4,3,12.2-3.8-.3-1.6-1.1-2.5-2.6-3.6"/>
  <path class="st2" d="M229.6,185.5c.4-3.8,1.3-7.4.5-11.2-2.3-11.2-9.3-20.2-22.7-18-13.3,2.2-18.3,13.7-16.2,25.2.2,1.2.5,2.5.9,3.7,1.7-.1,3.8-.6,4.2-2,1.2-4.5,4.6-11.9,4.9-12.4.3-.5,1.4-1.5,2-.9.8.8.8.4.6,2.6,0,.3-1.1,5-1.1,5,.8-1,2.7-4.4,4.5-6.4,2.1-2.3,5.1-5.4,6.9-6.4.6-.4,1.1,0,1.4.1,1.7,1-4.5,6.7-6.2,8.8-.4.5.3.7.4.7.1.1.6-.3,1.8-1.6.9-1,4.9-5.5,7.1-7,.5-.3.8,0,1.2.3,1.3,1-4.8,7-7.3,9.8-.7.8-1.1,1.3-1.1,1.4,0,.1,0,1.5.9.8,2-1.8,6-7.3,6.8-7.9,1-.8,1.2-.1,1.5.3.6.9-1.9,4.8-4.3,6.7-2.2,1.8-3.2,2.5-2.9,2.8.2.1.3.8.9.5,1.2-.9,3.4-3.5,4.8-4.5.4-.3.7.3.9.5,1,1.3-5.7,9.5-10.7,13.4-3.1,2.4-7.4,4-10.8,5,4.4,3.3,12,4,19.2,2.6,6-1.2,11.6-4,15.1-6.2-.3-.3-3.6-1.6-3.2-5.7"/>
  <path class="st0" d="M269,161.4c-3.9-3.4-9-4-14-4.5-5.7-.6-18.9,1.3-18.9,1.3,0,0,2.2,4,1.3,7.3-1,3.7-2,7.1-2,10.9,0,11.9,7,22.5,19.8,22.5s.4,0,.6,0c-1.4-5.6,0-10.7,1.5-14.5-4-.9-13.1-4.4-11.4-16.8.2-1.5,1-1.4,2-1.2,1.4.4,3.3,1.2,5.1,2.3,2.2,1.3,4.4,3.1,5.7,5.4,1.9,3.3-.7,5.1-.7,7.1,0,.8.4,1.2.8,1.7.7-2,2.5-4.2,6.5-4.8.4,0,1.3.3,1.1,1-.8,2.6-3.2,8.7-8,7.8-.7,3.2-1,7.5.7,11.8,10.2-2,15.7-11.6,15.7-22.2s-1.6-11.1-5.8-14.8"/>
</svg>