<?xml version="1.0" encoding="UTF-8"?>
<svg id="Calque_1" xmlns="http://www.w3.org/2000/svg" version="1.1" viewBox="0 0 364.4 50.7">
  <!-- Generator: Adobe Illustrator 29.4.0, SVG Export Plug-In . SVG Version: 2.1.0 Build 152)  -->
  <g id="LOGO_BNB-2">
    <path id="Tracé_143" d="M146.7,23.5v13h-4.8V13.2l16.9,13.4.4.3c0-.2,0-12.7,0-12.7h4.7v23.3l-17.3-14Z"/>
    <path id="Tracé_144" d="M93.6,13.5c-6.7,0-12.3,5.4-12.3,11.8.2,6.6,5.6,11.9,12.3,11.9,6.5.1,11.9-5.1,12-11.6.1-6.5-5.1-11.9-11.6-12-.1,0-.3,0-.4,0M93.6,32.7c-4.1,0-7.4-3.4-7.4-7.5,0-4.1,3.4-7.4,7.5-7.4,4.1,0,7.4,3.3,7.4,7.4,0,4.1-3.3,7.4-7.3,7.4,0,0,0,0-.1,0"/>
    <path id="Tracé_145" d="M212.1,13.5c-6.7,0-12.3,5.4-12.3,11.8.2,6.6,5.6,11.9,12.3,11.9,6.5.1,11.9-5.1,12-11.6.1-6.5-5.1-11.9-11.6-12-.1,0-.3,0-.4,0M212.1,32.7c-4.1,0-7.4-3.4-7.4-7.5,0-4.1,3.4-7.4,7.5-7.4,4.1,0,7.4,3.3,7.4,7.4,0,4.1-3.3,7.4-7.3,7.4,0,0,0,0-.1,0"/>
    <path id="Tracé_146" d="M329.7,14.5c-6.2,0-11.3,5-11.3,10.9.2,6.1,5.2,11,11.3,10.9,6,0,10.9-4.9,10.9-10.9s-4.9-10.9-10.9-10.9"/>
    <path id="Tracé_147" d="M43.2,25.4c1.5-1,2.5-2.6,2.6-4.5,0-4.1-3.3-7.3-7.4-7.3,0,0-.2,0-.2,0h-11.8v23.5h11.8c4.8,0,7.5-3.3,7.5-7.4,0-1.5-1.1-3.8-2.4-4.4M37.8,32.8h-6.8v-5.6h6.8c1.5,0,2.8,1,2.9,2.5,0,0,0,.2,0,.2.2,1.4-.8,2.7-2.2,2.9-.2,0-.4,0-.6,0M37.8,22.8h-6.8v-5.6h6.8c1.5-.1,2.8,1,2.9,2.5,0,0,0,.2,0,.3.2,1.4-.8,2.7-2.3,2.9-.2,0-.4,0-.6,0"/>
    <path id="Tracé_148" d="M279.5,25.4c1.5-1,2.5-2.6,2.6-4.5,0-4.1-3.3-7.3-7.4-7.3,0,0-.2,0-.2,0h-11.8v23.5h11.8c4.8,0,7.5-3.3,7.5-7.4,0-1.5-1.1-3.8-2.4-4.4M274.1,32.8h-6.8v-5.6h6.8c1.5-.1,2.8,1,2.9,2.5,0,0,0,.2,0,.2.2,1.4-.8,2.7-2.3,2.9-.2,0-.4,0-.6,0M274.1,22.8h-6.8v-5.6h6.8c1.5-.1,2.8,1,2.9,2.5,0,0,0,.2,0,.3.2,1.4-.8,2.7-2.3,2.9-.2,0-.4,0-.6,0"/>
    <path id="Tracé_149" d="M360.2,21.2h-5.6l-.2-.9c-2.1-10.2-10.1-18.1-20.4-19.9v5.5c7.8,1.9,13.7,8.4,14.8,16.4h2.8c1.8,0,3.2,1.6,3.1,3.4,0,1.7-1.4,3-3.1,3.1h-2.9c-1.6,10.4-11.4,17.5-21.8,15.8-8.2-1.3-14.5-7.7-15.8-15.8h-2.8c-1.8,0-3.2-1.6-3.1-3.4,0-1.7,1.4-3,3.1-3.1h2.7c1-7.8,6.6-14.2,14.2-16.2V.4c-10.3,1.8-18.4,9.7-20.4,19.9l-.2.9h-8.9l-.2-.9c-2.8-13.7-16.2-22.6-29.9-19.8-10,2-17.8,9.8-19.8,19.8l-.2.9h-8.9l-.2-.9c-2.8-13.7-16.2-22.6-29.9-19.8-10,2-17.8,9.8-19.8,19.8l-.2.9h-8.9l-.2-.9c-2.8-13.7-16.2-22.6-29.9-19.8-10,2-17.8,9.8-19.8,19.8l-.2.9h-8.9l-.2-.9C115.8,6.6,102.4-2.3,88.7.5c-10,2-17.8,9.8-19.8,19.8l-.2.9h-8.9l-.2-.9C56.9,6.6,43.5-2.3,29.7.5,19.8,2.5,12,10.3,9.9,20.3l-.2.9h-5.6C1.9,21.2,0,23,0,25.3s1.9,4.2,4.2,4.2h5.6l.2.9c2.8,13.7,16.2,22.6,29.9,19.8,10-2,17.8-9.8,19.8-19.8l.2-.9h8.9l.2.9c2.8,13.7,16.2,22.6,29.9,19.8,10-2,17.8-9.8,19.8-19.8l.2-.9h8.9l.2.9c2.8,13.7,16.2,22.6,29.9,19.8,10-2,17.8-9.8,19.8-19.8l.2-.9h8.9l.2.9c2.8,13.7,16.2,22.6,29.9,19.8,10-2,17.8-9.8,19.8-19.8l.2-.9h8.9l.2.9c2.8,13.7,16.2,22.6,29.9,19.8,10-2,17.8-9.8,19.8-19.8l.2-.9h8.9l.2.9c2.8,13.7,16.2,22.6,29.9,19.8,10-2,17.8-9.8,19.8-19.8l.2-.9h5.6c2.3,0,4.2-1.9,4.2-4.2s-1.9-4.2-4.2-4.2h0ZM56.3,29h-2.9c-1.6,10.4-11.4,17.5-21.8,15.8-8.2-1.3-14.6-7.7-15.8-15.8h-2.8c-1.8,0-3.2-1.6-3.1-3.4,0-1.7,1.4-3,3.1-3.1h2.7c1.2-10.5,10.7-17.9,21.1-16.7,8.8,1,15.7,7.9,16.7,16.7h2.8c1.8,0,3.2,1.6,3.1,3.4,0,1.7-1.4,3-3.1,3.1h0ZM115.2,28.8h-2.9c-1.6,10.4-11.4,17.5-21.8,15.8-8.2-1.3-14.5-7.7-15.8-15.8h-2.8c-1.8,0-3.2-1.6-3.1-3.4,0-1.7,1.4-3,3.1-3.1h2.7c1.2-10.5,10.7-17.9,21.1-16.7,8.8,1,15.7,7.9,16.7,16.7h2.8c1.8,0,3.2,1.6,3.1,3.4,0,1.7-1.4,3-3.1,3.1h0ZM174.8,28.8h-2.9c-1.6,10.4-11.4,17.5-21.8,15.8-8.2-1.3-14.6-7.7-15.8-15.8h-2.8c-1.8,0-3.2-1.6-3.1-3.4,0-1.7,1.4-3,3.1-3.1h2.7c1.2-10.5,10.7-17.9,21.1-16.7,8.8,1,15.7,7.9,16.7,16.7h2.8c1.8,0,3.2,1.6,3.1,3.4,0,1.7-1.4,3-3.1,3.1h0ZM233.6,28.8h-2.9c-1.6,10.4-11.4,17.5-21.8,15.8-8.2-1.3-14.5-7.7-15.8-15.8h-2.8c-1.8,0-3.2-1.6-3.1-3.4,0-1.7,1.4-3,3.1-3.1h2.7c1.2-10.5,10.7-17.9,21.1-16.7,8.8,1,15.7,7.9,16.7,16.7h2.8c1.8,0,3.2,1.6,3.1,3.4,0,1.7-1.4,3-3.1,3.1h0ZM292.7,28.8h-2.9c-1.6,10.4-11.4,17.5-21.8,15.8-8.2-1.3-14.6-7.7-15.8-15.8h-2.8c-1.8,0-3.2-1.6-3.1-3.4,0-1.7,1.4-3,3.1-3.1h2.7c1.2-10.5,10.7-17.9,21.1-16.7,8.8,1,15.7,7.9,16.7,16.7h2.8c1.8,0,3.2,1.6,3.1,3.4,0,1.7-1.4,3-3.1,3.1h0Z"/>
  </g>
</svg>