<?xml version="1.0" encoding="UTF-8"?>
<svg id="Calque_1" xmlns="http://www.w3.org/2000/svg" version="1.1" viewBox="0 0 2500 1438.3">
  <!-- Generator: Adobe Illustrator 29.4.0, SVG Export Plug-In . SVG Version: 2.1.0 Build 152)  -->
  <defs>
    <style>
      .st0 {
        fill: #fff;
      }
    </style>
  </defs>
  <path class="st0" d="M1457.7,0,0,1252.3v-197.5h63.5v75.8h99.6c63.5,0,115.5,52,115.5,115.5s-52,115.5-115.5,115.5h-49.4c-62.6,0-113.8-49.4-113.8-109.3M63.5,1246.1c0,30,19.4,53.8,54.7,53.8h40.6c29.1,0,54.7-23.8,54.7-53.8s-24.7-54.7-54.7-54.7H63.5v54.7ZM425.9,1361.6c-63.5,0-115.5-51.1-115.5-115.5s52-115.5,115.5-115.5h65.3c63.5,0,115.5,52,115.5,115.5s-52,115.5-115.5,115.5h-65.3ZM540.6,1246.1c0-30-24.7-54.7-54.7-54.7h-55.6c-30,0-54.7,25.6-54.7,54.7s24.7,54.7,54.7,54.7h55.6c30,0,54.7-24.7,54.7-54.7M645.5,1246.1v-115.5h63.5v115.5c0,30,24.7,54.7,54.7,54.7h90.8v-170.2h63.5v231h-157c-69.7,0-115.5-45.9-115.5-115.5M1039.7,1361.6h-63.5v-307.8h63.5v307.8h0ZM1665.8,1245.2v115.5h-63.5v-115.5c0-30-24.7-54.7-54.7-54.7h-90.8v170.2h-63.5v-231h157c63.5,0,115.5,52,115.5,115.5M1704.6,1233.8c0-63.5,52-104.1,115.5-104.1h161.4v229.3c0,51.1-30.9,79.4-88.2,79.4h-119.9v-58.2h122.6c12.3,0,21.2-7.9,21.2-20.3v-21.2h-97c-63.5-.9-115.5-40.6-115.5-104.9M1918,1277v-86.4h-89.9c-30,0-54.7,13.2-54.7,42.3s24.7,43.2,54.7,43.2h89.9v.9ZM2278.7,1361.6h-142c-69.7,0-118.2-45.9-118.2-115.5s45-115.5,114.6-115.5h37.9c62.6,0,107.6,38.8,107.6,102.3v37.9h-194c7.1,20.3,25.6,31.7,54.7,31.7h139.3v59.1h0ZM2085.5,1217.9h131.4c0-17.6-13.2-32.6-45-32.6h-37.9c-25.6,0-41.4,12.3-48.5,32.6M2500,1129.7v60.8h-60.8c-30,0-54.7,24.7-54.7,54.7v115.5h-63.5v-115.5c0-69.7,45.9-115.5,115.5-115.5h63.5ZM1193.1,1129.7c-63.5,0-115.5,52-115.5,115.5s52,115.5,115.5,115.5h152.6v-231h-152.6ZM1282.2,1299.9h-83.8c-30,0-54.7-23.8-54.7-53.8s24.7-54.7,54.7-54.7h83.8v108.5Z"/>
  <g>
    <path class="st0" d="M1457.7,0h-415.3s0,0,0,0v203.8h325.4c169.3,1.8,306,140.2,306.9,311.3,0,170.2-136.7,307.8-306,310.4h-179c-172,0-311.3-139.3-311.3-311.3v-239.9C878.3,155.2,944.4,52,1042.3,0c-265.4,0-479.6,215.2-479.6,479.7s215.2,479.7,479.7,479.7h415.3c264.6,0,479.7-215.2,479.7-479.7S1722.2,0,1457.7,0Z"/>
    <path class="st0" d="M1363.3,660.6c80.3,0,145.5-65.3,146.4-146.4,0-81.1-65.3-146.4-146.4-146.4h-320.1v146.4c0,81.1,65.3,146.4,146.4,146.4h173.7Z"/>
  </g>
</svg>