<?xml version="1.0" encoding="UTF-8" standalone="no"?>
<!-- Created with Inkscape (http://www.inkscape.org/) -->

<svg
   width="132.29167mm"
   height="80.459015mm"
   viewBox="0 0 132.29167 80.459018"
   version="1.1"
   id="svg5"
   xml:space="preserve"
   sodipodi:docname="Brico_Depot_logo_2021.svg"
   inkscape:version="1.4 (86a8ad7, 2024-10-11)"
   xmlns:inkscape="http://www.inkscape.org/namespaces/inkscape"
   xmlns:sodipodi="http://sodipodi.sourceforge.net/DTD/sodipodi-0.dtd"
   xmlns="http://www.w3.org/2000/svg"
   xmlns:svg="http://www.w3.org/2000/svg"><sodipodi:namedview
     id="namedview1"
     pagecolor="#ffffff"
     bordercolor="#000000"
     borderopacity="0.25"
     inkscape:showpageshadow="2"
     inkscape:pageopacity="0.0"
     inkscape:pagecheckerboard="0"
     inkscape:deskcolor="#d1d1d1"
     inkscape:document-units="mm"
     inkscape:zoom="1.9416254"
     inkscape:cx="254.1685"
     inkscape:cy="174.85351"
     inkscape:window-width="1920"
     inkscape:window-height="1001"
     inkscape:window-x="-9"
     inkscape:window-y="-9"
     inkscape:window-maximized="1"
     inkscape:current-layer="layer1-3" /><defs
     id="defs2"><clipPath
       clipPathUnits="userSpaceOnUse"
       id="clipPath438785"><path
         d="m 54.351,293.621 0.631,-36.172 205.885,3.593 -0.631,36.173"
         id="path438783" /></clipPath><clipPath
       clipPathUnits="userSpaceOnUse"
       id="clipPath438793"><path
         d="m 20.8,256.945 -7.533,431.532 25.623,0.447 v -37.851 h 8.379 v 37.997 l 0.126,0.002 V 263.614 h 238.671 v 2.925 h 43.172 l 0.073,-4.212 L 20.8,256.945"
         id="path438791" /></clipPath><clipPath
       clipPathUnits="userSpaceOnUse"
       id="clipPath438801"><path
         d="m -16.442,700.78 7.857,-450.171 348.237,6.075 -7.857,450.171 -348.237,-6.075"
         id="path438799" /></clipPath><clipPath
       clipPathUnits="userSpaceOnUse"
       id="clipPath438809"><path
         d="M 892.118,1240.949 H 21.882 V 22.051 h 870.236 z"
         id="path438807" /></clipPath><clipPath
       clipPathUnits="userSpaceOnUse"
       id="clipPath438817"><path
         d="M 0,1263.015 H 913.98 V 0.015 H 0 Z"
         id="path438815" /></clipPath><clipPath
       clipPathUnits="userSpaceOnUse"
       id="clipPath438831"><path
         d="m 260.055,297.212 0.631,-36.173 68.719,1.2 -0.631,36.173"
         id="path438829" /></clipPath><clipPath
       clipPathUnits="userSpaceOnUse"
       id="clipPath438839"><path
         d="m 20.8,256.945 -7.533,431.532 25.623,0.447 v -37.851 h 8.379 v 37.997 l 0.126,0.002 V 263.614 h 238.671 v 2.925 h 43.172 l 0.073,-4.212 L 20.8,256.945"
         id="path438837" /></clipPath><clipPath
       clipPathUnits="userSpaceOnUse"
       id="clipPath438847"><path
         d="m -16.442,700.78 7.857,-450.171 348.237,6.075 -7.857,450.171 -348.237,-6.075"
         id="path438845" /></clipPath><clipPath
       clipPathUnits="userSpaceOnUse"
       id="clipPath438855"><path
         d="M 892.118,1240.949 H 21.882 V 22.051 h 870.236 z"
         id="path438853" /></clipPath><clipPath
       clipPathUnits="userSpaceOnUse"
       id="clipPath438863"><path
         d="M 0,1263.015 H 913.98 V 0.015 H 0 Z"
         id="path438861" /></clipPath><clipPath
       clipPathUnits="userSpaceOnUse"
       id="clipPath490813"><g
         id="g490821"><g
           id="g490819"><g
             id="g490817"><path
               d="M -525.05834,-380.23626 H -832.05826 V 49.763857 h 306.99992 z"
               id="path490815"
               style="stroke-width:0.352778" /></g></g></g></clipPath></defs><g
     id="layer1"
     transform="translate(503.32303,-9.712286)"><g
       id="layer1-3"
       transform="matrix(1.1210145,0,0,1.1210145,-556.50474,72.670738)"><g
         id="g614138"
         transform="matrix(0.38514016,0,0,0.38514016,49.531569,-14.151906)"><polygon
           class="cls-2"
           points="0,0 0,61.05 124.54,61.05 152.09,61.05 201.12,61.05 201.12,0 "
           id="polygon612945"
           transform="matrix(1.5235166,0,0,1.5235166,-5.4288661,-109.0775)"
           clip-path="none"
           style="fill:#e30613;fill-opacity:1" /><g
           id="g614120"><path
             class="cls-3"
             d="m 289.47824,-63.554824 c 0,-14.351526 -8.28793,-28.444055 -25.89978,-29.327695 v 0 c -1.11217,0 -4.14397,0 -4.14397,0 -17.61185,0.975051 -26.57012,15.341813 -26.57012,29.799985 0,14.458173 8.94304,29.053462 26.50918,29.78475 h 4.14397 c 17.1548,-1.112167 25.89978,-15.920749 25.89978,-30.211334 m -29.96757,-25.000908 a 4.9818993,4.9818993 0 0 1 1.70634,-0.228527 9.9180931,9.9180931 0 0 1 2.31574,0.304703 c 2.65092,0.91411 4.09826,2.468097 4.09826,4.692431 v 40.997832 a 5.1494861,5.1494861 0 0 1 -4.32678,4.829547 14.092529,14.092529 0 0 1 -2.08722,0.228528 7.3890555,7.3890555 0 0 1 -1.70634,-0.228528 c -3.82403,-1.401635 -4.32679,-3.427912 -4.32679,-6.42924 v -39.139141 c 0,-2.102453 1.00552,-3.884967 4.32679,-5.027605"
             id="path612949"
             style="fill:#ffffff;stroke-width:1.52352"
             clip-path="none" /><path
             class="cls-3"
             d="m 220.93523,-73.686209 c -1.00552,-5.469425 -6.39877,-13.940177 -13.01083,-14.823817 h -3.80879 c -4.06779,0.88364 -5.59131,3.884967 -5.33231,8.028933 v 35.695994 a 7.1757632,7.1757632 0 0 0 5.25613,6.855824 11.350199,11.350199 0 0 0 2.02628,0.182822 5.8655389,5.8655389 0 0 0 1.93486,-0.182822 c 6.5816,-1.41687 12.44714,-5.5456 14.21441,-11.441609 a 2.5442727,2.5442727 0 0 1 2.54428,-1.812985 3.3669717,3.3669717 0 0 1 0.54846,0 2.7880354,2.7880354 0 0 1 1.73681,3.824026 c -2.54427,7.769935 -11.24355,13.71165 -19.12013,14.001118 h -3.80879 c -18.61738,0 -27.31666,-13.711649 -27.56042,-29.083932 0,-15.12852 8.91257,-29.723809 27.4233,-30.470332 h 4.14397 c 4.9819,0.502761 9.03445,2.970857 11.79201,2.970857 2.02628,-0.258997 2.28528,-3.047033 4.31156,-3.047033 a 2.6204486,2.6204486 0 0 1 2.80327,2.727095 v 17.535676 c 0,1.85869 -0.99029,3.18415 -2.28528,3.18415 A 4.220141,4.220141 0 0 1 220.92,-73.686209"
             id="path612951"
             style="fill:#ffffff;stroke-width:1.52352"
             clip-path="none" /><path
             class="cls-3"
             d="m 46.126936,-64.255642 v -0.258997 c 10.222796,-0.639877 16.0731,-7.069117 16.0731,-13.23936 0,-7.130057 -6.612062,-14.001117 -20.14089,-14.001117 H 10.674704 c -2.788035,0 -4.5705494,0.213292 -4.5705494,2.285275 0,3.047033 4.7838424,1.401635 4.7838424,4.570549 v 43.298342 c 0,3.18415 -4.7838424,1.523517 -4.7838424,4.57055 0,2.071983 1.7368089,2.30051 4.5705494,2.30051 h 32.405198 c 12.76707,0.44182 19.363896,-6.42924 19.881892,-13.498357 0.761758,-8.455517 -4.57055,-14.640995 -16.758683,-16.027395 m -4.143965,19.470543 c 0,4.326787 -2.285275,5.469424 -6.612062,5.469424 h -3.808791 v -22.639457 h 4.067789 c 2.7728,0.243763 6.368299,0.426585 6.368299,6.612062 z m -6.612062,-21.771053 h -3.808791 v -20.826472 h 3.808791 c 2.803271,0.198058 6.353064,1.599693 6.612062,6.185478 v 8.196519 c 0.243763,5.545601 -3.565029,6.094066 -6.612062,6.42924"
             id="path612953"
             style="fill:#ffffff;stroke-width:1.52352"
             clip-path="none" /><path
             class="cls-3"
             d="m 170.03454,-89.469841 c 0,-1.614928 -1.00552,-2.285275 -3.04703,-2.285275 h -24.19345 c -1.59969,0 -3.36697,0.959815 -3.04703,2.544272 0.50276,3.18415 5.13425,0.700818 4.87525,5.271368 v 42.079528 c -0.24376,3.443148 -4.87525,1.660633 -4.87525,4.844783 0,1.3864 1.6454,2.285275 2.84898,2.285275 h 24.37626 c 2.04151,0 3.04704,-1.096932 3.04704,-2.285275 0,-3.458383 -4.57055,-1.401635 -4.81432,-4.844783 v -42.765111 c 0,-3.443147 4.57055,-1.599692 4.81432,-4.844782"
             id="path612955"
             style="fill:#ffffff;stroke-width:1.52352"
             clip-path="none" /><path
             class="cls-3"
             d="m 130.75828,-44.785099 c -1.52351,0 -2.04151,1.782514 -3.58026,2.041512 -0.50276,0 -0.74652,-0.258998 -0.74652,-0.700818 v -8.653574 c 0,-5.286603 -4.12873,-9.430568 -15.05235,-10.573205 v -0.198058 c 9.90286,-1.3864 15.23517,-8.623103 15.23517,-14.991403 0,-8.531693 -8.25746,-14.65623 -25.7779,-13.894471 H 74.662402 c -2.285275,0 -3.306031,1.401635 -3.047034,2.285275 0.258998,3.24509 4.57055,1.142637 4.57055,4.844782 v 42.765111 c 0,3.686911 -4.311552,1.401636 -4.57055,4.844783 -0.258997,1.523517 1.523517,2.285275 3.047034,2.285275 h 24.193443 c 2.041515,-0.258998 2.803275,-0.898875 2.803275,-2.285275 0.24376,-3.047033 -4.570554,-1.401635 -4.570554,-4.844783 v -18.099377 h 3.808794 v 0 c 4.38773,0.243763 5.14948,4.12873 5.14948,6.673003 v 9.811447 c 0.48753,3.047033 2.28528,10.11615 13.20889,10.11615 7.92229,0 14.03159,-5.98742 14.03159,-9.1411 a 2.6052134,2.6052134 0 0 0 -2.52904,-2.285274 M 97.088566,-87.184566 h 3.808794 c 2.78803,0.685582 5.14948,1.843455 5.14948,6.094066 v 10.664616 c 0,4.738137 -1.52351,5.713187 -5.10378,5.896009 h -3.854494 z"
             id="path612957"
             style="fill:#ffffff;stroke-width:1.52352"
             clip-path="none" /></g></g><g
         id="g614149"
         transform="matrix(0.38514016,0,0,0.38514016,49.531569,-14.151906)"><polyline
           class="cls-1"
           points="124.54 61.05 0 61.05 0 122.32 201.12 122.32 201.12 61.05 152.09 61.05"
           id="polyline612943"
           transform="matrix(1.5235166,0,0,1.5235166,-5.4288661,-109.0775)"
           clip-path="none"
           style="fill:#1c1d1a;fill-opacity:1" /><g
           id="g614129"><polygon
             class="cls-3"
             points="111.42,63.74 138.01,52.57 162.95,63.74 158.52,70.96 138.07,62.03 115.85,70.96 "
             id="polygon612947"
             transform="matrix(1.5235166,0,0,1.5235166,-5.4288661,-109.0775)"
             clip-path="none"
             style="fill:#ffffff" /><g
             id="g614105"><path
               class="cls-3"
               d="M 111.02874,41.979171 A 3.3822069,3.3822069 0 0 0 107.98171,44.523444 16.51492,16.51492 0 0 1 94.27006,55.18806 H 89.867097 V 32.975188 h 3.808792 c 3.808791,0.97505 4.829547,3.443147 6.094066,6.90153 0.502765,1.523517 1.523515,2.285275 2.285275,2.285275 a 2.1481584,2.1481584 0 0 0 2.30051,-1.934866 V 22.249631 c 0.259,-2.544273 -0.76176,-3.18415 -2.02628,-3.18415 -0.51799,0 -1.02075,0.182822 -1.52351,0.182822 -1.782518,0.959816 -1.02076,7.34335 -7.130061,9.003983 H 89.867097 V 7.3648737 h 4.083025 c 8.714518,1.2492836 14.473408,7.2519393 14.473408,10.9997903 a 2.2395694,2.2395694 0 0 0 2.30051,2.056747 2.0110419,2.0110419 0 0 0 2.28527,-2.041512 V 2.7333833 H 67.090524 c -1.523517,0 -3.047033,0.9445803 -3.047033,2.1024529 0.243763,4.0830245 5.149486,0.639877 4.905723,5.7436578 v 42.186174 c 0,3.443148 -4.905723,1.645398 -4.905723,5.088546 0,0.959815 1.294989,2.041512 3.047033,2.041512 H 113.07026 V 44.279681 a 2.0415122,2.0415122 0 0 0 -2.04152,-2.30051"
               id="path612959"
               style="fill:#ffffff;stroke-width:1.52352"
               clip-path="none" /><path
               class="cls-3"
               d="m 207.46734,1.5907458 h -4.17443 C 185.742,2.6115019 176.82942,16.993499 176.82942,31.436436 c 0,14.442937 8.95828,29.160108 26.57013,29.876161 h 3.82403 c 17.36809,-0.959816 26.25019,-15.890279 26.25019,-30.317981 0,-14.427702 -8.3184,-28.5964064 -26.0369,-29.4038702 m 4.1135,50.2760482 a 5.1647213,5.1647213 0 0 1 -4.32679,4.844782 13.3003,13.3003 0 0 1 -2.11769,0.152352 6.2311829,6.2311829 0 0 1 -1.70634,-0.152352 C 199.59076,55.309941 199.088,53.268429 199.088,50.267101 V 11.021314 c 0,-2.0872182 1.00552,-3.8697326 4.26585,-5.0276052 a 5.0733103,5.0733103 0 0 1 1.85869,-0.2437627 7.251939,7.251939 0 0 1 2.05675,0.2437627 c 2.75756,0.8988748 4.28108,2.4833321 4.28108,4.7838422 z"
               id="path612961"
               style="fill:#ffffff;stroke-width:1.52352"
               clip-path="none" /><path
               class="cls-3"
               d="m 148.9186,2.7333833 h -27.56041 c -2.02628,0 -3.5498,0.4418198 -3.30604,2.2852749 0.259,3.0470332 4.57055,1.4016352 4.57055,4.8600179 V 52.308613 c 0.259,4.159201 -4.82954,2.102453 -4.82954,5.301838 0,1.142638 1.02075,2.285275 3.30603,2.285275 h 24.30009 c 1.82822,0 3.04703,-1.142637 3.04703,-1.843455 0,-3.869732 -4.57055,-1.340695 -4.82955,-5.48466 V 37.926617 h 4.31155 v 0 c 15.03711,0.319938 24.74191,-4.57055 25.00091,-16.545391 0.24376,-11.274022 -6.09406,-18.2821987 -24.02585,-18.6173724 m 3.61073,24.5590874 c 0,2.879447 -0.70082,5.51513 -4.57055,6.094067 L 143.632,33.295126 V 7.3953441 h 5.17995 c 2.4224,0.6703473 3.71738,2.7727999 3.71738,5.6979519 z"
               id="path612963"
               style="fill:#ffffff;stroke-width:1.52352"
               clip-path="none" /><path
               class="cls-3"
               d="M 273.37467,52.765668 V 7.1820517 h 3.86973 c 4.57055,3.1993853 5.78937,8.4555173 6.29213,11.8834293 a 3.6107343,3.6107343 0 0 0 3.32126,3.900203 2.4376266,2.4376266 0 0 0 2.60522,-2.102453 V 2.7333833 H 236.36845 V 20.863231 a 2.7270947,2.7270947 0 0 0 2.80327,2.102453 c 1.37117,0 2.78804,-1.157873 3.30604,-3.717381 0.51799,-6.094066 3.79355,-10.938849 6.09406,-12.0967216 h 3.83926 V 52.765668 c 0,3.702146 -4.82954,1.691104 -4.82954,4.57055 a 2.7728002,2.7728002 0 0 0 3.04703,2.544273 h 24.80285 a 2.4680969,2.4680969 0 0 0 2.52904,-2.544273 c 0,-2.940387 -4.32679,-0.883639 -4.57055,-4.57055"
               id="path612965"
               style="fill:#ffffff;stroke-width:1.52352"
               clip-path="none" /><path
               class="cls-3"
               d="m 41.084096,48.667409 c 0,3.778321 -1.432106,6.215947 -4.997135,6.596827 h -4.1592 V 7.4410496 h 4.738137 c 2.940387,0.5789363 4.418198,2.8032704 4.418198,6.5815914 z M 40.169986,3.0380866 38.753115,2.8704998 Q 37.229599,2.7333833 35.706082,2.7333833 H 10.68994 c -2.803271,0 -4.5705503,0.2132923 -4.5705503,2.30051 0,3.0470332 4.7990773,1.3864001 4.7990773,4.5705498 V 52.994196 c 0,3.199385 -4.7990773,1.523517 -4.7990773,4.57055 0,2.071982 1.736809,2.30051 4.5705503,2.30051 h 25.397021 c 18.404081,-0.41135 27.194772,-14.290586 27.194772,-28.185057 0,-13.483122 -7.891816,-26.5396595 -23.111747,-28.6573476"
               id="path612967"
               style="fill:#ffffff;stroke-width:1.52352"
               clip-path="none" /></g></g></g><symbol
         id="logo-brico-depot-mobile"
         viewBox="0 0 201.12 122.32"
         transform="matrix(1.1371814,0,0,1.1371814,-73.879559,-109.0775)"><g
           id="Calque_2"
           data-name="Calque 2"><g
             id="Calque_1-2"
             data-name="Calque 1"><polyline
               class="cls-1"
               points="124.54 61.05 0 61.05 0 122.32 201.12 122.32 201.12 61.05 152.09 61.05"
               id="polyline611021" /><polygon
               class="cls-2"
               points="0,61.05 124.54,61.05 152.09,61.05 201.12,61.05 201.12,0 0,0 "
               id="polygon611023" /><polygon
               class="cls-3"
               points="138.01,52.57 162.95,63.74 158.52,70.96 138.07,62.03 115.85,70.96 111.42,63.74 "
               id="polygon611025" /><path
               class="cls-3"
               d="m 193.57,29.88 c 0,-9.42 -5.44,-18.67 -17,-19.25 v 0 c -0.73,0 -2.72,0 -2.72,0 -11.56,0.64 -17.44,10.07 -17.44,19.56 0,9.49 5.87,19.07 17.4,19.55 h 2.72 c 11.26,-0.73 17,-10.45 17,-19.83 M 173.86,13.5 a 3.27,3.27 0 0 1 1.12,-0.15 6.51,6.51 0 0 1 1.52,0.2 c 1.74,0.6 2.69,1.62 2.69,3.08 v 26.91 a 3.38,3.38 0 0 1 -2.84,3.17 9.25,9.25 0 0 1 -1.37,0.15 4.85,4.85 0 0 1 -1.12,-0.15 c -2.51,-0.92 -2.84,-2.25 -2.84,-4.22 V 16.8 c 0,-1.38 0.66,-2.55 2.84,-3.3"
               id="path611027" /><path
               class="cls-3"
               d="m 148.58,23.23 c -0.66,-3.59 -4.2,-9.15 -8.54,-9.73 h -2.5 c -2.67,0.58 -3.67,2.55 -3.5,5.27 V 42.2 a 4.71,4.71 0 0 0 3.45,4.5 7.45,7.45 0 0 0 1.33,0.12 3.85,3.85 0 0 0 1.27,-0.12 c 4.32,-0.93 8.17,-3.64 9.33,-7.51 a 1.67,1.67 0 0 1 1.67,-1.19 2.21,2.21 0 0 1 0.36,0 1.83,1.83 0 0 1 1.14,2.51 c -1.67,5.1 -7.38,9 -12.55,9.19 h -2.5 c -12.22,0 -17.93,-9 -18.09,-19.09 0,-9.93 5.85,-19.51 18,-20 h 2.72 c 3.27,0.33 5.93,1.95 7.74,1.95 1.33,-0.17 1.5,-2 2.83,-2 a 1.72,1.72 0 0 1 1.84,1.79 v 11.51 c 0,1.22 -0.65,2.09 -1.5,2.09 a 2.77,2.77 0 0 1 -2.51,-2.72"
               id="path611029" /><path
               class="cls-3"
               d="m 33.84,29.42 v -0.17 c 6.71,-0.42 10.55,-4.64 10.55,-8.69 0,-4.68 -4.34,-9.19 -13.22,-9.19 h -20.6 c -1.83,0 -3,0.14 -3,1.5 0,2 3.14,0.92 3.14,3 v 28.42 c 0,2.09 -3.14,1 -3.14,3 0,1.36 1.14,1.51 3,1.51 h 21.27 c 8.38,0.29 12.71,-4.22 13.05,-8.86 0.5,-5.55 -3,-9.61 -11,-10.52 M 31.17,42.2 c 0,2.84 -1.5,3.59 -4.34,3.59 h -2.5 V 30.93 H 27 c 1.82,0.16 4.18,0.28 4.18,4.34 z M 26.83,27.91 h -2.5 V 14.24 h 2.5 c 1.84,0.13 4.17,1.05 4.34,4.06 v 5.38 c 0.16,3.64 -2.34,4 -4.34,4.22"
               id="path611031" /><path
               class="cls-3"
               d="m 115.17,12.87 c 0,-1.06 -0.66,-1.5 -2,-1.5 H 97.29 c -1.05,0 -2.21,0.63 -2,1.67 0.33,2.09 3.37,0.46 3.2,3.46 v 27.62 c -0.16,2.26 -3.2,1.09 -3.2,3.18 0,0.91 1.08,1.5 1.87,1.5 h 16 c 1.34,0 2,-0.72 2,-1.5 0,-2.27 -3,-0.92 -3.16,-3.18 V 16.05 c 0,-2.26 3,-1.05 3.16,-3.18"
               id="path611033" /><path
               class="cls-3"
               d="m 89.39,42.2 c -1,0 -1.34,1.17 -2.35,1.34 -0.33,0 -0.49,-0.17 -0.49,-0.46 V 37.4 c 0,-3.47 -2.71,-6.19 -9.88,-6.94 v -0.13 c 6.5,-0.91 10,-5.66 10,-9.84 0,-5.6 -5.42,-9.62 -16.92,-9.12 H 52.57 c -1.5,0 -2.17,0.92 -2,1.5 0.17,2.13 3,0.75 3,3.18 v 28.07 c 0,2.42 -2.83,0.92 -3,3.18 -0.17,1 1,1.5 2,1.5 h 15.88 c 1.34,-0.17 1.84,-0.59 1.84,-1.5 0.16,-2 -3,-0.92 -3,-3.18 V 32.24 h 2.5 v 0 c 2.88,0.16 3.38,2.71 3.38,4.38 v 6.44 c 0.32,2 1.5,6.64 8.67,6.64 5.2,0 9.21,-3.93 9.21,-6 A 1.71,1.71 0 0 0 89.39,42.2 M 67.29,14.37 h 2.5 c 1.83,0.45 3.38,1.21 3.38,4 v 7 c 0,3.11 -1,3.75 -3.35,3.87 h -2.53 z"
               id="path611035" /><path
               class="cls-3"
               d="m 76.44,99.15 a 2.22,2.22 0 0 0 -2,1.67 10.84,10.84 0 0 1 -9,7 H 62.55 V 93.24 h 2.5 c 2.5,0.64 3.17,2.26 4,4.53 0.33,1 1,1.5 1.5,1.5 A 1.41,1.41 0 0 0 72.06,98 V 86.2 c 0.17,-1.67 -0.5,-2.09 -1.33,-2.09 -0.34,0 -0.67,0.12 -1,0.12 -1.17,0.63 -0.67,4.82 -4.68,5.91 h -2.5 V 76.43 h 2.68 c 5.72,0.82 9.5,4.76 9.5,7.22 a 1.47,1.47 0 0 0 1.51,1.35 1.32,1.32 0 0 0 1.5,-1.34 V 73.39 H 47.6 c -1,0 -2,0.62 -2,1.38 0.16,2.68 3.38,0.42 3.22,3.77 v 27.69 c 0,2.26 -3.22,1.08 -3.22,3.34 0,0.63 0.85,1.34 2,1.34 h 30.18 v -10.25 a 1.34,1.34 0 0 0 -1.34,-1.51"
               id="path611037" /><path
               class="cls-3"
               d="M 139.74,72.64 H 137 c -11.52,0.67 -17.37,10.11 -17.37,19.59 0,9.48 5.88,19.14 17.44,19.61 h 2.51 c 11.4,-0.63 17.23,-10.43 17.23,-19.9 0,-9.47 -5.46,-18.77 -17.09,-19.3 m 2.7,33 a 3.39,3.39 0 0 1 -2.84,3.18 8.73,8.73 0 0 1 -1.39,0.1 4.09,4.09 0 0 1 -1.12,-0.1 c -2.5,-0.92 -2.83,-2.26 -2.83,-4.23 V 78.83 c 0,-1.37 0.66,-2.54 2.8,-3.3 a 3.33,3.33 0 0 1 1.22,-0.16 4.76,4.76 0 0 1 1.35,0.16 c 1.81,0.59 2.81,1.63 2.81,3.14 z"
               id="path611039" /><path
               class="cls-3"
               d="M 101.31,73.39 H 83.22 c -1.33,0 -2.33,0.29 -2.17,1.5 0.17,2 3,0.92 3,3.19 v 27.85 c 0.17,2.73 -3.17,1.38 -3.17,3.48 0,0.75 0.67,1.5 2.17,1.5 H 99 c 1.2,0 2,-0.75 2,-1.21 0,-2.54 -3,-0.88 -3.17,-3.6 v -9.61 h 2.83 v 0 c 9.87,0.21 16.24,-3 16.41,-10.86 0.16,-7.4 -4,-12 -15.77,-12.22 m 2.37,16.12 c 0,1.89 -0.46,3.62 -3,4 l -2.83,-0.08 v -17 h 3.4 c 1.59,0.44 2.44,1.82 2.44,3.74 z"
               id="path611041" /><path
               class="cls-3"
               d="M 183,106.23 V 76.31 h 2.54 c 3,2.1 3.8,5.55 4.13,7.8 a 2.37,2.37 0 0 0 2.18,2.56 1.6,1.6 0 0 0 1.71,-1.38 v -11.9 h -34.85 v 11.9 a 1.79,1.79 0 0 0 1.84,1.38 c 0.9,0 1.83,-0.76 2.17,-2.44 0.34,-4 2.49,-7.18 4,-7.94 h 2.52 v 29.94 c 0,2.43 -3.17,1.11 -3.17,3 a 1.82,1.82 0 0 0 2,1.67 h 16.28 a 1.62,1.62 0 0 0 1.66,-1.67 c 0,-1.93 -2.84,-0.58 -3,-3"
               id="path611043" /><path
               class="cls-3"
               d="m 30.53,103.54 c 0,2.48 -0.94,4.08 -3.28,4.33 H 24.52 V 76.48 h 3.11 c 1.93,0.38 2.9,1.84 2.9,4.32 z M 29.93,73.59 29,73.48 Q 28,73.39 27,73.39 H 10.58 c -1.84,0 -3,0.14 -3,1.51 0,2 3.15,0.91 3.15,3 v 28.48 c 0,2.1 -3.15,1 -3.15,3 0,1.36 1.14,1.51 3,1.51 h 16.67 c 12.08,-0.27 17.85,-9.38 17.85,-18.5 0,-8.85 -5.18,-17.42 -15.17,-18.81"
               id="path611045" /></g></g></symbol></g></g></svg>
