<?xml version="1.0" encoding="UTF-8"?><svg id="Layer_1" xmlns="http://www.w3.org/2000/svg" viewBox="0 0 544.49 300"><defs><style>.cls-1{fill:#b54e3f;}.cls-2{fill:#fff;}.cls-3{fill:#1d1d1b;}</style></defs><path class="cls-2" d="M542.3,150c0,81.63-120.91,147.8-270.06,147.8S2.2,231.63,2.2,150,123.1,2.2,272.24,2.2s270.06,66.17,270.06,147.8"/><path class="cls-3" d="M272.25,298.08c-72.18,0-140.04-15.39-191.09-43.32C30.06,226.79,1.92,189.59,1.92,150S30.06,73.22,81.16,45.25C132.2,17.31,200.07,1.93,272.25,1.93s140.04,15.38,191.09,43.32c51.1,27.97,79.24,65.17,79.24,104.75s-28.14,76.79-79.24,104.75c-51.04,27.94-118.91,43.32-191.09,43.32m0-295.6c-72.09,0-139.86,15.36-190.83,43.26C30.51,73.6,2.47,110.63,2.47,150s28.04,76.4,78.95,104.27c50.97,27.9,118.74,43.26,190.83,43.26s139.86-15.36,190.82-43.26c50.91-27.87,78.95-64.9,78.95-104.27s-28.04-76.4-78.95-104.27C412.1,17.84,344.34,2.48,272.25,2.48"/><path class="cls-1" d="M272.52,283.38c-68,0-131.97-13.67-180.14-38.48-48.85-25.16-75.76-58.87-75.76-94.9S43.52,80.26,92.38,55.09c48.17-24.82,112.15-38.48,180.14-38.48s131.97,13.67,180.14,38.48c48.85,25.16,75.75,58.87,75.75,94.91s-26.9,69.74-75.75,94.9c-48.17,24.81-112.15,38.48-180.14,38.48"/><path class="cls-2" d="M111.56,123.66h22.67c19.25,0,21.33-13.19,21.33-18.86,0-7.8-3.58-13.72-9.82-16.23l-2.49-1,2.33-1.33c4.39-2.5,6.91-7.57,6.91-13.91,0-3.99-1.26-17-17.45-17h-23.48v3.87h7.19v60.61h-7.19v3.85Zm22.59-3.85h-8.51v-29.6h8.68c12.98,0,14.37,9.7,14.37,13.86,0,9.85-5.44,15.73-14.55,15.73m-.35-33.95h-8.15v-26.67h7.07c8.03,0,13.01,5.3,13.01,13.85,0,8.03-4.46,12.82-11.92,12.82"/><path class="cls-2" d="M163.44,123.66h23.72v-3.67h-8.19v-19.12c0-9.15,1.6-21.32,15.36-21.32h3.5v-6.62h-4.59c-5.85,0-10.83,4.4-13.28,11.76l-.32,.97v-11.83h-16.4v4.22h8.7v41.94h-8.5v3.67Z"/><path class="cls-2" d="M209.22,123.67h20.5v-3.69h-6.73v-46.16h-13.77v4.75h7.06v41.41h-7.06v3.69Zm10.38-73.01c-2.26,0-4.09,2.17-4.09,4.84s1.83,4.83,4.09,4.83,4.08-2.17,4.08-4.83-1.83-4.84-4.08-4.84"/><path class="cls-2" d="M313.61,72.26c-11.78,0-21.37,11.68-21.37,26.05,0,13.38,7.65,26.93,22.26,26.93,9.22,0,16.11-4.76,20-13.79l-4.59-2.44c-3.52,7.65-8.73,11.67-15.12,11.67-9.02,0-15.55-9.46-15.55-22.49,0-11.77,6.38-20.32,15.15-20.32,7.95,0,12.69,7.83,13.55,13h5.57v-17.04h-5.42v5.52l-2.4-2.35c-3.14-3.06-7.43-4.74-12.08-4.74"/><path class="cls-2" d="M376.89,123.66h14.35v-3.68h-7.49v-33.17c0-9.52-4.08-14.54-11.81-14.54-4.66,0-8.99,2.16-14.47,7.22l-2.37,2.19v-30.95h-13.76v6.33h7v62.93h-7.1v3.68h13.86v-37.28l.49-.43c5.46-4.67,10.5-7.24,14.19-7.24,3.24,0,7.1,1.79,7.1,10.34v34.62Z"/><path class="cls-2" d="M259.33,72.26c-13.17,0-23.1,11.38-23.1,26.49s9.89,26.5,23,26.5,23.07-11.39,23.07-26.5-9.87-26.49-22.97-26.49m-.1,47.97c-10.98,0-15.98-11.13-15.98-21.48s5.49-21.47,15.98-21.47,16.06,11.06,16.06,21.47-5.51,21.48-16.06,21.48"/><path class="cls-2" d="M417.33,72.27c-11.06,0-22.99,10.14-22.99,26.52s10.05,26.51,24.45,26.51c9,0,16.52-4.17,21.34-11.78l-4.62-2.45c-3.99,5.71-10.61,9.6-16.51,9.6-9.57,0-17.36-9.06-17.36-20.2v-1.41h39.04c-.58-18.4-12.38-26.8-23.35-26.8m16.89,22.27h-32.3l.27-1.64c1.47-9.05,7.92-15.61,15.33-15.61,9.69,0,15.24,7.85,16.45,15.62l.25,1.63Z"/><path class="cls-1" d="M272.25,300c-72.5,0-140.69-15.47-192.01-43.56-25.07-13.72-44.77-29.72-58.56-47.56C7.29,190.26,0,170.45,0,150s7.29-40.26,21.68-58.88c13.78-17.84,33.49-33.85,58.56-47.57C131.56,15.47,199.75,0,272.25,0s140.69,15.47,192.01,43.56c25.07,13.72,44.77,29.72,58.56,47.57,14.39,18.62,21.68,38.42,21.68,58.88s-7.29,40.26-21.68,58.87c-13.78,17.84-33.49,33.84-58.56,47.56-51.33,28.09-119.51,43.56-192.01,43.56m0-295.61C124.55,4.39,4.39,69.71,4.39,150s120.16,145.61,267.86,145.61,267.86-65.33,267.86-145.61S419.94,4.39,272.25,4.39"/><path class="cls-2" d="M281.64,163.92v-7.35h-25.53v13.7h10.79v43.48h-10.54v13.04h37.84v-13.04h-10.12v-19.44c0-15.55,4.41-22.19,14.76-22.19h8.57v-16.66h-9.9c-6.26,0-11.81,3.05-15.87,8.46"/><path class="cls-2" d="M204.42,154.62c-18.65,0-32.72,15.94-32.72,37.06s14.12,37.08,32.84,37.08,32.73-15.94,32.73-37.08-14.13-37.06-32.86-37.06m.12,59.44c-10.77,0-15.68-11.6-15.68-22.38s5.49-22.35,15.68-22.35,15.56,11.24,15.56,22.35-4.87,22.38-15.56,22.38"/><path class="cls-2" d="M460.44,201.37l-1.22,1.98c-4.02,6.53-11.5,11.26-17.77,11.26-8.82,0-16.11-8-17.13-18.31h48.25v-2.48c0-26.93-17.21-39.19-33.2-39.19s-32.71,14.19-32.71,37.1c0,21.5,14.52,37.1,34.53,37.1,13.33,0,24.36-6.5,31.06-18.29l1.27-2.22-13.07-6.94Zm-34.99-19.16c2.19-7.61,7.83-12.88,14.17-12.88,8.33,0,13.57,6.09,15.55,12.88h-29.72Z"/><path class="cls-2" d="M375.22,203.35c-4.02,6.53-11.5,11.26-17.77,11.26-8.81,0-16.11-8-17.13-18.31h48.25v-2.48c0-18.63-8.95-32.87-23.16-37.56l14.2-14.27h-23.83l-6.49,13.34c-13.43,2.97-26.62,16.15-26.62,36.39,0,21.5,14.52,37.1,34.53,37.1,13.13,0,24.46-6.67,31.05-18.29l1.26-2.22-13.06-6.94-1.22,1.98Zm-33.77-21.13c2.2-7.61,7.84-12.88,14.18-12.88,8.35,0,13.58,6.09,15.54,12.88h-29.72Z"/><path class="cls-2" d="M117.57,141.68h-35.18v14.98h8.93v56.04h-8.93v14.96h34.28c25.38,0,38.8-15.13,38.8-43.75,0-26.44-14.17-42.23-37.89-42.23m-9.52,14.98h9.21c19.49,0,21.59,19.31,21.59,27.6,0,18.87-7.33,28.43-21.79,28.43h-9.01v-56.04Z"/><path class="cls-2" d="M481.47,155.98c-.86-.91-1.97-1.36-3.16-1.36s-2.24,.43-3.06,1.3c-.86,.89-1.34,2.06-1.34,3.28s.45,2.33,1.28,3.21c.85,.87,1.95,1.36,3.12,1.36s2.25-.47,3.12-1.34c.84-.85,1.28-1.96,1.28-3.24s-.43-2.37-1.24-3.23m-.36,6.12c-.77,.8-1.76,1.22-2.83,1.22s-2-.45-2.76-1.22c-.76-.79-1.16-1.82-1.16-2.89s.44-2.13,1.21-2.96c.75-.76,1.68-1.17,2.75-1.17s2.05,.43,2.81,1.23c.74,.81,1.13,1.81,1.13,2.97,0,1.09-.42,2.1-1.16,2.83"/><path class="cls-2" d="M480.5,157.95c0-.91-.7-1.4-2.07-1.4h-1.91v5.14h1.06v-2.14h.77l.96,2.14h1.18l-1.1-2.32c.71-.16,1.1-.66,1.1-1.42m-2.21,.91h-.7v-1.62h.65c.79,0,1.19,.24,1.19,.83s-.37,.79-1.14,.79"/></svg>