<?xml version="1.0" encoding="UTF-8"?>
<svg xmlns="http://www.w3.org/2000/svg" id="Calque_2" viewBox="0 0 353.8 123.35">
  <defs>
    <style>.cls-1{fill:#fff;stroke-width:0px;}</style>
  </defs>
  <g id="Txt">
    <polygon class="cls-1" points="277.81 24.79 277.81 52.25 277.81 52.42 277.81 55.15 269.7 55.15 269.7 52.42 269.7 52.25 269.7 24.79 259.27 24.79 259.27 27.23 259.27 27.4 259.27 31.76 259.27 32.29 259.27 98.2 265.29 98.2 265.6 98.2 267.83 98.2 268.28 98.2 269.7 98.2 269.7 91.65 269.7 91.3 269.7 90.09 269.7 89.89 269.7 85.64 269.7 85.35 269.7 85.06 269.7 84.66 269.7 78.36 269.7 78.29 269.7 74.52 269.7 73.89 269.7 71.94 269.7 71.61 269.7 66.24 277.81 66.24 277.81 71.61 277.81 71.94 277.81 73.89 277.81 74.52 277.81 78.29 277.81 78.36 277.81 84.66 277.81 85.06 277.81 85.35 277.81 85.64 277.81 89.89 277.81 90.09 277.81 91.3 277.81 91.65 277.81 98.2 279.22 98.2 279.68 98.2 281.91 98.2 282.22 98.2 288.24 98.2 288.24 32.29 288.24 31.76 288.24 27.4 288.24 27.23 288.24 24.79 277.81 24.79"></polygon>
    <path class="cls-1" d="m79.49,24.79v58.33s.02.64-.1,1.47c-.07.48-.18,1.02-.38,1.55-.06.17-.13.34-.21.5-.05.11-.11.21-.17.31-.02.04-.04.07-.07.11-.06.09-.12.18-.18.27-.04.05-.08.1-.12.15-.08.1-.17.19-.26.28-.08.08-.17.15-.26.22-.05.04-.11.07-.16.1-.09.06-.18.11-.28.16-.06.03-.12.05-.18.07-.11.04-.23.08-.35.11-.06.01-.11.03-.17.04-.19.03-.38.06-.59.06-.21,0-.4-.02-.59-.06-.06-.01-.11-.03-.17-.04-.12-.03-.24-.06-.35-.11-.06-.02-.12-.05-.18-.07-.1-.05-.19-.1-.28-.16-.05-.03-.11-.06-.16-.1-.09-.07-.17-.14-.26-.22-.09-.09-.18-.18-.27-.28-.04-.05-.08-.09-.12-.15-.06-.09-.12-.18-.18-.27-.02-.04-.05-.07-.07-.11-.06-.1-.12-.21-.17-.31-.08-.16-.15-.33-.21-.5-.19-.53-.31-1.07-.38-1.55-.12-.83-.1-1.47-.1-1.47V24.79h-10.43v58.33s0,.01,0,.03c0,.01,0,.03,0,.05,0,.01,0,.03,0,.05,0,.03,0,.06,0,.1,0,.02,0,.04,0,.06,0,.05,0,.09,0,.15,0,0,0,0,0,0,0,.2.03.47.05.8,0,.01,0,.03,0,.04.23,2.69,1.3,9,6.13,12.38,0,0,.02.01.02.02.34.24.7.47,1.09.68h0s0,0,0,0c.41.22.85.42,1.31.6.07.03.13.05.2.07.45.17.92.32,1.41.44.01,0,.02,0,.04.01.49.12,1.02.21,1.56.27.12.02.24.03.36.04.55.06,1.12.1,1.72.1,0,0,0,0,0,0s0,0,0,0c.6,0,1.17-.04,1.72-.1.12-.01.24-.03.36-.04.54-.07,1.06-.16,1.56-.27.01,0,.02,0,.04-.01.5-.12.96-.27,1.41-.44.07-.02.13-.05.2-.07.46-.18.9-.38,1.31-.6,0,0,0,0,0,0h0c.38-.21.74-.44,1.09-.68,0,0,.01,0,.02-.01,4.83-3.38,5.89-9.69,6.13-12.38,0-.01,0-.03,0-.04.03-.32.04-.59.05-.8,0,0,0,0,0,0,0-.06,0-.1,0-.15,0-.02,0-.04,0-.06,0-.04,0-.07,0-.1,0-.02,0-.03,0-.05,0-.02,0-.04,0-.05,0-.02,0-.03,0-.03V24.79h-10.43Z"></path>
    <path class="cls-1" d="m180.91,24.79v58.33s.02.64-.1,1.47c-.07.48-.18,1.02-.38,1.55-.06.17-.13.34-.21.5-.05.11-.11.21-.17.31-.02.04-.04.07-.07.11-.06.09-.12.18-.18.27-.04.05-.08.1-.12.15-.08.1-.17.19-.26.28-.08.08-.17.15-.26.22-.05.04-.11.07-.16.1-.09.06-.18.11-.28.16-.06.03-.12.05-.18.07-.11.04-.23.08-.35.11-.06.01-.11.03-.17.04-.19.03-.38.06-.59.06-.21,0-.4-.02-.59-.06-.06-.01-.11-.03-.17-.04-.12-.03-.24-.06-.35-.11-.06-.02-.12-.05-.18-.07-.1-.05-.19-.1-.28-.16-.05-.03-.11-.06-.16-.1-.09-.07-.17-.14-.26-.22-.09-.09-.18-.18-.27-.28-.04-.05-.08-.09-.12-.15-.06-.09-.12-.18-.18-.27-.02-.04-.05-.07-.07-.11-.06-.1-.12-.21-.17-.31-.08-.16-.15-.33-.21-.5-.19-.53-.31-1.07-.38-1.55-.12-.83-.1-1.47-.1-1.47V24.79h-10.43v58.33s0,.01,0,.03c0,.01,0,.03,0,.05,0,.01,0,.03,0,.05,0,.03,0,.06,0,.1,0,.02,0,.04,0,.06,0,.05,0,.09,0,.15,0,0,0,0,0,0,0,.2.03.47.05.8,0,.01,0,.03,0,.04.23,2.69,1.3,9,6.13,12.38,0,0,.02.01.02.02.34.24.7.47,1.09.68h0s0,0,0,0c.41.22.85.42,1.31.6.07.03.13.05.2.07.45.17.92.32,1.41.44.01,0,.02,0,.04.01.49.12,1.02.21,1.56.27.12.02.24.03.36.04.55.06,1.12.1,1.72.1,0,0,0,0,0,0s0,0,0,0c.6,0,1.17-.04,1.72-.1.12-.01.24-.03.36-.04.54-.07,1.06-.16,1.56-.27.01,0,.02,0,.04-.01.5-.12.96-.27,1.41-.44.07-.02.13-.05.2-.07.46-.18.9-.38,1.31-.6,0,0,0,0,0,0h0c.38-.21.74-.44,1.09-.68,0,0,.01,0,.02-.01,4.83-3.38,5.89-9.69,6.13-12.38,0-.01,0-.03,0-.04.03-.32.04-.59.05-.8,0,0,0,0,0,0,0-.06,0-.1,0-.15,0-.02,0-.04,0-.06,0-.04,0-.07,0-.1,0-.02,0-.03,0-.05,0-.02,0-.04,0-.05,0-.02,0-.03,0-.03V24.79h-10.43Z"></path>
    <polygon class="cls-1" points="92.43 24.79 92.43 35.88 102.28 35.88 102.28 98.2 102.28 98.2 112.71 98.2 112.71 98.2 112.71 35.88 122.56 35.88 122.56 24.79 92.43 24.79"></polygon>
    <polygon class="cls-1" points="194.23 24.79 194.23 35.88 204.08 35.88 204.08 98.2 204.08 98.2 214.51 98.2 214.51 98.2 214.51 35.88 224.36 35.88 224.36 24.79 194.23 24.79"></polygon>
    <path class="cls-1" d="m244.5,49.96h9.75v-10.09s.1-15.88-13.91-15.88-13.91,15.88-13.91,15.88v43.25s-.1,15.88,13.91,15.88,13.91-15.88,13.91-15.88v-10.09h-9.75v10.09s.39,5.39-3.96,5.39c-3.67,0-3.67-5.39-3.67-5.39v-43.25s0-5.39,3.67-5.39c4.35,0,3.96,5.39,3.96,5.39v10.09Z"></path>
    <polygon class="cls-1" points="318.05 35.88 318.05 24.79 294.19 24.79 294.19 98.2 318.05 98.2 318.05 87.12 304.63 87.12 304.63 66.94 314.28 66.94 314.28 55.15 304.63 55.15 304.63 35.88 318.05 35.88"></polygon>
    <rect class="cls-1" width="353.8" height="13.75"></rect>
    <rect class="cls-1" y="109.6" width="353.8" height="13.75"></rect>
    <path class="cls-1" d="m20.09,55.59l-.25-.22c-.48-.41-.85-.63-1-.71,0,0-.01,0-.02,0v-.02s-.05-.02-.05-.02c.02-.02.27-.26.27-.26,4.02-3.77,5.2-7.11,5.2-12.84,0-12.58-5.55-16.81-16.09-16.81H.41v63.35h10.86c2.02-.08,3.77-.45,5.27-1.06l.26-.11c6.13-2.64,8.1-9.34,8.1-16.75,0-8.84-3.02-12.91-4.82-14.55Zm-10.87,23.26v-19.48c1.63,0,6.53-.69,6.53,9.74s-4.9,9.74-6.53,9.74Zm0-28.01v-16.89c1.63,0,6.53-.26,6.53,8.45s-4.9,8.45-6.53,8.45Z"></path>
    <path class="cls-1" d="m154.3,55.59l-.25-.22c-.48-.41-.85-.63-1-.71,0,0-.01,0-.02,0v-.02s-.05-.02-.05-.02c.02-.02.27-.26.27-.26,4.02-3.77,5.2-7.11,5.2-12.84,0-12.58-5.55-16.81-16.09-16.81h-7.76v63.35h10.86c2.02-.08,3.77-.45,5.27-1.06l.26-.11c6.13-2.64,8.1-9.34,8.1-16.75,0-8.84-3.02-12.91-4.82-14.55Zm-10.87,23.26v-19.48c1.63,0,6.53-.69,6.53,9.74s-4.9,9.74-6.53,9.74Zm0-28.01v-16.89c1.63,0,6.53-.26,6.53,8.45s-4.9,8.45-6.53,8.45Z"></path>
    <rect class="cls-1" x=".41" y="93.35" width="23.06" height="4.81"></rect>
    <rect class="cls-1" x="134.43" y="93.35" width="23.06" height="4.81"></rect>
    <path class="cls-1" d="m52.22,62.65c.18-.13.61-.48.61-.48,3.54-3.02,5.18-9.29,5.18-16.2,0-3.1-.29-5.86-.86-8.3l-.08-.35c-.14-.56-.29-1.09-.46-1.61l-.11-.35c-2.37-6.91-7.6-10.55-16.26-10.55h-10.43v73.41h10.43v-30.96h2.8l5.41,30.96h10.43l-6.66-35.56Zm-4.88-10.71c-.05.17-.1.35-.16.53-1.49,4.56-4.76,4.79-6.93,4.79v-21.77c2.9,0,7.73.4,7.73,10.89,0,2.31-.24,4.13-.63,5.57,0,0,0,0,0,0Z"></path>
    <path class="cls-1" d="m346.41,62.65c.18-.13.61-.48.61-.48,3.54-3.02,5.18-9.29,5.18-16.2,0-3.1-.29-5.86-.86-8.3l-.08-.35c-.14-.56-.29-1.09-.46-1.61l-.11-.35c-2.37-6.91-7.6-10.55-16.26-10.55h-10.43v73.41h10.43v-30.96h2.8l5.41,30.96h10.43l-6.66-35.56Zm-4.88-10.71c-.05.17-.1.35-.16.53-1.49,4.56-4.76,4.79-6.93,4.79v-21.77c2.9,0,7.73.4,7.73,10.89,0,2.31-.24,4.13-.63,5.57,0,0,0,0,0,0Z"></path>
  </g>
</svg>
