<?xml version="1.0" encoding="UTF-8" standalone="no"?>
<!-- Created with Inkscape (http://www.inkscape.org/) -->
<svg
   xmlns:svg="http://www.w3.org/2000/svg"
   xmlns="http://www.w3.org/2000/svg"
   xmlns:xlink="http://www.w3.org/1999/xlink"
   version="1.0"
   width="367.79001"
   height="116.39"
   id="Calque_1"
   xml:space="preserve"><defs
   id="defs56">
	<defs
   id="defs13">
		<rect
   width="106.39"
   height="357.79001"
   x="0.003"
   y="0"
   id="SVGID_1_" />
	</defs>
	<clipPath
   id="SVGID_2_">
		<use
   style="overflow:visible"
   id="use17"
   x="0"
   y="0"
   width="106.393"
   height="357.79001"
   xlink:href="#SVGID_1_" />
	</clipPath>
	
	
	
	
</defs>


















<g
   transform="translate(130.697,-120.7)"
   id="g4559"><g
     id="g4555"><path
       d="M 119.449,152.314 L 192.881,152.314 C 210.975,149.642 222.466,138.302 232.093,125.701 C 232.093,140.924 228.414,155.992 217.376,169.197 C 209.06,179.227 193.587,188.349 173.881,188.399 L 119.449,188.399 L 119.449,152.314"
       style="fill:#c23c42"
       id="path3" /><path
       d="M -13.103,152.314 L -86.486,152.314 C -104.579,149.642 -116.07,138.302 -125.697,125.7 C -125.697,140.923 -122.018,155.991 -110.98,169.197 C -102.664,179.227 -86.838,188.349 -67.485,188.399 L -13.053,188.399 L -13.103,152.314"
       style="fill:#c23c42"
       id="path5" /></g><g
     id="g4536"><g
       id="g4387"><path
         d="M 75.096,215.867 L 70.056,215.867 L 70.056,222.168 L 67.285,222.168 C 67.285,217.38 67.285,208.509 67.285,205.435 L 68.495,205.435 L 68.495,195.708 L 60.128,195.708 L 60.128,205.435 L 62.043,205.435 L 62.043,222.115 L 60.128,222.115 L 60.128,231.592 L 75.097,231.592 L 75.097,215.867"
         style="fill:#c23c42"
         id="path7" /><path
         d="M 92.384,215.867 L 87.344,215.867 L 87.344,222.168 L 84.573,222.168 C 84.573,217.38 84.573,208.509 84.573,205.435 L 85.782,205.435 L 85.782,195.708 L 77.416,195.708 L 77.416,205.435 L 79.332,205.435 L 79.332,222.115 L 77.416,222.115 L 77.416,231.592 L 92.385,231.592 L 92.385,215.867"
         style="fill:#c23c42"
         id="path9" /><path
         d="M 9.978,183.406 L 9.925,182.196 C 14.713,182.247 23.634,182.196 26.709,182.196 L 26.709,183.557 L 36.437,183.557 L 36.437,175.543 L 26.659,175.543 L 26.71,176.904 L 9.978,176.904 L 9.925,175.644 L 0.501,175.644 L 0.501,183.406 L 9.978,183.406"
         transform="matrix(0,-1,1,0,-125.697,232.093)"
         style="fill:#c23c42"
         clip-path="url(#SVGID_2_)"
         id="path19" /><path
         d="M 36.437,152.208 L 36.437,147.672 L 35.531,147.269 C 37.847,145.908 37.999,139.154 31.397,138.902 C 23.836,138.751 13.707,138.751 6.902,138.902 C -3.784,139.104 0.35,151.049 3.423,150.041 L 0.551,150.696 L 0.551,152.511 L 15.419,152.511 L 15.419,154.022 L 20.762,154.022 L 20.762,146.009 L 15.319,146.059 L 15.319,147.47 C 12.093,147.722 10.177,146.311 10.279,145.454 C 10.381,144.698 10.177,143.792 18.444,143.741 C 27.919,143.69 27.063,144.95 27.063,146.009 C 27.063,147.067 26.106,147.37 22.728,147.37 L 22.728,152.208 L 36.437,152.208"
         transform="matrix(0,-1,1,0,-125.697,232.093)"
         style="fill:#c23c42"
         clip-path="url(#SVGID_2_)"
         id="path21" /><path
         d="M 30.28125,195.65625 L 30.28125,205.4375 L 32.15625,205.4375 L 32.15625,222.03125 L 30.59375,222.03125 L 30.59375,231.59375 L 38.71875,231.59375 L 38.71875,222.15625 L 37.15625,222.15625 L 37.15625,214.40625 C 38.365249,214.60825 40.1125,213.8885 40.0625,216.8125 C 40.112499,220.8445 40.00525,227.7535 40.15625,229.0625 C 40.56025,233.2465 48.09375,231.8835 48.09375,229.3125 L 48.09375,217.84375 C 48.093748,217.39075 46.61875,217.33975 46.71875,217.84375 C 46.416748,218.85175 46.97475,221.45025 46.21875,222.15625 C 46.21875,222.15625 45.32175,222.17075 44.96875,221.96875 C 44.162748,221.46475 46.564,212.08225 41.625,212.03125 C 43.438999,211.88025 44.719,210.23575 45.375,207.96875 C 46.887,202.97875 45.295251,195.10126 40.40625,195.65625 C 38.13925,195.65625 38.093251,195.65626 30.28125,195.65625 z M 37,205.375 C 38.21,205.426 40.129249,205.1245 40.28125,206.6875 L 40.28125,209.78125 C 40.281249,209.88226 39.318,210.83 37,210.375 L 37,205.375 z "
         transform="translate(0,-8.0696914e-6)"
         style="fill:#c23c42"
         clip-path="url(#SVGID_2_)"
         id="path23" /></g><g
       id="g4394"><path
         d="M 93.796,172.624 L 88.755,172.624 L 88.755,178.924 L 85.984,178.924 C 85.984,174.137 85.984,165.266 85.984,162.191 L 87.193,162.191 L 87.193,152.464 L 78.826,152.464 L 78.826,162.191 L 80.742,162.191 L 80.742,178.874 L 78.826,178.874 L 78.826,188.349 L 93.796,188.349 L 93.796,172.624"
         style="fill:#c23c42"
         id="path27" /><path
         d="M 38.86,178.874 L 37.146,178.874 L 37.146,172.573 L 41.127,172.573 L 41.127,168.995 L 37.197,168.995 C 37.197,166.879 37.197,164.156 37.197,162.04 L 39.716,162.04 L 39.716,167.383 L 43.899,167.383 L 43.899,152.464 L 29.586,152.464 L 29.586,162.141 L 31.097,162.141 L 31.148,178.824 L 29.586,178.824 L 29.586,188.349 L 38.809,188.349 L 38.86,178.874"
         style="fill:#c23c42"
         id="path29" /><path
         d="M 102.5,152 C 93.984,151.95 95.193753,159.7345 95.34375,169.5625 C 95.34375,169.8145 95.343753,170.09275 95.34375,170.34375 C 95.394753,179.86975 94.1455,188.90625 102.5625,188.90625 C 110.9285,188.90625 109.924,179.87075 109.875,170.34375 C 109.875,170.09275 109.875,169.8145 109.875,169.5625 C 109.875,159.7345 110.968,152.05 102.5,152 z M 102.65625,161.6875 C 104.62225,161.6875 104.28125,165.3285 104.28125,169.5625 C 104.28125,169.8145 104.28125,170.04075 104.28125,170.34375 C 104.38225,174.47675 104.52125,179.0625 102.65625,179.0625 C 100.74125,179.06251 101.0115,174.83075 101.0625,170.34375 C 101.0625,170.09275 101.0625,169.8145 101.0625,169.5625 C 101.0625,165.6825 100.63925,161.6875 102.65625,161.6875 z "
         transform="translate(0,-8.0696914e-6)"
         style="fill:#c23c42"
         id="path31" /><path
         d="M 64.96875,152.46875 L 61.125,178.78125 L 59.875,178.78125 L 59.875,188.3125 L 66.9375,188.3125 L 66.9375,178.8125 L 65.03125,178.8125 L 65.71875,174.5 L 68.9375,174.5 L 69.75,178.78125 L 68.4375,178.78125 L 68.4375,188.3125 L 77.25,188.3125 L 77.25,178.8125 L 75.3125,178.8125 L 71.15625,152.46875 L 64.96875,152.46875 z M 67.1875,161.28125 L 67.59375,161.28125 L 68.84375,170.46875 L 66.1875,170.46875 L 67.1875,161.28125 z "
         transform="translate(0,-8.0696914e-6)"
         style="fill:#c23c42"
         id="polyline35" /><path
         d="M 55.389,178.823 L 53.726,178.823 L 53.726,172.523 L 57.708,172.523 L 57.708,168.995 L 53.676,168.995 C 53.676,166.879 53.676,164.106 53.676,161.989 L 56.296,161.989 L 56.296,167.332 L 60.481,167.332 L 60.429,152.464 L 46.216,152.464 L 46.216,162.091 L 47.679,162.091 L 47.679,178.874 L 46.167,178.874 L 46.167,188.349 L 55.389,188.349 L 55.389,178.823"
         style="fill:#c23c42"
         id="path39" /><path
         d="M 19.808,152.464 L 19.808,161.989 L 19.052,161.989 L 18.951,177.715 C 18.951,178.471 19.253,179.731 20.614,179.681 C 22.025,179.63 22.177,178.27 22.177,177.715 L 22.177,161.989 L 21.219,161.989 L 21.219,152.464 C 23.84,152.464 24.142,152.515 27.62,152.464 L 27.62,161.989 L 26.057,161.989 L 26.057,184.418 C 26.057,190.818 13.961,191.171 13.961,184.418 C 13.961,177.613 13.961,168.844 13.961,161.989 L 12.399,161.989 L 12.399,152.464 L 19.808,152.464"
         style="fill:#c23c42"
         id="path41" /><path
         d="M -4.84375,152.40625 L -4.84375,162.03125 L -3.0625,162.03125 L -3.0625,178.78125 L -4.84375,178.78125 L -4.875,188.1875 L 4.875,188.25 C 6.7909999,188.25 9.71475,187.49775 10.21875,183.71875 C 10.52075,181.60176 10.9895,178.224 10.6875,175.25 C 10.4345,172.578 9.4752497,170.2425 7.15625,169.6875 C 8.97125,169.2345 9.8355,167.43149 10.1875,165.0625 C 10.4905,162.6925 10.24675,159.87101 9.84375,157.25 C 9.64175,155.737 9.4249998,152.35425 3.125,152.40625 C 1.21,152.40625 -1.3657502,152.40625 -4.84375,152.40625 z M 1.96875,162.03125 C 2.92675,162.08225 5.2384999,161.371 4.9375,165 C 4.9375,165.049 4.9374999,165.10525 4.9375,165.15625 C 4.6845,167.17225 4.7407499,168.08124 1.96875,168.03125 L 1.96875,162.03125 z M 1.96875,171.90625 C 2.87575,171.95725 5.3009998,171.872 5.25,175.25 C 5.2499998,175.45 5.1875,175.65425 5.1875,175.90625 C 4.9365,177.92325 5.4582499,178.81975 2.03125,178.71875 L 1.96875,171.90625 z "
         transform="translate(0,-8.0696914e-6)"
         style="fill:#c23c42"
         id="path43" /></g><path
       d="M 102.513,199.185 L 102.513,197.572 L 105.084,197.572 C 105.991,197.572 106.899,197.926 106.899,199.135 L 106.899,199.185 L 106.143,199.185 C 106.143,198.329 105.487,198.279 105.133,198.279 L 103.269,198.279 L 103.269,199.185 L 102.513,199.185"
       style="fill:#c23c42"
       id="path49" /><path
       d="M 102.513,199.185 L 102.513,203.116 L 103.27,203.116 L 103.27,200.748 L 105.084,200.748 C 105.991,200.748 106.092,201.302 106.092,201.756 C 106.092,202.008 106.092,202.815 106.193,203.116 L 107.1,203.116 L 107.1,203.015 C 106.848,202.915 106.848,202.814 106.797,202.511 L 106.747,201.503 C 106.747,200.747 106.444,200.596 106.143,200.444 C 106.495,200.243 106.899,199.89 106.899,199.184 L 106.143,199.184 C 106.143,199.991 105.537,200.142 104.983,200.142 L 103.269,200.142 L 103.269,199.184 L 102.513,199.184"
       style="fill:#c23c42"
       id="path51" /><path
       d="M 100.428,200.442 C 100.428,198.064 102.363,196.129 104.741,196.129 C 107.119,196.129 109.054,198.064 109.054,200.442 C 109.054,202.82 107.119,204.756 104.741,204.756 C 102.362,204.756 100.428,202.82 100.428,200.442 M 99.728,200.442 C 99.728,203.208 101.976,205.457 104.741,205.457 C 107.504,205.457 109.754,203.208 109.754,200.442 C 109.754,197.677 107.504,195.429 104.741,195.429 C 101.976,195.429 99.728,197.677 99.728,200.442 z "
       style="fill:#c23c42"
       id="path53" /></g></g>
</svg>