<?xml version="1.0" encoding="UTF-8"?>
<svg id="svg833" xmlns="http://www.w3.org/2000/svg" xmlns:svg="http://www.w3.org/2000/svg" xmlns:rdf="http://www.w3.org/1999/02/22-rdf-syntax-ns#" xmlns:dc="http://purl.org/dc/elements/1.1/" xmlns:cc="http://creativecommons.org/ns#" version="1.1" viewBox="0 0 500 500">
  <!-- Generator: Adobe Illustrator 29.4.0, SVG Export Plug-In . SVG Version: 2.1.0 Build 152)  -->
  <defs>
    <style>
      .st0 {
        fill: #fff;
      }
    </style>
  </defs>
  <g id="g841">
    <g id="g22586">
      <path id="path22367" class="st0" d="M122.7,258.9h-15.7v33.9h16.2c10.7,0,15.3-7.1,15.3-17.7s-2.6-16.2-15.7-16.2M107,202.9v29.4h16.8c10.2,0,13.7-7.3,13.7-16s-4.2-13.4-14.2-13.4h-16.3ZM128.3,316h-58.2v-136.5h63.6c20.8,0,37.6,8.4,37.6,33.5s-5.4,25.3-21.2,30.2c14,3.5,26.3,14.3,26.3,30.7,0,24.9-15.4,42.1-48.1,42.1"/>
      <path id="path22371" class="st0" d="M435.8,210.3h-33.7v105.2h-37.7v-105.2h-33.7v-28.5h105.2v28.5Z"/>
      <path id="path22375" class="st0" d="M272.1,181.1v91.4c0,12.3-3.8,19.8-16.9,19.8s-16.9-7.4-16.9-19.8v-91.4h-37.5v92.4c0,17.9,1.7,21.2,7.1,28.5,8.8,11,24.4,15.2,47.3,15.2s38.6-4.2,47.3-15.2c5.4-7.3,7.1-10.6,7.1-28.5v-92.4h-37.5Z"/>
    </g>
  </g>
</svg>