<?xml version="1.0" encoding="UTF-8"?>
<svg id="Calque_1" xmlns="http://www.w3.org/2000/svg" version="1.1" viewBox="0 0 364.4 34.4">
  <!-- Generator: Adobe Illustrator 29.4.0, SVG Export Plug-In . SVG Version: 2.1.0 Build 152)  -->
  <defs>
    <style>
      .st0 {
        fill: #ffe524;
      }
    </style>
  </defs>
  <g id="LOGO_CCH-2">
    <path id="Tracé_372" d="M128.6,33.7v-13.8h-15.2v13.8h-6.3V.6h6.3v13.8h15.2V.6h6.3v33.1h-6.3Z"/>
    <path id="Tracé_373" d="M150.2,6.2v8.3h12.9v5.5h-12.9v8.2h15.7v5.5h-22V.6h22v5.5h-15.7Z"/>
    <path id="Tracé_374" d="M95.9,24.2c-2.1,2.5-5.1,3.9-8.3,3.9-6,0-10.8-4.9-10.8-10.8,0-6,4.8-10.8,10.8-10.8h0c3.2,0,6.2,1.4,8.3,3.8l4.8-4.1C97.5,2.3,92.7,0,87.6,0c-9.5,0-17.2,7.7-17.2,17.2h0c0,9.5,7.7,17.2,17.2,17.2h0c5.1,0,9.9-2.2,13.1-6.1l-4.8-4.1Z"/>
    <path id="Tracé_375" d="M25.5,24.1c-2.1,2.5-5.1,3.9-8.3,3.9-6,0-10.8-4.8-10.8-10.8h0c0-6,4.8-10.8,10.8-10.8h0c3.2,0,6.2,1.4,8.3,3.8l4.8-4.1C27,2.2,22.2,0,17.2,0,7.7,0,0,7.7,0,17.2c0,9.5,7.7,17.2,17.2,17.2h0c5.1,0,9.9-2.2,13.1-6.1l-4.8-4.1Z"/>
    <path id="Tracé_376" d="M47.8,19.5h6.5l-3.3-8-3.3,8ZM48.6.6h4.9l13.5,33.1h-6.9l-3.5-8.7h-11.1s-3.5,8.7-3.5,8.7h-6.9L48.6.6Z"/>
    <path id="Tracé_377" class="st0" d="M364.4,28.1c0,3.1-2.5,5.7-5.7,5.7-3.1,0-5.7-2.5-5.7-5.7h0c0-3.1,2.5-5.7,5.7-5.7h0c3.1,0,5.7,2.5,5.7,5.7"/>
    <path id="Tracé_378" d="M274.5,30.6c-.1,0-.2.2-.4.3.1,0,.2-.2.4-.3"/>
    <path id="Tracé_379" d="M273.8,31c-.1,0-.3.2-.4.3.1,0,.3-.2.4-.3"/>
    <path id="Tracé_380" d="M276.9,28.2h0s0,0,0,0"/>
    <path id="Tracé_381" d="M275.1,30c-.1,0-.2.2-.3.2.1,0,.2-.2.3-.2"/>
    <path id="Tracé_382" d="M276.2,29c0,0,.1-.1.2-.2l-.2.2"/>
    <path id="Tracé_383" d="M246.6,17.1c0-3.7,1.2-7.3,3.4-10.3-2.2,3-3.4,6.6-3.4,10.3,0,9.5,7.7,17.2,17.2,17.2,3.4,0,6.7-1,9.5-2.9-2.8,1.9-6.1,2.8-9.5,2.8-9.5,0-17.2-7.7-17.2-17.2h0"/>
    <path id="Tracé_384" d="M275.7,29.4c0,0-.2.1-.2.2,0,0,.2-.1.2-.2"/>
    <path id="Tracé_385" d="M275.5,29.7c-.1.1-.3.2-.4.4.1-.1.3-.2.4-.4"/>
    <path id="Tracé_386" d="M276.2,29c-.1.2-.3.3-.4.4.2-.1.3-.3.4-.4"/>
    <path id="Tracé_387" d="M274.8,30.3c-.1,0-.2.2-.3.3.1,0,.2-.2.3-.3"/>
    <path id="Tracé_388" d="M274.1,30.8c-.1,0-.2.1-.3.2.1,0,.2-.1.3-.2"/>
    <path id="Tracé_389" d="M276.9,28.3c-.2.2-.3.4-.5.6.2-.2.3-.4.5-.6"/>
    <path id="Tracé_390" d="M273.4,31.4c0,0-.1,0-.2.1,0,0,.1,0,.2-.1"/>
    <path id="Tracé_391" d="M275,26.6c-2.8,3.3-6.9,5.2-11.3,5.2-8.1,0-14.7-6.6-14.7-14.7,0-8.1,6.6-14.7,14.7-14.7,4.3,0,8.4,1.9,11.2,5.2l1.9-1.6C273.6,2.2,268.8,0,263.8,0c-5.4,0-10.5,2.5-13.7,6.9-2.2,3-3.4,6.6-3.4,10.3,0,9.5,7.7,17.2,17.2,17.2h0c3.4,0,6.7-1,9.5-2.8,0,0,.1,0,.2-.1.1,0,.3-.2.4-.3.1,0,.2-.1.3-.2.1,0,.2-.2.4-.3s.2-.2.3-.3c.1,0,.2-.2.3-.2.1-.1.3-.2.4-.4,0,0,.2-.1.2-.2.2-.1.3-.3.4-.4l.2-.2c.2-.2.3-.4.5-.6h0c0,0-1.9-1.6-1.9-1.6Z"/>
    <path id="Tracé_392" d="M270.2,22.6c-1.6,1.9-4,3-6.4,3-4.6,0-8.4-3.8-8.4-8.4,0-4.6,3.8-8.4,8.4-8.4,2.5,0,4.8,1.1,6.4,2.9l1.9-1.6c-2.1-2.4-5.1-3.8-8.2-3.8-6,0-10.8,4.9-10.8,10.8,0,6,4.9,10.8,10.8,10.8,3.2,0,6.2-1.4,8.3-3.9l-1.9-1.6Z"/>
    <path id="Tracé_393" d="M204.1,30.6c-.1,0-.2.2-.4.3.1,0,.2-.2.4-.3"/>
    <path id="Tracé_394" d="M203.5,31c-.1,0-.3.2-.4.3.1,0,.3-.2.4-.3"/>
    <path id="Tracé_395" d="M206.5,28.2h0s0,0,0,0"/>
    <path id="Tracé_396" d="M204.8,30c-.1,0-.2.2-.3.2.1,0,.2-.2.3-.2"/>
    <path id="Tracé_397" d="M205.8,29c0,0,.1-.1.2-.2,0,0-.1.1-.2.2"/>
    <path id="Tracé_398" d="M176.3,17.1c0-3.7,1.2-7.3,3.4-10.3-2.2,3-3.4,6.6-3.4,10.3,0,9.5,7.7,17.2,17.2,17.2,3.4,0,6.7-1,9.5-2.9-2.8,1.9-6.1,2.8-9.5,2.8-9.5,0-17.2-7.7-17.2-17.2h0"/>
    <path id="Tracé_399" d="M205.4,29.4l-.2.2.2-.2"/>
    <path id="Tracé_400" d="M205.2,29.7c-.1.1-.3.2-.4.4.1-.1.3-.2.4-.4"/>
    <path id="Tracé_401" d="M205.8,29c-.1.2-.3.3-.4.4.1-.1.3-.3.4-.4"/>
    <path id="Tracé_402" d="M204.5,30.3c-.1,0-.2.2-.4.3.1,0,.2-.2.4-.3"/>
    <path id="Tracé_403" d="M203.8,30.8c0,0-.2.1-.3.2.1,0,.2-.1.3-.2"/>
    <path id="Tracé_404" d="M206.5,28.3c-.2.2-.3.4-.5.6.2-.2.3-.4.5-.6"/>
    <path id="Tracé_405" d="M203,31.4c0,0-.1,0-.2.1,0,0,.1,0,.2-.1"/>
    <path id="Tracé_406" d="M204.7,26.6c-2.8,3.3-6.9,5.2-11.3,5.2-8.1,0-14.7-6.6-14.7-14.7,0-8.1,6.6-14.7,14.7-14.7,4.3,0,8.4,1.9,11.2,5.2l1.9-1.6C203.2,2.2,198.5,0,193.4,0c-5.4,0-10.5,2.5-13.7,6.9-2.2,3-3.4,6.6-3.4,10.3,0,9.5,7.7,17.2,17.2,17.2,3.4,0,6.7-1,9.5-2.8,0,0,.1,0,.2-.1.1,0,.3-.2.4-.3.1,0,.2-.1.3-.2.1,0,.2-.2.4-.3s.2-.2.4-.3c.1,0,.2-.2.3-.2.1-.1.3-.2.4-.4,0,0,.2-.1.2-.2.1-.1.3-.3.4-.4l.2-.2c.2-.2.3-.4.5-.6h0c0,0-1.9-1.6-1.9-1.6Z"/>
    <path id="Tracé_407" d="M199.9,22.6c-1.6,1.9-4,3-6.4,3-4.6,0-8.4-3.8-8.4-8.4,0-4.6,3.8-8.4,8.4-8.4,2.5,0,4.8,1.1,6.4,2.9l1.9-1.6c-2.1-2.4-5.1-3.8-8.2-3.8-6,0-10.8,4.9-10.8,10.8,0,6,4.9,10.8,10.8,10.8,3.2,0,6.2-1.4,8.3-3.9l-1.9-1.6Z"/>
    <rect id="Rectangle_15" x="283.2" y=".7" width="2.4" height="33"/>
    <rect id="Rectangle_16" x="308.6" y=".7" width="2.4" height="33"/>
    <path id="Tracé_408" d="M289.5,18.9v14.8h2.4v-12.4h10.4v12.4h2.4v-14.8h-15.2Z"/>
    <path id="Tracé_409" d="M304.7,15.4V.7h-2.4v12.3h-10.4V.7h-2.4v14.8h15.2Z"/>
    <path id="Tracé_410" d="M342,.7h-22v33.1h22v-2.4h-19.6V3.1h19.6V.7Z"/>
    <path id="Tracé_411" d="M326.3,15.4h12.9s0-2.4,0-2.4h-10.5v-4.1h13.3v-2.4h-15.7v8.9Z"/>
    <path id="Tracé_412" d="M326.3,18.9h12.9v2.4h-10.5v4.1h13.3v2.4h-15.7v-9Z"/>
    <path id="Tracé_413" d="M220.7,24.8l-3.7,8.9h2.6l2.7-6.5h10l2.7,6.5h2.6l-3.7-8.9h-13.3Z"/>
    <path id="Tracé_414" d="M225.1,19.5l2.2-5.4,2.2,5.4h-4.4ZM221.9,21.6h10.9l-5.5-13.2-5.4,13.2Z"/>
    <path id="Tracé_415" d="M230.4.7h-6.4l-13.8,33.1h2.6l12.8-30.6h3.2s12.9,30.6,12.9,30.6h2.6L230.4.7Z"/>
  </g>
</svg>