<?xml version="1.0" encoding="UTF-8"?>
<svg id="Calque_1" xmlns="http://www.w3.org/2000/svg" version="1.1" viewBox="0 0 2500 432">
  <!-- Generator: Adobe Illustrator 29.4.0, SVG Export Plug-In . SVG Version: 2.1.0 Build 152)  -->
  <defs>
    <style>
      .st0 {
        fill: #fff;
      }

      .st1 {
        fill: #fd0;
      }
    </style>
  </defs>
  <path class="st0" d="M175.7,279.7c-14.9,14-29.3,23.4-50.4,23.4-31.9,0-55.1-25.2-55.1-60v-.8c0-33.3,23.1-59.1,52.5-59.1s36.1,9.7,49.9,24.2l2.2,2.3,43.8-47-1.8-2c-24.4-27.2-53.2-39.3-93.7-39.3s-65.7,12.5-88.4,35.8C12.3,179.7,0,210.3,0,243.1v.8C0,276.6,12.4,307,34.8,329.5c22.6,22.9,53.7,35.5,87.4,35.5,49.9,0,75.5-20.5,95.8-42.7l1.9-2.2-42.1-42.5-2.1,2.1ZM793.2,67.1h-70.2v58.4h-28.5v57.7h28.5v109.9c0,49,21.1,71.9,68.9,71.9s37.3-4.4,53-13.7l1.6-.9v-57.3l-4.6,2.4c-9.5,5.2-19.8,7.7-30.7,7.7s-18-5.7-18-19.2v-100.7h54.1v-57.7h-54.1v-58.4ZM984.4,121.3c-35.1,0-67.4,12.5-91,35.6-23.4,22.7-36.4,53.4-36.4,86.2v.8c0,32.8,12.8,63.2,36.1,85.7,23.5,22.7,55.5,35.3,90.4,35.3s67.3-12.6,91-35.7c23.5-22.8,36.4-53.3,36.4-86.1v-.8c0-32.8-12.7-63.3-36-85.8-23.5-22.8-55.6-35.1-90.4-35.1h0ZM1040.6,243.9c0,34.8-23.1,59.2-56.2,59.2s-57.2-25.7-57.2-60v-.8c0-34.8,23.1-59.1,56.3-59.1s57.2,25.8,57.2,59.9v.8ZM1201.1,161.2v-35.8h-70.1v234.4h70.1v-90.1c0-50.7,23-77.5,66.6-77.5h6.4v-70.9h-2.9c-31.5-1.5-54.7,11.6-70.1,39.8h0ZM1831.8,121.3c-29.3,0-53.7,11.1-74.6,33.8-13.1-21.9-36.1-33.8-65.1-33.8s-50.8,15.4-64.5,31.1v-27h-70v234.4h70v-133.4c0-28,12.9-43.4,36.4-43.4s35.4,23.6,35.4,43.4v133.4h70v-133.4c0-28,13.4-43.4,36.7-43.4s35,23.6,35,43.4v133.4h70v-151.7c0-55.3-28.3-86.8-79.5-86.8ZM396.1,152.9c-15-18.7-38.3-31.5-65.4-31.5-59,0-110.8,54.9-110.8,121.8v.8c0,66.2,50.1,121,110.8,121s50.4-13.2,65.4-32.2v27.1h70.2V125.5h-70.2v27.4ZM398.9,243.9c0,34.8-22.2,59.2-54.1,59.2s-54.9-25.7-54.9-60v-.8c0-34.8,22.2-59.1,54.1-59.1s54.8,25.8,54.8,59.9v.8ZM1457.7,152.9c-15.1-18.7-38.3-31.5-65.4-31.5-59,0-110.8,54.9-110.8,121.8v.8c0,66.2,50.1,121,110.8,121s50.4-13.2,65.4-32.2v27.1h70.1V125.5h-70.1v27.4ZM1460.5,243.9c0,34.8-22.2,59.2-54,59.2s-54.8-25.7-54.8-60v-.8c0-34.8,22.1-59.1,54.1-59.1s54.8,25.8,54.8,59.9v.8ZM2105.1,125.5v27.4c-15-18.7-38.2-31.5-65.4-31.5-59,0-110.8,54.9-110.8,121.8v.8c0,66.2,50.1,121,110.8,121s50.4-13.2,65.4-32.2v27.1h70.1V125.5h-70.1ZM2108,243.9c0,34.8-22.2,59.2-54,59.2s-54.9-25.7-54.9-60v-.8c0-34.8,22.3-59.1,54.1-59.1s54.8,25.8,54.8,59.9v.8h0ZM563,195.2c0-9.8,10.6-12.1,21-12.1,32.2,0,62.1,20.2,62.1,20.2l29.2-53.5-2.3-1.5c-25.2-17.1-58.1-27.2-87.7-27.2s-92.4,19.5-92.4,72.5c0,82.4,121.6,67.3,121.6,98.2s-11.8,11.2-24.5,11.2c-38.4,0-71.5-25.7-71.5-25.7l-33.3,50.4,2.3,1.7c29,22.9,64.8,35.5,100.8,35.5,57.2,0,96.3-37.4,96.3-73,0-78.2-121.6-68.9-121.6-96.7h0Z"/>
  <path class="st1" d="M2440,183.2c33.1,0,60,26.8,60,59.8s-26.9,59.9-60,59.9h-140.2c-33.2,0-60.1-26.8-60.1-59.9s27-59.8,60.1-59.8h140.2Z"/>
</svg>