<?xml version="1.0" encoding="UTF-8"?>
<svg id="Calque_2" data-name="Calque 2" xmlns="http://www.w3.org/2000/svg" viewBox="0 0 213 39.99">
  <defs>
    <style>
      .cls-1 {
        fill: #008542;
      }
    </style>
  </defs>
  <g id="Calque_1-2" data-name="Calque 1">
    <g>
      <path class="cls-1" d="M10.9,8.78C4.79,8.78,0,13.42,0,19.34s4.79,10.49,10.9,10.49c3.93,0,7.45-1.9,9.41-5.07l.05-.09.07-.11c.5-.83,1.13-2.72,1.13-2.72.06-.14.07-.27,0-.36-.06-.09-.17-.13-.32-.13h-4.79c-.38,0-.83.29-1.01.65l-.06.11c-.19.31-.4.65-.65.96-.94,1.14-2.3,1.76-3.83,1.76-2.94,0-5.08-2.29-5.08-5.45s2.18-5.61,5.08-5.61c1.04,0,2.03.32,2.87.93l.05.04s.22.17.22.17c.2.17.39.36.57.57.26.32.48.67.68,1l.06.09c.19.36.64.65,1.02.65h4.79c.15,0,.27-.05.32-.13.06-.09.05-.21,0-.36,0,0-.51-1.86-1.19-2.91-1.97-3.16-5.48-5.06-9.38-5.06"/>
      <path class="cls-1" d="M33,14.08c2.44,0,3.79,1.27,3.79,3.58v11.11c.01.34.29.61.64.61h4.54c.34,0,.62-.27.64-.61v-11.11c0-5.31-3.57-8.88-8.87-8.88-1.34,0-2.62.29-3.79.86l-.91.44V1.15c0-.35-.29-.65-.65-.65h-4.53c-.36,0-.64.29-.64.65v27.62c.01.34.3.61.64.61h4.53c.35,0,.64-.28.65-.63v-11.09c0-2.14,1.59-3.58,3.96-3.58"/>
      <path class="cls-1" d="M54.6,8.78c-5.76,0-9.64,3.61-9.64,8.99v11c.01.34.3.61.64.61h4.54c.34,0,.62-.26.64-.6v-11.01c0-2.39,1.65-3.88,4.32-3.88.28,0,.57.02.86.05h.06s.09.03.12.03c.13,0,.23-.05.31-.16.08-.11.12-.26.12-.41v-3.95c0-.48-.6-.59-.72-.61h-.04c-.4-.04-.81-.05-1.22-.05"/>
      <path class="cls-1" d="M67.78,24.83c-2.94,0-5.08-2.29-5.08-5.45s2.18-5.61,5.08-5.61,5.07,2.41,5.07,5.61-2.13,5.45-5.07,5.45M67.78,8.78c-6.11,0-10.9,4.64-10.9,10.56s4.79,10.49,10.9,10.49,10.94-4.61,10.94-10.49-4.81-10.56-10.94-10.56"/>
      <path class="cls-1" d="M90.38,14.08c2.47,0,3.83,1.27,3.83,3.58v11.07c0,.36.29.65.65.65h4.53c.36,0,.65-.29.65-.65v-10.96c0-5.46-3.79-8.99-9.66-8.99s-9.78,3.78-9.78,8.99v10.96c0,.35.29.64.64.64h4.54c.35,0,.64-.29.64-.65v-11.07c0-2.14,1.59-3.58,3.96-3.58"/>
      <path class="cls-1" d="M112.8,24.83c-2.94,0-5.08-2.29-5.08-5.45s2.18-5.61,5.08-5.61,5.07,2.41,5.07,5.61-2.13,5.45-5.07,5.45M112.8,8.78c-6.11,0-10.9,4.64-10.9,10.56s4.79,10.49,10.9,10.49,10.94-4.61,10.94-10.49-4.81-10.56-10.94-10.56"/>
      <path class="cls-1" d="M136.39,24.83c-2.94,0-5.08-2.29-5.08-5.45s2.18-5.61,5.08-5.61,5.08,2.41,5.08,5.61-2.14,5.45-5.08,5.45M136.39,8.78c-6.11,0-10.9,4.64-10.9,10.56s4.79,10.49,10.9,10.49,10.91-4.61,10.91-10.49c0-.22,0-18.27,0-18.27-.01-.34-.3-.61-.64-.61h-4.53c-.35,0-.63.28-.65.63v8.86l-.22-.1c-1.51-.71-3.15-1.07-4.87-1.07"/>
      <path class="cls-1" d="M158.89,8.78c-5.76,0-9.64,3.61-9.64,8.99v11c.01.34.29.61.64.61h4.54c.34,0,.62-.26.64-.6v-11.01c0-2.39,1.66-3.88,4.32-3.88.28,0,.57.02.86.05h.05s.09.03.13.03c.34,0,.43-.36.43-.57v-3.95c0-.48-.6-.59-.72-.61h-.04c-.4-.04-.81-.05-1.22-.05"/>
      <path class="cls-1" d="M163.46,9.25c-.35,0-.63.28-.65.63v18.89c.01.34.29.61.65.61h4.54c.33,0,.62-.26.64-.6V9.85c-.01-.34-.29-.61-.64-.61h-4.54Z"/>
      <path class="cls-1" d="M165.73,0c-1.74,0-3.15,1.41-3.15,3.15s1.41,3.15,3.15,3.15,3.15-1.41,3.15-3.15-1.41-3.15-3.15-3.15"/>
      <path class="cls-1" d="M170.57,9.24c-.16,0-.3.11-.36.2-.06.08-.07.2-.03.32l.06.17,7.6,18.61c.21.56.53.83.98.83h4.96c.24,0,.59-.09.87-.83v-.05s7.66-18.81,7.66-18.81c.03-.1.02-.21-.04-.29-.07-.1-.21-.16-.37-.16h-4.78c-.38,0-.75.32-.96.84v.02s-4.91,13.55-4.91,13.55l-4.88-13.59c-.2-.5-.57-.82-.95-.82h-4.85Z"/>
      <path class="cls-1" d="M197.51,16.79s1.02-3.3,4.55-3.3h0c3.54,0,4.56,3.3,4.56,3.3h-9.11ZM202.06,8.78c-6.11,0-10.9,4.64-10.9,10.56s4.79,10.49,10.9,10.49c4.18,0,7.92-2.17,9.75-5.67.08-.18.06-.25.03-.3-.07-.11-.22-.17-.39-.17h-5.2c-.7,0-1.21.26-1.69.5l-.04.02c-.2.1-.36.18-.54.26l-.08.03c-.57.22-1.19.33-1.83.33-4.37,0-4.99-4.18-4.99-4.18h10.73,0s4.55,0,4.55,0c.36,0,.65-.29.65-.64v-.17c0-.17.01-.33.01-.5,0-5.92-4.81-10.56-10.94-10.56"/>
      <path class="cls-1" d="M209.36,34.16H3.61c-.32.03-.57.31-.57.64v4.53c0,.35.27.63.62.65h205.69c.34-.01.61-.3.61-.65v-4.53c0-.34-.26-.62-.6-.64"/>
    </g>
  </g>
</svg>