<?xml version="1.0" encoding="UTF-8"?>
<svg id="Calque_2" data-name="Calque 2" xmlns="http://www.w3.org/2000/svg" viewBox="0 0 471.1 547.03">
  <defs>
    <style>
      .cls-1 {
        fill: #1f222c;
      }

      .cls-2 {
        fill: #efad44;
      }
    </style>
  </defs>
  <g id="Calque_1-2" data-name="Calque 1">
    <path class="cls-1" d="M265.13,481.49c.43,1.89,3.63,3.28,3.06,6.97-1.02,6.6-24.2,6.82-28.61,2.58-4.16-4,2.49-7.01,3.34-10.75.7-3.07.42-18.67-1.92-20.15-1.51-.96-4.68-.13-5.8,1.44-1.59,2.23-1.44,14.61-.98,17.84.62,4.39,4.49,6.95,1.48,10.65-4.26,5.24-21.78,4.67-27.33,1.24-4.53-2.8,1.56-6.86,2.64-8.93,1.6-3.06,1.66-16.06,1.06-19.82-.65-4.08-5.29-5.51-3.81-9.89,1.19-3.51,20.74-8.49,24.21-7.73,2.62.57.31,9.3,3.14,8.06,1.82-.79,4.94-5.05,8.52-6.49,5.21-2.09,10.47-2.55,15.33.66,2.26,1.49,4.62,6.13,6.1,5.8,2.66-.59,6.26-8.28,16.07-8.05,19.33.47,11.87,21.43,13.59,33.49.5,3.55,3.94,7.18,3.9,9.11-.16,7.28-22.79,8.13-27.57,2.56-3.44-4.01.88-5.16,1.54-8.62.46-2.4.45-16.68-.16-18.76-1.08-3.66-7.8-3.89-7.8-.2,0,4.8-.88,15.11,0,19Z"/>
    <path class="cls-1" d="M327.13,449.99c.55.62,7.78-4.37,9.72-4.77,27.83-5.75,32.05,38.86,3.5,47.49-7.61,2.3-12.92,1.39-20.21-1.23-2.1-.76-4.39-2.98-5.77-3.31-2.5-.61-9.11,2.83-10.15-.8-.38-1.32,1.8-8.17,1.95-10.84.39-6.82,1.08-25.15-.03-31.04-.74-3.9-9.33-3.41-6.51-9.48,2.09-4.5,22.75-10.41,26.51-8.54,4.73,2.35.17,17.86,1.01,22.52ZM329.25,484.87c.81.52,3.08.18,4.14-.09,9.02-2.3,6.41-24.9-1.94-25.63-7.03-.62-4.49,24.25-2.2,25.72Z"/>
    <path class="cls-1" d="M389.13,477.49c.8,3.87,6.77,5.17,8.84,1.84,1.79-2.89,1.92-20.51-.14-23.05-1.04-1.28-5.71-2.39-4.26-5.28,2.49-4.94,18.82-6.76,23.87-5.76,2.74.54,3.22,1.61,3.6,4.31,1.2,8.58-1.72,23.64.04,30.79.25,1.02,8.26,2.02,3.63,7.73-2.98,3.67-27.46,10.78-25.58-.07-8.47,3.73-12.97,8.26-22.69,4.2-13.19-5.51-5.91-21.29-9.13-31.87-1.55-5.11-12.59-9.36-.39-13.04,2.9-.87,22.21-4.37,22.21-.79,0,7.83-1.36,24.45,0,31Z"/>
    <path class="cls-1" d="M199.13,479.49c.63,2.25,6.92,2.28,4.5,7.49-1.98,4.27-17.55,7.67-21.76,6.85-4.49-.88-4.29-5.47-4.76-5.83-.63-.48-10.02,5.89-14.51,6.04-24.5.86-12.18-29.03-18.04-36.98-1.54-2.09-8.37-4.39-2.38-8.52,3.04-2.09,24.95-5.76,24.95-2.05v29c0,4.99,8.24,8.84,9.78,1.78.66-3.04.72-18.96-.7-20.85s-5.19-1.42-3.94-5.73c1.44-4.97,26.86-8.19,26.86-3.19v32Z"/>
    <path class="cls-1" d="M74.88,445.25c39.77-5.43,43.65,45.72,4.73,48.73-35.96,2.78-37.6-44.24-4.73-48.73ZM74.37,457.25c-3.63,3.68.52,26.46,8.05,24.61s.12-32.9-8.05-24.61Z"/>
    <path class="cls-1" d="M20.87,445.23c10.75-1.68,29.47,1.89,27.21,16.2-1,6.29-9.87,10.18-14.49,5.61-3.31-3.27-1.55-10.42-8.94-9.07-6.59,1.21-4.97,19.71,7.97,20.11,4.35.13,13.38-5.71,14.25,2.55,1.04,9.82-18.48,14.3-26.01,13.12-27.9-4.39-27.73-44.18,0-48.52Z"/>
    <path class="cls-1" d="M451.31,459.83c.92,1.61,13.79,5.99,17.26,11.22,6.87,10.32-1.29,20.99-12.19,22.7-2.54.4-20.82-.54-22.27-1.25-3.73-1.82-10.06-18.41-1.54-17.55,3.8.38,8.22,10.68,13.9,8.96,7.34-2.22-7.81-9.34-9.27-10.5-8.89-7.05-10.04-19.36-.04-25.86,6.92-4.5,12.47-1.88,19.45-1.54,2.16.1,4.14-1.59,6.77-.84,4.18,1.18,11.56,14.47,4,16.66-6.52,1.9-9.31-6.89-13.82-6.84-2.38.03-3.23,3.15-2.26,4.84Z"/>
    <path class="cls-1" d="M139.85,490.73c-3.24,3.53-29.82,3.84-31.59-1.4-1.75-5.18,2.81-4.87,4.32-7.38,2.14-3.54,2.19-28.34,1.3-33.22-1.31-7.27-9.49-6.46-6.24-13.73,2.34-5.24,25.69-9.45,28.04-6.07l-.61,50.61c-.3,4.68,9.72,5.81,4.77,11.19Z"/>
    <path class="cls-2" d="M363.06,530.89c0,8.91-7.22,16.14-16.14,16.14s-16.14-7.22-16.14-16.14,7.22-16.14,16.14-16.14,16.14,7.22,16.14,16.14ZM354.65,530.88c0-4.31-3.49-7.8-7.8-7.8s-7.8,3.49-7.8,7.8,3.49,7.8,7.8,7.8,7.8-3.49,7.8-7.8Z"/>
    <path class="cls-2" d="M273.33,528.21c1.56-.91,5.73.16,7.79-.21.44,3.71-5.6,6.71-5.85,9.67-.23,2.62,6.18,5.07,5.85,8.32-2.58-.26-5.87.56-8.29-.19-1.42-.44-2.57-2.64-3.19-2.65-2.54-.02-6.12,7.08-14.86,1.69-11.01-6.79.95-14.59,1.08-16.34.05-.66-1.48-2.52-1.7-4.08-2.04-14.67,23.24-11.17,17.44,1.55-.67,1.46-3.84,2.7-3.47,4.5,1.05,5.1,4.89-2.09,5.2-2.27ZM265.12,521c-1.64-1.65-6.34,2.55-2.48,3.98,3.45,1.28,2.91-3.55,2.48-3.98ZM265.12,538.99c1.37-1.88-5.86-7.71-6.99-3.47s5.61,5.38,6.99,3.47Z"/>
    <path class="cls-2" d="M234.13,522.99h-15c-.2,0-.14,3.85,0,4,.62.65,12.8-.93,13.02.58v6.43c-2.02.33-12.57-.47-13.02,0-.14.14-.2,4,0,4h15v8h-24v-29.5c0-.11,1.39-1.5,1.5-1.5h21c1.93,0,1.59,6.38,1.5,8Z"/>
    <path class="cls-2" d="M162.01,516.11l11.11,29.88c-1.91-.38-9.06.61-9.89-.1-.44-.38-.37-3.36-.99-4.31-.52-.79-9.24-.99-10.5-.64s-.86,4.34-1.75,4.93c-1.23.81-6.85-.29-8.86.12,1.43-3.74,9.8-28.99,11.13-29.86.55-.36,9.38-.34,9.75-.02ZM159.12,533.99c.35-.33-1.22-7.8-2.99-7.99l-2.01,7.99h4.99Z"/>
    <path class="cls-2" d="M119.85,515.23c3.76-.78,15.39.41,15.34,5.28-.02,1.54-3.63,4.07-4.82,4.32-2.3.47-3.92-1.86-6.64-1.8-10.16.25-9.96,15.91.88,15.03,2.51-.2,4.96-2.42,6.8-1.94.84.22,4.52,3.82,4.64,4.51.55,3.11-9.17,6.18-11.57,6.3-20.42,1.02-22.84-27.95-4.64-31.71Z"/>
    <path class="cls-2" d="M309.86,515.24c5.86-.98,10.96.14,15.26,4.29-5.43,10.82-7.55,3.15-12.43,3.47-9.08.6-9.83,17.4,2.88,14.95,4.67-.9,4.72-4.17,9.47,2.68-3.12,7.04-14.96,7.38-20.88,3.82-12.07-7.24-8.05-26.91,5.7-29.22Z"/>
    <path class="cls-2" d="M203.13,522.99h-14v5.01s12.01-.01,12.01-.01v8.01c-1.89.31-11.59-.43-12.01-.01-.39.39.29,8.32.01,10.01h-9.01v-31.01h21.5c1.93,0,1.59,6.38,1.5,8Z"/>
    <path class="cls-2" d="M230.12,506c-2.11,5.94-3.93,9.4-10.99,7.99.53-1.29,1.78-7.63,2.09-7.9.77-.67,7.12.26,8.9-.09Z"/>
    <path class="cls-2" d="M22.12,55l-5.98,11.99c.05-5.38-1.57-12.46,5.98-11.99Z"/>
    <g>
      <path class="cls-2" d="M42.13,252.49c.91-7.7,6.08-17.36,11.99-22.5-1.93,8.63-3.83,17.04-2.98,25.99l9.49-10.99c12.59-6.58,2.71,4.05,1.73,8.72-.5,2.4-.18,4.86-.22,7.28,5.18-3.63,11.51-6.34,17.99-5.99-2.36,5.18-6.67,9.48-8.47,15.02-1.53,4.73-1.85,9-1.52,13.97,6.51-5.22,13.91-12.4,22.99-9.99-2.46,6.09-7.65,12.48-7.08,19.5.62,7.65,4.65-1.32,7.06-4.03,8.71-9.8,19.33-16.58,33.02-15.49-6.78-10.07-21.42-8.47-31.99-7-2.5-2.46,10.7-14.23,13.3-15.19l13.69-6.79c-9.67-5.11-19.63,1.19-28.99,3.98-.17-5.97,3.25-10.83,6.99-14.99-5.36-1.99-14.56,10.75-15.51,10.99-4.19,1.05-1.97-9.95-1.49-11.99l-6.99,1.99c-2.14-2.38,10.67-19.23,11-23.49-4.18-2.26-6.22,3.55-10,4.49-4.32-11.87,5.26-21.07,13.98-27.5-4.71-.07-10.96-3.79-12.55-8.44-2.78-8.14,2.5-3.96,7.05-3.97,14.59-.03,18.91-14.52,28.26-15.88,2.35-.34,7.04.84,7.05,3.3,0,.62-5.02,8.25-5.87,10.95-3.26,10.43-1.75,25.13,8.05,31.56.54-5.36.62-11.01,3.17-15.83,10.62-.48,18.91-3.95,14.84,10.83,3.41.73,4.96-2.77,7.99-2.99.03,2.11.74,4.06,1.52,5.98.68,1.66,1.92,5.21,3.47,6.01-.99-5.99-1.79-10.31,1.01-15.99-2.58-.03-7.1.48-9.02-1.48s-.46-5.91-1.03-6.48c-.17-.17-2.65,0-3.86-.6-5.3-2.59-5.75-3.97-3.26-9.12,4.26-8.8,11.69-13.92,20.62-17.38,2.35-.91,8.6-.78,4.13-3.04-1.12-.57-8.27-2.23-5.58-4.41,5.81-4.71,23.18-2.69,30,.49.67-.66-5.77-10.67-1.51-8.98,1.52.6,10.56,5.88,12.01,6.99,4.01,3.07,7.26,12.15,11.9,11.04.8-.19.3-2.94,2.09-2.04,7.26,3.14,8.35,39.83,7.24,47.22-1.62,10.83-4.03,2.06-10.63,2.87-1.97,4.94-4.81,21.53-9.61,23.9-2.52,1.24-2.91-7.89-4.06-8.06-1.55-.23-8.68,1.92-10.16,2.75-2.77,1.57-4.91,6.56-10.27,5.32,1.82,4.44,8.66,5.53,7.78,10.21-3.78,20.23-21.42,34.19-24.77,54.78.59.74,7.54-8.09,9.82-.28,1.11,3.81-6.56,21.03-3.82,27.27,2.98-2.04,3.15-7.82,7.98-6.99l-.99,11.99c2.99.42,2.45-4.19,4.12-6.37,5.18-6.8,8.64,9.4,9.89,10.38.65.51,11.51-5.25,16.01-.5,1.49,1.58-.05,3.56,2.45,3.56,6.25-.02,7.29-7.37,10.17-7.91,2.12-.4,4.58,3.69,7.35,2.84,1.88-1.81-7.43-9.37-8.42-11.07s-1.34-5.67-2.53-6.47c-2.12-1.41-6.62.51-9.04-.96-.45-.28-6.37-7.12-7-8-2.55-3.57-8.4-22.17-7.82-25.79.27-1.69,11.96-20.71,13.32-20.71h14.5c.32,3.03-4.23,2.98-6.51,4.99-1.85,1.62-7.53,9.92-5.48,12.01,6.58-.34,12.75-3.57,19.48-3.01,6.09.51,8.97,6.07,14.9,5.93,8.69-.21,22.84-11.6,32.11-.94,6.43-4.26-8.71-17.78-6.49-19.98,5.03.85,17.38,8.3,18.05,13.44,1.69,12.96-4.79,29.42-12.22,39.89-5.92,8.34-13.34,2.57-16.9,5.1-.64.46-2.44,7.7-4.09,9.91s-3.59,2.57-4.85,4.64c5.8-1.48,7.71,6.97,9.12,7.95.58.4,2.89-1.05,4.34-.94,3.07.25,4.08,4.93,8.51,1.48,1.88-1.46,2.38-4.26,4.99-5.09,2.46-.78,5.02.93,6.07.21,2.16-1.47,1.85-14.79,10.47-3.6.42-.55,1.5-3.31,1.5-3.5v-14.5l7.99,4-1.98-15c4.19.24,7.87,2.47,10.98,5,.58-10.21-8.06-17.88-6.99-28,3.67-.47,6.24,1.35,8.5,4,.35-3.34-4.11-8.48-6.53-11.47-5.51-6.8-18.72-17.37-20.72-25.28-.86-3.39-.5-7.56-1.75-11.25s-4.55-5.68-3.5-10c-3.03.21-4.58,3.72-7.99,2.99-1.99-3.21,3.23-18.13,2.59-19.03-.74-1.03-5.15-1.84-6.58-3.51-1.76-2.05.17-4.29-3.31-3.27-1.42.41-2.57,2.31-4.35,2.58-8.63,1.29-6.28-27.61,3.94-24.59,1.89.56,2.73,3.56,4.69,3.34-4.29-5.34,3.87-30.69,8.54-32.5,1.83-.71,2.28,3.59,3.95,5.03,3.13,2.7,3.11-1.99,5.54-4.53,3.78-3.93,10.64-7.32,15.98-8.5l-2.99,6.99c11.47-4.47,23.81-4.61,32.99,4.51-2.97,1.89-8.64,1.82-8.99,6.49,9.54.02,25.67,14.66,22.81,24.29-1.29,4.36-13.37,9.25-13.74,10.36-.89,2.72,3.83,14.96,1.93,19.35,17.01-3.6,21.16-23.97,20-38.99,5.22-.42,5.88,3.17,7.9,6.56.37.62.36,3.23,2.09,1.44,1.06-1.1,1.19-12.21.99-14.48-.58-6.73-4.5-11.88-3.97-18.52,7.64,5.94,15.6,8.89,21.97,16.52,2.58,3.1,15.6,24.4,14.01,26.48-3.79-3.29-6.41-5.99-11.98-4.99,2.67,12.66,15.72,20.64,17.99,33.99-4.68-1.86-8.2-3.99-13.47-4.04-1.12,0-2.79-.56-2.52,1.03,5.34-.49,11.86,20.14,10.99,21.01l-17.48-8.01,2.48,15.01c-6.32-2.24-11.76-7.27-18.99-5.98l9.47,6.01c5.66,5.29,12.14,11.79,12.51,19.98-10.26-6.47-22.42-14.05-34.98-10.99l10.49,4.99c2.19,1.9,9.4,9.07,7.42,11.92-.45.65-13.11,3.84-13.91,7.07,12.13-.38,22.88,5.4,34,9l-3.99-15.99c4.07-.19,6.99,2.84,9.99,4.99.58-7.16-.52-14.05-1.99-20.99,5.57-.23,9.99,3.69,13.99,6.99.28-6.67-4.33-12.05-2.98-18.99,3.61-.1,4.61,4.52,6.99,5.99v-19c10.06,12.67,7.52,32.07,4.99,47-1.38,1.22-6.5-7.73-9.97-6.51,4.77,14.28,5.34,30.2.49,44.52-1.17,1.46-.95.86-2.03,0-2.94-2.32-4.76-8.71-9.48-10.02v23.5c0,.34-.93,4.26-2.49,3.49s-5.09-9.69-7.5-7.99c-4.22,9.09,2.83,11.97,5.47,19.01l2.5,10.98c3.52-8.77,8.32-17.28,9.02-26.99,6.43,6.66,5.85,16.79.82,24.33-1.34,2.01-5.31,4.9-5.71,6.4-.85,3.24,3.64,5.29-4.62,5.37-1.95.02-4.39-1.33-5.83-.97-1.28.32-8.67,9.88-12.16,9.88-1.53-.34-2.4-7.66-5.51-8.01.88,3.06-5.06,15.41-8.03,13.56-2.36-1.47-2.17-9.3-5.46-5.54-4.19,4.8-.95,8.98-.69,12.68.41,5.69-11.02-1.77-12.29-1.77-.45,0-3.04,4.83-7.13,5.09s-3.53-5.83-12.75-.87c-7.29,3.93-6.36,9.68-15.64.84.16,4.09-11.58,11.32-14.01,8.99-.34-.32,2.41-7.73-2.49-8.05-4.13-.01-8.77,13.03-10.01,13.03-2.44-3.08-3.7-7.11-7.49-8.98.29,2.96-.36,6.77-2.98,8.53-3.08,2.08-2.05-3.99-5.02-4.53.39,4.39-2.24,6.81-5.52,8.99-.68-2.16-.72-4.32-1.44-6.55-3.18-9.8-4.19-1.08-7.54,1.57-1.48,1.17-2.99,2.12-4.98,2.01-1.17-4.11-4.8-11.59-8.36-5.35l-4.68,9.35c-4.46-.62-6.26-8.29-6.49-12.01-3.21-.05-3.18,3.93-6.24,5.24-1.89.81-3.74.89-5.75.76v-9c-2.62-.31-4.78,1.16-6.54,2.96l-4.95,6.03-6.03-10.02c-4.98.65-1.43,8.81-8.48,3.02v4.01c-5.17.23-9.22-1.31-13.33-4.18-1.98-1.38-7.37-7.58-8.31-7.75-3.09-.55-3.14,4.7-3.38,4.92-.89.83-18.06-9.16-19.49-12l-.99,3.99-7.01-4.99c-1.36,4.92-8.4-1.05-9.99-4.01l-1.99,4.99c-2.82-.28-6.06-6.66-7.11-6.91-1.2-.29-3.21,1.85-4.98,1.96-3.69.24-11.91-10.96-16.76-12.31-2.25-.63-5.03,2.55-6.58,1.2-.13-.12-.22-2.31-1.03-3.43-1.61-2.21-3.48-2.98-4.94-6.1-3.14-6.73-4.02-18.15,3.88-21.39l.45,12.06,5.55,10.94c-1.22-5.41,1.64-12.57.98-17.41-.76-5.61-6.97-14.86-6.97-22.08v-14.5c0-.28-4.56-1.1-5.5-1.09-3.62.02-6.39,1.72-8.51,4.58-.92,1.24-2.34,7.21-3.98,5.51-2.62-2.71-2.93-28.11-1.01-33l-9.99,4.99c-.59-7.13.76-14.03,1.99-20.99-4.06-.55-6.06,3.14-9,4.99.44-5.27-.61-11.35,0-16.5ZM177.12,183.99c-5.55.13-3.92,3.63-3.99,8,5.78-.66,5.19-3.4,3.99-8ZM167.12,185c-18.57,4.84-3.92,24.26,9.54,25.01,4.78.27,22.27-5.28,23.32-9.62.68-2.8-5.59-9.83-6.86-8.39-2.78,20.9-33.71,14.6-26.01-7ZM296.12,187c-3.79-1.1-6.9,4.62-4.04,6.55,4.92,3.32,4.34-2.91,4.04-6.55ZM284.11,192c-13.74,6.68-.79,18.68,9.62,19.88,14.79,1.71,36.55-12.99,17.4-23.88,3.49,22.53-25.47,27.7-27.02,4ZM125.13,280.01c-4.07-2.97-23.78,10.88-21.99,17.98,2.22,2.18,22.33-12.59,21.99-17.98ZM368.12,318.99c-.54-9.33-7.34-18.38-14.51-23.97-6.72-5.24-16.96-10.85-25.48-8.02,2.07,10.25,14.52,11.48,22.38,15.12,4.9,2.26,10.32,6.1,13.62,10.38,1.66,2.14,2.02,5.16,3.99,6.49ZM125.12,293c-1.87-1.55-20.38,11.58-17.99,16.99,3.38.25,6.57.14,9.04-2.45l8.95-14.54ZM346.12,324.99c-.6-10.55-7.87-24.99-19.98-24.99-.36.36,1.16,9.57,1.46,10.03.39.6,6.09,2.58,8.03,3.97,4.03,2.89,6.83,7.71,10.5,10.99ZM130.12,316c-4.2.46-10.82-3.96-9.91,3.39,1.48,4.47,12.14-1.46,9.91-3.39ZM373.11,364.99c.45-.46,2.09-8.17,2.09-9.5.02-5.23-2.06-19.65-9.07-19.49l-1.02,10.99c-1.73.14-.87-2.3-1.9-3.58-1.43-1.77-7.85-2.61-7.07.06,1.65,5.6,7.94,12.25,6.99,19.53,4.64-2.13,3.47-6.4,4.25-10.25.19-.95.38-3,1.73-2.74,1.04,4.4,1.22,9.05,2.05,13.48.23,1.26.31,3.19,1.95,1.51ZM104.11,363.99c-5.4-2.47-.75-18.05-1.43-19.01-3.05-4.28-9.72,3.22-9.57,7.01l-3.98-4.99c-4.09,9.74,8.14,27.58,17.98,18,0,2.26.75,4.49,2.52,5.99,2.3.37,1.39-.76,1.24-2.24-.63-6.54-.45-11.18.24-17.75-5.5.87-5.58,8.67-7.01,12.99ZM206.9,353.24c-2.08-2.13-10.32.49-14.25-.27-3.08-.59-3.43-4.03-6.51-3.97,1.02,3.34,2.83,4.18,1,7.99h9.99s-3.99,12-3.99,12c3.5-.63,6.21-3.16,9.95-3.55,8.28-.88,2.49,3.23,5.57,6.52s2.74-1.85,4.78-3.64c3.88-3.41,5.37.68,4.71,4.68,1.79-.95,2.32-3.97,4.97-3.51-2.18,1.44,1.3,10.74,3.02,8.52-.9-3.32,1.87-10.92,5.52-7.02,1.78,1.9.56,6.99,4.31,4.81.63-.37,1.86-4.92,4.69-4.86,2-.37,1.99,2.44,2.69,2.91.53.36,1.73-.5,2.25-.34,1.41.46,1.87,1.84,3.54,1.49v-6.99c3.38-.89,3.99,3.04,7,2.99l-.97-6.51,5.98,2.5c-3.47-8.95,2.67-9.92,9.51-6.01l-1.51-7.97h5.01c2.26-4.85-7.28-2.51-9.79-1.27-1.74.85-2,3.06-2.93,3.3-2.88.74-7.25-1.47-11.54-.8-3.78.59-8.34,4.63-10.32,4.8-2.66.23-4.23-2.75-7.01-3.03-3.47-.35-8.14,2.08-11.93,2.07s-7.78-1.98-11.84-1.02c-1.28-.3-.9-2.81-1.88-3.81ZM341.99,349.14c-2.57-1.59-4.78.46-4.56,3.19.11,1.38,4,10.77,5.69,8.66-.04-2.2.43-10.88-1.13-11.85ZM349.11,352c-.18-.16-2.03-.36-1.99.51.3,6.55,6.52,15.28,6.51,22.48,3.86-3.7,3.39-13.33.36-17.35-1.1-1.47-2.63-1.96-3.91-3.14-.79-.73-.81-2.35-.97-2.49ZM124.11,353c-.14-.11-2.1-.37-1.99.49.84,7.81-4.18,14.67-.98,22.49l4.97-6.99c.21,3.61,1.71,8.54,6.01,8.99-.91-6.29,1.49-11.02,4.01-16.47-3.43-4.87-5.5,4.42-7.49,3.47-2.75-2.14-2.44-10.27-4.53-11.98ZM329.13,382.99c6.42-.93,1.19-8.42,1.04-11.58s3.35-7.01,1.46-10.41c-7.49,1.58-7.51,16.7-8.51,18-.33.43-2.6.28-2.11-1.39l-2.38-7.6c-4.22,3.03-4.38,8.5-7.5,11.99l-2.5-9.99c-3.62,3.46-6.26,8.24-6.18,13.35.01.78.37,2.94,1.65,2.63l3-3.99c1.27,8.74,9.3,2.46,11.53-3.01l5.96,4.01,4.02-6,.5,3.99ZM342.86,363.26c-.54-.59-3.3-1.71-3.73-1.26,2.42,3.63-4.19,15.86-2,18,.19.18,2.33.33,3.07-.62,2.6-3.33,5.97-12.54,2.66-16.12ZM151.12,370c-3.89.07-4.36,3.87-4,6.99-3.48-.82-4.63-4.22-8.99-2.99-.11,8.2,9.19,8.04,14.99,9.99-2.16-5.37-3.72-7.97-2-13.99ZM169.14,385.99c-1.18-1.08-.49-11.82-4.48-10.98-1.22.26-3.41,3.94-3.43,5.46-.08,5.61,6.37,10.75,11.88,10.52-.9-2.28,4.31-7.72,3.01-8.99-2.58-2.51-5.25,5.57-6.98,3.99ZM293.14,384.99c.28-2.95.09-5.79-3-7,.99,5.45-1.77,9.77-2,14.99,4.13,1.79,11.95-12.01,10.99-12.99-3.42-.4-3.76,3.96-5.99,4.99Z"/>
      <path class="cls-2" d="M443.13,300.99c-16.85-2.57-15.88-24.54-22.98-36.51,8.45,5.66,12.86,15.75,17.48,24.51,1.8-1.71.77-21.15,3.48-18.99-.35,1.66,2.01,4.64,2.01,5.5v25.5Z"/>
      <path class="cls-2" d="M50.12,305c-.8,4.16-1.33,8.25-1.03,12.53.06.9,1.34,10.15,3.02,7.93.53-.7,4.19-8.41,6.01-6.47l-2,16.99c-7.76-.42-10.95-7.99-10-14.99-4.25-.29-6.78,4.51-8.99,7.51-.61.93-1.83-.64-1.95-1.1-1.48-5.54,8.14-21.76,14.94-22.42Z"/>
      <path class="cls-2" d="M423.13,292.99c2.62-.21,1.66-.14,1.97,1.51,1,5.37,1.59,12.48.92,17.88s-4.35,10.35-2.89,16.62c-17.72.18-8.35-23.96-9.99-35,1.44-.24,1.35,1.73,1.69,2.78,2.25,6.96,3.66,14.92,4.31,22.21l3.99-11.5v-14.5Z"/>
      <path class="cls-2" d="M406.11,310c.38.37,3.18,8.62,3.52,9.99,1.64,6.49,1.93,10.68-1.1,16.91l-8.4,12.09c-.37-12.59,2.17-25.05,4.02-37.49.2-1.36.38-3.03,1.96-1.51Z"/>
      <path class="cls-2" d="M244.12,256c1.92,1.99-9.26,12.19-11.76,12.79-6.97,1.69-15.42-5.1-11.19-12.75,8.34,1.9,14.59,2.4,22.95-.04Z"/>
      <path class="cls-2" d="M72.12,312c-3.34,9.89-4.67,20.02-3.98,30.48.2,3.04,1.59,6.17,1.93,9.09.51,4.37-6.22-1.49-7.2-3.82-3.42-8.15.31-24.22,4.85-31.66.82-1.34,2.43-4.61,4.4-4.09Z"/>
      <path class="cls-2" d="M33.12,275c-1.8,9.21-3.44,18.45-7.49,26.99-3.54-2.11-9.4-21.95-4-21.98,1.73,0,1.48,5.84,3.49,5.97-.31-1.97,6-13.09,8.01-10.99Z"/>
      <path class="cls-2" d="M40.12,290l-8.49,30.99c-4.18-3.78-4.94-16.64-1.57-20.36.85-.94,2.34-.41,2.79-.85,1.19-1.14,2.69-10.22,7.27-9.78Z"/>
      <path class="cls-2" d="M457.14,238.99l1.48-7.99c3.8,4.37,2.21,10.66,2.5,15.99-3.75,3.82-15.35-17.74-17.99-19.99,1.37-1.13,13.84,9.25,14.01,11.98Z"/>
      <path class="cls-2" d="M230.13,186.99v14.5c0,1.37-2.03,8.87-3.99,9.5.61-7.95-.45-14.85-5.02-21.49,3.6-.27,5.79-1.15,9.01-2.51Z"/>
      <path class="cls-2" d="M20.12,254c.02,7.87,1.93,18.99-8.99,18.99,1.85-6.54,2.36-12.21,6.71-17.73.63-.81-.03-1.85,2.28-1.26Z"/>
      <path class="cls-2" d="M442.46,252.6c6.44,3.23,12.95,7.85,14.66,15.39-7.38-1.61-12.3-8.51-15.79-14.71-.28-5.14.21-1.14,1.13-.68Z"/>
      <path class="cls-2" d="M17.12,234c.21,3.22-5.47,19.17-9.99,14.99-1.4-1.29,4.58-16.96,9.99-14.99Z"/>
      <path class="cls-2" d="M21.12,198.01l-11.63,8.85-4.36,1.13c-.38-9.39,8.38-10.76,15.99-9.98Z"/>
      <path class="cls-2" d="M23.12,210l-7.42,11.07-5.57.92c1.25-5.77,6.62-12.52,12.99-11.99Z"/>
      <path class="cls-2" d="M450.62,193.01c4.26,4.37,9.33,7.66,8.57,14.51-.43,3.9-2.34,5.04-4.14,1.05-2.04-4.5-2.59-10.85-4.43-15.56Z"/>
      <g>
        <path class="cls-2" d="M112.14,34.99c1.44.07,1.52-3.62,1.7-4.78.15-1,.71-13.02,4.28-10.21.41.32,2.57,7.46,3.84,9.67,1.7,2.95,6.37,10.34,8.65,12.35.87.77,1.1,1.3,2.52.97.58-.6-4.75-15.74,6.42.09,3.1,4.4,6.05,9.46,6.6,14.9,1.94-.54,1.57-3.68,3.42-5.07,1.2-.9,2.06-1.15,3.56-.93-.35,5.94,3.06,4.84,6.29,6.97,1.24.82,1.18,3.29,3.21,3.03,2.39-.5.43-11.01,5-9.99,1.29.29,2.64,9.09,6.02,9.99,1.62-2.5,1.35-5.32.5-7.99l7.25,5.24,7.74,1.74c-21.66,5.28-38.52,23.07-61.99,11.02-.41,6.78,6.36,7.3,9.99,10.98-14.24,6.53-33.8-1.59-45,12l13.52,2.99,7.47,4.01c-12.1,2.02-25.65,3.89-34.97,12.51l11.97,5c-8.19,3.21-16.5,5.53-22.52,12.51-.76,1.45,2.23,2.56,3.24,2.77l10.28.21c-8.82,4.02-10.87,15.32-18.49,21.01-3.71,2.77-7.69,3.27-11.48,5.5,4.84,4.84,10.1,2.68,15.97,2.51-.31,7.65-8.82,9.1-13.91,12.58-10.95,7.47-14.92,13.29-21.6,24.44-.76,1.27.2,2.53-2.48,1.97-.33-7.69,3.35-14.15,5.99-20.99l-8.5,4.99c-1.85-8.17,7.92-14.87,13.5-19.5-2.59-.95-5.3-1.54-6.99-4l8.99-1.51c-2.05-3.96-5.18-5.89-3.99-10.99,5.47,1.94,8.56,2.8,13.99-.02-1.66-2.7-5.22-2.01-7.66-4.33-2.75-2.62-5.62-10.33-8.34-13.65,7.8.67,17.83,5.49,23.99-1.52-13.36,1.52-14.15-8.84-20.48-14.51-2.88-2.57-8.01-3.03-10.51-6.5-.39-2.74,3.41-1.05,5.32-1.66,1.16-.37,2.31-1.96,1.67-2.82-.51-.68-9.21-1.47-10.99-5.52,6.78-2.29,13.65-5.7,1-6-5.94-5.65,2.37-3.93,5.05-7.94.82-1.22,1.2-2.03.94-3.55-4.35.23-9.27,3.63-10.05-2.46-1.41-11.08,9.12-19.59,19.05-21.56-1.1-3.51-6.17-2.89-8.07-5.42-3.28-4.36,1.65-3.62,5.06-5.09,8.35-3.62,14.81-10.38,25.01-8.49-.94-5.83-9.44-2.81-13-6.51-.35-1.3,3.61-3.65,4.68-4.31,11.2-6.89,26.65-9.04,38.31-2.18l-1.98-10c8.81,1.66,19.58,8.5,21.01,17.99Z"/>
        <path class="cls-2" d="M305.12,31c.52,5.05-15.8,17.87-17.91,11.36-1.01-3.12,2.63-7.99,5.91-8.37.29-1.64-2.51-1.12-3.53-1.04-6.43.56-14.23,5.16-15.47,12.05-5.49-5.39-.24-13.03,6.03-15.48,11.39-4.47,14.7,4.42,24.98,1.49Z"/>
        <path class="cls-2" d="M239.82,29.31c3.01,2.72,2.34,7.53,2.31,11.18-1.95,1.89-2.15-1.29-4.22-2.76-7.89-5.6-25.51-6.66-20.77-18.74,5.28,5.71,17.85,5.94,22.68,10.31Z"/>
        <path class="cls-2" d="M463.12,113c1.37,5.73-1.51,8.06-3.34,12-1.15,2.47.71,3.31-3.72,6.43-6.47,4.57-13.45,3.6-20.92,3.56l11.56-2.92c3.5-1.63,8.48-3.71,8.95-8.04-2.53,1.48-6.21,1.19-9.02.98-1.16-.09-4.48-.3-4.48-1.99,3.51-.85,7.05-1.61,10.37-3.14,4.08-1.89,6.62-5.36,10.62-6.87Z"/>
        <path class="cls-2" d="M10.13,126.99c1.61-9.55,11.7-7.28,18.55-5.05,17.58,5.74,2.2,7.02-7,6-3.62-.4-6.6-3.69-11.55-.95Z"/>
        <path class="cls-2" d="M326.13,47.99c.2-2.55-1.11-4.92-1.05-7.46.19-7.95,6.97-8.2,11.03-13.54.03,7.32-2.44,18.12-9.98,20.99Z"/>
        <path class="cls-2" d="M464.12,143c2.09,1.94-11.54,11.37-13.44,12.05-2.74.97-12.87,1.52-14.55-.06s.33-1.7,1.5-1.97c9.88-2.23,17.37-6,26.49-10.02Z"/>
        <path class="cls-2" d="M252.13,40.99c1.32-3.65-5.95-18.04,1.5-18.03,5.8,0,8.92,18.45-1.5,18.03Z"/>
        <path class="cls-2" d="M37.12,147.99c-8.15-4.46-16.45.75-23.99-2.49,5.42-7.16,11.25-6.69,18.68-2.69.79.43,6.8,3.8,5.31,5.18Z"/>
        <path class="cls-2" d="M184.13,43.98c-9.2,1.49-14.95-5.12-17.99-12.98,9.12-1.74,12.57,7.77,17.99,12.98Z"/>
        <path class="cls-2" d="M162.13,44.98c-9.78-.98-11.89-10.75-8.99-18.99,8.44,2.21,3.97,13.42,8.99,18.99Z"/>
        <path class="cls-2" d="M402.13,19.99c2.12-7.87,11.93-7.54,18.54-7.04,7.4.57,3.53,3.95-1.28,4.81-5.68,1.02-11.53-.66-17.26,2.23Z"/>
        <path class="cls-2" d="M397.12,6c3.57,3.02-14.14,6.77-15.27,7.22-2.43.97-4.35,2.73-6.71,3.78,1.58-9.39,14.01-11.34,21.98-10.99Z"/>
        <path class="cls-2" d="M114.12,13.99c-.68.72-7.7-5.35-9.32-6.17-3.98-2.03-10.73-2.03-11.67-7.82,8.42,1.32,19.3,4.22,20.99,13.99Z"/>
        <path class="cls-2" d="M81.63,6.99c2.03.34,9.53,3.99,7.99,7.01-3.62-1.35-7.3-2.22-11.11-2.89s-10.68,1.44-11.38-4.12c4.47.51,10.24-.71,14.5,0Z"/>
        <path class="cls-2" d="M31.12,169c1.17.98-.87,2.76-1.97,2.48l-16.02,10.51c-4.2-7.72,16.47-14.26,17.99-12.99Z"/>
        <path class="cls-2" d="M307.13,49.99c-.6-7.2,5.67-11.63,10.98-14.99,1.74,3.5-8.26,17.71-10.98,14.99Z"/>
        <path class="cls-2" d="M357.12,16c1.56,1.42-10.16,14.67-10.98,13.99-2.49-7.01,4.22-13.37,10.98-13.99Z"/>
        <path class="cls-2" d="M138.12,29c-2.3,2.44-2.06-4.18-2.44-5.05-1.73-3.89-5.68-6.81-4.54-11.95,1.14-1.31,7.04,5.37,7.55,6.94.59,1.85.35,9.09-.56,10.06Z"/>
        <path class="cls-2" d="M459.11,184.99l-5.08-6.4-8.9-5.59c8.72-1.34,16.6,2.09,13.98,11.99Z"/>
        <path class="cls-2" d="M463.12,56.99c-2.01-2.97-9.26-8.55-10.51-10.98-.91-1.76-.16-1.92,1.04-3.01,4.31-1.12,9.88,10.14,9.47,14Z"/>
        <path class="cls-2" d="M469,103.83c-.47.8-7.73,4.15-8.87,3.16l7.5-11.99c-.02,1.67,1.93,7.88,1.37,8.83Z"/>
        <path class="cls-2" d="M463.12,156c1.65,2.08-5.08,15.91-9.98,7.49l9.98-7.49Z"/>
        <path class="cls-2" d="M40.13,27c-1.46,1.61-11.23,10.76-12.99,8.98-2.99-3,9.95-10.03,12.99-8.98Z"/>
        <path class="cls-2" d="M23.12,111.98c-6.74,2.77-10.92-3.86-10.99-9.99,3.12,4.34,7.25,6.43,10.99,9.99Z"/>
        <path class="cls-2" d="M31.12,154c.5,2.09-4.25,4.64-5.47,5.09-10.27,3.85-3.4-7.91,5.47-5.09Z"/>
        <path class="cls-2" d="M440.12,30.99c-1.4.18-2.68-.06-4.02-.46-.93-.28-6.63-2.59-5.96-4.02,1.79-3.83,11.36-.28,9.98,4.48Z"/>
        <path class="cls-2" d="M59.12,17.01c2.54,3.09-9.22,4-10.01,1.48-1.49-4.79,8.15-3.74,10.01-1.48Z"/>
        <path class="cls-2" d="M467.14,85.99c-.27-3.33-4.72-15.16,2.05-10.56,1.96,1.33.59,9.37-2.05,10.56Z"/>
        <path class="cls-2" d="M18.12,97.99c-.19.18-2.39.36-3.08-.58-1.85-2.5-.51-10.14-.9-13.41l3.98,13.99Z"/>
        <path class="cls-2" d="M196.83,28.1c2.59-.63,18.63,11.2,19.28,15.41l-20.53-8.45c-2.57-1.77-1.54-6.28,1.26-6.96Z"/>
        <path class="cls-2" d="M406.13,127.99c-7.55-7.54-19.33-12.69-29.99-14.01.98-2.46,5.67-1.74,7.77-2.71l12.21-1.27c-8.9-2.08-17.6-5.59-26.99-5.02-1.35-1.29,4.09-7.88,5.02-9.47l12.97-11.51c-11.79.62-22.16,6.02-31.98,11.99-.82-5.56,2.79-9.14,5.99-12.99-4.01-1.79-17.6,8.24-18.99,6.99-.37-.34-1.35-5.51-5.65-7.87-6.48-3.55-16.35-1.48-22.68-3.32-5.31-1.54-2.36-7.48-2.67-7.8-.91-.95-15-3.7-17.01-6.51,10.2-.77,21.91-1.45,28.5-10.49l1.51,7.99c2.69-1.12,3.06-4.44,3-7,1.36.73,3.12,2.25,4.04,3.46,1.03,1.36.27,3.66,1.94,3.54.25-6.42.63-13.04,3.02-18.99,4.71-.44,1.71,7.64,5.97,6.99,2.98-6.51,4.87-17.27,13.01-18.99,0,4.47-.07,11.15,3.99,13.99,3.71-15.2,20.94-24.56,36.01-22.99l-5.99,11.99c7.23-1.52,9.14-6.92,17.6-7.88,2.42-.28,22.74,1.32,19.39,5.87-.35.47-9.28,3.34-9,7,12.5-2.33,22.96,2.21,28.99,13.52-.32,1.04-8.55-.48-5.99,2.48.14.17,3.1.65,4.22,1.28,7.15,4.02,12,7.61,13.79,16.22-10.64-1.63-5.18,2.32-4.95,9.01.1,3.06-.65,5.58-1.07,8.51l-4.97-1.51c1.98,4.34,1.16,13.77-1.53,17.5-2.19,3.03-12.8,8.16.49,6.5-4.7,6.37-12.46,12.86-19.61,16.38-3.46,1.71-9.21,1.28-6.88,5.13,6.1,5.62,15.41,6.47,22.5,11.01-.33,3.96-19.17,10.36-16,13.98,7.29,1.57,14.32,4.52,22,4.02l-13.06,7.67c-.92,4.31,6.65,10.54,9.59,13.35,1.01.96,4.05.9,1.97,2.98h-4.5c.53,7.09,3.81,13.76,3,20.99-2.03,2.36-9.35-11.2-10.18-12.31-6.58-8.79-12.98-15.59-21.81-22.2-.43-2.38,1.09-1.25,2.52-1.44,12.88-1.76,6.87-1.63,1.51-5.58-6.71-4.95-12.08-13.84-20.03-17.97,5.18-1.08,11.07-.16,16.25.75,1.08.19,6.96,3.39,5.73.28-2.92-7.4-19.15-14.07-25.72-19.23-.82-.64-1.83.04-1.27-2.29h14Z"/>
      </g>
    </g>
  </g>
</svg>