<?xml version="1.0" encoding="UTF-8"?>
<svg xmlns="http://www.w3.org/2000/svg" xmlns:svg="http://www.w3.org/2000/svg" xmlns:sodipodi="http://sodipodi.sourceforge.net/DTD/sodipodi-0.dtd" xmlns:rdf="http://www.w3.org/1999/02/22-rdf-syntax-ns#" xmlns:inkscape="http://www.inkscape.org/namespaces/inkscape" xmlns:dc="http://purl.org/dc/elements/1.1/" xmlns:cc="http://creativecommons.org/ns#" version="1.1" viewBox="0 0 745.8 119.9">
  <!-- Generator: Adobe Illustrator 29.4.0, SVG Export Plug-In . SVG Version: 2.1.0 Build 152)  -->
  <defs>
    <style>
      .st0 {
        fill: #fff;
      }
    </style>
  </defs>
  <g id="svg2" inkscape:version="0.91 r13725" sodipodi:docname="Conforama (depuis 2012).svg">
    <sodipodi:namedview id="namedview4" bordercolor="#666666" borderopacity="1" fit-margin-bottom="0" fit-margin-left="0" fit-margin-right="0" fit-margin-top="0" gridtolerance="10" guidetolerance="10" inkscape:current-layer="g10" inkscape:cx="297.04116" inkscape:cy="69.823342" inkscape:pageopacity="0" inkscape:pageshadow="2" inkscape:window-height="1017" inkscape:window-maximized="1" inkscape:window-width="1920" inkscape:window-x="-8" inkscape:window-y="-8" inkscape:zoom="1.8836227" objecttolerance="10" pagecolor="#ffffff" showgrid="false"/>
    <g id="g10" inkscape:groupmode="layer" inkscape:label="A">
      <g id="g5511">
        <path id="path286" class="st0" d="M125.7,33.4c-23.3,0-38.9,14.7-38.9,36.5s14.6,36.5,38.1,36.5,39.4-14.5,39.4-36.8-14.8-36.3-38.6-36.3M125.8,93.6c-11.5,0-18.9-9.1-18.9-23.3s7.3-24.2,19.1-24.2,18.1,8.9,18.1,23.3-7.2,24.2-18.3,24.2" inkscape:connector-curvature="0"/>
        <path id="path290" class="st0" d="M437.2,34c-21,0-29.5,8.7-29.5,29.9v1.6c0,12.8-.3,27-.8,34.4,0,0-.2,4.5-.2,4.5h21.1l-.4-4.1c-.3-6.5-.5-12.7-.5-18.8v-13.9c.1,0,.1-3.7.1-3.7.3-7.3,2.9-16.1,13.1-16.1s8.6,1.1,9.8,1.8l1.1.6,2.1-13.8-.7-.2c-5.7-1.6-11.7-2.1-15.1-2.1" inkscape:connector-curvature="0"/>
        <path id="path294" class="st0" d="M306.6,47.6l2-13.6h-21.8v-4.7c.5-10.1,4.6-15.2,12.2-15.2s7.2,0,13.6,1.8l.9.3,1.9-13.6-.7-.2C309.6.8,300,0,296.3,0c-17.9,0-28.2,10.4-29,29.3,0,0,0,12.8,0,12.8l.2,24.7-.3,30.5-.3,18.4v4.2h20.3v-4.3l-.5-17.9s-.2-19.6-.2-19.6v-15.9s.2-11.4.2-14.6" inkscape:connector-curvature="0"/>
        <path id="path298" class="st0" d="M352.3,33.4c-23.3,0-38.9,14.7-38.9,36.5s14.6,36.5,38.1,36.5,39.4-14.5,39.4-36.8-14.8-36.3-38.6-36.3M352.5,93.6c-11.5,0-18.9-9.1-18.9-23.3s7.3-24.2,19.1-24.2,18.1,8.9,18.1,23.3-7.2,24.2-18.3,24.2" inkscape:connector-curvature="0"/>
        <path id="path302" class="st0" d="M246.4,87.2v-11.6l.2-11.7c0-18.7-10.6-29.8-28.3-29.8h-11.7c-17.7,0-28.3,11.1-28.3,29.8,0,0,0,4.2,0,4.2,0,18.3,0,22.6-.8,35.5v.9c0,0,20.9,0,20.9,0l-.2-5.4-.5-14.8-.3-14.5v-1.7c0-7.9.5-10.3,2.2-13.7,2-4.1,7-6.8,12.8-6.8s10.8,2.7,12.8,6.8c1.7,3.4,2.2,5.7,2.2,13.7v1.7l-.3,14.5-.5,14.7-.2,5.4h20.6l-.2-4.8c0,.2-.1-12.5-.1-12.5" inkscape:connector-curvature="0"/>
        <path id="path306" class="st0" d="M663.1,87v-3.8s0-4.9,0-4.9c0,0,.3-14.6.3-14.6,0-12.6-3-19.8-10.5-24.7-4.7-3.3-11.5-5.1-19.1-5.1s-19.4,3.3-25.1,9.1c-5-5.8-12.4-8.9-21.5-8.9h-11.7c-17.7,0-28.3,11.1-28.3,29.8,0,0,0,4.2,0,4.2,0,18.3,0,22.6-.8,35.5v.9c0,0,20.9,0,20.9,0l-.2-5.4-.5-14.8-.3-14.5v-1.7c0-7.9.5-10.3,2.2-13.7,2-4.1,7-6.8,12.8-6.8s10.8,2.7,12.8,6.8c1.7,3.4,2.2,5.7,2.2,13.7v1.7l-.3,14.5-.5,14.7-.2,5.4h20.6l-.2-4.8c0,.2-.1-12.5-.1-12.5v-11.6s.1-12.9.1-12.9c.3-3.1.8-4.9,1.8-7,.9-1.9,2.1-3.5,3.6-4.9,2.3-2.1,5.6-3.3,9.2-3.3,6,0,11.2,3.6,12.7,8.7.8,2.8.9,5.5.9,14.9s-.1,18.5-1,29c0,0-.3,3.5-.3,3.5v.9c0,0,21,0,21,0l-.2-4s-.2-13.5-.2-13.5" inkscape:connector-curvature="0"/>
        <path id="path310" class="st0" d="M745.7,59.8v-1.5c0-11.2-3.6-17.3-12.2-21.2-5.3-2.3-10.9-3.3-18.8-3.3s-19.3,1.4-27.1,3.8l-.7.2,2,13.7,1-.4c7.4-3.1,14.8-4.7,21.5-4.7,11.2,0,15.7,4,15.7,13.9,0,0,0,.9-.1,1.7-15.6-.8-27.4.2-33.9,3-9.2,4-13.9,10.2-13.9,18.5s5.5,16.5,14.1,20.2c9.5,4.1,23.2,3.1,28.6,2.4,4.5-.5,19.2-3.1,22.5-14.4,1.4-5,1.3-25.3,1.3-32M727.2,74.1v1.7c0,6.5-.2,8.8-1.6,11.5-.8,1.6-2.2,2.9-4,3.8-3.6,1.8-6.5,2.2-10.2,2.2s-7.8-1.4-10.1-3.7c-2.8-2.8-2.4-7.2-.6-9.9,2.7-4.1,9.1-5.7,22.1-5.7,0,0,3.3,0,4.4.1" inkscape:connector-curvature="0"/>
        <path id="path314" class="st0" d="M528.1,58.4c0-11.2-3.5-17.3-12.2-21.2-5.3-2.3-10.9-3.3-18.8-3.3s-19.3,1.4-27.1,3.8l-.7.2,2,13.7,1-.4c7.4-3.1,14.8-4.7,21.5-4.7,11.1,0,15.7,4,15.7,13.9,0,0,0,.9-.1,1.7-15.6-.8-27.4.2-33.9,3-9.2,4-13.9,10.2-13.9,18.5s5.5,16.5,14,20.2c9.5,4.1,23.2,3.1,28.6,2.4,4.5-.5,19.3-3.1,22.5-14.4,1.4-5,1.3-25.3,1.3-32v-1.5ZM509.5,74.1v1.7c0,6.5-.2,8.8-1.6,11.5-.8,1.6-2.2,2.9-4,3.8-3.6,1.8-6.5,2.2-10.2,2.2s-7.8-1.4-10.1-3.7c-2.8-2.8-2.4-7.2-.6-9.9,2.7-4.1,9.1-5.7,22.1-5.7,0,0,3.3,0,4.5.1" inkscape:connector-curvature="0"/>
        <path id="path318" class="st0" d="M59.7,14.9c9.1-.3,18.2,1.7,28,6l.9.4V4.4h-.3C78.5,1.3,67.7,0,56.3.3,38.1.9,23.2,6.8,13.3,17.4,4.1,27.1-.5,40.5,0,56.1c.5,15,5.6,27.4,14.7,36,10.3,9.7,25.6,14.5,44.3,13.9,6.8-.2,13-.9,19.5-2.3l1-.2-5.4-13.6h-.7c-4,1-7.7,1.5-10.9,1.6-23.2.7-36.4-12-37.1-35.9-.8-24.4,12.4-40,34.4-40.7" inkscape:connector-curvature="0"/>
      </g>
    </g>
  </g>
</svg>