<?xml version="1.0" encoding="UTF-8"?>
<svg id="Calque_1" xmlns="http://www.w3.org/2000/svg" version="1.1" viewBox="0 0 2500 619">
  <!-- Generator: Adobe Illustrator 29.4.0, SVG Export Plug-In . SVG Version: 2.1.0 Build 152)  -->
  <defs>
    <style>
      .st0 {
        fill: #ed8b18;
      }

      .st1 {
        fill: #fff;
      }
    </style>
  </defs>
  <path class="st1" d="M205.9,240.9v-56.2H0v280.8h205.9v-56.2H74.9v-62.4h112.3v-49.9h-112.3v-56.2h131Z"/>
  <circle class="st0" cx="286.2" cy="432.7" r="39.7"/>
  <g>
    <path class="st1" d="M436.8,409.3v-224.6h-74.9v280.8h187.2v-56.2h-112.3ZM1098.1,184.7h68.6v280.8h-68.6V184.7ZM2213.9,595.6c-157.8,0-286.1-128.3-286.1-286.1S2056.2,23.4,2213.9,23.4s286.1,128.3,286.1,286.1-128.3,286.1-286.1,286.1ZM2213.9,83.9c-124.4,0-225.6,101.2-225.6,225.6s101.2,225.6,225.6,225.6,225.6-101.2,225.6-225.6-101.2-225.6-225.6-225.6ZM1547.4,273v-32.1h-68.6v224.6h68.6v-111.6c0-22.5,12.5-67.5,68.6-54.9v-58.5s-37.4-9.9-68.6,32.4h0Z"/>
    <path class="st1" d="M2274.5,384.4s-11.5,31.2-57.4,31.2h-39.5v-167.9c0-13.1,11.5-25.5,24.6-25.5h.3v-37.4h-118.5v37.4h-.3c13.1,0,25.3,12.4,25.3,25.5v142.5c0,13.1-12.1,25.4-25.3,25.4h.3v56.2h218.4v-87.4h-27.9Z"/>
  </g>
  <path class="st0" d="M2243.1,129.9c-33.3,0-65.8,10.4-92.8,29.9h77.1v79.4c-18.7,2.9-25,15.5-25,30.7v120.8h21.9c20.2,0,36.4-12.5,37.5-31.2h65.5v57.4c43.7-27.9,71.1-76.2,71.1-130.7,0-86.1-69.1-156.3-155.2-156.3h0Z"/>
  <path class="st1" d="M679.2,425.2c-40.2,0-50.2-15.9-51.3-59.5h163.8c0-99.8-13.4-125.9-112.6-125.9s-111.2,34.9-111.2,115.7,18.8,115.2,111.2,115.2,112.5-5.1,112.6-73.7h-61.9c-4.9,25-23.4,28.3-50.6,28.3h0ZM679.1,286.6c35.6,0,47.2,10.5,50.7,41.7h-100.8c3.4-31.2,14.8-41.7,50.1-41.7ZM1323.6,425.2c-40.2,0-50.2-15.9-51.3-59.5h163.8c0-99.8-13.4-125.9-112.6-125.9s-111.2,34.9-111.2,115.7,18.8,115.2,111.2,115.2,112.5-5.1,112.6-73.7h-61.9c-4.9,25-23.4,28.3-50.6,28.3h0ZM1323.5,286.6c35.6,0,47.2,10.5,50.7,41.7h-100.8c3.4-31.2,14.8-41.7,50.1-41.7ZM1790.7,384.4c-1.3,12.5-4.6,22-10.4,27.3-7.6,7.4-19.6,8-37.2,8-38.6,0-47.7-15.2-47.7-66s6.8-65.6,47.7-65.6,42.9,2.7,47.2,33.9h63.1c-1.5-74.9-46-83.1-110.7-83.1-93.7,0-109.4,38.7-109.4,114.9s20.9,114.6,109.4,114.6,68-1,85.4-13.9c17-11.8,24.5-32.6,25.2-70.1h-62.7ZM992.9,384.4c-1.3,12.5-4.5,22-10.4,27.3-7.6,7.4-19.6,8-37.2,8-38.6,0-47.7-15.2-47.7-66s6.8-65.6,47.7-65.6,42.9,2.7,47.2,33.9h63.1c-1.5-74.9-46-83.1-110.7-83.1-93.7,0-109.4,38.7-109.4,114.9s20.9,114.6,109.4,114.6,68-1,85.5-13.9c17-11.8,24.5-32.6,25.2-70.1h-62.7Z"/>
</svg>