<?xml version="1.0" encoding="UTF-8"?>
<svg id="Calque_1" xmlns="http://www.w3.org/2000/svg" version="1.1" viewBox="0 0 768 223.6">
  <!-- Generator: Adobe Illustrator 29.4.0, SVG Export Plug-In . SVG Version: 2.1.0 Build 152)  -->
  <path d="M310.5,181.6c0,.5.1,1.3.2,1.6.6,2.3,2.2,4,3.1,4.5,2.6,1.5,7.9.4,11-.6.7.5,1.2,1.5,1.6,2.3.7,1.3,1.2,2.3,2,3.3.3.5.5.8.7.9-.1.2,0,0,0,0-.5.3-.9.7-1.3,1-1.2.9-2.3,1.8-3.5,2.3-1.6.7-3.3,1.2-5.1,1.7l-.7.2c-.4.1-.7.2-1.1.2h-.2c-.7.2-1.1.2-1.8.2-1.3,0-2.6-.3-3.9-.4-.7,0-1.4-.3-2.1-.4-2.2-.3-4.3-1.1-6.5-1.9h-.2c-.6-.3-1-.5-1.3-.8l-1-1c-.8-.8-1.7-1.7-2.5-2.6,0,0-.1-.2-.2-.4h0c0-.3-.1-.5-.2-.6h0c-.7-2-2.9-8.4-2.7-13.2.3-5.6,2.1-10.4,3.6-12.2h0c.6-.8,1.3-1.6,2.2-2.3,1.8-1.5,3.8-2.7,5.8-4h.1c.6-.5,1.5-.6,2.7-.8,1.7-.2,3.6-.3,6-.4h.1c.8,0,1.7.2,2.8.6,1.5.6,2.9,1.4,4.5,2.6,1.5,1.1,2.9,2.5,4.4,4.3,0,.1.2.4.3.6s.2.4.3.6c1.1,1.9,1.1,4.1,1.7,6.7.1.5.2,2.4.3,3.4h0c-.2.1-.6.2-1.5.3-1.2.2-2.4.3-3.8.4-1.2.1-1.6.2-2.9.4-.9.1-2.1.2-3.4.2-2,0-4.1.1-5.9.6l-1.7.4-.2,1.8h0ZM540.7,179.9l1.7-.4c1.8-.5,3.9-.5,5.9-.6,1.3,0,2.4,0,3.4-.2,1.4-.2,2.6-.3,3.8-.4,1.3-.1,1.7-.2,2.9-.4.9-.1,1.2-.2,1.5-.2h0c0-1.1-.2-3.1-.3-3.5-.6-2.6-.6-4.8-1.7-6.7-.1-.2-.2-.4-.3-.6s-.2-.5-.3-.6c-1.5-1.8-2.9-3.2-4.4-4.3-1.6-1.2-3-2.1-4.5-2.6-1.1-.4-2-.6-2.8-.6h-.1c-2.4,0-4.3.2-6,.4-1.3.1-2.1.2-2.7.7h-.1c-2.1,1.5-4,2.7-5.8,4.1-.9.7-1.6,1.4-2.2,2.2h0c-1.6,1.9-3.3,6.7-3.6,12.3-.2,4.7,1.9,11.2,2.6,13.1h0c0,.2.1.4.2.6h0c0,.3.1.4.2.5.8.9,1.7,1.7,2.5,2.6l1,1c.3.3.7.6,1.3.7h.2c2.2.9,4.4,1.6,6.5,1.9.7.1,1.4.3,2.1.4,1.2.1,2.5.4,3.9.4.7,0,1.1,0,1.8-.2h.2c.4-.1.7-.2,1.1-.3l.7-.2c1.9-.5,3.5-1,5.1-1.7,1.2-.5,2.3-1.4,3.5-2.3.4-.4.9-.7,1.3-1h0c-.2-.2-.5-.5-.7-1-.7-1.1-1.3-2-2-3.3-.4-.8-.8-1.8-1.6-2.3-3,.9-8.4,2.1-11,.6-.9-.5-2.4-2.2-3.1-4.5,0-.2-.2-1.1-.2-1.6l.2-1.8h0ZM179,172.8c.5-1.7.8-2.7,2.3-3.5,1.8-1.2,3.5-1,5-1s4.8,2,6.2,2.4c.5-.5,1-1.8,1.6-2.3.7-.7,1.9-2.4,2.9-3.2.2-.2.4-.3.6-.6,0,0-.1-.1-.2-.2-.4-.3-1.7-1.6-2.1-1.9-1.1-.8-1.7-1.5-3-2-1.5-.7-3.2-1.3-5.1-1.8-.3,0-.6-.1-.9-.2-.3,0-.6-.2-.9-.2h-.2c-.7-.2-2.3-.2-2.8,0-1.3.3-1.6.2-2.9.4-.7,0-1.4.2-2.1.3-2.2.4-4.4,1.2-6.6,2h-.1c-.6.2-1,.5-1.3.8-.4.4-.8.8-1.2,1.3-.8.8-1.6,1.7-2.3,2.5-.1.1-.2.2-.2.4h0c0,.2-.1.4-.2.7h0c-.1.4-.2.8-.4,1.2-1,2.8-2.5,7-2.3,11.3.2,4,.4,7.1,1,9.3l1,2.1s0,0,0,0l.3.4v.5c.2.2.3.4.4.6h0c0,.3.2.5.2.6.8,1,1.7,1.9,2.6,2.9l.8.9c.3.4.7.6,1.3.8h0c2.3.9,4.4,1.7,6.6,2.1.7.1,1.4.2,2.1.3,1.3.1,2.5.3,3.9.6.5.1,1,0,1.8-.2h.2c.3-.1.6-.2,1-.3.3,0,.5-.1.8-.2,1.9-.5,3.6-1.1,5.1-1.8,1.2-.6,2.3-1.5,3.5-2.5.5-.4.9-.7,1.3-1.1.1-.1.3-.4.5-.6-.2-.1-1.5-1.6-2.1-1.9-1.1-.7-1.8-2.4-3.2-3.5-.8-.6-1.1-1.6-1.9-2.1-3,1-6.1,3-8.6,1.4-.9-.6-2.4-2.3-3-4.7,0,0-.2-.8-.1-1.4v-6.8c.1-.6.2-1.2.3-1.5h0ZM515.4,186.8c0-.7,0-1.4-.1-2.1,0-1.5-.1-2.9-.3-4.2,0-.1,0-.3,0-.4l-.4-2.5c-.2-1.3-.5-3.1-.8-5-.5-3.4-1.1-7.2-1.3-8.1-.1-.9-.4-2.2-.6-3.3h-12.9c-1.1,0-2.3,0-3.6.3-2.4.5-4.4,1-6.2,1.8-2.6,1.1-4.8,2.3-6.8,3.5-1.9,1.2-3.1,2.7-3.7,4.5-.5,1.7-.9,3.4-1.2,5.5-.3,2.4,0,4.4,1.1,6.1.2.4.5.8.7,1.2.1.3.3.5.4.8,1.5,2.7,3.8,4.8,7.1,6.3,3,1.4,6.2,2.1,9.3,2.1h.5c1.5,0,2.2,0,3.3,0h2.3c0-.1-2.6,4-2.6,4-.1.2-.2.4-.4.6-1,1.2-2.2,2.1-3.5,2.9-2.8,1.6-5.7,2.3-8,2.8-2.1.5-4.3.7-6.2.8.8,2.9,1.7,5.9,2.5,8.8.8,0,1.7-.1,2.5-.2,1-.1,2-.2,3-.3,2-.2,3.9-.4,5.9-.5.2,0,.5-.1.8-.2.4-.1.8-.3,1.3-.4,3-.7,5.3-1.5,7.4-2.4,1.6-.7,2.9-1.6,3.8-2.5,1.8-1.8,3.1-3.4,4.1-5.1l.2-.4c.3-.5.6-1,.7-1.4.6-2.4,1.1-5,1.6-7.4.2-.8.2-1.5.2-2.2s0-1.5-.1-2.3c0-.5,0-.8,0-1.1h0ZM603.8,168.7c-1.2-2.2-3.4-4.8-4.1-5.3-2-1.1-6.2-2.2-7.6-2.3-1,0-2.5-.1-4.3-.1s-4.7,0-5.1,0c-.7,0-1.9.1-3.3.2-2.6.1-7,.4-7.6.5-1.2.1-3,.3-3.9.4l-.6,34.7,12.7-.4v-16.3c.2-2,0-3.4,0-4.2-.1-1.2-.2-2.2.7-3s.3-.5.8-.7c.4-.1.7-.4,1.7-.5.3,0,.7,0,1,0,.5,0,1.3,0,2,.2,1.5.3,3.2,2,3.6,2.6.6,1,.9,2.1.9,3.8,0,4.8,0,13.8,0,18.9l14.6.9c.1-2.2.3-5.2.6-7.1.1-1.2.1-13.4-.2-15.7-.3-2.3-1.3-5.4-1.8-6.3h0ZM376,168.7c-1.2-2.2-3.4-4.8-4.1-5.3-2-1.1-6.2-2.2-7.6-2.3-1,0-2.5-.1-4.3-.1s-4.7,0-5.1,0c-.7,0-1.9.1-3.3.2-2.7.1-7,.4-7.6.5-1.2.1-2.2.3-3,.4l-.7,34.7,12.7-.4v-17c.2-2,0-3.4,0-4.2-.1-1.2-.2-2.2.7-3.1.3-.3.7-.6,1.1-.7.4-.1,1.2-.4,2.2-.5.3,0-1,0-.7,0,.5,0,1.3,0,2,.2,1.4.2,3.1,1.9,3.6,2.7.6.9.9,2.1.9,3.7,0,4.8,0,14.5,0,19.6l14.6.9c.1-2.1.3-5.2.6-7.1.1-1.2.1-13.4-.2-15.7-.2-2.3-1.2-5.4-1.7-6.3h0ZM424.7,168.3c-1.2-2.2-3.4-4.8-4.1-5.3-2-1.1-6.2-2.2-7.6-2.3-1,0-2.5-.1-4.2-.1h-4.5s0-2.4,0-2.4c0-3.9.1-7.7.1-10-2-.1-4.1-.4-6.2-.7-2.2-.3-3.6-.6-5.6-.7,0,2.7-1.1,7.4-1.3,12.3v3h-.2v2.5c-.2,4.3-.4,8.9-.4,10.8v1.9c0,.8,0,1.7,0,2.5l-.2,8c0,.3,0,.6,0,.8,0,1-.1,3.7-.1,5.7s0,1.7,0,2.2l15.4-.5v-17.2c.2-2,0-3.4,0-4.2-.1-1.2-.2-2.2.7-3.1.3-.3.7-.6,1.1-.7.4-.1,1.2-.4,2.2-.5.2,0,.5,0,.9,0s1.3,0,2.1.1c1.5.3,2.3,2,2.8,2.6.6,1,.9,2.1.9,3.8,0,4.8,0,14.8,0,19.9l9.7.8c.1-2.1.3-5.1.6-7.1.1-1.2.1-13.4-.2-15.7-.3-2.3-1.3-5.4-1.8-6.3h0ZM236.2,164.6c-2-1.9-4.2-4.1-7-4.7-.5-.1-3.1-.3-8-.3s-6.9.1-7.6.2c-1.4.5-5.1,2.7-6.6,4.7-4.4,5.8-4.6,14.6-4.6,15.8.2,2,4.8,14.2,7.4,16.3,1.2.8,10.1,3.4,16.2,3.4s1.3,0,1.8-.1c4.8-.7,10.2-5.3,11.1-6.5.8-2,3.4-14.5,3.3-16.5-.9-5.4-2.8-9.4-5.8-12.3ZM276.3,162.3l-23.1.9-.8,46.1,14.2.5-.2-16.7,2.1-.4c4.1-.8,10.9-3.4,12-4.1l.2-.2c1.1-.8,4.2-3.4,5.3-5.4,1.9-3.7,1.1-9.9-1.8-14.7-2.2-3.5-5-5.6-7.7-6h0ZM468.7,173.8c-.3-1.6-.7-3.3-1.1-4.9,0-.2-.2-.5-.4-.8l-.2-.4c-.7-1.1-1.6-2.3-2.8-3.5-.6-.6-1.5-1.2-2.5-1.7-1.1-.5-5-1.3-7.1-1.8-.8-.2-1.5-.3-2-.4-.5-.1-2.7-.5-3.2-.5-.9,0-1.8-.1-2.6-.2-1.1,0-2.2-.2-3.4-.3-.3,0-1.8,0-2.1,0-.5,1.7-.5,3-.5,3.8,0,.9-.4,3.4-.4,4.2,1.2.1,2.5-.3,3.8-.2.6,0,1.6-.1,2.1,0,1.3.1,3.7.3,5.2,1.2,1,.6,1.1.5,1.9,1.4l.2.3c.4.6.4.8.4,2.7,0,.4,0,.7,0,1.1l-.2.9-.2,2.2c-.4.4-1.1.4-2.6.4h-.4c-2.5,0-6.7.6-8.5,1.5-2.2,1-3.8,2.4-4.8,4.2-.1.2-.2.4-.3.6-.1.3-.3.6-.5.9-.6,1.1-.8,3.7-.7,5.4,0,.3,0,.6,0,.9s0,0,0,.1c.6,1.7,1,2.6,1.8,4,.3.4,1.7,2,2.9,2.5,1.3.6,2.9,1,4.3,1.2.9.2,1.7.2,2.4.2l20.4-.6c.1-.6.3-1.3.4-1.8.1-.6.1-3.9.1-6.3v-4l.4-3c0-.1,0-.2,0-.3.1-1,.2-1.9.2-3,0-.5,0-1,0-1.5v-.7c0-.6.1-1.1.1-1.7s0-1-.2-1.5v-.3s0,0,0,0ZM497.7,52.7c0,8.9-1.4,17.8-1.3,26.6,0,8.3.3,16.5-.3,24.8-.2,2.9-.2,5.9-.3,8.8,0,1.2.2,1.5,1.5,1.5.3,0,.6,0,.8,0,3.3,0,6.6,0,9.9-.1,6.1-.1,12.2-.2,18.3-.4,1.6,0,1.6,0,1.5-1.6-.2-3.4-.5-6.9-.7-10.3-.2-3.4-.2-6.7-.4-10-.3-6.9-.7-13.8-1-20.7-.3-6.9-.6-13.9-.9-20.8,0-.4-.1-.8-.2-1.3-9.4.3-17.2,1.1-26.6,1.8,0,.7-.1,1.2-.1,1.8h0ZM666.8,77.8c4.5-.7,8.4-.8,12.4-1.5,4.2-.7,1.8-.4,6.1-1.4-.2-1.8-.5-8.6-.8-10.3-1-4.4-2.5-8.7-4.6-12.7-.5-.8-.8-1.8-1.4-2.6-2.3-3-4.9-5.8-7.8-8.2-2.6-2.1-5.3-3.9-8.4-5.2-2.1-.8-4.2-1.5-6.5-1.4-3.4.1-6.8.3-10.2.6-2.2.2-4.4.5-6.4,1.8-3.5,2.4-6.9,4.7-10.1,7.4-1.6,1.3-3,2.8-4.2,4.4-3.3,3.9-6.4,13-6.9,23.6-.4,8.7,3.1,20,4.5,24.3.2.5.3,1.1.6,1.6,0,.1,0,.2,0,.2h0c.2.5.6,1,1,1.5,1.9,2.1,3.8,4.2,5.7,6.3,1,1.1,2.3,1.9,3.7,2.4,3.9,1.5,7.7,3,11.9,3.6,3.2.5,6.4.7,9.5,1.3,1.8.4,3.5,0,5.2-.5s1.9-.5,2.9-.8c3.1-.8,6.2-1.8,9.1-3.2,3.4-1.6,6-4.2,8.9-6.5.5-.4,3.5-4.3,3.9-4.8-4-2.6-1.7-1.1-5.5-3.5-3.6-2.3-7.9-6-11.5-8.3-4.6,2-8.7,1.7-12.3-.5-.4-.2-2.4-2.2-3.2-5.3,0-.1-.1-1.2-.1-1.3,4.1-1.1,10.4-.7,14.6-1.3h0ZM510.2,42.1c3.8-.4,11-2.7,12-7.3.7-3.8,1.4-8.1,1.4-12.7s-5.1-8.8-9.2-11.1c-1.4-.8-2.8-.8-4.1-.8-3.5,0-6.6,1.9-9.3,4.2-3.8,3.1-6.2,9.2-6.2,14.6s.4,3.8,1,5.4c1.7,5,8.6,8.8,14.5,7.7h0ZM759.7,54.3c-.1-2.2-.4-12.8-.6-15.1,0-.6-.2-1.2-1.1-1.4-1.3-.2-54.1,3.8-54.1,3.8-1.6,5-5.1,38.1-5.1,38.1h0c-.4,3.2-.6,6.6-.8,9.8-.5,7.3-1.2,14.6-1.7,22,0,.4,0,.7,0,1.2,8.5,1.2,20.3,2,28.9,2.2l.8-25.8s.9-25.5.9-28.4c0,0,6.8,1.6,11.6,4.8,5.1,1.2,12.7,1,21.3,1,0-.8-.1-11.6-.1-12.3h0ZM606.5,79.6c0-.5-.1-1-.2-1.5h0c-.5-3.3-3.4-23.4-3.9-26.6s-1.8-9.1-1.8-9.1h-24.2c-2.3-.1-4.7.1-7,.6-3.8.8-7.5,1.8-11,3.4-4.1,1.9-8,4-11.7,6.5-3.7,2.5-6.4,5.8-7.7,10.1-1,3.4-1.7,6.8-2.1,10.3-.5,4.6,0,9,2.2,13.1.6,1.1,1.1,2.3,1.7,3.5,3,5.8,7.7,9.9,13.5,12.7,5.5,2.7,11.4,4.1,17.5,4.1.5,0,1.1-.1,1.6.5-.1.2-.2.4-.4.6-1.3,1.6-2.9,2.9-4.6,4-3.7,2.2-7.7,3.4-11.9,4.4-4.1,1-8.3,1.2-12.5,1.5-.6,0-1.2.1-2,.2.2.7.2,1.1.4,1.6,1.9,6.9,3.8,13.9,5.6,20.8.3,1.1.4,1.2,1.6,1.1,2.1-.2,4.3-.4,6.4-.6,4.8-.5,9.7-1,14.6-1.5,1.5-.1,2.7-.9,4.1-1.2,4.4-1.1,8.8-2.5,12.9-4.5,2.8-1.3,5.4-3,7.5-5.3,2.8-2.9,5.3-6.1,7.3-9.7.8-1.4,1.6-2.8,2-4.3,1-4.3,1.8-8.7,2.7-13,.3-1.5.5-3,.5-4.6s-.2-4-.3-6c-.2-3.8-.2-7.5-.7-11.2h0ZM484.8,118.4l-7.9,1.2c-1.2.5-2.4.2-3.6.2-4.7-.3-9.3-1.1-13.7-3-2.2-1-4.4-1.9-6.3-3.5-2.5-2.1-5-4.2-7.5-6.3-2.3-1.9-3.8-4.6-5.2-7.2-2.7-4.8-4.1-7.7-5.5-12.6-.6-2.3-.5-6-.8-8.6,0-.5-.4-7.6-.8-15.5l-13.1-.3.6-21.4,11.6-.8c.1-5.3.2-10.6.4-15.9,0-.3,0-.7,0-1,0-.6.4-.9,1-1,2.9-.2,5.8-.5,8.7-.8,6.4-.6,12.9-1.3,19.4-1.9,2.4-.2,3.7-.4,6.1-.6.4,0,.7,0,1.4,0-.5,6.3-.7,12.4-1.1,18.8,6.1-.3,12.2-.8,18.3-1.2,0,1.1.2,2.1.2,3.1.2,7.4.4,16.9.6,24.3,0,1.3-19-1-19.5-.8,1.1,7.4,1.7,18.9,3.1,27.6l6.6,2.5,6.2,1.5.7,23.1h0ZM449.7,51.1c0-1.2-.4-2.4-.7-3.6-.2-.7-1.8-2.2-1.8-2.2,0,0-2.7-1.1-4.9-1.3-1.8-.2-10.3,2.1-10.3,2.1,0,0-1.6,2-1.6,2.9s.4,4.6.4,4.6c0,0,.5,1.9,1.3,2.2.8.3,6.5.3,6.5.3,0,0,.6,0,1.5-.2,0,0-.1-.2-.2-.2-1-1.3-1.5-3.1-1.1-4.7.4-1.5,2.9-3.1,5.5-3.1s3.5,2.3,3.8,2.9c.4,1.1.6,2.3.4,3.4.4-.7,1.1-2.1,1.1-2.9h0ZM466,47.8c1-.3,2.2-.6,3-.4,1.1.3,2,1,2.8,1.8.5.5.8,1,1.2,1.6.5,1.1.7,2.3.4,3.5,1-.9,1.3-3.5,1.3-3.5,0,0,.1-2.3-.8-3.8-1.5-2.4-6.2-3.8-7.2-3.8s-5.2,0-5.7,0c-.5.1-4.6,1.7-4.6,1.7,0,0-1.9,1.5-2.2,1.9-.3.4.3,4.7.3,4.7,0,0,.8,3.6,1,3.8.2.1,6,.7,6,.7h2.6c-1-1.4-1.3-3.7-.8-5.4.4-1.4,1.2-2.4,2.7-2.9h0ZM392.1,96.8c0-2-.2-4-.3-6-.2-3.7-.3-7.5-.7-11.2,0-.5-.1-1-.2-1.5h0c-.5-3.3-3.4-23.4-3.9-26.6s-1.8-9.1-1.8-9.1h-24.2c-2.3-.1-4.7.1-7,.6-3.8.8-7.5,1.8-11,3.4-4.1,1.9-8,4-11.7,6.5-3.7,2.5-6.4,5.8-7.7,10.1-1,3.4-1.7,6.8-2.1,10.3-.5,4.6,0,9,2.2,13.1.6,1.1,1.1,2.3,1.7,3.5,3,5.8,7.7,9.9,13.5,12.7,5.5,2.7,11.4,4.1,17.5,4.1.5,0,1.1-.1,1.6.5-.1.2-.2.4-.4.6-1.3,1.6-2.9,2.9-4.6,4-3.7,2.2-7.7,3.4-11.9,4.4-4.1,1-8.3,1.2-12.5,1.5-.6,0-1.2.1-2,.2.2.7.2,1.1.4,1.6,1.9,6.9,3.8,13.9,5.6,20.8.3,1.1.4,1.2,1.6,1.1,2.1-.2,4.3-.4,6.4-.6,4.8-.5,9.7-1,14.6-1.5,1.5-.1,2.7-.9,4.1-1.2,4.4-1.1,8.8-2.5,12.9-4.5,2.8-1.3,5.4-3,7.5-5.3,2.8-2.9,5.3-6.1,7.3-9.7.8-1.4,1.6-2.8,2-4.3,1-4.3,1.8-8.7,2.7-13,.3-1.5.5-3,.5-4.6h0ZM166.7,140c0-8.5,1.8-25.3,1.8-25.3,0,0,16.9-58.6,19.3-66.8-5.1-.4-5.7-.3-26.2-3.4h-3.5c-.7,2.9-1.8,8.7-2.3,10.6-1.3,6-3,15.4-4.6,21.5-4.4-6.8-13.4-21.7-16.7-29-1.3-2.9-2.4-3.6-4.4-2.6-1.6.7-12.3,3.8-12.3,3.8,0,0-3.9,2.1-4.9,2.5,0,0,22.5,48.8,25.5,58.4.4,1.3.6,3.6.9,5.5l-1.7,28.9c.9-.1,28.9-4,28.9-4h0ZM195.6,114.7c.2,0,.5,0,.8,0,3,0,8.8,0,11.8-.1,5.6-.1,11.2-.2,16.8-.3,1.5,0,1.5,0,1.3-1.5-.2-3.2-.5-12.8-.6-16-.2-3.1-.2-6.2-.4-9.3-.3-6.3-.6-12.7-.9-19s-.6-16.9-.8-23.3c0-.4-.1-.7-.2-1.2-8.6.2-18.4,1-27.2,1.6,0,.6-.1,1.1-.1,1.7,0,8.2-1.3,20.5-1.2,28.6,0,7.6.3,15.2-.2,22.8-.2,2.7-.2,11.9-.2,14.6,0,1.1.2,1.4,1.3,1.4h0ZM108.1,96.7c-.2-3.1.3-6.2.2-9.3-.3-6.3-.6-12.7-.9-19s.5-43.9.2-50.3c0-.4-.1-.7-.2-1.2-8.6.2-21.3,1-29.9,1.6,0,.6-.1,1.1-.1,1.7,0,8.2-1.8,47.5-1.7,55.6,0,7.6.3,15.2-.2,22.8-.2,2.7-.2,11.9-.2,14.6,0,1.1.2,1.4,1.3,1.4.2,0,.5,0,.8,0,3,0,10.3,0,13.3-.1,5.6-.1,11.3-.2,16.9-.3,1.5,0,1.5,0,1.3-1.5-.3-3.2-.6-12.8-.7-16h0ZM205.2,38.9c1.3.7,2.7.7,4,.7,3.4,0,6.9-.1,9.6-2.4,3.7-3,7.2-8.4,7.2-13.6s-.4-3.7-1-5.2c-1.7-4.8-8.4-7.4-14.1-6.3-3.7.4-9,3.2-10,7.6-.7,3.7-1.3,6.1-1.3,10.5s1.6,6.3,5.6,8.5h0ZM65.3,12.4c-5,0-22.8,2.3-25.1,3.3-1.3.6-12,7.9-12.8,8.6-1.6,1.2-5,8.5-6.3,14.5l-.3,4.4-.3,5.7-12,1.2.2,2.2s-.1,7-.2,11.3c0,1.3,0,2.8,0,2.8l-.2,1.5c2.5.1,6.9.8,11.2,1.4-.3,8.5-1,37-1.2,40.3,0,.2,0,4.2,0,4.4,0,.5,30.5,1,31,1,0-4.4.7-40.6.7-45v-.5c6.5,0,13.3-.1,13.3-.1v-2.1s.6-12.3.5-17.5c0-.8-.1-1-1-1.1h-10.4c0-.1-.1-.1-.1-.1v-.5c0-.5.5-4.7.5-4.7l.8-5.7,12.7-5c.5-4,.2-20.3-1-20.3h0ZM275.3,79c0-7.3-.8-9.9-.1-9.9,0,0,1.1-.5,2.7-.7.5,0,2.3,0,3.5.1.7.1,2.6,1.8,3.1,2.6.6,1,.8,2.4.8,4.3,0,10.5,0,36.4,0,36.4l22.5,2.1c.1-.4.4-10.9,1.2-16.2.4-2.2.2-24.3-.4-28.5-.6-4.4-2.3-10.3-3.4-12.4-2.2-4.1-6.5-9.9-8.1-10.8-3.7-2.2-11.3-4.5-14.4-4.7-5.1-.3-14.6-.1-15.9,0-4.1.2-14.4,1-15.8,1.2-4.8.6-8.1,1.3-8.5,1.2l-1.2,68.2,33.5-1,.4-32Z"/>
</svg>