<?xml version="1.0" encoding="UTF-8"?>
<svg id="Calque_2" data-name="Calque 2" xmlns="http://www.w3.org/2000/svg" viewBox="0 0 208.15 198.1">
  <defs>
    <style>
      .cls-1 {
        fill: #97c33e;
      }

      .cls-2 {
        fill: #fbfcf8;
      }
    </style>
  </defs>
  <g id="Calque_1-2" data-name="Calque 1">
    <g>
      <path class="cls-1" d="M172.72,21.46c29.37,28.16,46.07,92,27.81,129.26-5.99,12.23-13.23,22.08-24.78,29.36-26.41,16.65-69.88,21.44-100.32,15.68C41.41,189.33,4.75,143.36.68,109.73-4.12,70.03,16.91,36.01,47.14,12.57,68.31-3.85,109.39-.96,134.39,3.38c16.07,2.79,26.41,6.65,38.33,18.08ZM34.82,79.33c1.04-.65,5.55.85,6.1-.85.23-.71.19-5.96-.14-6.44-1.19-1.71-6.55,1.64-6.55-2.61,0-5.71,6.47-2.55,7.51-4.05.14-5.09,2.02-7.18-3.88-7.7-5.38-.48-11.47.98-12.86,6.8-.41,1.69-.07,6.86-.33,7.11-.29.29-3.9-.54-4.59.45-.38.54-.38,6.24,0,6.78.75,1.07,4.48-.07,4.6.73-.58,2.57.73,20.11,0,20.85-.29.29-3.9-.54-4.59.45-.44.64-.42,6.56.24,7.02,2.38.13,18.36.71,19.02-.24.32-.45.37-6.32.14-6.68-.53-.85-4.57-.37-4.73-.55-.7-.75.22-16.25-.52-18.48.03-.56.25-2.37.59-2.58ZM156.2,58.62h-13.92c-.1.99-.46,6.7,0,7.2.18.19,4.32-.45,4.32.72v33.84c-.76.12-4.16-.17-4.32,0-.47.5.05,6.66,0,7.68h17.04c.96,0,.95-5.99.65-6.89-.42-1.28-2.67-.68-3.78-.78.5-5.02-.66-11.24-.02-16.1.76-5.78,8.94-7.97,10.73-2.05.72,2.4,1.51,17.31.26,18.08-.51.32-3.29-.1-3.29.07v7.68h17.76v-7.68c0-.24-4.8.24-4.8,0v-21.84c0-.21-1.62-3.42-1.92-3.84-2.92-4.05-9.1-4.99-13.65-3.58-2.17.67-3.23,2.36-5.06,3.34v-15.84ZM69.8,79.74v-8.4c0-1.52-6-.28-7.07.13-2.54.99-4.23,3.21-5.66,5.38-.33-.62-.27-5.28-.72-5.28h-12.48c0,1.05-.53,7.1,0,7.68.21.22,4.32-.21,4.32,0v21.12c-.76.12-4.16-.17-4.32,0-.47.5.05,6.66,0,7.68h18.24c-.05-1.03.47-7.18,0-7.68-.16-.17-3.56.12-4.32,0v-13.68c0-.2,1.26-3.41,1.44-3.74.24-.45,2.93-2.63,3.5-2.84,2.18-.82,4.79-.19,7.06-.38ZM104.84,96.06h-9.36c-1.19,3.1-2.16,5.9-6.31,6.21-2.23.17-4.92-1-6.03-2.98-.54-.97-2.87-8.02-1.1-8.02h23.28c.33-12.57-5.74-22.04-19.43-20.63-14.51,1.49-17.57,21.53-11.3,31.93,6.74,11.19,29.99,7.91,30.25-6.49ZM116.84,95.1h-7.2v12.96c.97-.16,6.02.22,6.24,0,.28-.28-.41-2.42.24-2.88,4.49,4.55,10.7,5.29,16.41,2.49,7.31-3.58,7.44-14.45.48-18.91-3.38-2.16-9.61-3.06-12.3-4.98-.4-.28-1.83-2.5-1.87-2.93-.31-3.42,7.93-4.88,10.04.04.6,1.41.12,2.73,1.16,3.64h6.96v-12.48c-.97.17-6.03-.23-6.24,0s.52,2.46-.71,1.92c-.38-.17-.9-1.02-1.52-1.37-15.16-8.35-26.27,11.34-13.28,18.56,2.86,1.59,13.23,3.84,14,6.67.6,2.18-1.98,4.24-4,4.47-4.56.5-7.84-2.91-8.41-7.21ZM188.04,101.02c-2.53,5.11,3.33,10.14,8.15,6.96,5.55-3.66.02-13.32-6.39-8.78-.11.08-1.71,1.7-1.77,1.82ZM182.6,119.58c.23-2.65-.46-3.49-3.11-3.38s-2.28,1.04-2.17,3.38c1.39.48,1.96-.66,2.64-.96.15-.06.58,1.79,2.64.96ZM89.07,119.51c.6.96,4.75.63,4.2-1.52-.62-2.41-5.94-1.3-4.2,1.52ZM131.72,117.18h-4.32c.1.6-.21,2.06.05,2.37s1.85-.56,1.39.99c-1.16.08-2.42-.15-3.57.03-5.04.8-4.83,11.59.93,11.49.8-.01,5.83-.44,6.17-.55.85-.28,1.09-1.93.76-2.31-.13-.15-1.41.05-1.41-.02v-12ZM190.28,118.14c-.1-.1-2.78-.1-2.88,0-.16.16.14,1.61.04,2.14-.13.68-1.91-.7-1.51,1.95.17,1.13,1.26.65,1.49,1.89.55,2.96-1.8,7.7,3.11,7.5,1.76-.07,1.79-.84,1.68-2.44-.46-.1-1.78.14-1.93,0-.23-.21-.23-6.03,0-6.25.41-.38,2.35.94,1.94-1.21-.3-1.54-1.58-.93-1.87-1.25-.35-.38.13-2.14-.07-2.34ZM29.1,129.09c-.45-.74.08-4.06-.13-5.4-.72-4.64-8.71-4.27-8.61.69,2.47,1.04,3.1-1.35,4.07-1.47.79-.09,1.86.34,1.69,1.22-.19.94-2.84.66-3.82.99-3.67,1.24-2.87,6.61.74,6.94.45.04,6.28-.46,6.6-.55,2.46-.77-.45-2.27-.54-2.42ZM35.27,129.15c-1.09-.68.03-7.08-.72-8.16-.65-.92-4.79-1.06-4.14,1.64.12.48,1.24.28,1.48,1.49.41,2.12-.97,5.83.97,7.19,2.11,1.48,5.39-.24,7.9.27,3.07-1.18-.13-2.26-.25-2.73-.98-3.87,2.76-9.6-4.31-8.31-.79,1.79.91,2.55.95,2.73.29,1.19.32,7.26-1.87,5.88ZM56.84,121.02c-.18-.17-4.56-.56-5.04-.52-2.5.19-4.22,3.38-3.04,5.25.37.59,3.86,1.49,4.6,1.84,1.29.62,1.55,2.36-.77,1.76-1.48-.38-1.55-2.31-3.91-1.61.11.71-.17,3.68,0,3.84.19.19,4.78.42,5.4.38,1.92-.14,3.74-2.34,3.17-4.36-.28-.97-1.87-1.44-1.85-2.5,0-.43,1.12-.23,1.38-1.01.15-.44.18-2.96.07-3.07ZM66.76,121.65c-.99-.91-3.1-1.29-4.42-1.14-5.2.57-5.45,9.95-.73,11.33,2.89.85,6.7-.67,6.26-4.1-2.71-.97-2.94,1.46-4.56,1.49-2.16.03-2-2.38-1.41-2.46h5.97c.05-1.7.27-3.85-1.11-5.12ZM91.16,121.02c-2.62.17-5.3-.12-7.92,0-.68,1.69.97,1.85,1.01,2.62.07,1.46-.81,2.71-1.02,4.1-.71.56-1.89-3.61-1.92-4.15-.02-.43,1.87-1.6.97-2.57-.19-.21-5.28-.45-5.04.96-.49-2-2.12-.5-3.41-.53-1.8-.05-5.34-1.73-4.49,1.16.1.34.82.27.92.67.12.45.6,5.24.53,5.64-.06.34-2.37-.21-1.47,2.65,1.22-.2,4.92.47,5.55-.45,1.46-2.14-1.21-1.95-1.26-2.21-.19-.99-.05-4.7.63-5.38.56-.56,3.75-.89,4.16-.54.64.55,1.66,7.96,3.24,8.51,4.69,1.63,4.09-8.14,5.75-8.59.55-.15,1.45.12,2.1.02-.28,1.69.39,4.41.01,5.91-.14.56-2.32.76-1.23,2.27.7.97,4.7.25,6.02.46.72-2.64-.96-2.25-.96-2.4v-7.44c0-.17-.62-.73-.48-1.2-.65-.29-1.37.46-1.68.48ZM103.81,121.09c-.21-.13-4.41-.61-4.96-.58-5.06.31-5.53,10.25-.46,11.04,2.7.42,5.77-.67,5.49-3.81-2.02-.97-3.42,1.44-3.63,1.46-2.87.32-3.3-6.25.04-6.31.91-.02,1.73,3.02,4.07,1.97.21-.21-.12-3.51-.55-3.77ZM113.83,121.62c-.09-.1-2.27-1.01-2.54-1.06-5.34-.82-6.7,3.3-5.94,7.86.87,5.18,9.31,4.64,9.57-.69-.71.13-3.04-.24-3.33.05-.2.2.25,1.31-.29,1.42-3.49.72-3.66-2.33-2.83-2.44,1.32-.21,5.55.51,6.25-.44.45-.75-.52-4.29-.89-4.71ZM137.96,129.18v-7.44c0-1.1-4.17-2.03-4.75-.43-.63,1.72.82,1.6.9,1.95.56,2.38-1.07,8.89,3.61,8.83,1.1-.02,1.75-.78,2.46-.85,1.05-.11,2.75.71,4.02.34.72-2.64-.96-2.25-.96-2.4v-7.92c0-1.27-5.42-1.23-4.8,1.68.16.15,1.36-.31,1.47.26.29,1.54.54,6.82-1.95,5.98ZM157.54,120.68c-2.43-1.57-5.71,1.27-6.09,3.98-.78,5.5,2,7.53,7.15,6.44-.08,2.06-1.56,2.86-3.51,2.39-.39-.09-.15-.94-1.03-1-4.76-.31-.8,5.23,4.36,3.49.12-.04,2.05-1.25,2.11-1.36,1.06-1.82.17-7.49.51-9.97.24-1.76,1.35-1.72,1.41-2.01.55-2.77-3.18-2.74-4.57-1.14-.42.07-.11-.67-.34-.82ZM171.3,130.85c3.92-3.32,2.72-10.31-2.86-10.35-4.95-.04-5.57,3.2-5.05,7.49.48,4,5.05,5.28,7.92,2.86ZM178.28,121.02c-.76.12-4.15-.17-4.32,0-.06.07-.06,1.73.07,1.87.2.22,1.29-.24,1.4.31.66,3.28-2.1,8.84,3.51,8.81.67,0,5.46-.41,5.75-.5.64-.21.67-.55.8-1.12.43-1.97-1.22-.76-1.48-1.5-.43-1.24.01-7.36-.47-7.85-.13-.14-3.69-.15-3.82-.01-.06.07-.06,1.73.07,1.87.2.22,1.29-.24,1.4.31.16.8-.02,5.57-.56,5.93s-2.36-.13-2.36-.67v-7.44Z"/>
      <path class="cls-2" d="M157.59,122.99c-.23-.19-1.64-.12-2.05.02-2.04.69-1.54,7.85,1.62,5.94,1.28-.77,1.06-5.43.42-5.96Z"/>
      <path class="cls-2" d="M127.82,123.01c-2.98-1.83-3.85,5.52-2.03,6.12,4.16,1.39,3.28-5.36,2.03-6.12Z"/>
      <path class="cls-2" d="M26.11,126.78c-2.11-.22-3.21.01-2.88,2.39,2.5.34,2.55-.06,2.88-2.39Z"/>
      <path class="cls-2" d="M111.56,122.94c-4.51-.49-4.9,2.75,0,1.91v-1.91Z"/>
      <path class="cls-2" d="M169.54,123.04c-3.68-2.1-3.95,5.32-2.72,6.07,3.52,2.14,4.92-4.81,2.72-6.07Z"/>
      <path class="cls-2" d="M54.43,124.86c.37-2.03-1.62-2.65-2.87-1.19l2.87,1.19Z"/>
      <path class="cls-1" d="M157.59,122.99c.64.53.86,5.19-.42,5.96-3.17,1.91-3.66-5.26-1.62-5.94.41-.14,1.81-.21,2.05-.02Z"/>
      <path class="cls-1" d="M127.82,123.01c1.24.76,2.13,7.51-2.03,6.12-1.81-.61-.95-7.95,2.03-6.12Z"/>
      <path class="cls-1" d="M26.11,126.78c-.33,2.33-.38,2.73-2.88,2.39-.33-2.38.77-2.61,2.88-2.39Z"/>
      <path class="cls-1" d="M65,122.94v1.91c-4.9.83-4.51-2.4,0-1.91Z"/>
      <path class="cls-1" d="M111.56,122.94v1.91c-4.9.83-4.51-2.4,0-1.91Z"/>
      <path class="cls-1" d="M169.54,123.04c2.2,1.25.81,8.2-2.72,6.07-1.23-.75-.96-8.16,2.72-6.07Z"/>
      <path class="cls-1" d="M54.43,124.86l-2.87-1.19c1.25-1.46,3.24-.84,2.87,1.19Z"/>
      <path class="cls-1" d="M81.8,85.02c.16-5.25,3.81-8.29,9.15-6.99,3.37.82,5.18,6.99,3.57,6.99h-12.72Z"/>
    </g>
  </g>
</svg>