<?xml version="1.0" encoding="utf-8"?>
<svg version="1.1" id="Calque_1" xmlns="http://www.w3.org/2000/svg" xmlns:xlink="http://www.w3.org/1999/xlink" x="0px" y="0px"
	 viewBox="0 0 275 85.4" style="enable-background:new 0 0 275 85.4;" xml:space="preserve">
<style type="text/css">
	.gemo-logo{fill:#2D2926;}
</style>
<g>
	<path class="gemo-logo" d="M128.1,35.6V23.4H76v59.3h52.1V70.5H88.3V59.2h39.8V47H88.3V35.6H128.1z"/>
	<path class="gemo-logo" d="M186.7,82.8H199V23.4h-59.6l0,59.3h12.3v-47h11.4v47h12.3v-47h11.4V82.8z"/>
	<path class="gemo-logo" d="M128.1,12.2H76V0h52.1V12.2z"/>
	<path class="gemo-logo" d="M242.6,21c-17.9,0-32.4,14.4-32.4,32.2c0,17.8,14.5,32.2,32.4,32.2c17.9,0,32.4-14.4,32.4-32.2
		C275,35.4,260.5,21,242.6,21z M242.6,72.8c-10.9,0-19.7-8.8-19.7-19.6c0-10.8,8.8-19.6,19.7-19.6c10.9,0,19.7,8.8,19.7,19.6
		C262.3,64,253.5,72.8,242.6,72.8z"/>
	<path class="gemo-logo" d="M64.5,49.4H32.7v12.2h17.4c-3.2,6.6-9.9,11.1-17.7,11.1c-10.9,0-19.7-8.8-19.7-19.6s8.8-19.6,19.7-19.6
		c6.7,0,12.6,3.4,16.2,8.5h14.2c-4.5-12.3-16.4-21.1-30.4-21.1C14.5,20.9,0,35.3,0,53.1c0,17.8,14.5,32.2,32.4,32.2
		c17.9,0,32.4-14.4,32.4-32.2C64.7,51.8,64.6,50.6,64.5,49.4z"/>
</g></svg>