<?xml version="1.0" encoding="UTF-8"?>
<svg id="Calque_2" data-name="Calque 2" xmlns="http://www.w3.org/2000/svg" viewBox="0 0 775.26 680.9">
  <defs>
    <style>
      .cls-1 {
        fill: #030303;
      }

      .cls-2 {
        fill: #fefefe;
      }

      .cls-3 {
        fill: #db001d;
      }

      .cls-4 {
        fill: #fed900;
      }

      .cls-5 {
        fill: #db011d;
      }
    </style>
  </defs>
  <g id="Calque_1-2" data-name="Calque 1">
    <g>
      <path class="cls-1" d="M406.25,600.24l5.28,63.8-10.55.97c-.14-.76.54-2.14-.73-1.93-1,.17-3.57,2.21-5.41,2.75-13.58,3.98-24.76-4.54-26-18.34-1.63-18.25,9.56-31.1,28.29-26.62l-.89-16.96c.34-1.02,8.43-3.05,10.01-3.66ZM398,630.55c-14.1-5.94-21.58,6.07-17.42,19.09,2.65,8.28,12.89,10.12,19.19,4.8l-1.77-23.89Z"/>
      <path class="cls-1" d="M40.2,601.19l7.13,63.02-.72.72-9.77,1.03-.24-2.4c-10.35,8.53-25.41,5.22-30.35-7.55-7.33-18.95,4.27-39.31,25.79-33.71l-1.85-17.68,10-3.43ZM18.31,633.51c-5.57,5.57-4.28,20.47,3.23,24.01,4.43,2.08,11.68,1.75,14.35-2.84l-2.64-22.3c-3.81-3.82-11.42-2.39-14.94,1.13Z"/>
      <path class="cls-1" d="M205.48,673.15c-2.83-.38-1.23-2.18-1.68-2.88-8.88,5.86-22.4,2.45-27.12-7.18-3.62-7.38-2.97-19.91,1.5-26.84,6.18-9.6,17.89-12.34,28.02-7.24l1.03-17.68,10.24-1.99-3.11,63.81c-2.79-.27-6.17.36-8.88,0ZM195.04,635.85c-11.14,1.78-13.34,21.71-4.36,26.67,3.77,2.08,10.36,2.54,13.52-.72l1.41-22.9c-2.64-2.95-6.75-3.67-10.57-3.05Z"/>
      <path class="cls-1" d="M521.31,613.26c.57.9-1.87,8.31-2.62,8.54-6.38-2.41-11.12-3.61-17.46-.22-15.7,8.38-7.8,42.18,13.82,35.41,7.71-2.42,4.25-7.35,3.49-13.37-1.1-.8-5.61.97-7.23.76.16-1.84-1.72-6.85-.75-8.19.54-.76,14.5-2.16,16.58-2.85-.32,4.32,4.52,22.13,3.12,24.95-.34.69-5.72,4.2-6.78,4.73-22.57,11.29-41.67-3.26-40.5-27.55.83-17.2,17.71-28.81,34.09-23.96.6.18,4.12,1.56,4.24,1.75Z"/>
      <path class="cls-1" d="M455.6,648.14l-30.16,7.26c1.83,9.65,13.19,10.53,20.31,5.67,1.25-.85,3-3.52,4.36-3.31.8,1.89,5.67,5.42,4.85,7.22-.66,1.46-5.65,4.45-7.28,5.22-17.75,8.41-33.98-.44-34.73-20.3-1.12-29.64,43.9-32.62,42.65-1.76ZM444.15,642.93c-2.54-13.44-22-7.98-20.63,4.8l20.63-4.8Z"/>
      <path class="cls-1" d="M91.54,654.44h-31.18c-.25,12.1,14.89,13.86,22.78,7.67l4.05,7.87c-5.83,4.74-15.38,5.47-22.52,3.9-23.91-5.25-20.68-48.07,9.39-45.85,13.24.98,21.28,13.96,17.49,26.4ZM81.46,646.29c-.39-13.21-19.35-12.4-21.11,0h21.11Z"/>
      <path class="cls-1" d="M675.87,656.85c.91-.6,5.56,5.69,6.19,6.89-2.95,3.76-7.33,6.03-11.85,7.37-14.12,4.17-25.33-.59-29.13-15.22-8.74-33.67,40.73-43.19,41.78-8.62l-30.5,7.92c2.9,9.86,14.97,9.84,21.81,4.05.99-.84,1.58-2.3,1.7-2.38ZM671.55,641.97c-3.89-12.81-21.73-7.75-21.11,4.8l21.11-4.8Z"/>
      <path class="cls-1" d="M260.41,659.72h-31.18c-.23,11.82,15.45,13.91,22.79,7.2.44,0,4.09,7.41,4.01,7.84-.39,2.04-8.79,4.35-10.79,4.56-2.37.25-6.21.26-8.59.08-26.25-2.07-24.67-45.3,2.39-46.57,15.41-.72,25.45,12.1,21.37,26.88ZM250.81,651.57c-1-13.46-20.11-12.99-21.59,0h21.59Z"/>
      <path class="cls-1" d="M305.44,653.9l-31.6-1.37c.69,9.48,7.33,12.39,16.06,11.5,3.12-.32,4.7-1.83,7.44-2.87.72,5.21,6.37,7.81-.82,10.45-5.18,1.9-12.54,2.06-17.9.84-25.96-5.9-18.37-53.06,13.45-45.11,11.7,2.92,17.09,15.52,13.37,26.56ZM295.91,645.33c.55-11.16-15.29-13.66-19.93-4.34-.63,1.27-2.03,3.62.02,3.86l19.91.48Z"/>
      <path class="cls-1" d="M574.64,647.25h-31.18c-.61,12.16,15.17,13.97,22.79,7.69.82,1.17,4.32,7.26,3.87,8.14-1.78,3.44-14.26,4.54-17.81,4.34-29.29-1.65-25.98-48.41,3.88-46.58,13.87.85,22.16,13.17,18.45,26.41ZM565.04,639.57c-.61-13.72-20.23-13.22-21.59,0h21.59Z"/>
      <path class="cls-1" d="M617.82,672.19h-10.55v-29.98c0-4.01-4.84-6.81-8.47-6.92-1.98-.06-9.28,2.65-9.28,4.52v32.38h-10.55v-44.37c0-.05.67-.72.72-.72h6.96c.21,0,1.18,3.38,1.45,3.84,1.84-.64,3.08-2.16,4.94-2.97,8.01-3.49,19.24-1.08,23.12,7.29.28.61,1.68,4.71,1.68,5.03v31.9Z"/>
      <path class="cls-1" d="M123.62,627.65c.58.99-3.3,6.79-4.02,8.08-2.95-4.04-16.4-7.58-14.53.63,1.02,4.48,15.69,7.84,16.69,16.89,1.71,15.54-13.23,18.58-25.08,14.04-.98-.38-6.5-3.65-6.85-4.2-.42-.65-.04-.75.23-1.24,1.2-2.18,3.05-4.2,4.15-6.48,2.47.99,4.17,3.1,6.93,4.1,4.72,1.72,10.67,2.08,9.56-4.76-.61-3.79-9.58-7.72-12.46-10.56-6.76-6.66-5.72-18.12,4.07-20.91,5.35-1.53,12.23-.33,17.24,2,.53.25,3.96,2.2,4.08,2.41Z"/>
      <path class="cls-1" d="M333.77,619.46c.44.51-1.47,8.45-2.14,8.6-3.3-2.31-15.26-3.17-14.52,3.01.5,4.18,10.54,5.61,13.99,7.13,4.22,1.87,7.91,5.42,8.47,10.24,1.88,16.31-18.23,19.04-29.73,14.12l2.4-8.59c4.67,1.05,8.33,3.36,13.42,1.67,4.76-1.58,3.84-6.45.16-8.81-5.84-3.74-17.84-3.84-19.32-13.3-2.44-15.54,16.28-17.84,27.28-14.09Z"/>
      <path class="cls-1" d="M736.75,659.19l-4.28-.43c.83-11.68.54-23.49,1.99-35.19,1.05-8.45,2.98-16.9,4.5-25.26l11.54,2.37.22,1.21c-2.67,19.6-7.71,38.61-13.98,57.3Z"/>
      <path class="cls-1" d="M633.64,619.43l3.84,45.09-10.26.51-3.66-36.01c-1.14.28-4.35.94-5.2.41-.71-.44-.64-7.17-1.03-8.57l16.31-1.44Z"/>
      <polygon class="cls-1" points="168.77 620.38 170.7 665.48 160.14 665.96 158.7 629.98 152.94 629.98 152.46 621.34 168.77 620.38"/>
      <path class="cls-1" d="M731.9,664.14c10.21-1.01,12.21,15.22,2.22,16.64-11.62,1.66-12.89-15.59-2.22-16.64Z"/>
      <path class="cls-1" d="M624.4,600.35c9.7-1.96,10.38,12.55,1.4,12.19-7.26-.3-7.42-10.97-1.4-12.19Z"/>
      <circle class="cls-1" cx="161.41" cy="606.75" r="6.15"/>
      <path class="cls-1" d="M575.12,600.72c-1.31,1.38-8.58,12.47-9.35,12.47h-7.92l6.96-12.47h10.31Z"/>
      <path class="cls-1" d="M264.72,601.68l-8.64,12.47h-8.16c1.8-4.37,4.49-8.43,6.96-12.47h9.83Z"/>
      <g>
        <path class="cls-4" d="M528.1,245.26c-20.98.04-41.98-.13-62.96.12-7.58,1.44-13.92,7.62-15.5,15.2l-.23,265.55c.73,8.49,8.19,15.91,16.57,17.01,21.08-1.35,44.44,1.81,65.26.02,10.06-.87,16.69-9.28,17.49-18.97,1.89-23.06-1.99-48.99,0-71.96.73-8.42,8.17-16.45,16.62-17.44,19.75-2.3,61.99,9.45,64.95-20.2l32.14,52.29c0,18.28-1.43,39.99-.02,57.82,1.87,23.56,27.39,18.18,43.95,18.43.91.01,1.79.5,2.12.5l18.02,30.2c.75,2.8-.94,5.12-3.86,5.31l-689.41-.48c-2.92-.18-4.4-3.01-3.21-5.63l33.69-56.26c21.2,14.71,49.66,25.03,75.56,26.38,37.46,1.95,76.54-1.44,114.17,0,10.5-1.66,16.35-9.57,17.06-19.88v-138.19c-.22-9.85-7.39-19.03-17.51-19.91-24.5-2.11-51.98,1.63-76.79,0-7.81.47-16.17,8.32-17.02,16.08-.69,6.37-.84,28.84.31,34.71,1.29,6.54,7.34,12.44,13.7,14.12,5.76,1.52,10.59-.37,14.41,5.74,4.91,7.84-.81,15.94-9.45,16.68-9.5.81-26.45.72-36.02,0-12-.9-21.61-9.74-28.05-19.21l58.53-97.38c26.94-.14,53.89.11,80.83,0,10.5-1.66,16.35-9.57,17.06-19.88,1.12-16.5-.9-34.25,0-50.89-1.9-24.49-24.43-19.79-42.24-19.89L375.99.82c2.2-1.57,4.9-.79,6.19,1.56l145.06,240.64.87,2.24ZM353.38,241.57c-71.88,5.88-70.51,121.77-.14,126.97,47.93,3.54,74.55-40.22,62.94-84.04-7.42-28.01-34.28-45.26-62.81-42.93ZM322.18,390.73c-7.92,1.5-14.26,8.08-15.72,15.94l-.02,119.95c1.26,8.56,8,15.3,16.58,16.52,23.25-1.49,49.02,2,71.97.02,10.08-.87,17.06-9.62,17.51-19.43v-113.73c-.74-10.03-6.97-17.78-17.05-19.4l-73.27.12Z"/>
        <path class="cls-4" d="M578.96,328.73l15.35,25.9c-12.19-.11-27.91,1.25-39.58,0-2.02-.22-4.84-1.51-5.63-3.48-.65-1.61-.66-15.04-.37-17.4.34-2.8,2.22-4.7,5.04-5.04,7.15-.86,17.63.04,25.2.01Z"/>
        <g>
          <path class="cls-3" d="M228.26,245.26c17.81.09,40.34-4.6,42.24,19.89-.9,16.64,1.12,34.39,0,50.89-.7,10.32-6.56,18.22-17.06,19.88-26.94.11-53.9-.13-80.83,0-24.56.12-39.8-4.19-56.59,17.05-18.63,23.56-18.67,55.71-1.94,80.33,6.43,9.46,16.04,18.31,28.05,19.21,9.57.72,26.52.81,36.02,0,8.64-.74,14.36-8.84,9.45-16.68-3.82-6.11-8.65-4.21-14.41-5.74-6.36-1.68-12.41-7.59-13.7-14.12-1.16-5.87-1-28.34-.31-34.71.84-7.77,9.21-15.61,17.02-16.08,24.81,1.63,52.29-2.11,76.79,0,10.12.87,17.3,10.05,17.51,19.91v138.19c-.7,10.32-6.56,18.22-17.06,19.88-37.63-1.44-76.71,1.95-114.17,0-25.91-1.35-54.37-11.67-75.56-26.38C-4.11,469.71-20.41,375.17,27.54,307.67c24.91-35.06,67.37-59.96,110.77-62.41,28.7-1.62,60.91-.16,89.95,0Z"/>
          <g>
            <path class="cls-3" d="M528.1,245.26c28.38-.05,56.77.03,85.15,0,7.87,1.14,14.24,6.69,16.33,14.37.32,15.94,1.96,34.29.72,50.16-.77,9.93-8.05,17.87-18.07,18.87s-22.89.01-33.28.06c-7.57.03-18.05-.87-25.2-.01-2.82.34-4.7,2.24-5.04,5.04-.28,2.35-.28,15.79.37,17.4.8,1.97,3.62,3.27,5.63,3.48,11.67,1.25,27.39-.11,39.58,0,6.2.05,14.23-.77,20.03.84,8.9,2.46,15.2,10.95,15.94,20.04.8,9.87.98,29.36,0,39.09-2.96,29.65-45.2,17.89-64.95,20.2-8.45.99-15.89,9.02-16.62,17.44-1.98,22.97,1.89,48.91,0,71.96-.79,9.69-7.43,18.11-17.49,18.97-20.81,1.79-44.18-1.37-65.26-.02-8.38-1.1-15.84-8.52-16.57-17.01l.23-265.55c1.58-7.59,7.92-13.76,15.5-15.2,20.98-.25,41.98-.09,62.96-.12Z"/>
            <g>
              <path class="cls-5" d="M708.49,543.63c-.34,0-1.22-.49-2.12-.5-16.56-.25-42.08,5.13-43.95-18.43-1.41-17.84.02-39.54.02-57.82,0-19.72-.04-39.46.05-59.19,1.27-8.86,8.37-16.32,17.44-17.1,22.95-1.98,48.72,1.51,71.97.02,11.06,2.06,16.37,10,17.06,20.84,2.29,36.07-1.78,74.53,0,110.85-.37,12.31-8.1,20.44-20.39,21.35-12.29.91-27.53.15-40.08-.02Z"/>
              <path class="cls-5" d="M708.87,241.57c47.71-4.23,75.31,39.65,63.77,83.43-9,34.12-46.26,52.71-79.15,39.6-56.92-22.69-46.78-117.52,15.38-123.03Z"/>
            </g>
          </g>
          <path class="cls-3" d="M322.18,390.73l73.27-.12c10.09,1.62,16.32,9.38,17.05,19.4v113.73c-.45,9.81-7.43,18.56-17.51,19.43-22.96,1.98-48.72-1.51-71.97-.02-8.57-1.22-15.32-7.96-16.58-16.52l.02-119.95c1.46-7.87,7.8-14.44,15.72-15.94Z"/>
          <path class="cls-3" d="M353.38,241.57c28.53-2.34,55.39,14.92,62.81,42.93,11.6,43.82-15.02,87.59-62.94,84.04-70.38-5.2-71.75-121.09.14-126.97Z"/>
        </g>
        <path class="cls-2" d="M172.61,335.92l-58.53,97.38c-16.73-24.62-16.69-56.77,1.94-80.33,16.79-21.24,32.03-16.93,56.59-17.05Z"/>
      </g>
      <path class="cls-2" d="M398,630.55l1.77,23.89c-6.3,5.32-16.54,3.48-19.19-4.8-4.16-13.02,3.32-25.04,17.42-19.09Z"/>
      <path class="cls-2" d="M18.31,633.51c3.52-3.52,11.14-4.96,14.94-1.13l2.64,22.3c-2.67,4.59-9.92,4.92-14.35,2.84-7.51-3.53-8.8-18.44-3.23-24.01Z"/>
      <path class="cls-2" d="M195.04,635.85c3.82-.61,7.93.1,10.57,3.05l-1.41,22.9c-3.16,3.26-9.75,2.8-13.52.72-8.98-4.96-6.78-24.89,4.36-26.67Z"/>
      <path class="cls-2" d="M444.15,642.93l-20.63,4.8c-1.38-12.78,18.09-18.24,20.63-4.8Z"/>
      <path class="cls-2" d="M81.46,646.29h-21.11c1.75-12.4,20.72-13.21,21.11,0Z"/>
      <path class="cls-2" d="M671.55,641.97l-21.11,4.8c-.62-12.55,17.21-17.61,21.11-4.8Z"/>
      <path class="cls-2" d="M250.81,651.57h-21.59c1.48-12.99,20.59-13.46,21.59,0Z"/>
      <path class="cls-2" d="M295.91,645.33l-19.91-.48c-2.05-.24-.66-2.58-.02-3.86,4.64-9.32,20.48-6.82,19.93,4.34Z"/>
      <path class="cls-2" d="M565.04,639.57h-21.59c1.36-13.22,20.98-13.72,21.59,0Z"/>
    </g>
  </g>
</svg>