<?xml version="1.0" encoding="UTF-8"?>
<svg id="Calque_2" data-name="Calque 2" xmlns="http://www.w3.org/2000/svg" viewBox="0 0 254.73 254.7">
  <defs>
    <style>
      .cls-1 {
        fill: #c9d13f;
      }

      .cls-2 {
        fill: #c31c27;
      }

      .cls-3 {
        fill: #fefefe;
      }
    </style>
  </defs>
  <g id="Calque_1-2" data-name="Calque 1">
    <g>
      <path class="cls-2" d="M133.95,254.54c-4.04.21-9.15.2-13.19,0C59.4,251.45,8.16,203.69.9,142.72-7.26,74.06,40.74,10.91,109.17,1.29c83.21-11.71,154.56,58.06,144.64,141.44-7.25,60.98-58.49,108.7-119.86,111.82ZM206.84,129.22l33.57-.24c.88-36.36-16.94-71.31-45.96-92.69-37.09-27.34-87.42-29.51-126.66-5.18C34.47,51.78,13.36,89.18,14.3,128.74c8.79,0,17.59,0,26.38,0v55.83h10.31v-24.2h12.35s.36-.33.36-.36v-8.63s-.33-.36-.36-.36h-12.35v-13.18h16.78v-9.11c-1.6,0-3.2,0-4.8,0l-1.32-2.88-3.47,2.88c-4.07-.01-8.16,0-12.23,0-3.67-2.02-6.1-6.28-6.47-10.43-.91-10.23.68-21.75-.01-32.12,1.12-14.31,21.49-16.58,26.9-4.59.38.84,1.4,3.83,1.4,4.59v6.59h-9.35c-.25-2.8.03-9.46-3.73-10.05-3.98-.62-5.11,1.56-5.39,5.13.47,9.27-.59,19.1,0,28.3.18,2.75.92,5.36,4.21,5.38,6.14.03,4.68-8.21,4.92-12.22h-5.99v-7.91h15.83v27.32h9.11v-53.92h17.14c3.35,0,8.22,2.72,10,5.58,3.96,6.39,3.47,18.99-2.94,23.76-.4.3-1.01.23-.97.73l7.6,23.86,3.45-.02,9.84-53.91,12.24.1,10.05,53.81h5.04v-53.92h8.99l11.15,29.23v-29.23h9.11v53.92h8.63v-53.92h17.14c.86,0,3.39.85,4.28,1.23,5.29,2.29,7.47,7.52,7.84,13.02.5,7.4.46,18.48,0,25.9-.39,6.23-3.28,12.35-9.84,13.77-1.68-.51-4.59-.61-6.35-.48-14.24,1.07-16.55,16.72-8.28,26.24,4.03,4.65,13.68,10.18,14.37,16.31.26,2.32-.45,4.5-2.85,5.25-5.35,1.68-7.17-3.75-7.2-8.03l-10.07,1.44c.43,6.34,3.17,12.73,9.47,15.1,8.66,3.26,19.73-1.46,20.52-11.38.65-8.22-2.84-12.82-8.51-18.11-3.03-2.82-9.66-7.21-10.38-11.43-1.44-8.43,8.93-8.2,8.57-.3l10.07-.96c-.68-5.83-2.92-10.91-8.63-13.18ZM87.19,99.02h4.68c1.1,0,2.97-.93,3.67-1.84,2.03-2.61,2.15-11.2-.84-13.22-.47-.32-2.11-1-2.6-1h-4.92v16.06ZM196.53,82.97v37.98c0,.7,4.63.19,5.33.06,2.52-.49,3.53-1.95,3.99-4.4-.7-9.15,1.04-19.99,0-28.94-.18-1.54-1.01-3.3-2.44-4.03-.3-.15-1.98-.67-2.21-.67h-4.68ZM131.07,108.85l-3.59-21.09-3.12,21.09h6.71ZM168.96,128.74l-11.03-31.39v31.39c1.75,0,3.52,0,5.28,0v55.83h10.31v-55.83c-1.52,0-3.04,0-4.56,0ZM87.19,128.74c-3.03-.02-6.08.02-9.11,0v55.83h10.19s.36-.33.36-.36v-22.17h4.08l6.47,22.53h10.55l-7.87-24.86c-.02-.4,1.99-1.52,2.47-1.98,4.95-4.85,5.01-17.02,1.66-22.74-2.41-4.1-6.36-5.51-10.89-6.01.68-.51,1.73-.14,2.52-.24.32-.04.43.13.33-.33l-6.21-21.24h-4.56v21.57ZM134.19,128.74l-1.71-11.23-9.8-.03-1.44,11.26c2.39.01,4.8-.01,7.19,0l-10.31,55.83h10.07l1.68-12.22h9.45s2.17,12.22,2.17,12.22h9.71l-10.33-55.81c-2.23-.05-4.46-.01-6.69-.02Z"/>
      <g>
        <path class="cls-1" d="M40.68,128.74c-8.79,0-17.59,0-26.38,0-.94-39.56,20.17-76.96,53.49-97.63,39.24-24.34,89.57-22.16,126.66,5.18,29.02,21.39,46.84,56.34,45.96,92.69l-33.57.24c-.3-.12-.65-.46-.72-.48,6.56-1.41,9.45-7.54,9.84-13.77.46-7.42.5-18.5,0-25.9-.37-5.5-2.55-10.73-7.84-13.02-.89-.39-3.43-1.23-4.28-1.23h-17.14v53.92h-8.63v-53.92h-9.11v29.23l-11.15-29.23h-8.99v53.92h-5.04l-10.05-53.81-12.24-.1-9.84,53.91-3.45.02-7.6-23.86c-.04-.5.57-.43.97-.73,6.41-4.77,6.9-17.37,2.94-23.76-1.77-2.86-6.65-5.58-10-5.58h-17.14v53.92h-9.11v-27.32h-15.83v7.91h5.99c-.23,4.01,1.22,12.25-4.92,12.22-3.29-.02-4.03-2.63-4.21-5.38-.59-9.2.47-19.03,0-28.3.28-3.56,1.41-5.75,5.39-5.13,3.77.59,3.48,7.25,3.73,10.05h9.35v-6.59c0-.76-1.02-3.75-1.4-4.59-5.41-12-25.78-9.73-26.9,4.59.69,10.37-.9,21.88.01,32.12.37,4.15,2.8,8.41,6.47,10.43-1.76,0-3.52,0-5.28,0Z"/>
        <path class="cls-1" d="M196.53,82.97h4.68c.23,0,1.91.52,2.21.67,1.43.73,2.26,2.49,2.44,4.03,1.04,8.96-.7,19.79,0,28.94-.46,2.45-1.47,3.91-3.99,4.4-.7.14-5.33.64-5.33-.06v-37.98Z"/>
        <path class="cls-1" d="M168.96,128.74c-1.91-.01-3.84,0-5.75,0-1.75,0-3.52,0-5.28,0v-31.39l11.03,31.39Z"/>
        <path class="cls-1" d="M87.19,128.74v-21.57h4.56l6.21,21.24c.1.46,0,.29-.33.33-.79.09-1.85-.27-2.52.24-2.7-.3-5.2-.22-7.91-.24Z"/>
        <path class="cls-1" d="M87.19,99.02v-16.06h4.92c.48,0,2.13.68,2.6,1,2.98,2.02,2.87,10.6.84,13.22-.7.91-2.58,1.84-3.67,1.84h-4.68Z"/>
        <path class="cls-1" d="M128.43,128.74c-2.39-.01-4.8.01-7.19,0l1.44-11.26,9.8.03,1.71,11.23c-1.91,0-3.84.01-5.75,0Z"/>
      </g>
      <g>
        <polygon class="cls-1" points="131.07 108.85 124.36 108.85 127.48 87.76 131.07 108.85"/>
        <g>
          <path class="cls-3" d="M45.95,128.74c4.07,0,8.16-.01,12.23,0,1.6,0,3.2,0,4.8,0s3.2,0,4.8,0v9.11h-16.78v13.18h12.35s.36.33.36.36v8.63s-.33.36-.36.36h-12.35v24.2h-10.31v-55.83c1.76,0,3.52,0,5.28,0Z"/>
          <path class="cls-1" d="M62.98,128.74c-1.6,0-3.2,0-4.8,0l3.47-2.88,1.32,2.88Z"/>
        </g>
        <g>
          <path class="cls-3" d="M206.12,128.74c.07.02.42.36.72.48,5.72,2.26,7.95,7.35,8.63,13.18l-10.07.96c.36-7.9-10.02-8.13-8.57.3.72,4.23,7.35,8.62,10.38,11.43,5.68,5.28,9.17,9.88,8.51,18.11-.78,9.91-11.85,14.64-20.52,11.38-6.3-2.37-9.04-8.76-9.47-15.1l10.07-1.44c.02,4.28,1.84,9.71,7.2,8.03,2.4-.75,3.11-2.93,2.85-5.25-.69-6.14-10.33-11.67-14.37-16.31-8.26-9.52-5.96-25.18,8.28-26.24,1.76-.13,4.67-.03,6.35.48Z"/>
          <path class="cls-3" d="M168.96,128.74c1.52,0,3.04,0,4.56,0v55.83h-10.31v-55.83c1.91,0,3.84-.01,5.75,0Z"/>
          <g>
            <path class="cls-3" d="M87.19,128.74c2.71.02,5.21-.06,7.91.24,4.53.5,8.48,1.91,10.89,6.01,3.35,5.72,3.29,17.9-1.66,22.74-.48.47-2.49,1.59-2.47,1.98l7.87,24.86h-10.55l-6.47-22.53h-4.08v22.17s-.33.36-.36.36h-10.19v-55.83c3.03.02,6.08-.02,9.11,0ZM88.63,153.42h3.72c.27,0,1.8-.35,2.17-.47,2.26-.7,3.03-2.75,3.22-4.93.22-2.42.31-7.47-1.56-9.22-.33-.31-2.07-1.2-2.4-1.2h-5.16v15.82Z"/>
            <path class="cls-2" d="M88.63,153.42v-15.82h5.16c.33,0,2.06.89,2.4,1.2,1.86,1.75,1.77,6.8,1.56,9.22-.19,2.18-.96,4.23-3.22,4.93-.37.11-1.9.47-2.17.47h-3.72Z"/>
          </g>
          <g>
            <path class="cls-3" d="M134.19,128.74c2.23.01,4.46-.03,6.69.02l10.33,55.81h-9.71l-2.17-12.23h-9.45s-1.68,12.23-1.68,12.23h-10.07l10.31-55.83c1.91.01,3.84,0,5.75,0ZM131.31,163.96h6.71l-3.47-21.57-3.24,21.57Z"/>
            <polygon class="cls-2" points="131.31 163.96 134.55 142.39 138.03 163.96 131.31 163.96"/>
          </g>
        </g>
      </g>
    </g>
  </g>
</svg>