<?xml version="1.0" encoding="UTF-8"?>
<svg id="Calque_1" xmlns="http://www.w3.org/2000/svg" version="1.1" viewBox="0 0 2500 2500">
  <!-- Generator: Adobe Illustrator 29.4.0, SVG Export Plug-In . SVG Version: 2.1.0 Build 152)  -->
  <defs>
    <style>
      .st0 {
        fill: #fff;
      }
    </style>
  </defs>
  <path class="st0" d="M267.5,985.7h-85c-5.5,0-10,4.5-10,10v555c0,5.5,4.5,10,10,10h85c5.5,0,10-4.5,10-10v-237.5c0-5.5,4.5-10,10-10h215c5.5,0,10,4.5,10,10v237.5c0,5.5,4.5,10,10,10h85c5.5,0,10-4.5,10-10v-555c0-5.5-4.5-10-10-10h-85c-5.5,0-10,4.5-10,10v202.5c0,5.5-4.5,10-10,10h-215c-5.5,0-10-4.5-10-10v-202.5c0-5.5-4.5-10-10-10Z"/>
  <path class="st0" d="M844.5,1080.6h260c5.5,0,10-4.5,10-10v-75c0-5.5-4.5-10-10-10h-365c-5.5,0-10,4.5-10,10v555c0,5.5,4.5,10,10,10h365c5.5,0,10-4.5,10-10v-75c0-5.5-4.5-10-10-10h-260c-5.5,0-10-4.5-10-10v-142.5c0-5.5,4.5-10,10-10h215c5.5,0,10-4.5,10-10v-75c0-5.5-4.5-10-10-10h-215c-5.5,0-10-4.5-10-10v-107.5c0-5.5,4.5-10,10-10Z"/>
  <path class="st0" d="M1685.6,1550.7c0,5.5,4.5,10,10,10h85c5.5,0,10-4.5,10-10v-555c0-5.5-4.5-10-10-10h-125c-5.5,0-11.7,4.5-13.7,10l-137.8,378c-1.1,3.1-2,4.1-3.4,4.1s-2.2-.9-3.4-4.1l-137.8-378c-2-5.5-8.2-10-13.7-10h-124.9c-5.5,0-10,4.5-10,10v555c0,5.5,4.5,10,10,10h85c5.5,0,10-4.5,10-10v-392.2c0-5.5,1.1-5.8,3-.6l141,382.8c2,5.5,8.2,10,13.7,10h54.1c5.5,0,11.7-4.5,13.7-10l141-382.8c1.9-5.2,3-4.9,3,.6v392.2h0Z"/>
  <path class="st0" d="M2170.1,995.7c-1.9-5.5-7.9-10-13.5-10h-98.5c-5.5,0-11.5,4.5-13.5,10l-191.8,555c-1.9,5.5,1,10,6.6,10h87.5c5.5,0,11.5-4.5,13.5-10l30.9-91.7c1.9-5.5,7.9-10,13.4-10h205.4c5.5,0,11.6,4.5,13.4,10l30.9,91.7c1.9,5.5,7.9,10,13.5,10h87.5c5.5,0,8.5-4.5,6.6-10l-191.8-555ZM2177.3,1356.5h-139.9c-5.5,0-8.4-4.5-6.5-10l73.3-215.4c.9-2.6,1.9-3.9,3.2-3.9s2.3,1.3,3.2,3.9l73.3,215.4c1.9,5.5-1,10-6.6,10Z"/>
</svg>