<?xml version="1.0" encoding="UTF-8"?>
<svg id="Calque_2" data-name="Calque 2" xmlns="http://www.w3.org/2000/svg" viewBox="0 0 564.78 174.1">
  <defs>
    <style>
      .cls-1 {
        fill: #e10814;
      }

      .cls-2 {
        fill: #174194;
      }
    </style>
  </defs>
  <g id="Calque_1-2" data-name="Calque 1">
    <g>
      <g>
        <path class="cls-2" d="M183.05,9.48c7.66-.35,13.96-.49,15.88,8.48l.03,64.84c-.6,5.19-4.22,8.86-9.49,9.25-3.51.26-6.43.16-10.02.79-29.01,5.04-47.05,34.95-67.7,53.38-18.34,16.37-39.01,25.74-63.79,27.5-8.22.58-17.51,1.78-19.1-8.76v-65.12c.27-3.85,3.35-8.08,7.25-8.84,2.43-.47,4.92-.19,7.29-.4,31.52-2.76,48.11-29.18,68.94-49.01,20.45-19.46,41.88-30.81,70.7-32.11Z"/>
        <g>
          <g>
            <path class="cls-2" d="M443.5,165.92c-1.14,9.58-15.56,10.35-17.71,1.13-.73-21.38-.09-42.89-.32-64.32.31-4.55,2.05-8.03,6.73-9.13,10.68-.15,22.37-1,33.04-.35,9.2.56,18.8,4.44,22.16,13.63s.76,20.4-7.79,25.48l-4.4,1.97c4.39.45,7.94,2.72,9.55,6.91,1.87,4.87.98,10.57,1.78,15.76.85,5.54,4.69,12.1-2.12,15.49-5.28,2.63-11.6.37-13.81-5.08-2.94-7.25,1.42-22-8.38-25.26-.37-.12-2.05-.61-2.27-.61h-16.46v24.38ZM443.5,128.32c9.57-.76,27.8,3.81,27.4-11.18-.17-6.17-3.37-9.12-9.29-9.93s-12.21.03-18.11-.27v21.38Z"/>
            <path class="cls-2" d="M384.83,91.4c23.3-1.35,35.35,11.82,36.56,34.4,1.4,26.09-5.77,49.57-36.4,48.17-21.73-.99-29.62-13.97-31.1-34.24-1.72-23.62,3.19-46.73,30.94-48.33ZM386.52,105.81c-12.52.59-14.03,9.25-14.61,19.74-.42,7.52-1.4,23.45,3.48,29.43,4.92,6.03,18.98,6.12,24.03.24s4.29-20.47,3.95-27.98c-.54-12.05-1.91-22.14-16.86-21.44Z"/>
            <g>
              <path class="cls-2" d="M240.35,155.62c5.12,5.08,13.36,6.27,20.15,4.34,9.66-2.74,12.43-14.08,1.63-17.59-16.08-5.23-41.81-4.72-40.36-28.34,1.66-26.9,45.12-28.66,59.09-11.77,5.57,6.74,2.94,15.61-6.6,14.53-3.71-.42-7.58-6.88-11.34-9.08-6.3-3.7-21.46-4.26-23.54,4.71-1.54,6.63,4.6,8.66,9.73,10.07,17.41,4.78,39.56,4.43,37.77,29.27-1.88,26.24-46.27,27.91-60.67,12.61-4.24-4.51-7.8-14.51,0-17.31,7.65-2.74,10,4.45,14.15,8.57Z"/>
              <path class="cls-2" d="M308.73,143.22v21.98c0,10.18-16.32,11.44-17.91,1.33l-.12-64.52c.42-5.3,3.46-8.35,8.77-8.77,15.71,1.24,39.72-5,49.18,11.62,4.72,8.3,4.12,21.29-1.62,28.97-8.84,11.81-25.37,9.08-38.29,9.39ZM308.73,129.28h15.01c4.41,0,9.43-4.92,9.94-9.27,1.77-15.11-14.98-13.05-24.96-13.07v22.34Z"/>
            </g>
          </g>
          <g>
            <path class="cls-1" d="M500.67,74.87c-1.3,8.97-15.65,9.81-17.71.65-.72-21.31-.09-42.73-.32-64.08.3-4.74,2.01-8.29,6.92-9.42,11-.08,22.83-.92,33.81-.3,8.66.49,18.12,3.75,21.99,12.13,4.21,9.13,1.86,21.72-7.14,26.98l-4.4,1.97c4.32.46,7.96,2.78,9.55,6.91,1.78,4.59.97,9.55,1.53,14.33.66,5.67,5.03,12.96-1.4,16.68-4.78,2.77-11.31,1.16-13.89-3.79-3.76-7.21,1.25-22.23-8.29-26.06-.37-.15-2.56-.84-2.76-.84h-17.9v24.86ZM500.67,36.8c9.43-.94,28.83,4.17,28.84-10.69,0-5.47-2.48-9.07-7.89-10.14-6.63-1.3-14.18-.16-20.95-.55v21.38Z"/>
            <path class="cls-2" d="M527.82,108.38v58.01c0,.13-.59,1.89-.71,2.17-2.92,6.86-14.42,6.57-16.65-.66-.57-1.85-.29-3.47-.66-5.34v-54.18s-14.04,0-14.04,0c-3.02,0-7.35-2.68-7.79-5.91-.78-5.75,2.79-8.86,8.26-9.24,14.7-1.03,30.6.8,45.42,0,5.27.37,9.35,3.72,8.17,9.39-.67,3.22-4.8,5.75-7.94,5.75h-14.05Z"/>
          </g>
        </g>
        <g>
          <circle class="cls-1" cx="38.22" cy="38.22" r="38.22"/>
          <g>
            <path class="cls-1" d="M428.85,16.14v17.06h29.19c1.27,0,4.08,1.01,5.06,1.91,2.34,2.16,2.36,7.73.12,9.99-.92.93-3.68,2.03-4.93,2.03h-29.43v18.98h34.71c.65,0,2.37.52,3.07.78,6.74,2.52,4.79,13.84-2.83,13.63l-44.89-.03c-5-.64-7.72-3.75-8.09-8.73V10.48c.42-5.32,3.52-8.28,8.78-8.76,13.86.65,28.53-.88,42.29-.02,5.74.36,8.39,2.83,7.79,8.78-.24,2.38-1.72,4.12-3.92,4.97-.37.14-2.2.68-2.45.68h-34.47Z"/>
            <path class="cls-1" d="M348.97,16.86c-10.01-1.13-10.59-14.37,1.19-15.15,14.64.83,30.44-1.07,44.94,0,4.93.36,9.19,3.27,8.46,8.72-.45,3.32-4.23,6.43-7.5,6.43h-14.53v57.77c0,.38-.9,2.69-1.16,3.17-3.82,7.15-16.86,4.64-16.86-3.65V16.86h-14.53Z"/>
            <g>
              <path class="cls-1" d="M282.31,75.59c-1.13,8.38-15.47,8.74-16.99.42-.51-22.8-.49-45.78,0-68.59,1.47-8.38,14.51-9.34,19.28-3.54l32.31,51.89V7.85c0-6.65,7.74-9.02,13.03-6.78,3.76,1.59,4.33,5.27,4.52,8.93,1.1,20.71-.63,42.61-.28,63.4-.36,9.33-13.43,11.19-19.07,5.68-10.82-16.14-20.51-33.04-31.25-49.23-.44-.66-.86-1.51-1.54-1.94v47.68Z"/>
              <path class="cls-1" d="M235.66.35c4.56-.46,8.53,1.6,9.83,6.13.72,22.49.11,45.13.31,67.67-1.11,10.9-17.66,10.36-18.02-.71V8.57c.53-4.61,3.16-7.74,7.89-8.22Z"/>
            </g>
          </g>
        </g>
      </g>
      <path class="cls-2" d="M564.78,9.25c0,3.89-3.16,7.05-7.05,7.05s-7.05-3.16-7.05-7.05,3.16-7.05,7.05-7.05,7.05,3.16,7.05,7.05ZM563.47,9.24c0-3.17-2.57-5.74-5.74-5.74s-5.74,2.57-5.74,5.74,2.57,5.74,5.74,5.74,5.74-2.57,5.74-5.74Z"/>
      <path class="cls-2" d="M559.65,5.09c.5.11,1.66,1.32,1.77,1.86.33,1.71-1.66,2.21-1.66,2.36,0,.66,1.86,3.59,1.69,3.7-2.19.82-2.19-2.67-3.12-3.24-.53-.32-1.75-.02-2.41-.12v3.36h-1.2v-7.93c1.42.21,3.62-.28,4.92,0ZM555.92,8.69c1.16-.15,3.55.49,4.15-.78.92-1.95-2.47-2.49-3.75-2.07-.73.24-.27,2.2-.4,2.85Z"/>
    </g>
  </g>
</svg>