<?xml version="1.0" encoding="UTF-8"?>
<svg xmlns="http://www.w3.org/2000/svg" version="1.1" viewBox="0 0 113.3858 56.6924">
  <!-- Generator: Adobe Illustrator 28.7.1, SVG Export Plug-In . SVG Version: 1.2.0 Build 142)  -->
  <g>
    <g id="Capa_1">
      <g>
        <path d="M26.9405,25.3985c-.3208.1699-.4488.1064-.5772-.1504l-1.0039-2.0723c-.1284-.2558-.0215-.4697.2564-.6406.9614-.5977,2.3501-1.0039,3.8667-1.0039,3.3969,0,5.2768,1.6445,5.2768,4.6142v7.3282c0,.1709-.1494.3203-.3208.3203h-2.8838c-.1709,0-.3203-.1494-.3203-.3203v-.2989c-.4277.5118-1.5386.8545-2.3501.8545-2.7344,0-4.5503-1.4531-4.5503-3.8672,0-2.4785,1.8159-3.9306,4.5503-3.9306,1.0684,0,1.752.2138,2.3501.4912v-.6201c0-1.0039-.9614-1.3887-2.0298-1.3887-.6836,0-1.5171.2568-2.2641.6846M67.9786,25.3985c-.3204.1699-.4473.1064-.5762-.1504l-1.0039-2.0723c-.1289-.2558-.0215-.4697.2558-.6406.9629-.5977,2.3496-1.0039,3.8672-1.0039,3.3965,0,5.2774,1.6445,5.2774,4.6142v7.3282c0,.1709-.1504.3203-.3203.3203h-2.8848c-.1719,0-.3203-.1494-.3203-.3203v-.2989c-.4278.5118-1.5391.8545-2.3496.8545-2.7344,0-4.5508-1.4531-4.5508-3.8672,0-2.4785,1.8164-3.9306,4.5508-3.9306,1.0683,0,1.7519.2138,2.3496.4912v-.6201c0-1.0039-.961-1.3887-2.0293-1.3887-.6836,0-1.5176.2568-2.2656.6846M72.2735,29.3076c-.2774-.2138-.8535-.4912-1.709-.4912-1.0684,0-1.666.3418-1.666,1.2393,0,.833.5976,1.1748,1.6015,1.1748.92,0,1.4746-.4707,1.7735-.9189v-1.004ZM29.5254,28.8164c-1.0683,0-1.6665.3418-1.6665,1.2393,0,.833.5982,1.1748,1.6021,1.1748.9189,0,1.4746-.4707,1.7734-.9189v-1.004c-.2778-.2138-.8545-.4912-1.709-.4912M80.7754,25.6328v7.8409c0,.1709-.1484.3203-.3203.3203h-2.8828c-.1719,0-.3203-.1494-.3203-.3203v-11.3868c0-.1709.1484-.3203.3203-.3203h2.8828c.1719,0,.3203.128.3203.3203v.3418c.8125-.5556,1.5606-.8974,2.6914-.8974,2.3946,0,3.9532,1.6445,3.9532,5.5117v6.4307c0,.1709-.1504.3203-.3204.3203h-2.8847c-.1699,0-.3203-.1494-.3203-.3203v-6.2813c0-1.6025-.4688-2.3281-1.5371-2.3281-.5567,0-1.1114.2558-1.5821.7685M17.9248,34.0293c-1.6235,0-2.9907-.4922-3.5888-.8125-.1289-.0635-.1924-.1709-.1494-.3203l.7041-2.8623c.0434-.1709.2998-.2568.4922-.1494.833.4268,1.3886.5977,2.3066.5977,1.0474,0,1.8164-.5557,1.8164-2.7559v-9.3145c0-.1709.1494-.3203.3203-.3203h3.0977c.1709,0,.3208.1494.3208.3203v9.8702c0,3.5244-1.6665,5.747-5.3199,5.747M95.6875,33.2168v.2569c0,.1709.1504.3203.3204.3203h2.8847c.1699,0,.3203-.1494.3203-.3203v-15.0401c0-.1709-.1504-.3203-.3203-.3203h-2.8847c-.17,0-.3204.1494-.3204.3203v3.8457c-.4492-.4482-1.3671-.7695-2.3066-.7695-2.8633,0-4.8711,2.2217-4.8711,6.2383,0,4.0371,2.0078,6.2597,4.8711,6.2597.9395,0,1.8574-.3418,2.3066-.791M95.6875,29.8203c-.2773.4483-.791.876-1.4961.876-1.3242,0-1.9433-1.1328-1.9433-2.9267,0-1.8164.6191-2.9483,1.9433-2.9483.7051,0,1.2188.4053,1.4961.8545v4.3584-.2139ZM50.4185,29.8203c-.2778.4483-.7905.876-1.4951.876-1.3247,0-1.9444-1.1328-1.9444-2.9267,0-1.8164.6197-2.9483,1.9444-2.9483.7046,0,1.2173.4053,1.4951.8545v4.3584-.2139ZM50.4185,33.2168v.2569c0,.1709.1499.3203.3208.3203h2.8838c.1709,0,.3203-.1494.3203-.3203v-15.0401c0-.1709-.1494-.3203-.3203-.3203h-2.8838c-.1709,0-.3208.1494-.3208.3203v3.8457c-.4487-.4482-1.3672-.7695-2.3071-.7695-2.8628,0-4.8711,2.2217-4.8711,6.2383,0,4.0371,2.0083,6.2597,4.8711,6.2597.9399,0,1.8584-.3418,2.3071-.791M64.0059,33.794h-2.8633c-.1699,0-.3203-.1494-.3203-.3203v-15.0616c0-.1914.1504-.3203.3203-.3203h2.8633c.1914,0,.3203.1289.3203.3203v15.0616c0,.1709-.1289.3203-.3203.3203M58.8145,33.794h-2.8628c-.1919,0-.3203-.1494-.3203-.3203v-10.4473c0-.1709.1284-.3203.3203-.3203h2.8628c.1709,0,.3203.1494.3203.3203v10.4473c0,.1709-.1494.3203-.3203.3203M57.3829,21.9795c-1.0679,0-1.9874-.9179-1.9874-1.9863s.9195-1.9863,1.9874-1.9863,1.9658.9179,1.9658,1.9863c.0215,1.0684-.8975,1.9863-1.9658,1.9863M36.5537,33.794c-.1708,0-.3203-.1494-.3203-.3203v-11.3868c0-.1709.1495-.3203.3203-.3203h2.8628c.1924,0,.3204.1494.3204.3203v.5127c.7744-.8681,1.7856-1.0898,2.4995-1.0898.5766,0,.7905.0644.7905.2353v3.2256c0,.1709-.1714.2559-.4273.2139-.2563-.043-.5126-.0645-.7265-.0645-.8765,0-1.4946.2178-2.1362.7266v7.627c0,.1709-.128.3203-.3204.3203h-2.8628Z" fill="#cc5a1e"/>
        <path d="M15.0537,38.4458c0,.9234.3358,1.1752.8814,1.1752.2099,0,.4197-.0419.5876-.1679.084-.0419.1259-.0419.1679.084l.0839.2938c.042.0839,0,.1259-.0839.1679-.2518.1259-.5456.2098-.8394.2098-1.0073,0-1.553-.5036-1.553-1.7208v-.2098c0-1.2172.5457-1.7209,1.553-1.7209.2938,0,.5876.042.8394.2099.0839.042.1259.0839.0839.1679l-.0839.2938c-.042.0839-.0839.1259-.1679.0839-.1679-.0839-.3777-.1679-.5876-.1679-.5456,0-.8814.2099-.8814,1.1752v.1259Z" fill="#cc5a1e"/>
        <path d="M19.3768,39.5791c.4617,0,.6295-.2099.6295-.7975v-2.0986c0-.0839.042-.1259.126-.1259h.5036c.084,0,.1259.042.1259.1259v2.1405c0,.9654-.4617,1.3431-1.385,1.3431-.9654,0-1.3851-.3777-1.3851-1.3431v-2.1405c0-.0839.042-.1259.1259-.1259h.5037c.0839,0,.1259.042.1259.1259v2.0986c0,.6296.1679.7975.6296.7975" fill="#cc5a1e"/>
        <path d="M22.2308,39.9988v-3.3158c0-.0839.042-.1259.1259-.1259h.5457c.0839,0,.1259.042.1259.1259v2.8961h1.427c.084,0,.1259.0419.1259.0839v.3358c0,.0839-.0419.1259-.1259.1259h-2.0566c-.1259,0-.1679-.042-.1679-.1259" fill="#cc5a1e"/>
        <path d="M27.0995,40.1247h-.5037c-.0839,0-.1259-.042-.1259-.1259v-2.8961h-.9233c-.084,0-.126-.0419-.126-.0839v-.3358c0-.0839.042-.1259.126-.1259h2.5602c.084,0,.1259.042.1259.1259v.3358c0,.0839-.0419.0839-.1259.0839h-.8814v2.8961c-.042.0839-.042.1259-.1259.1259" fill="#cc5a1e"/>
        <path d="M29.4079,39.9988v-3.3158c0-.0839.042-.1259.1259-.1259h.5457c.0839,0,.1259.042.1259.1259v3.3158c0,.0839-.042.1259-.1259.1259h-.5457c-.1259,0-.1259-.042-.1259-.1259" fill="#cc5a1e"/>
        <path d="M33.3952,39.5371h.042c0-.084,0-.1679.0419-.2519l.7555-2.6441c0-.042.084-.084.1259-.084h.5037c.0839,0,.1259.042.0839.1259l-1.0073,3.3158c0,.0419-.0839.0839-.1259.0839h-.8814c-.0839,0-.1259-.0419-.1259-.0839l-.9653-3.3158c-.042-.0839,0-.1259.1259-.1259h.5036c.042,0,.1259.042.1259.084l.7555,2.6441c0,.126.042.1679.042.2519" fill="#cc5a1e"/>
        <path d="M36.3332,39.9988v-3.3158c0-.0839.042-.1259.1259-.1259h2.1825c.084,0,.1259.042.1259.1259v.3358c0,.0839-.0419.0839-.1259.0839h-1.5109v.9234h1.2591c.0839,0,.1259.042.1259.1259v.3358c0,.0839-.042.1259-.1259.1259h-1.2591v.9653h1.5109c.084,0,.1259.042.1259.084v.3357c0,.084-.0419.1259-.1259.1259h-2.1825c-.0839.0001-.1259-.0419-.1259-.1258" fill="#cc5a1e"/>
        <path d="M40.0686,40.1247c-.0839,0-.1259-.042-.1259-.084v-.2938c0-.0419.042-.1259.084-.1679l1.8467-2.4343h-1.6788c-.084,0-.1259-.042-.1259-.1259v-.3358c0-.0839.0419-.1259.1259-.1259h2.4343c.0839,0,.1259.042.1259.084v.2938c0,.0419,0,.1259-.042.1679l-1.8467,2.4343h1.8048c.0839,0,.1259.042.1259.1259v.3358c0,.0839-.042.1259-.1259.1259h-2.6023Z" fill="#cc5a1e"/>
        <path d="M47.5815,39.5371h.042c0-.084,0-.1679.042-.2519l.7554-2.6441c0-.042.084-.084.1259-.084h.5037c.084,0,.1259.042.084.1259l-1.0074,3.3158c0,.0419-.0839.0839-.1259.0839h-.8814c-.0839,0-.1259-.0419-.1259-.0839l-1.0073-3.3158c-.042-.0839,0-.1259.1259-.1259h.5037c.042,0,.1259.042.1259.084l.7555,2.6441c.0419.126.0839.1679.0839.2519" fill="#cc5a1e"/>
        <path d="M52.6181,38.4458v-.1679c0-.8814-.2519-1.1752-.7555-1.1752s-.7555.3358-.7555,1.1752v.1679c0,.8814.2518,1.1752.7555,1.1752s.7555-.3358.7555-1.1752M53.3736,38.2779v.1679c0,1.1752-.5037,1.7628-1.511,1.7628s-1.511-.5876-1.511-1.7628v-.1679c0-1.1332.4617-1.7628,1.511-1.7628s1.511.5876,1.511,1.7628" fill="#cc5a1e"/>
        <path d="M56.1437,40.1247h-.5037c-.0839,0-.1259-.042-.1259-.1259v-2.8961h-.8814c-.084,0-.1259-.0419-.1259-.0839v-.3358c0-.0839.042-.1259.1259-.1259h2.5602c.084,0,.126.042.126.1259v.3358c0,.0839-.042.0839-.126.0839h-.8814v2.8961c-.0419.0839-.0839.1259-.1678.1259" fill="#cc5a1e"/>
        <path d="M59.3335,37.1447v1.1752h.4197c.4197,0,.7135-.1679.7135-.5456v-.1259c0-.3778-.2938-.5457-.7135-.5457l-.4197.042ZM59.2076,40.1247h-.5037c-.0839,0-.1259-.042-.1259-.1259v-3.3158c0-.0839.042-.1259.1259-.1259h1.0493c.8394,0,1.469.2938,1.469,1.0913v.1259c0,.4616-.2938.8394-.7555.9653l.7975,1.2591c.0419.084.0419.1259-.084.1259h-.5876c-.0419,0-.1259-.0419-.1679-.0839l-.6715-1.1752h-.4197v1.1332c0,.084-.042.126-.1259.126" fill="#cc5a1e"/>
        <path d="M62.6912,39.9988v-3.3158c0-.0839.042-.1259.1259-.1259h2.1825c.084,0,.1259.042.1259.1259v.3358c0,.0839-.0419.0839-.1259.0839h-1.511v.9234h1.2592c.0839,0,.1259.042.1259.1259v.3358c0,.0839-.042.1259-.1259.1259h-1.2592v.9653h1.511c.084,0,.1259.042.1259.084v.3357c0,.084-.0419.1259-.1259.1259h-2.1825c-.0839.0001-.1259-.0419-.1259-.1258" fill="#cc5a1e"/>
        <path d="M69.3227,38.5717v1.0493h.4616c.4198,0,.6716-.1679.6716-.4617v-.0839c0-.3358-.2099-.5037-.6296-.5037h-.5036ZM69.3227,37.0608v1.0073h.4197c.3777,0,.5876-.1679.5876-.4617v-.084c0-.2938-.2519-.4616-.6296-.4616h-.3777ZM68.777,40.1247h-.0419c-.042,0-.1259,0-.1259-.084-.042,0-.042-1.8047-.042-1.8467,0-.5456.042-1.0913.0839-1.5949h1.1332c.7975,0,1.3431.2098,1.3431.8394v.0839c0,.3778-.2518.7136-.6295.7975.4197.042.7554.4197.7554.8394v.084c0,.6715-.5456.9234-1.343.9234l-1.1333-.042Z" fill="#cc5a1e"/>
        <path d="M72.5964,39.9988v-3.3158c0-.0839.042-.1259.1259-.1259h.5457c.0839,0,.1259.042.1259.1259v3.3158c0,.0839-.042.1259-.1259.1259h-.5457c-.0839,0-.1259-.042-.1259-.1259" fill="#cc5a1e"/>
        <path d="M74.9468,39.9988v-3.3158c0-.0839.042-.1259.1259-.1259h2.1826c.0839,0,.1259.042.1259.1259v.3358c0,.0839-.042.0839-.1259.0839h-1.511v.9234h1.2591c.084,0,.1259.042.1259.1259v.3358c0,.0839-.0419.1259-.1259.1259h-1.2591v.9653h1.511c.0839,0,.1259.042.1259.084v.3357c0,.084-.042.1259-.1259.1259h-2.1826c-.1259.0001-.1259-.0419-.1259-.1258" fill="#cc5a1e"/>
        <path d="M79.3118,40.1247h-.4616c-.084,0-.126-.042-.126-.1259v-3.3158c0-.0839.042-.1259.126-.1259h.6715c.042,0,.1259.042.1259.084l1.2172,2.3503v-2.3084c0-.0839.042-.1259.1259-.1259h.4617c.0839,0,.1259.042.1259.1259v3.3158c0,.0839-.042.1259-.1259.1259h-.6716c-.0419,0-.1259-.042-.1259-.084l-1.2171-2.3504v2.3504c-.042.042-.042.084-.126.084" fill="#cc5a1e"/>
        <path d="M83.1732,38.9495v-.2518c0-.084.042-.084.1259-.084h1.0073c.084,0,.1259.042.1259.084v.2518c0,.0839-.0419.1259-.1259.1259h-1.0073c-.0839-.042-.1259-.042-.1259-.1259" fill="#cc5a1e"/>
        <path d="M86.2791,36.3892h-.2938c-.042,0-.084-.0419-.042-.0839l.3358-.4617c.042-.042.0839-.084.1679-.084h.5036c.084,0,.1259.042.1679.084l.3358.4617c.0419.0419,0,.0839-.042.0839h-.2518c-.084,0-.1259-.0419-.1679-.0839l-.2938-.2938-.2938.2938c0,.042-.0839.0839-.1259.0839M85.5236,39.9988v-3.3158c0-.0839.042-.1259.1259-.1259h2.1825c.084,0,.1259.042.1259.1259v.3358c0,.0839-.0419.0839-.1259.0839h-1.5109v.9234h1.2591c.0839,0,.1259.042.1259.1259v.3358c0,.0839-.042.1259-.1259.1259h-1.2591v.9653h1.5109c.084,0,.1259.042.1259.084v.3357c0,.084-.0419.1259-.1259.1259h-2.1825c-.0839.0001-.1259-.0419-.1259-.1258" fill="#cc5a1e"/>
        <path d="M90.5602,40.1247h-.5037c-.084,0-.1259-.042-.1259-.1259v-2.8961h-.8814c-.084,0-.1259-.0419-.1259-.0839v-.3358c0-.0839.042-.1259.1259-.1259h2.5602c.084,0,.126.042.126.1259v.3358c0,.0839-.042.0839-.126.0839h-.8814v2.8961c-.0419.0839-.0419.1259-.1678.1259" fill="#cc5a1e"/>
        <path d="M93.6241,37.1447v1.1752h.4197c.4197,0,.7135-.1679.7135-.5456v-.1259c0-.3778-.2938-.5457-.7135-.5457l-.4197.042ZM93.5401,40.1247h-.5036c-.084,0-.1259-.042-.1259-.1259v-3.3158c0-.0839.0419-.1259.1259-.1259h1.0492c.8395,0,1.469.2938,1.469,1.0913v.1259c0,.4616-.2938.8394-.7554.9653l.7974,1.2591c.042.084,0,.1259-.0839.1259h-.5876c-.042,0-.1259-.0419-.1679-.0839l-.6716-1.1752h-.4197v1.1332c-.0419.084-.0419.126-.1259.126" fill="#cc5a1e"/>
        <path d="M96.9398,39.9988v-3.3158c0-.0839.042-.1259.1259-.1259h2.1825c.084,0,.1259.042.1259.1259v.3358c0,.0839-.0419.0839-.1259.0839h-1.5109v.9234h1.2591c.0839,0,.1259.042.1259.1259v.3358c0,.0839-.042.1259-.1259.1259h-1.2591v.9653h1.5109c.084,0,.1259.042.1259.084v.3357c0,.084-.0419.1259-.1259.1259h-2.1825c-.1259.0001-.1259-.0419-.1259-.1258" fill="#cc5a1e"/>
      </g>
    </g>
  </g>
</svg>