<?xml version="1.0" encoding="UTF-8"?>
<svg id="Calque_1" xmlns="http://www.w3.org/2000/svg" version="1.1" viewBox="0 0 144 32">
  <!-- Generator: Adobe Illustrator 29.4.0, SVG Export Plug-In . SVG Version: 2.1.0 Build 152)  -->
  <defs>
    <style>
      .st0 {
        fill: #040037;
      }

      .st1 {
        fill: #fff;
      }
    </style>
  </defs>
  <g id="surface1">
    <path class="st1" d="M98,6.2c-.4-.8-.9-.7-1.3-.7h-5.4c-.4,0-.6,0-.4.5.2.3,1,1.8,1,1.8.2.4.1.4,0,.6-.1.2-9.3,15.5-10.1,16.8-.6,1-.8,1.2.2,1.2h1.3c.6,0,.7,0,1.3-1.1.4-.6,3-5,3-5h10.6c.3,0,.5.2.5.3.6,1.2,1.6,3.1,2.4,4.4.4.8.7,1.3,1.3,1.3h5.3c1,0,1,0,.2-1.4-1-1.8-8.6-16.3-10-18.9M88.7,18.4l4.3-7.3c.4-.7.3-.6.6,0,.1.3,3.9,7.3,3.9,7.3h-8.8Z"/>
    <path class="st1" d="M66.8,5.6h-3.8c-2.9,2.2-3,2.3-13.6,10.3V6.1c0-.3-.3-.6-.6-.6h-5.5c-.3,0-.6.3-.6.6v19.8c0,.3.3.6.6.6h5.5c.3,0,.6-.3.6-.6v-8.5c1.6,1.6,10.3,9.1,10.3,9.1h7.2c.5,0,.5-.3,0-.7-6.4-5.4-9.9-8.5-11.3-9.7-.6-.5-.9-.7-.5-1.1.7-.5,11.3-8.8,11.6-9.1.3-.3,0-.4,0-.4Z"/>
    <path class="st1" d="M77,5.6h-5.4c-.3,0-.6.3-.6.6v19.8c0,.3.3.6.6.6h5.4c.3,0,.6-.3.6-.6V6.1c0-.3-.3-.6-.6-.6"/>
    <path class="st1" d="M143.3,5.6h-5.4c-.3,0-.6.3-.6.6v19.8c0,.3.3.6.6.6h5.4c.3,0,.6-.3.6-.6V6.1c0-.3-.3-.6-.6-.6"/>
    <path class="st1" d="M128,15.4c.9-.4,4.7-.7,4.7-4.9s-5.3-4.8-6.5-4.9h-13.2c-.3,0-.6.3-.6.6v19.8c0,.3.3.6.6.6h11.8c1.9,0,8.6-.7,8.7-5.6.2-4.5-4.7-5.2-5.6-5.5ZM119.6,14.5v-6.7h2.6c2.6,0,3.8,1.7,3.8,3.5s-1.4,3.5-3.8,3.5h0s-2.6,0-2.6,0v-.4ZM122.7,24.9h0s-3.1,0-3.1,0v-8.2h3.1c3.2,0,4.5,2,4.5,4.1s-1.7,4.1-4.5,4.1Z"/>
    <path class="st0" d="M32.9,10.4C32.9,4.7,28.3.1,22.6.1s-3.4.4-4.9,1.2C16.5.6,15,.1,13.4.1h-5.2C3.7.1,0,3.8,0,8.3v15.5c0,4.5,3.7,8.2,8.2,8.2h5.2c1.6,0,3-.4,4.3-1.2,1.4.8,3.1,1.2,4.8,1.2,5.7,0,10.3-4.6,10.3-10.3s-.6-4-1.6-5.6c1.1-1.6,1.7-3.6,1.7-5.7Z"/>
    <path class="st1" d="M22.6,5.5c0,0,.2,0,.2,0,1.2,0,2.4.6,3.3,1.5,1.9,1.9,1.9,5,0,6.9l-2.2,2.2,2.1,2.1c1.9,1.9,1.9,5.1,0,7-1,1-2.2,1.5-3.5,1.5s-2.5-.5-3.5-1.5l-2.9-2.8v1.5c0,1.5-1.2,2.7-2.7,2.7h-5.2c-1.5,0-2.7-1.2-2.7-2.7v-15.5c0-1.5,1.2-2.7,2.7-2.7h5.2c1.5,0,2.7,1.2,2.7,2.7v4.1l-2.5,2.4v-6c0-.4-.4-.8-.8-.8h-4.1c-.4,0-.8.4-.8.8v14.4c0,.4.4.8.8.8h4.1c.4,0,.8-.4.8-.8v-6.8l7,7c.5.5,1.1.7,1.8.7s1.3-.2,1.8-.7c1-1,1-2.6,0-3.6l-3.8-3.8,3.9-3.9c1-1,1-2.5,0-3.5s-1.1-.7-1.8-.7h0c-.7,0-1.3.3-1.8.8l-.7.8c-.2.2-.6.4-.9.4s-.6-.1-.9-.4c-.5-.5-.5-1.3,0-1.7l.8-.8c.9-.9,2.2-1.5,3.5-1.5"/>
  </g>
</svg>