<?xml version="1.0" encoding="UTF-8" standalone="no"?>
<svg
   width="500"
   height="95.504791"
   viewBox="0 0 224 42.787101"
   fill="none"
   version="1.1"
   id="svg13"
   sodipodi:docname="Mr.Bricolage logo.svg"
   inkscape:version="1.4 (86a8ad7, 2024-10-11)"
   xmlns:inkscape="http://www.inkscape.org/namespaces/inkscape"
   xmlns:sodipodi="http://sodipodi.sourceforge.net/DTD/sodipodi-0.dtd"
   xmlns="http://www.w3.org/2000/svg"
   xmlns:svg="http://www.w3.org/2000/svg">
  <defs
     id="defs13" />
  <sodipodi:namedview
     id="namedview13"
     pagecolor="#ffffff"
     bordercolor="#000000"
     borderopacity="0.25"
     inkscape:showpageshadow="2"
     inkscape:pageopacity="0.0"
     inkscape:pagecheckerboard="0"
     inkscape:deskcolor="#d1d1d1"
     inkscape:zoom="2.5074006"
     inkscape:cx="234.30639"
     inkscape:cy="27.319128"
     inkscape:window-width="1920"
     inkscape:window-height="1001"
     inkscape:window-x="-9"
     inkscape:window-y="-9"
     inkscape:window-maximized="1"
     inkscape:current-layer="svg13" />
  <path
     d="m 221.38402,25.893863 c -1.32179,0.79709 -2.76703,1.371171 -4.2755,1.69916 l 6.16133,-9.066867 c -1.15619,-2.090478 -2.97478,-3.737147 -5.16873,-4.680466 -2.19496,-0.94332 -4.64083,-1.129695 -6.95321,-0.529821 -2.31238,0.599875 -4.3598,1.951976 -5.81909,3.843231 -1.45829,1.891256 -2.24715,4.214277 -2.24113,6.603036 0.008,2.880341 1.14315,5.643256 3.16146,7.697904 2.01832,2.054648 4.76126,3.238038 7.6407,3.296951 0,0 6.12219,0.669427 10.11266,-3.888094 z m -9.61586,-0.08129 c -0.39443,-0.39985 -0.6614,-0.907289 -0.76879,-1.458688 -0.10638,-0.551298 -0.0482,-1.121867 0.16761,-1.640145 0.21679,-0.518279 0.58111,-0.961084 1.0478,-1.272915 0.4677,-0.31183 1.01568,-0.478835 1.57772,-0.479839 0.37937,6.02e-4 0.75574,0.07838 1.104,0.228829 l -3.12934,4.623761 z"
     fill="#eb0029"
     id="path1"
     style="stroke-width:1.00364" />
  <path
     d="m 192.0276,13.257056 c -2.7871,0.0085 -5.45778,1.123171 -7.4229,3.099134 -1.96613,1.976063 -3.06813,4.651662 -3.0621,7.439066 0,5.815079 4.59264,10.21001 8.93237,10.05545 1.5155,0.01927 3.01895,-0.266767 4.42203,-0.841049 l 0.008,0.44963 c 0,2.466943 -5.21089,2.335466 -5.21089,2.335466 -1.72425,-0.0026 -3.44247,-0.219395 -5.11353,-0.645339 l 0.008,6.347007 c 1.88282,0.807026 3.90315,1.245214 5.95057,1.290679 8.83201,0 11.98143,-4.975034 11.98143,-8.781834 v -10.21001 c 0.005,-2.78891 -1.09698,-5.465713 -3.06511,-7.441876 -1.96814,-1.976164 -4.63882,-3.089901 -7.42793,-3.096324 z m 0,13.396561 c -0.56505,10e-4 -1.11905,-0.165801 -1.58976,-0.479237 -0.47071,-0.313536 -0.83703,-0.759553 -1.05482,-1.281846 -0.21679,-0.522193 -0.274,-1.097077 -0.1646,-1.651788 0.1094,-0.554811 0.38138,-1.064659 0.78083,-1.46491 0.40045,-0.400251 0.9093,-0.67294 1.46431,-0.783641 0.55401,-0.110701 1.12909,-0.0544 1.65199,0.161787 0.52189,0.216183 0.96951,0.582612 1.28365,1.052716 0.31414,0.470204 0.48175,1.023008 0.48175,1.588558 10e-4,0.37506 -0.0733,0.746606 -0.21579,1.093363 -0.14352,0.346657 -0.35328,0.661699 -0.61824,0.927161 -0.26496,0.265462 -0.5801,0.476126 -0.92636,0.619947 -0.34625,0.143721 -0.7176,0.21779 -1.09296,0.21789 z"
     fill="#eb0029"
     id="path2"
     style="stroke-width:1.00364" />
  <path
     d="m 170.41024,13.15067 c -2.81621,0 -5.518,1.118856 -7.50922,3.110375 -1.99122,1.991519 -3.11027,4.692711 -3.11027,7.50912 0,2.81651 1.11905,5.517601 3.11027,7.50912 1.99122,1.991519 4.69301,3.110375 7.50922,3.110375 h 10.58236 l -0.0161,-10.627524 c 0.005,-2.80828 -1.105,-5.503751 -3.08618,-7.493664 -1.98219,-1.990014 -4.67194,-3.111378 -7.48012,-3.117802 z m 0,13.544096 c -0.5791,0.0028 -1.14515,-0.166202 -1.6279,-0.485459 -0.48275,-0.319358 -0.85911,-0.774608 -1.08292,-1.308343 -0.22382,-0.533634 -0.28403,-1.121766 -0.17363,-1.689725 0.1104,-0.568059 0.3874,-1.090453 0.79488,-1.501242 0.40747,-0.410689 0.92736,-0.691306 1.49441,-0.806222 0.56806,-0.114817 1.1562,-0.05891 1.69113,0.160782 0.53595,0.219697 0.99361,0.593351 1.31678,1.073492 0.32317,0.480241 0.4958,1.045389 0.4978,1.624087 l 0.0161,2.93263 z"
     fill="#eb0029"
     id="path3"
     style="stroke-width:1.00364" />
  <path
     d="m 150.78811,34.176888 h 8.25894 V 4.0677553 h -8.25894 z"
     fill="#eb0029"
     id="path4"
     style="stroke-width:1.00364" />
  <path
     d="m 139.43396,13.15067 c -2.10263,-0.01054 -4.16209,0.603488 -5.91545,1.764396 -1.75335,1.160808 -3.12232,2.816108 -3.93426,4.75604 -0.81194,1.940033 -1.02873,4.07728 -0.62527,6.140961 0.40447,2.06368 1.41313,3.960858 2.8965,5.451059 1.48439,1.490202 3.37725,2.506185 5.43872,2.919383 2.06248,0.413198 4.20022,0.204842 6.14327,-0.59857 1.94405,-0.803412 3.60507,-2.16565 4.7733,-3.914289 1.16824,-1.748538 1.79149,-3.804591 1.78949,-5.907514 0.005,-2.807979 -1.10501,-5.503048 -3.08719,-7.492761 -1.98118,-1.989813 -4.67093,-3.111579 -7.47911,-3.118705 z m 0,13.870279 c -0.64334,0.0032 -1.27262,-0.184569 -1.80956,-0.539456 -0.53695,-0.354886 -0.95547,-0.861021 -1.20437,-1.454271 -0.2489,-0.593251 -0.31615,-1.247021 -0.1927,-1.878409 0.12245,-0.631389 0.43056,-1.212194 0.8832,-1.668749 0.45365,-0.456555 1.03174,-0.768386 1.66203,-0.896048 0.63129,-0.127563 1.28465,-0.06534 1.87981,0.179049 0.59516,0.244285 1.10501,0.659691 1.46331,1.193526 0.3593,0.533935 0.55099,1.162313 0.553,1.805545 0.001,0.860419 -0.33822,1.686313 -0.94442,2.297026 -0.6062,0.610714 -1.43019,0.956468 -2.2903,0.961787 z"
     fill="#eb0029"
     id="path5"
     style="stroke-width:1.00364" />
  <path
     d="m 125.29671,26.416759 c -0.4677,0.0022 -0.92937,-0.107189 -1.34588,-0.319258 -0.41651,-0.212068 -0.77682,-0.520587 -1.05081,-0.899962 -0.27299,-0.379375 -0.45164,-0.818467 -0.52189,-1.280943 -0.0693,-0.462477 -0.0271,-0.934889 0.12244,-1.377795 0.15055,-0.443005 0.40347,-0.843758 0.73968,-1.168937 0.33622,-0.325279 0.7447,-0.56545 1.19233,-0.70074 0.44762,-0.13529 0.92134,-0.161786 1.381,-0.07708 0.46067,0.08461 0.89324,0.277907 1.26358,0.563643 l 4.06373,-6.523648 c -1.70417,-1.112533 -3.69539,-1.702873 -5.73077,-1.698156 -2.79814,0.0272 -5.47284,1.157998 -7.44198,3.146506 -1.96913,1.988408 -3.07414,4.673943 -3.07414,7.472487 0,2.798545 1.10501,5.48408 3.07414,7.472487 1.96914,1.988509 4.64384,3.119308 7.44198,3.146506 2.17087,0.0037 4.28955,-0.666817 6.06298,-1.918956 l -4.2755,-6.534687 c -0.53092,0.455651 -1.20738,0.705055 -1.90691,0.702546 z"
     fill="#eb0029"
     id="path6"
     style="stroke-width:1.00364" />
  <path
     d="m 105.74082,34.176888 h 8.42153 V 13.11755 h -8.42153 z"
     fill="#eb0029"
     id="path7"
     style="stroke-width:1.00364" />
  <path
     d="m 109.83366,12.424036 c 0.85309,0.0047 1.68812,-0.243683 2.3997,-0.713887 0.71158,-0.470205 1.26759,-1.141037 1.59779,-1.9275278 0.32919,-0.7864508 0.41851,-1.6531525 0.25593,-2.4903272 -0.16259,-0.8371847 -0.57107,-1.6071558 -1.17125,-2.2124199 -0.60118,-0.605254 -1.36796,-1.0185722 -2.20399,-1.1875748 -0.83603,-0.1690026 -1.70317,-0.086092 -2.49203,0.2382135 -0.78886,0.3243156 -1.46431,0.8754434 -1.93903,1.5835803 -0.47573,0.7081269 -0.73065,1.5414075 -0.73165,2.3942992 -0.002,0.5648174 0.10638,1.1246066 0.32016,1.6473113 0.21478,0.5226544 0.52891,0.9980784 0.92736,1.3989314 0.39744,0.400853 0.87116,0.719207 1.39204,0.937097 0.52089,0.217789 1.07992,0.330698 1.64497,0.332304 z"
     fill="#eb0029"
     id="path8"
     style="stroke-width:1.00364" />
  <path
     d="m 96.694029,15.57546 c -1.746029,1.879613 -2.736118,4.337925 -2.780077,6.903023 v 11.698405 h 8.136488 V 22.86388 c -0.0341,-0.372852 0.014,-0.748513 0.13951,-1.100991 0.12646,-0.352578 0.32719,-0.673542 0.58913,-0.940811 0.26195,-0.267268 0.5791,-0.474319 0.92937,-0.607 0.35027,-0.132681 0.72463,-0.187781 1.09798,-0.161385 l 0.0401,0.008 v -6.96023 c -1.45728,-0.246192 -2.9527,-0.150847 -4.36783,0.27861 -1.414228,0.429457 -2.709824,1.181282 -3.784721,2.196362 z"
     fill="#eb0029"
     id="path9"
     style="stroke-width:1.00364" />
  <path
     d="M 89.296213,14.139254 C 89.755176,12.167105 89.733096,10.113461 89.231983,8.1515587 88.135006,3.5037107 83.46006,0 77.746348,0 71.291952,0 66.066008,4.476236 66.066008,9.9902237 V 34.177892 h 16.289047 c 5.921464,0 10.738927,-5.089449 10.738927,-11.37122 0.01616,-1.631012 -0.313837,-3.246769 -0.968109,-4.740885 -0.654272,-1.494016 -1.618065,-2.832367 -2.82765,-3.926533 z M 80.24139,26.130722 74.621016,26.114662 V 11.508718 c -10e-4,-0.44712 0.08601,-0.890126 0.256129,-1.303625 0.170217,-0.4134993 0.420223,-0.789432 0.735667,-1.1063107 0.315443,-0.3168887 0.690302,-0.5685108 1.103098,-0.7405143 0.412696,-0.1719934 0.855301,-0.2609961 1.302421,-0.2619194 0.929269,0.061583 1.799423,0.4771195 2.431414,1.1610387 0.631991,0.6839191 0.977744,1.5841127 0.965901,2.5152877 0,1.88684 -1.1863,3.471584 -3.575962,4.663906 3.096223,0.384394 6.624011,2.007277 6.624011,5.27713 0.01335,0.566754 -0.08511,1.130598 -0.28975,1.659314 -0.204642,0.528717 -0.511454,1.011969 -0.902973,1.422055 -0.391419,0.410087 -0.859817,0.738979 -1.378397,0.968009 -0.51868,0.22903 -1.077305,0.353582 -1.64416,0.366629 z"
     fill="#eb0029"
     id="path10"
     style="stroke-width:1.00364" />
  <path
     d="m 60.230853,25.477353 c -0.907289,-0.0046 -1.795609,0.260344 -2.552251,0.761059 -0.756643,0.500715 -1.347585,1.214904 -1.697955,2.051838 -0.35037,0.836934 -0.444411,1.759076 -0.27018,2.649504 0.174132,0.890428 0.608807,1.709196 1.248727,2.352327 0.64002,0.643232 1.456479,1.082022 2.346104,1.26067 0.889525,0.178748 1.812069,0.08932 2.650809,-0.256831 0.838741,-0.346155 1.55574,-0.933484 2.060268,-1.687617 0.50463,-0.754134 0.774006,-1.641049 0.774006,-2.548338 0.0022,-1.212094 -0.476828,-2.375411 -1.331727,-3.234625 -0.854899,-0.859215 -2.015807,-1.343972 -3.227801,-1.347987 z"
     fill="#43b02a"
     id="path11"
     style="stroke-width:1.00364" />
  <path
     d="m 57.191837,20.053693 0.04115,0.008 v -6.96023 c -1.457784,-0.246192 -2.952703,-0.150847 -4.367331,0.27861 -1.414628,0.429457 -2.710425,1.181282 -3.785221,2.196362 -1.74613,1.879513 -2.736219,4.337924 -2.780078,6.903022 v 11.698406 h 8.136495 V 22.86388 c -0.03362,-0.372751 0.01415,-0.748313 0.139907,-1.10079 0.125756,-0.352378 0.326584,-0.673341 0.588533,-0.94061 0.26195,-0.267169 0.578899,-0.474319 0.928767,-0.607101 0.349968,-0.132781 0.724526,-0.187881 1.097779,-0.161686 z"
     fill="#eb0029"
     id="path12"
     style="stroke-width:1.00364" />
  <path
     d="M 40.184186,4.0416607 C 39.402753,4.0383688 38.63216,4.2246741 37.938546,4.5845988 37.244931,4.9445135 36.648971,5.4673086 36.20175,6.1081415 L 27.926754,17.850708 V 8.9976056 C 27.918854,7.7564666 27.420418,6.5688114 26.540428,5.693629 25.660338,4.8184365 24.469923,4.326714 23.228724,4.3256702 22.483523,4.3242602 21.74906,4.503274 21.088064,4.8474014 20.427068,5.1915289 19.85921,5.6905679 19.432964,6.3018437 L -0.00248725,34.173878 H 10.459436 l 9.201354,-13.192823 0.008,8.494793 c 0.02198,1.247923 0.538553,2.43603 1.436307,3.303173 0.897754,0.867043 2.103124,1.342065 3.351047,1.320587 0.792172,0.006 1.573604,-0.183063 2.275348,-0.550696 0.701744,-0.367532 1.302221,-0.902271 1.748237,-1.556944 l 7.965876,-11.214652 v 13.396562 h 8.624262 V 8.9514483 C 45.071602,8.3083671 44.946649,7.6712476 44.702063,7.0764716 44.457476,6.4817057 44.098073,5.9409354 43.644529,5.485093 43.190885,5.0292406 42.651931,4.6672384 42.05838,4.4197312 41.464828,4.172234 40.828321,4.0440995 40.18519,4.0426543 Z"
     fill="#eb0029"
     id="path13"
     style="stroke-width:1.00364" />
</svg>
