<?xml version="1.0" encoding="UTF-8"?>
<svg id="Calque_2" data-name="Calque 2" xmlns="http://www.w3.org/2000/svg" viewBox="0 0 481.98 112.74">
  <defs>
    <style>
      .cls-1 {
        fill: #c6c6c6;
      }

      .cls-2 {
        fill: #040404;
      }

      .cls-3 {
        fill: #c6462e;
      }
    </style>
  </defs>
  <g id="Calque_1-2" data-name="Calque 1">
    <g>
      <path class="cls-1" d="M457.02,54.62h20.99c.24,0,.62.75.12,1.08-.26.17-2.33.36-3.02.58-3.99,1.3-6.62,6.35-8.31,9.91-2.37,5.01-3.99,10.37-6.47,15.34-.58,1.16-4.28,7.03-4.29,7.46,0,.26.17.45.35.61,6.13,4.66,12.7,13.17,20.16,15.56,1,.32,4.85.84,5.17,1.06.34.24.22.74.23,1.09h-16.91c-1.26,0-13.25-11.52-14.16-11.44-6.45,6.63-12.78,12.48-22.55,13.12-16.12,1.05-28.04-13.28-22.13-28.81,1.7-4.47,5.63-8.77,9.17-11.93.78-.69,5.13-3.64,5.18-3.97.09-.61-1.92-2.49-2.41-3.1-5.4-6.76-10.35-13.44-7.8-22.63,5.28-19.05,38.08-18.65,37.07,1.81-.48,9.71-10.34,16.11-17.65,20.95l-.34.57,23.73,24.49c.64.33,1.58-1.29,1.87-1.74,3.8-5.96,8.77-18.34,7.96-25.35-.18-1.56-1.09-2.25-2.47-2.8-1.27-.51-3.86-.28-3.52-1.87ZM424.58,28.33c-4.93.67-8.64,5.77-8.59,10.59.06,5.54,6.82,15.81,10.68,19.78,1.2,1.23,1.49.46,2.74-.39,4-2.72,9.11-7.1,10.38-11.92,2.65-10.06-4.54-19.51-15.21-18.06ZM422.6,66.42c-27.25,16.96,1.25,50.92,24.59,29.06.31-.29,1.71-1.57,1.66-1.89-9.21-8.6-17.76-17.86-26.25-27.17Z"/>
      <g>
        <g>
          <path class="cls-2" d="M331.68,25.87c7.32.62,14.03,6.63,10.24,14.3-1.95,3.94-5.39,4.68-9.07,6.04-.26.1-.41-.12-.33.38,3.63,4.22,6.63,9.55,10.31,13.67,1,1.12,2.22,2.48,3.74,2.73.36.06,1.49-.03,1.54.02.09.08-.06,1.78,0,2.16-2.52-.55-8.96,1.07-10.89-.27-.62-.43-2.66-2.94-3.26-3.69-2.32-2.89-7.41-11.74-10.07-13.18-1.76-.95-3.37-.65-5.06.29.19,3.2-.22,6.62,0,9.79.17,2.48.54,4.33,3.31,4.84,1.95.36,3.1-.71,2.7,2.21h-19.67c-.51-2.97,1.18-1.83,3.23-2.41,1.84-.52,2.17-1.76,2.51-3.49-.44-8.73.68-18.18.04-26.82-.16-2.14-.62-3.54-2.84-4.12-.61-.16-2.83-.2-2.93-.3-.08-.08.06-1.78,0-2.16h26.51ZM324.72,28.03c-1.81-.15-3.81.11-5.64,0v17.01h6.12c3.63,0,7.86-2.25,8.6-6.02,1.23-6.29-3.09-10.48-9.08-10.99Z"/>
          <path class="cls-2" d="M390.57,25.87v8.15c-.7-.11-2.09.22-2.64-.12-.18-.11-.99-1.8-1.34-2.26-1-1.32-2.58-2.55-4.18-3.02-3.82-1.11-9.01-.56-12.95-.36v14.73s.33.36.36.36h7.2c.84,0,2.81-.73,3.45-1.34.92-.88,1.56-3.55,1.74-3.66s2.9-.24,3.05.36l.03,12.07c-.62-.13-2.74.2-3.09-.03-.22-.14-.54-3.25-2.5-4.33-.18-.1-1.64-.67-1.73-.67h-8.16s-.36.33-.36.36v12.22c0,.4.51,2.18.76,2.6.82,1.42,2.87,1.93,4.41,2.07,4.25.38,10.01-.52,12.95-3.83,1.69-1.9,2.27-4.68,5.63-3.59l-2.16,9.58h-35.5c.08-.41-.14-1.7.03-1.89s2.76-.32,3.44-.52c1.95-.55,2.41-2.06,2.54-3.93.62-8.8-.43-18.38-.07-27.26-.47-3.28-3.06-3.7-5.94-3.54v-2.16h35.02Z"/>
          <path class="cls-2" d="M120.34,25.15l.75.56c7.35,8.32,14.01,17.7,21.44,25.9.35.38.74.84,1.19,1.08v-20.01c0-.3-.46-2.11-.61-2.51-.8-2.21-2.94-2.63-5.03-2.88-.38-.04-1.73.06-1.8,0-.09-.09.07-1.78,0-2.16h16.07c-.06.38.09,2.07,0,2.16-.21.21-4.14-.47-5.57,1.74-.67,1.04-.85,3.31-.92,4.59-.57,10.03.43,20.6.02,30.69-.22,1.9-2.25.41-3.01-.37-8.22-8.29-15.29-19.56-23.39-28.15l-1.67-1.56v23.36c0,1.01,1.08,2.73,1.93,3.34,1.69,1.2,4.57.96,5.28,1.44.43.29.16,1.53.23,2.05h-17.51c.06-.52-.2-1.76.22-2.05.23-.16,3.79-.34,4.81-.71,2.09-.76,2.48-3.03,2.64-5.03.45-5.5-.02-11.27,0-16.76,0-2.21.78-6.71-.05-8.57-.58-1.3-3.06-2.79-4.37-3.3-.53-.21-2.65-.63-2.74-.74-.16-.19.06-1.7-.02-2.13h12.11Z"/>
          <path class="cls-2" d="M270.87,25.87c-.06.38.09,2.07,0,2.16-.06.06-1.37-.03-1.77.03-2.42.35-3.81.87-4.16,3.51.58,7.21-1.13,16.66.24,23.59,1.77,8.93,17.61,9.18,21.25,1.71,1.97-4.04,1.76-16.48,1.48-21.31-.21-3.64-.66-6.75-4.75-7.47-.47-.08-1.91,0-1.98-.06-.09-.09.07-1.78,0-2.16h14.87c-.06.38.09,2.08,0,2.16-.19.17-3.53-.04-4.8,1.38-.75.84-1.12,2.65-1.2,3.76-1.06,13.47,4.99,31.76-14.73,32.96-8.45.52-17.37-1.91-18.12-11.63-.55-7.17.32-14.78-.23-21.81-.08-.96-.37-2.6-.96-3.35-1.37-1.71-4.85-1.12-5.04-1.31-.09-.09.07-1.78,0-2.16h19.91Z"/>
          <path class="cls-2" d="M183.07,25.87l13.7,34.35c.5.96,1.04,1.78,2.05,2.27.74.35,2.39.43,2.48.52.1.09-.06,1.77,0,2.15h-19.43c-.24-2.86.36-1.88,2.25-2.18,3.8-.62,4.73-1.06,3.51-4.89-.33-1.05-2.4-6.72-2.87-7.2-.25-.26-.48-.37-.84-.36-4.52.12-9.14-.18-13.59.15-.59,2.63-3.98,8.55-1.99,10.86.69.8,2.17,1.16,3.16,1.39,1.73.41,1.89-.36,1.74,2.22h-14.88c.09-.43-.14-1.95.03-2.13.07-.09,1.76-.38,2.2-.56,2.88-1.11,3.43-2.9,4.6-5.46,3.97-8.7,6.83-18.23,10.57-27.05.5-1.47-.65-2.69-.85-4.08h8.16ZM171.79,47.43h11.75l-6.35-14.86-5.4,14.86Z"/>
          <path class="cls-2" d="M243.28,25.87v9.1c-.65-.1-1.87.21-2.4-.12-.19-.11-1.57-3.11-2.16-3.83-2.43-2.96-6.51-3.21-10.07-2.76v31.27c0,.09.45,1.42.54,1.61.97,2.04,3.25,1.92,5.22,1.86v2.16h-19.67c-.64-3.48,2.2-1.44,4.31-2.77.84-.53,1.69-2.42,1.69-3.34v-30.79c-2.08-.28-5.4-.18-7.36.67-2.73,1.19-2.95,2.94-4.29,5.05-.76,1.19-2.98,1.3-2.98.62v-8.51l37.18-.24Z"/>
        </g>
        <g>
          <path class="cls-2" d="M313.93,83.61c4.1.52,7.26,3.89,5.75,8.14-.89,2.52-2.96,3.01-5.09,4.03-.23.11-.4-.07-.28.38,1.82,1.96,5.02,8.08,7.31,8.99,1.59.64,2.01-.47,1.78,1.94h-6.6c-1.07,0-6.11-7.99-7.31-9.23-1.01-1.05-1.38-1.13-2.88-1.31v7.55c0,1.43,3.22,1.18,3.36,1.32.08.08-.06,1.35,0,1.68h-11.75c.05-.33-.08-1.6,0-1.68.22-.21,2.47.56,3.06-1.38.67-2.17.54-13.05.31-15.76-.11-1.25-.29-2.55-1.67-2.88s-2.19.41-1.94-1.78h15.95ZM306.61,94.63c4.36,1.05,9.49-1.34,7.32-6.47-1.22-2.89-4.61-3.02-7.32-2.88v9.34Z"/>
          <path class="cls-2" d="M125.13,83.61c13.27,1.34,13.76,20.34,1.32,23.12-2.99.67-13.27.75-16.45.37-.83-.1-1.2-.8-.72-1.47s3.08.67,3.47-2.53c.42-3.45.37-11.79.04-15.32-.11-1.22-.48-2.25-1.82-2.49-1.46-.27-1.71.59-1.79-1.69h15.95ZM117.82,85.29v17.61c0,1.03,1.38,2.2,2.39,2.41,10.15,2.15,12.29-14.8,5.37-18.78-.63-.36-2.95-1.24-3.56-1.24h-4.2Z"/>
          <path class="cls-2" d="M202.69,82.96c18.08-.51,16.83,26.33-1.75,24.61-15.27-1.42-14.21-24.16,1.75-24.61ZM201.72,84.87c-8.72,1.26-7.66,21.56,1.85,21.03s8.37-22.51-1.85-21.03Z"/>
          <path class="cls-2" d="M158.84,83.61v5.27c-2.17.52-2-1.27-3.27-2.36-.53-.45-2.2-1.23-2.84-1.23h-5.4v8.27c0,.77,4.82.27,5.62-.61.4-.44.71-1.8,1.09-2.03.41-.25,1.92-.18,1.92.24v7.55c-2.76.58-1.89-1.18-3.11-2.29-.37-.34-1.61-.83-2.05-.83h-3.48v8.51c0,.93,2.07,1.24,2.79,1.29,1.81.13,4.47-.32,5.97-1.41,1.73-1.25,1.88-3.72,4.44-3.11l-1.2,6.23h-21.11c-.09-2.45.92-1.34,2.51-1.92,1.25-.45,1.25-1.79,1.34-2.98.29-3.78.29-10.14,0-13.91-.05-.65-.18-1.8-.59-2.29-.82-.99-2.91-.58-3.02-.69-.08-.08.06-1.35,0-1.68h20.39Z"/>
          <path class="cls-2" d="M292.46,83.61v5.27c-2.08.46-1.73-.83-2.87-2.04-.4-.42-1.5-1.31-2.04-1.31h-6.6v8.15c1.63.23,4.97.47,6-1.08.31-.47.44-1.52.71-1.69.24-.16,1.44-.21,1.66-.08.37.23.42,7.3.17,7.65-.23.33-1.5.33-1.82.11-.28-.19-.61-1.77-1.02-2.21-.26-.28-1.65-.79-1.96-.79h-3.72v8.27c0,1.12,2.39,1.49,3.24,1.51,2.05.04,4.55-.36,6.12-1.75,1.38-1.22,1.57-3.26,3.84-2.76.33.33-1.12,5.36-1.2,6.23h-20.63c-.56-2.14.19-1.45,1.5-1.73,1.16-.25,1.6-.54,1.84-1.76-.33-5.16.49-10.96.03-16.05-.13-1.45-.45-1.9-1.87-2.21s-1.8.47-1.74-1.73h20.39Z"/>
          <path class="cls-2" d="M368.98,83.61v5.27c-1.95.5-1.95-1.46-2.99-2.4-1.75-1.57-6.06-1.27-8.28-.95v8.39c1.56-.23,4.51.15,5.62-.98.63-.64.99-3.14,2.55-2.03.54.38.61,7.39.22,7.8-.07.07-1.78.04-1.89-.03-.23-.15-.15-2.02-1.53-2.66-.15-.07-1.42-.42-1.5-.42h-3.48c.08.24-.24.52-.24.6v6.95c0,.53.58,1.74,1.19,1.93,1.2.39,5.16.12,6.42-.32,2.54-.9,2.61-2.86,3.81-3.62.54-.34,2-.54,1.97.28-.02.52-.95,4.61-1.15,5.09-.09.22-.12.46-.36.6h-20.51c.05-.33-.08-1.6,0-1.68.13-.12,2.72.24,3.24-.96.19-.45.34-2.13.38-2.74.22-3.47.4-10.81-.07-14.08-.14-.95-.5-2.06-1.55-2.29-1.38-.31-2.24.55-1.99-1.73h20.15Z"/>
          <path class="cls-2" d="M389.63,90.3c-.16-.14-.76-2.88-1.7-3.93-3.65-4.03-11.02.45-6.07,4.15,3.48,2.6,11.44,4.5,11.84,9.73.57,7.34-8.47,8.01-13.74,7.01-.56-.11-3.78-1.03-4.03-1.25-.69-.59-.28-4.8-.71-5.87.59.12,2.49-.19,2.84.03.1.06.59,1.79.79,2.21,1.25,2.55,3.11,3.78,6.06,3.48,3.5-.36,4.9-3.89,2.18-6.2-3.99-3.38-12.35-3.93-11.64-10.92.6-5.95,9.05-6.4,13.5-5.07.72.21,2.94,1.02,3.07,1.73-.29.81.41,4.31.14,4.69-.22.31-2.38.31-2.51.2Z"/>
          <path class="cls-2" d="M230.32,83.61c.6,3.06-3.01.46-3.54,3.29-.41,2.22-.31,10.92-.03,13.33.2,1.69.9,3.01,2.45,3.78,2.9,1.44,8.16,1.14,9.69-2.14.99-2.11,1.14-10.89.73-13.29-.12-.68-.67-1.71-1.17-2.19-1.16-1.12-3.1-.71-2.62-2.78h9.36c.51,3-2.73.57-3.5,3.34-1.82,6.59,3.16,17.89-6.34,20.26-4.47,1.12-11.75.5-13.27-4.72-1.06-3.61.45-14.52-1-16.49-1.11-1.5-3.7.45-3.24-2.4h12.47Z"/>
          <path class="cls-2" d="M185.94,90.56c-.58-.12-2.23.19-2.6-.04-.15-.1-1.17-2.52-1.72-3.19-2.64-3.16-8.14-3.59-10.55-.01-2.88,4.27-2.87,11.9.29,16.02,2.69,3.5,8.62,3.3,11.1-.33,1.35-1.98.23-3.97,3.74-3.34-.06.93.18,5.33-.39,5.78-.51.4-2.71,1.08-3.45,1.29-8.7,2.43-18.69.29-19.19-10.3-.32-6.8,4.5-12.76,11.38-13.3,2.59-.2,7.73.17,9.94,1.59,1.3.83.89,4.37,1.46,5.85Z"/>
          <path class="cls-2" d="M257.91,83.61c.69,2.79-2.84.86-2.87,3.21,1.7,4.19,2.68,9.4,4.53,13.45.11.24.16.56.49.59l4.57-13.31c.09-2.83-3.42-1.19-2.89-3.94h8.64c.42,2.46-.73,1.39-2.15,2.29-.58.37-1.26,1.4-1.57,2.03l-7.05,19.5-2.64.11-7.18-20.26c-1.15-1.99-3.17-1.76-3.4-2-.11-.12.05-1.32-.01-1.67h11.51Z"/>
          <path class="cls-2" d="M345.23,83.61v5.51c-2.25.51-1.97-1.24-3.12-2.45-.92-.97-3.46-2.02-4.52-.99v17.67c.38,2.74,3.04,1.78,3.33,2.06.08.07-.06,1.35,0,1.68h-11.75c.05-.33-.08-1.6,0-1.68.12-.12,2.11.34,2.85-.86.08-.14.51-1.34.51-1.41v-17.49c0-.81-2.85-.13-3.45.15-1.56.72-2.51,3.39-3.18,3.51-.05,0-1.05-.13-1.05-.18v-5.51h20.39Z"/>
        </g>
        <g>
          <path class="cls-3" d="M69.17,19.93c-.18.3.29,2.52.49,2.77.12.15,1.75.82,2.17,1.07,31.48,18.84,32.65,63.57.72,82.33C37.1,126.91-6.34,95.75,1.82,55.57c.28-1.38,1.59-4.89,1.58-5.87-.01-1.32-2.19-1.72-2.78-2.98-1.71-3.67.25-5.27,3.66-6.05.95-1.86,1.56-5.65,2.73-7.21,1.06-1.41,3.99-1.63,4.64-2.31.41-.43,1.19-3.1,1.59-3.92C20.99,11.4,42.56,2.86,58.89,10.09c1.4.62,2.69,1.56,4.06,2.1l10.56-10.32c.81-.53,3.74-1.8,4.63-1.86,1.24-.09,6.13,1.4,7.13,2.18,1.62,1.26,1.37,4.38.25,5.93-2.22,3.1-5.1,3.44-7.95,5.24s-5.48,4.73-8.41,6.57ZM67.47,17.45c.29.17.58-.06.83-.19,2.42-1.2,5.34-4.04,7.94-5.48s4.93-1.78,7.16-4.11c1.2-1.26,1.9-3.39,0-4.33-6.65-3.29-9.67.52-13.93,5.04-1.59,1.69-3.05,3.53-4.65,5.2-.16.62,2.44,2.93,2.65,3.87ZM41.97,9.65c-13.92,1.17-26.12,11.43-29.11,25.08-1.95,8.9-2.67,17.39,8.04,20.01,13.92,3.41,36.12-3.67,43.22-16.73,9.5-17.47-4.88-29.82-22.16-28.36ZM10.83,34.5l-1.93.4c-1.22,1.7-1.99,5.62-3.21,7.04-1.36,1.6-5.04.32-3.37,4.05,1.14.35,1.92,1.82,2.85,2.18.66.26,4.51.88,4.92.45-.61-4.74-.06-9.45.73-14.12ZM78.06,50.13c.5-.52,2.39-.62,2.7-1.26.22-.46.03-1.04.17-1.51.26-.89.85-.9.39-1.92-.65-1.45-2.36-1.79-3.19-2.81-1.18-1.46-1.61-4.13-3.37-5.5-.82-.64-5.67-2.29-6.37-1.81-.33.23-2.12,5.32-2.63,6.12,3.19.83,4.74,1.56,5.46,4.97.19.91.2,4.08.6,4.56.43.53,2.53-.26,3.42-.19.66.05,1.38.55,1.92.5.73-.07.59-.82.9-1.14ZM11.55,52.23c.09,1.44-2.3,5.18-1.81,6.22.07.16.35.42.52.45.88.16,3.7-3.01,4.39-3.71l-2.49-2.73-.61-.23ZM27.31,77.79c.44-.36,1.28-2.07,1.26-2.66-.05-1.48-1.86-2.85-1.67-4.32.11-.83,1.69-2.81,2.12-3.89.97-2.42.45-3.81-.57-6.07-1.44-3.18-1.39-2.11-4.48-2.71-1.68-.33-3.33-.73-4.99-1.13-.32.32,2.27,5.81,2.11,7.01-.36,2.63-5.78,6.45-4.88,9.76.6,2.18,2.18,1.58,3.31,2.38.66.47,1.19,2.03,2.09,2.3,1.08.33,2.62-.83,3.75-.85.77-.01,1.18.78,1.94.15ZM74.16,97.15v4.43c10.57-6.49,17.61-17.34,19.39-29.63.28-1.9.77-5.6.52-7.39-.05-.33.13-.41-.36-.36l-10.62,4.99c-1.29.22-3.47-.93-4.75-.88-.39.02-1.76.86-1.91,1.17-.71,1.42,3.08,5.23,3.2,6.39.1,1.03-2.99,2.96-3.32,4.05l3.06,6.66-5.22,10.58ZM69.81,104.18c.2-.31-1.07-6.27-1.28-7.16-.22-.93-.55-3.05-1.08-3.72-.63-.8-3.58-2.32-4.62-2.22-3.09.3-2.45,1.75-4.84-1.51-1.15-1.57-2.93-5.21-4.24-6.31-.55-.46-6.49-3-7.06-2.99-.53,0-1.79,1.12-2.28,1.53-.83.69-6.57,6.05-6.66,6.5l2.23,8.95-9,8.03c12.26,5.18,26.85,4.63,38.82-1.11Z"/>
          <g>
            <path class="cls-3" d="M44.34,29.06c.27.23,3.18,5.65,3.32,6.15.1.35.21.62,0,.97-.52.83-9.01,3.58-10.43,4.44-.8.22-1.65.2-2.3-.37-.74-.65-2.44-4.62-2.27-5.62.1-.58,3.85-5.8,4.32-6,.89-.37,6.56-.25,7.36.42ZM38.59,32.15c-.62.14-1.73,1.73-1.81,2.28-.07.45.77,2.16,1.16,2.36.25.13,4.5-1.44,4.69-1.81.26-.5-1.08-2.54-1.58-2.75-.54-.22-1.88-.2-2.46-.07Z"/>
            <path class="cls-3" d="M45.63,49.33c-.33-.23-2.44-6.94-2.57-7.64-.22-1.2,1.54-1.67,2.46-2.13,1.23-.61,7.25-3.44,8.12-3.4.34.01.65.1.94.28.24.15,3.29,4.27,3.38,4.54.18.52.16.81-.15,1.28l-11.07,6.91c-.27.13-.89.32-1.11.16ZM51.06,39.33c-.29.05-3.43,2.07-3.5,2.28-.25.75.6,2.51,1.05,3.19.29.07,4.84-3.21,4.9-3.5-.34-.73-1.62-2.11-2.46-1.97Z"/>
            <path class="cls-3" d="M29.97,20.42c.73-.01,1.04.25,1.45.82.5.69,3.05,5.62,3.11,6.25.06.69-3.42,6.14-4.04,6.4-.85.36-4.8-.16-5.41-.81-.33-.35-1.86-5.66-1.97-6.43-.19-1.37,1.05-3.14,1.86-4.26,1.24-1.72,2.88-1.94,5-1.97ZM27.31,24.25c-.98.23-1.88,1.45-1.86,2.45.04,1.56.51,3.46,2.52,3.25.43-.04,2.49-2.08,2.48-2.47,0-.24-.85-2.94-1.01-3.07-.42-.34-1.6-.29-2.13-.16Z"/>
            <path class="cls-3" d="M39.31,42.46c.45-.07,1.33-.23,1.63.18l1.99,7.38c.17.77-.17,1-.8,1.25-1.87.71-8.28,2.08-10.37,2.34-1.1.14-2.06.4-1.96-.98.07-1.02.99-6.72,1.41-7.23.25-.3.57-.38.9-.54,1.31-.6,5.86-2.17,7.2-2.39ZM33.38,49.59c.24.21,4.4-.29,4.8-.59.46-.35.31-2.31-.13-2.77-.28-.3-3.38.34-3.71.62-.18.15-1.07,2.65-.96,2.75Z"/>
            <path class="cls-3" d="M39.57,14.92c.98-.03,1.59-.16,2.43.55.41.35,4.59,5.71,4.71,6.08.47,1.46-2.16,3.96-3.18,4.99-1.37.01-5.56.16-6.54-.55-1.06-.77-2.86-5.47-3.8-6.76-.16-.58.13-.94.44-1.38,1.49-2.13,3.48-2.84,5.95-2.93ZM39.33,17.53c-1.01.09-3.1,1.28-2.8,2.42.04.16,1.89,2.42,2.06,2.52,1.47.86,4.74-.57,4.11-2.66-.16-.54-2.56-2.34-3.37-2.28Z"/>
            <path class="cls-3" d="M49.04,23.07c.34-.27.83-.34,1.25-.33,1.49.02,5.05.25,6.43.55.62.14,1.66,1.23,1.8,1.81.22.87-.47,1.84-.87,2.61-.47.91-3.77,6.58-4.28,6.74-.65.2-2.9-.12-3.43-.56-.27-.23-3.12-5.82-3.26-6.34s-.17-.68.02-1.19c.08-.22,2.18-3.17,2.34-3.29ZM51.54,26.16c-.73.15-1.42.97-1.37,1.73.02.24.93,2.17,1.07,2.3,1.38,1.24,3.72-2.64,3.46-3.44-.14-.44-2.65-.69-3.16-.59Z"/>
            <path class="cls-3" d="M48.57,20.28c-.81-.69-3.22-3.64-3.91-4.6-1.22-1.68-.79-2.09.71-3.35.76-.64,1.23-1.13,2.27-1.08,2.88.14,5.89,3.3,7.93,5.27.48.47,1.88,1.73,2.09,2.22.11.27.4,2.47.37,2.67-.08.46-.59.62-.99.62-1.27,0-5.53-.73-6.89-1.05-.58-.14-1.12-.3-1.58-.7ZM53.53,18.68c.24-1.73-3.56-4.63-4.9-4.54-.68.05-1.57.68-1.22,1.43.08.17,2.45,2.5,2.67,2.61.46.23,3.23.71,3.45.51Z"/>
            <path class="cls-3" d="M21.09,27.12c.29.3,1.77,7.58,1.72,8.19-.05.73-2.33,5.27-2.86,5.79-.18.18-.32.36-.61.36-.36,0-2.69-2.35-2.96-2.8-.37-.6-1.73-4.39-1.7-4.98.03-.75,2.31-6.31,2.85-6.75.58-.47,3.24-.14,3.56.19ZM18.18,30.45c-.47.15-1.41,2.39-1.36,2.95.03.26,1.17,2.65,1.31,2.78.72.65,1.69.1,1.93-.71.37-1.2-.06-5.62-1.89-5.02Z"/>
            <path class="cls-3" d="M24.67,35.51c.64-.19,4.32.21,4.86.56.6.39,2.85,4.41,3.03,5.14.24.98-2.93,2.73-3.88,2.85s-4.45-.09-5.5-.21c-.87-.1-1.41-.27-1.27-1.26s.96-3.39,1.33-4.44c.27-.78.57-2.39,1.43-2.64ZM24.26,41.2c.97.09,4.42.74,4.32-.82-.08-1.25-1.71-2.6-2.95-2.26-.76.2-1.29,2.33-1.37,3.08Z"/>
            <path class="cls-3" d="M27.13,53.65c-.35.33-7.59-1.2-8.08-1.72-.56-.6,0-6.02.51-6.43.4-.32,1.21-.24,1.71-.23,1.08.03,2.76.14,3.83.25.68.07,2.85.25,3.12.71.6,1.02-1.15,5.96-1.09,7.42ZM21.68,47.49c-.33.4-.42,1.76-.08,2.24.3.42,2.46,1.26,2.91.95.18-.13,1.02-2.29.85-2.54-.68-.29-3.24-1.18-3.68-.65Z"/>
            <path class="cls-3" d="M60.18,27.83c.73-.15,1.26.15,1.9.4s2.92,1.29,2.97,1.84c.12,1.31-3.44,7.13-3.88,8.84-.32.55-1.12.55-1.53.14-.49-1.22-3.71-3.28-3.7-4.43,0-.45,3.18-6.12,3.59-6.46.19-.16.4-.28.64-.33ZM61.9,31.17c-.63-.1-1.55-.5-2.14-.15-.11.07-1.04,2.06-1.1,2.28-.2.78,1.89,2.18,2.29,1.91.43-1.31,1.21-2.59.94-4.04Z"/>
            <path class="cls-3" d="M13.71,37.61c.51-.09.66.33.92.64.67.82,3.26,4.7,3.36,5.53.06.51-.77,5.53-.97,6.11-.1.29-.32.47-.55.66-.93.2-3.26-5.16-3.41-6.17-.3-2.09.51-4.65.66-6.77ZM14.9,41.69l-.48.12c-.08,1.41-.1,3.6,1.44,4.19.88-2.24.23-2.56-.96-4.31Z"/>
            <path class="cls-3" d="M63.31,19.45c.64.64,1.51,6.35,2.17,7.55l-.33.54c-.25.06-4.5-1.7-4.74-1.9-.61-.49-1.24-5.82-1.37-6.96.17-.17,3.95.46,4.27.77ZM63.36,24.19c-.29-1.44-.81-3.32-2.64-2.87-.15,1.76.82,2.97,2.64,2.87Z"/>
            <path class="cls-3" d="M33.08,13.21c.85-.14,1.95.84,1.7,1.71-.06.21-2.74,2.94-3.08,3.18-.76.53-3.82,1.16-4.81,1.22-1.21.07-1.12-1.66-.47-2.41.25-.29,6.27-3.63,6.64-3.69ZM31.16,15.61c-1.24.16-4.07,1.98-1.51,1.88,1.86-.07,3.65-2.17,1.51-1.88Z"/>
            <path class="cls-3" d="M44.65,11.73c-.1.15-2.74,1.85-2.99,1.93-.9.31-4.05.63-4.92.34-.51-.17-2.06-1.37-1.14-1.84.47-.24,1.3-.43,1.85-.55,1.47-.32,4.47-.8,5.92-.81.47,0,1.62.45,1.29.94ZM41.77,11.98c-1.35,0-2.83.07-4.08.6.9,1.11,2.54.63,3.6,0,.3-.18.61.05.47-.59Z"/>
            <path class="cls-3" d="M24.74,18.68c-.02.72.11,1.44-.13,2.15-.1.31-2.32,3.37-2.61,3.62-.85.71-2.18.7-3.25.7-.07-.48.13-.81.37-1.18.34-.52,4.36-5.01,4.67-5.16s.61-.15.95-.13ZM22.82,21.32c-.35-.36-2.06,1.8-2.16,2.15,1.26.21,1.94-1.12,2.16-2.15Z"/>
            <path class="cls-3" d="M62.16,17.96c-3.02.34-5.61-2.24-7.79-4.08-.45-.38-1.28-.82-1.33-1.43.59-.05,1.05-.02,1.61.18,1.1.4,5.85,3.67,6.96,4.55.28.23.66.27.55.77Z"/>
            <path class="cls-3" d="M78.41,4.59c1.69-.37,1.78,1.57.42,2.1-2.7,1.06-2.37-1.67-.42-2.1Z"/>
          </g>
        </g>
      </g>
    </g>
  </g>
</svg>