<?xml version="1.0" encoding="UTF-8"?>
<svg id="Calque_1" xmlns="http://www.w3.org/2000/svg" xmlns:xlink="http://www.w3.org/1999/xlink" version="1.1" viewBox="0 0 205.2 55.2">
  <!-- Generator: Adobe Illustrator 29.4.0, SVG Export Plug-In . SVG Version: 2.1.0 Build 152)  -->
  <defs>
    <style>
      .st0 {
        mask: url(#mask);
      }

      .st1 {
        fill: #fff;
      }

      .st1, .st2 {
        fill-rule: evenodd;
      }

      .st3 {
        mask: url(#mask-1);
      }

      .st2 {
        fill: #022169;
      }
    </style>
    <mask id="mask" x="134.8" y="13.6" width="6.2" height="36" maskUnits="userSpaceOnUse">
      <g id="i">
        <polygon id="e" class="st1" points="141 49.6 134.8 49.6 134.8 13.6 141 13.6 141 49.6"/>
      </g>
    </mask>
    <mask id="mask-1" x="193.7" y="13.6" width="6.2" height="36" maskUnits="userSpaceOnUse">
      <g id="h">
        <polygon id="d" class="st1" points="199.9 49.6 193.7 49.6 193.7 13.6 199.9 13.6 199.9 49.6"/>
      </g>
    </mask>
  </defs>
  <path class="st2" d="M142.9,3.8c-1.7,0-3.1,1.4-3.1,3.2s1.4,3.2,3.1,3.2,3.1-1.4,3.1-3.2-1.4-3.2-3.1-3.2"/>
  <path class="st2" d="M135.9,7c0-1.8-1.4-3.2-3.1-3.2s-3.1,1.4-3.1,3.2,1.4,3.2,3.1,3.2,3.1-1.4,3.1-3.2"/>
  <path class="st2" d="M196.8,10.2c1.7,0,3.1-1.4,3.1-3.2s-1.4-3.2-3.1-3.2-3.1,1.4-3.1,3.2,1.4,3.2,3.1,3.2"/>
  <path class="st2" d="M84.1,43.5l-19.6-13.2,19.3-10.2c1.5-.9,2-2.8,1.1-4.3-.5-1-1.6-1.6-2.7-1.6s-1.1.1-1.5.4l-22.8,12.2v-10.2c0-1.7-1.4-3.2-3.1-3.2s-3.1,1.4-3.1,3.2v29.4c0,1.7,1.4,3.2,3.1,3.2s3.1-1.4,3.1-3.2v-8.8c0-1.2,1-2.1,2.1-2.1s.6,0,.8.2h0s20.2,13.5,20.2,13.5c.5.3,1,.4,1.5.4,1.1,0,2.1-.6,2.7-1.6.4-.7.5-1.6.3-2.4-.2-.8-.7-1.5-1.4-1.9"/>
  <path class="st2" d="M39.5,38.4c0,2.7-2.1,4.9-4.7,4.9H15.7c-2.6,0-4.7-2.2-4.7-4.9v-13.6c0-2.7,2.1-4.9,4.7-4.9h19.1c2.6,0,4.7,2.2,4.7,4.9v13.6ZM35.6,13.7H14.9c-5.5,0-10,4.6-10,10.3v15.1c0,5.7,4.5,10.3,10,10.3h20.7c5.5,0,10-4.6,10-10.3v-15.1c0-5.7-4.5-10.3-10-10.3Z"/>
  <path class="st2" d="M176.9,43.2h-18.9c-2.5,0-4.5-2.1-4.5-4.6v-13.4c0-2.5,2-4.6,4.5-4.6h23.4v18c0,2.5-2,4.6-4.5,4.6M184.5,3.8c-1.7,0-3.1,1.4-3.1,3.2v7.4h-24.2c-5.4,0-9.9,4.5-9.9,10.1v14.8c0,5.6,4.4,10.1,9.9,10.1h20.5c5.4,0,9.9-4.6,9.9-10.1V7c0-1.7-1.4-3.2-3.1-3.2"/>
  <path class="st2" d="M122.4,38.6c0,2.5-2,4.6-4.5,4.6h-19.1c-2.5,0-4.2-1.8-4.2-4.3v-1c0-2.5,1.7-4.3,4.2-4.3h23.6v5s0,0,0,0ZM118.7,14.3h-23c-1.1,0-2,.6-2.6,1.5-.3.5-.5,1.1-.5,1.6,0,1.7,1.4,3.1,3,3.1h22.2c2.5,0,4.5,2.1,4.5,4.6v2.2h-24c-1.1,0-2.2.2-3.3.6-4.1,1.5-6.6,5-6.6,9.3v2.4c0,5.5,4.3,9.8,9.9,9.8h20.3c5.4,0,9.9-4.6,9.9-10.1v-14.8c0-5.6-4.4-10.1-9.9-10.1h0Z"/>
  <g class="st0">
    <path class="st2" d="M137.9,13.6c-1.7,0-3.1,1.4-3.1,3.2v29.6c0,1.8,1.4,3.2,3.1,3.2s3.1-1.4,3.1-3.2v-29.6c0-1.8-1.4-3.2-3.1-3.2"/>
  </g>
  <g class="st3">
    <path class="st2" d="M196.8,13.6c-1.7,0-3.1,1.4-3.1,3.2v29.6c0,1.8,1.4,3.2,3.1,3.2s3.1-1.4,3.1-3.2v-29.6c0-1.8-1.4-3.2-3.1-3.2"/>
  </g>
</svg>