<?xml version="1.0" encoding="UTF-8"?>
<svg id="Calque_2" data-name="Calque 2" xmlns="http://www.w3.org/2000/svg" viewBox="0 0 1829.05 1599.59">
  <g id="Calque_1-2" data-name="Calque 1">
    <g>
      <path d="M938,0v1c-16.67-.43-34.32-.37-51,0V0h51Z"/>
      <g>
        <g>
          <path d="M887,1c16.68-.37,34.33-.43,51,0,339.53,8.67,635.75,234.67,738.27,556.23,4.16,13.05,6.93,27.97,11.45,40.55s8.73,8.31,18.74,8.18c29.16-.39,66.59-2.4,94.91.17,18.2,1.65,26.4,10.03,27.67,28.33v333.08c-1.15,13.25-8.41,19.25-18.15,26.85-47,36.69-101.05,67.98-148.21,104.79-14.46,11.28-15.26,22.52-22.82,38.18-148.29,307.04-457.26,490.59-801.35,458.64-283.78-26.35-522.24-199.21-646.36-452.64-8.04-16.41-11.05-32.64-25.82-44.18-50.33-39.29-106.99-73.22-157.81-112.19-4.38-4.23-6.5-9.43-8.51-14.99v-344c3.32-13.37,11.93-20.45,25.62-21.88,33.73-3.51,73.08,3.04,106.92-.08,6.35-.58,6.74-2.68,8.74-8.26,7.42-20.71,12.2-43.92,19.7-65.3C267.95,227.67,561.54,8.25,887,1ZM1637,606c-6.81-32.98-18.53-65.92-31.53-96.97-75.33-179.86-225.24-328.28-405.5-402.5C967.99,11.02,695.15,38.66,489.68,182.18c-144.52,100.95-254.67,252.16-298.68,423.82h75.5c2.2,0,4.77-4.46,5.69-6.31,5.11-10.33,8.64-24.76,13.06-35.94,23.53-59.46,52.89-115.64,90.93-167.07,83.63-113.06,204.85-196.12,338.33-239.66.41,1.23-1.24,3.08-1.98,4.01-8.68,10.87-43.34,45.18-54.51,51.49-11.49,6.48-25.11,11.65-37.04,17.96-88.53,46.8-163.84,110.17-222.8,191.2-40.86,56.16-72.18,118.77-95.18,184.32h25.5c1.17,0,9.5-5.57,11.02-6.98l381-381c15.5-12.09,32.93-24.68,52.26-29.74,7.27-1.9,18.12-6.07,20.79,3.65,3.03,11.04-1.49,33.48,15.05,35.02,11.67,1.09,22.84-18.92,29.86-26.97,12.57-14.39,33.78-41.67,49.06-13.03,10,18.75,10.51,60.09,36.22,63.78,50.95,7.31,43.68-64.35,85.86-67.61,46.4-3.59,127.03,65.75,159.9,96.85,109.09,108.55,217.07,218.42,326.97,326.03h31.5c-48.57-150.93-149.36-277.32-285.7-357.8-21.36-12.61-43.51-22.32-64.97-34.03-15.04-8.2-19.7-14.58-31.3-25.7-6.19-5.94-26.25-22.6-29.54-28.46-.4-.71-.71-1.01-.48-2.01,2.36-.34,4.53.18,6.79.7,10.63,2.41,24.98,8.51,35.45,12.55,184.13,71.06,325.99,218.5,393.5,403.5,1.48,4.07,9.46,31.25,11.75,31.25h73.5ZM1057.5,606h31.5c-2.39-3.05-4.45-4.48-2.05-8.56l57.69-60.37c6.99,6.17,14.16,12.46,20.89,18.9,14.03,13.42,28.43,31.23,42.46,43.54,1.81,1.59,9.63,6.49,11.51,6.49h24.5c-.03-3.94-6.5-4.93-4.53-8.98l56.52-64.02-63.35,55.93-71.46-69.42,53.37-59.46,1.44-4.05-63.35,55.93-68.26-70.9,53.62-63.02-63.68,55.86c-15.96-13.54-30.74-29.1-45.79-43.89-1.54-1.51-3.51-2.44-5.05-3.95-4.74-4.62-16.41-14.84-19.53-19.48-.63-.93-1.3-1.6-.83-2.84l55.89-62.7-4.04,1.45-58.41,53.6-2.84.83-71.27-66.87c-.72-.77-.39-1.24.02-2.02.91-1.76,13.43-13.29,11.55-15-9.45-1.74-13.64,2.65-20.35,7.91l-65.13-57.93-1.5,1.5,57.26,62.81c1.48,3.17-6.21,9.27-8.74,11.73-16.87,16.35-35.09,33.81-52.51,49.49-1.29,1.16-9.72,8.54-10.38,8.42-19.2-16.04-36.76-34.06-55.62-50.45-3-2.6-7.3-7.06-11.01-7.48l58.56,66.98-71.19,67.94-65.88-57.91,56.44,64.34-69.56,71.56-65.34-57.44,57.91,65.87-70.93,68.2-1.35.36-59.1-52.97-3.54-.46,53.4,58.6c5.34,5.33.4,6.93-1.4,11.9,9.02-.86,18.26,1.69,27-.49,23.91-17.98,42.94-44.06,65.46-63.53,1.08-.93,6.12-5.19,6.99-4.98l55.39,59.65c1.05,1.78,2.82,8.92,3.28,9.22.9.57,10.96.11,13.35.14,4.57.07,6.2,1.43,11.73-.29,8.31-2.6,22.13-20.52,28.76-27.24,10.42-10.57,25.7-23.34,34.55-34.45,1.79-2.25,2.71-4.56,3.99-7.03,1.67.01,11.58,10.46,13.52,12.48,15.51,16.15,30.71,32.62,46.52,48.48,2.18,1.6,1.7,7.1,4.09,7.91,1.89.64,29.08.45,30.38-.34,1.96-4.44,4.35-7.84,7.46-11.54,15.38-18.29,36.48-35.39,52.47-53.53,3.1-3.89,7.61,2.42,10.07,5.02,19.3,20.32,38.35,41.16,58.47,60.53ZM1650.95,659.05l-1469.23.17c-3.77.83-3.85,3.24-4.59,6.41-4.49,19.25-7.14,49.58-9.12,69.88-5.89,60.39-4.13,135.24,8.31,194.67,1.79,8.55.78,10.26,10.14,10.87l1461.02-.07c2.92-.52,3.79-3,4.43-5.57,4.46-17.83,7.2-47.94,9.08-66.92,5.12-51.63,4.06-106.42-2.12-157.86-2.07-17.24-5.58-34.38-7.92-51.57ZM127,660H53v280h74c-11.34-69.5-14.94-140.17-8.99-210.49,1.97-23.27,6.02-46.38,8.99-69.51ZM1776,660h-74c12.07,73.08,15.29,147.63,8,221.5-1.93,19.56-5.39,39.04-8,58.5h74v-280ZM1636,994h-69.5c-1.8,0-4.4,4.16-5.23,5.77-7.45,14.34-13.08,37.89-19.8,54.2-83.4,202.48-266.3,352.54-480.28,398.72-327.84,70.75-658.54-105.63-777.94-417.44-3.95-10.31-7.85-27.85-12.48-36.52-.52-.96-3.85-4.73-4.27-4.73h-73.5c44.24,188.23,176.66,355.03,341.7,452.8,235.57,139.56,539.42,136.59,772.22-7.38,158.87-98.25,286.17-262.11,329.08-445.42ZM1529,994h-264.5c-.69,0-3.8,2.65-4.52,3.48-5.46,6.37-11.69,19.16-17.17,26.83-160.5,225.09-489.97,226.23-651.63,2-6-8.33-11.64-19.64-17.75-27.25-.96-1.2-4.78-5.07-5.93-5.07h-263.5c54.37,181.91,202.68,332.15,378.75,399.75,128.99,49.52,276.35,55.2,409.67,19.17,201.98-54.58,374.36-219.02,436.58-418.92ZM1225,994h-616c65.29,108.16,192.29,172.68,318.55,168.05,110.12-4.04,203.81-51.55,273.43-135.57,8.57-10.34,16.62-21.27,24.02-32.48Z"/>
          <g>
            <path d="M1259.8,690.3c90.95-7.67,156.24,76.38,111.37,161.37-32.27,61.11-116.85,76.66-171.08,35.75-83.5-63-43.38-188.41,59.71-197.11ZM1230.35,754.35c-29.14,29.14-19.97,93.24,23.64,104.16,92.01,23.03,101.48-126.6,10.52-119.49-11.89.93-25.72,6.89-34.17,15.33Z"/>
            <path d="M351.8,690.3c82.65-6.8,149.64,65.55,120.22,147.22-28.83,80.02-136.19,95.22-194.06,37.03-64.43-64.79-14.38-176.98,73.85-184.25ZM355.79,739.29c-29.33,3.19-47.03,26.93-48.78,55.22-5.51,88.52,116.95,87.19,113.98,3-1.31-37.21-27.26-62.34-65.19-58.21Z"/>
            <path d="M1083.65,755.35c-37.49-34.38-92.29-12.56-92.71,39.12-.22,27.52,8.4,56.62,38.05,64.04,22.47,5.62,42.53,1.52,57.98-16.04,2.4-2.73,6.16-10.81,9.31-10.35l40.27,25.87c.91,1.08.36,1.88-.06,2.96-2.73,6.98-14.64,20.51-20.48,25.56-33.45,28.99-92.07,30.17-129.68,8.66-63.27-36.18-72.58-130.83-17.34-178.69,42.49-36.81,118.08-36.34,155.53,7.5,2.46,2.88,9.33,10.19,6.48,13.5l-38.94,26.11c-2.11.57-6.84-6.82-8.4-8.26Z"/>
            <path d="M1558.99,716.02l-32.63,34.91c-13.54-11.27-29.3-18.25-47.16-12.23-11.19,3.77-13.41,16.8-4.92,24.52,42.68,18.37,101.43,25.71,96.7,86.27-5.44,69.67-100.6,72.55-146.9,42.93-4.11-2.63-24.86-18.16-21.94-23.25l40.4-30.12,1.43-.03c4.99,12.73,21.49,22.48,34.64,23.87,9.44,1,33.31.09,35.32-12.43,2.36-14.72-6.22-17.62-17.69-22.19-32.91-13.13-73.16-19.21-80.99-61.01-13.72-73.29,76.29-95.28,127.05-63.05,5.74,3.64,10.52,8.85,16.68,11.83Z"/>
            <path d="M563,693l8.46-1.05,157.6.49c2.82,1.42,4.57,2.75,5,6,.92,6.95.79,27.97-.03,35.07-.22,1.87-.87,4.43-2.45,5.55-3.66,2.59-40.82.03-49.09.93-2,.22-5.48,1.01-5.48,3.5v162.5h-56l-1.19-162.31c-2.05-6.86-21.63-2.57-27.32-2.62-2.84-.02-5.28-1.05-7.94-1.12-3.6-.1-21.54,1.37-21.54-3.46v-43.5Z"/>
            <path d="M519,738.01c-8.24.31-17.64-3.41-21.4-11.1-9.47-19.38,11.79-38.21,29.74-26.74,10.76,6.87,11.22,25.4,7.71,36.39-2.04,6.38-14.61,24.3-22.02,20.96-9.14-4.12,5.78-14.17,5.96-19.5Z"/>
            <path d="M932,907h-54.5c-4.64,0-6.49-9.19-7.94-12.06-5.38-10.64-19.84-6-29.01-5.89-16.68.2-33.31-.25-49.96-.96-11.12,1.52-7.24,8.81-12.13,14.87-5.79,7.2-25.27,2.98-34.01,3-3.33,0-21.04,2.34-22.45,1.03l105.98-220.99,104.01,221ZM847,846l-22.99-50-21.01,50h44Z"/>
          </g>
          <g>
            <path d="M527.87,1063.14c13.83,21.67,39.83,41.86,37.01,70.23-1.83,18.48-18.53,36.01-36.12,40.88-37.26,10.32-56.48-25.47-77.58-48.77l73.26-61.54,3.42-.8ZM523.64,1096.07l-39.57,33.57c9.32,17.65,29.88,30.68,47.95,15.88,16.91-13.84,7.65-39.21-8.39-49.45Z"/>
            <path d="M978,1295h-21.5c-1.14,0-8.3-11.67-19.03-11.07s-17.9,12.15-6.49,17.58c15.95,7.6,43.39,1.96,48.76,25.24,11.13,48.28-82.18,53.29-82.75,6.25,5.25,1.41,14.96-1.69,19.26-.83,5.39,1.07,9.56,11.68,20.23,12.84,7.97.86,23.28-4.08,15.51-13.23-3.79-4.46-28.22-6.78-36.27-10.01-14.46-5.8-20.2-18.81-16.3-33.82,8.87-34.13,77.5-31.48,78.56,7.06Z"/>
            <path d="M568.01,1218.98l37.89,30.35c-1.7,2.52-11.18,15.96-13.25,15.59-5.68-6.17-55.55-41.8-55.63-45.39-.11-4.81,53.23-66.26,59.62-75.46l56.31,44.57c.45,1.51-8.28,13.35-9.93,14.87-1.09,1.01-1.55,1.86-3.32,1.38-4.74-3.23-35.35-29.67-38.07-28.84-.82.25-10,11.92-9.57,13.32.68,2.22,28.19,21.4,31.5,25.65.95,1.95-9.6,15.44-11.26,15.87-.84.22-1.56.17-2.28-.36-4.99-3.16-27.2-23.87-30.71-24.4-1.41-.21-3.82,2.79-4.82,3.86-1.13,1.2-7.03,8.19-6.48,8.99Z"/>
            <path d="M1241.76,1139.26c47.75-6.47,84.64,61.95,42.18,90.18-49.45,32.86-109.38-46.09-60.26-82.26,4.53-3.34,12.54-7.16,18.09-7.91ZM1242.74,1161.24c-2.74.48-7.24,2.85-9.23,4.77-21.37,20.56,19.94,65.88,41.48,43.48,16.78-17.44-9.47-52.2-32.25-48.25Z"/>
            <path d="M771.97,1245.04c-2.42,16.97-9.45,33.15-12.5,49.93-2.07,11.35-3.05,22.19,8.85,28.22,34.58,17.53,36.28-47.51,44.78-66.09l22.91,4.91c-5.78,20.11-9,47.37-18.84,65.67-20.35,37.87-83.03,21.1-84.09-19.33-.54-20.32,11.93-47.03,15.4-67.35,2.5-3.38,19.17,4.42,23.49,4.06Z"/>
            <path d="M1087,1315.99l31.37-9.07,6.63,18.07-62.76,20.85c-4.23.47-5.1-5.06-5.29-8.31-.71-12.52,17-43.61,20.76-58.32,2.15-8.41,2.74-18.7-9.14-18.14-11.65.55-7.76,11.04-13.05,15.95-2.1,1.95-16.91,6.97-18.42,5.89-12-30.5,25.13-51.82,50.88-40.39,30.33,13.46,5.83,52.44-.98,73.47Z"/>
            <path d="M1342.98,1168.99c-1.83,1.26-6.13-7.49-7.15-9.32-11.51-20.63-20.96-42.48-33.33-62.65-4.27,4.08-21.62,29.95-25.2,30.88-2.55.66-13.16-9.7-16.24-11.53l43.58-56.29c1.93-.33,10.82,10.55,12.2,12.58,14.62,21.55,24.55,50.03,38.68,72.31,2.14,8.32-1.66,8.46-5.49,13.56-1.31,1.74-6.53,10.11-7.05,10.46Z"/>
            <rect x="811.87" y="1300.37" width="97.86" height="24.73" transform="translate(-532.63 2035.64) rotate(-84.17)"/>
            <path d="M1163.78,1197.28c46.4-4.94,80.97,78.33,23.5,98.49-60.34,21.16-95.92-90.79-23.5-98.49ZM1163.79,1219.21c-8.94.72-18.34,9.07-18.84,18.27-1.12,20.53,21.43,50.76,42.55,34.52,18.86-14.5-2.73-54.48-23.71-52.79Z"/>
            <path d="M654.01,1274l-10.03,21-20.92-10.08-.08-1.36,44.02-85.12,3.7.31c15.15,10.37,52.4,23.42,55.2,43.84,3.16,23.05-14.07,45.53-38.29,43.29-11.84-1.09-22.4-8.63-33.61-11.87ZM665,1254.99c10.62,4.45,26.58,15.53,34.85,1.36,8.88-15.21-10.38-23.96-21.84-28.35l-13.01,26.99Z"/>
          </g>
        </g>
        <g>
          <path d="M913.64,298.07l-67.62,71.43,68.34,63.39,66.7-63.38-67.42-71.44ZM836.7,379.11l-66.75,69.44.98,3.02,62.71,58.36,67.35-64.43c-18.82-19.84-37.12-40.21-55.96-60.03-1.74-1.83-6-6.98-8.33-6.37ZM989.64,379.07l-62.67,66.43,66.54,64.54,64.43-61.4-68.29-69.56ZM914.01,458.39l-65.55,65.66,65.65,65.54,65.55-65.66-65.65-65.54ZM1065.61,459.04l-57.53,62.32,64.43,66.62,63.53-60.48-70.43-68.46ZM760.7,460.11l-69.68,67.39,63.62,60.43,65.29-66.57c-18.13-20.75-37.57-40.33-56.38-60.42-.81-.83-1.69-1.14-2.84-.83Z"/>
          <path d="M1087.35,201.68c.55.62,3.1.92,2.16,2.29-16.23-9.89-31.9-21.53-49.99-28-19.9-7.11-42.51-9.33-59.53,5.51-14.32,12.48-26.1,46.12-40.94,53.06-24.11,11.28-27.66-26.89-33.3-41.8-16.52-43.67-45.13-40.15-71.72-7.22-3.59,4.45-20.71,31.93-22.63,32.39-1.39.33-3.45-1.37-4.2-2.61-5.42-8.99-1.19-29.12-12.5-35.5-12.5-7.06-26.43,5.57-37.4,8.01-1.49.33-2.68.82-2.29-1.29l74.07-66.93c16.49-11.3,33.58-19.01,52.93-9.1,16.59,8.49,37.6,31.19,57.47,29.5,9.74-.83,17.39-8.23,25.82-12.17,31.25-14.59,50.08.77,72.21,21.16,17.4,16.03,34.08,35.06,49.83,52.71ZM942.99,214c-7.83,6.51-12.52,1.05-19.98-2-.76,15.55,20.52,18.94,19.98,2Z"/>
          <polygon points="913.64 298.07 981.06 369.51 914.36 432.89 846.02 369.5 913.64 298.07"/>
          <path d="M836.7,379.11c2.33-.61,6.58,4.54,8.33,6.37,18.84,19.82,37.14,40.19,55.96,60.03l-67.35,64.43-62.71-58.36-.98-3.02,66.75-69.44Z"/>
          <polygon points="989.64 379.07 1057.93 448.64 993.5 510.04 926.96 445.5 989.64 379.07"/>
          <polygon points="1065.61 459.04 1136.03 527.5 1072.5 587.98 1008.07 521.36 1065.61 459.04"/>
          <path d="M760.7,460.11c1.15-.3,2.03,0,2.84.83,18.82,20.1,38.26,39.68,56.38,60.42l-65.29,66.57-63.62-60.43,69.68-67.39Z"/>
          <rect x="867.67" y="477.61" width="92.78" height="92.77" transform="translate(-102.57 800.67) rotate(-45.05)"/>
        </g>
      </g>
    </g>
  </g>
</svg>