<?xml version="1.0" encoding="UTF-8"?>
<svg id="Calque_1" data-name="Calque 1" xmlns="http://www.w3.org/2000/svg" viewBox="0 0 97.49 44.63">
  <defs>
    <style>
      .cls-1 {
        fill: #0011ac;
      }

      .cls-2 {
        fill: #96d2dc;
      }
    </style>
  </defs>
  <path class="cls-2" d="M18.24,2.72l-2.33,1.34c.53.92,1.3,1.69,2.22,2.23.61.35,1.26.61,1.94.77h.05v2.99s0,.06,0,.06h-.06c-1.33-.19-2.61-.67-3.73-1.41-1.27-.77-2.32-1.85-3.06-3.14l-2.34,1.35c.88,1.59,1.3,3.4,1.21,5.22-.06.98-.28,1.94-.64,2.85l-.03.06-.06-.03-2.57-1.47-.04-.02.02-.05c.29-.93.37-1.92.22-2.89-.15-.75-.41-1.48-.77-2.16l-2.36,1.34c.43.8.57,1.73.38,2.62-.3,1.24-1.2,2.24-2.4,2.67-.38.14-.78.22-1.18.23v2.67c.97-.02,1.93-.25,2.81-.67.7-.35,1.34-.82,1.89-1.39l.03-.03.04.02,2.58,1.46.06.03-.04.05c-.77.93-1.7,1.71-2.74,2.31-1.2.68-2.54,1.1-3.92,1.2l-.71.02v2.67c.71.02,1.41.12,2.09.28,1.84.41,3.51,1.36,4.79,2.74l.47.56.05.05-.06.03-2.61,1.47-.05.03-.03-.04c-.59-.67-1.33-1.2-2.14-1.55-.8-.31-1.65-.49-2.51-.52h0v2.68c1.42.03,2.69.85,3.32,2.12.5,1.09.45,2.35-.12,3.4l2.35,1.33c.55-.96.84-2.04.84-3.14-.03-.64-.13-1.28-.3-1.9l-.02-.05.04-.03,2.58-1.49.06-.03.03.06c.36.91.58,1.86.65,2.84.08,1.39-.15,2.79-.66,4.08-.02.04-.41.91-.57,1.18l2.35,1.35c.69-1.23,1.67-2.27,2.85-3.03,1.18-.8,2.52-1.33,3.93-1.53h.07s0,3.04,0,3.04h-.05c-.86.19-1.67.55-2.38,1.07-.71.53-1.31,1.19-1.77,1.95l2.34,1.34c.68-1.09,1.86-1.77,3.15-1.81h.03c1.32.02,2.53.7,3.25,1.81l2.35-1.34c-.5-.82-1.16-1.52-1.95-2.06-.68-.44-1.42-.76-2.21-.95h-.04v-3.05h.06c1.39.21,2.72.72,3.9,1.5,1.17.8,2.15,1.84,2.89,3.06l2.36-1.34c-.88-1.48-1.31-3.18-1.26-4.9.02-1.1.24-2.18.65-3.19l.02-.06.06.03,2.6,1.48.04.02-.02.05c-.32.92-.39,1.9-.23,2.85.1.78.36,1.54.77,2.21l2.34-1.34c-.52-.92-.62-2.01-.28-3.01.52-1.48,1.91-2.48,3.48-2.5v-2.7h0c-1.78.02-3.47.77-4.69,2.07l-.03.04-.04-.02-2.58-1.48-.06-.03.04-.05c.75-.9,1.65-1.67,2.66-2.27.84-.46,1.74-.81,2.67-1.03.59-.14,1.2-.22,1.81-.24.08,0,.16,0,.24,0v-2.7c-1.47-.04-2.91-.38-4.25-.99-1.21-.61-2.28-1.48-3.11-2.55l-.04-.05.06-.03,2.57-1.47.04-.02.03.03c.68.71,1.5,1.26,2.41,1.63.73.3,1.51.45,2.29.45v-2.69s-.07,0-.07,0c-2.05-.05-3.66-1.76-3.61-3.8.02-.6.17-1.18.46-1.7l-2.35-1.34c-.46.79-.73,1.67-.8,2.58-.09.83,0,1.68.26,2.47l.02.05-.04.02-2.57,1.47-.06.03-.03-.06c-.59-1.43-.8-2.98-.6-4.51.14-1.26.55-2.47,1.19-3.56l-2.36-1.35c-.72,1.19-1.69,2.22-2.84,3.01-1.18.8-2.52,1.33-3.94,1.53h-.07s0-.06,0-.06v-2.93s0-.05,0-.05h.05c.91-.22,1.76-.62,2.51-1.17.66-.51,1.21-1.13,1.63-1.85l-2.34-1.34c-.37.63-.92,1.13-1.59,1.43-.51.25-1.07.37-1.63.37-.5,0-1-.1-1.46-.3-.75-.27-1.38-.8-1.76-1.5M28.44,16.78l-.03-.02-5.55-3.17-.03-.02v-.74h.05c.88-.1,1.76-.3,2.6-.59.88-.3,1.73-.7,2.51-1.21l.11-.13v.18c-.07.92,0,1.85.18,2.76h0c.17.87.44,1.72.78,2.53l.02.05-.04.02-.57.33-.03.02ZM14.5,16.78l-.03-.02-.58-.33-.05-.02.02-.05c.33-.76.58-1.55.75-2.35h0s0-.01,0-.01c.22-.95.3-1.94.24-2.91v-.11s.09.06.09.06c.88.55,1.82.99,2.81,1.3.75.24,1.52.41,2.3.5h.05v.75l-.03.02-5.55,3.17-.03.02ZM21.39,20.77l-.03-.02-4.12-2.37-.09-.05.09-.05,4.14-2.37.03-.02.03.02,4.12,2.37.09.05-.09.05-4.14,2.37-.03.02ZM30.46,25.91l-.05-.03-.61-.34-.03-.02v-.03l.02-6.37v-.03l.03-.02.59-.32.05-.02.03.04c.52.75,1.15,1.42,1.86,1.98h0s0,0,0,0c.68.6,1.43,1.11,2.24,1.51l.12.06-.13.05c-.48.25-.94.53-1.39.84-1.04.73-1.96,1.63-2.72,2.65l-.03.04ZM12.49,25.9l-.03-.04c-1.13-1.43-2.53-2.63-4.12-3.52l-.1-.05.1-.05c1.62-.82,3.03-2,4.12-3.46l.03-.04.05.03.57.32.03.02v.03l.02,6.37v.03l-.03.02-.59.32-.04.02ZM22.83,27.94v-4.85l.03-.02,4.14-2.39.09-.05v4.89l-.03.02-4.14,2.35-.09.05ZM20.05,27.83l-4.15-2.34v-4.73l4.15,2.36v4.72ZM28.1,33.66l-.1-.07c-.66-.39-1.34-.73-2.04-1.02-1-.36-2.03-.62-3.08-.77h-.05v-.75l.03-.02,5.54-3.16.03-.02h.03s.59.33.59.33l.05.03-.03.05c-.23.54-.42,1.1-.58,1.66-.32,1.17-.46,2.39-.4,3.6v.12ZM14.88,33.62l-.02-.08c-.01-.23-.01-.46,0-.69-.06-1.58-.39-3.13-.98-4.6l-.02-.05.05-.02.57-.3.03-.02.03.02,5.55,3.17.03.02v.73h-.06c-.16,0-.97.15-1.37.23-1.32.33-2.58.85-3.74,1.55l-.07.05Z"/>
  <path class="cls-1" d="M39.28,17.37h2.53v10.15h-2.53v-10.15ZM39.28,14.25h2.53v2.21h-2.53v-2.21ZM32.99,25.58c.56.05,1.09-.21,1.41-.67.54-.76.58-1.74.47-3.77s-1.51-1.78-1.88-1.78h-4.98v6.22h4.98ZM28.01,30.91h-2.55v-13.54h8.56c1.35.09,2.52.97,2.97,2.25.56,1.83.54,3.79-.04,5.61-.52,1.4-1.87,2.32-3.36,2.29h-5.58v3.39ZM87.24,19.3c-.56-.05-1.09.21-1.41.67-.54.76-.57,1.74-.46,3.77s1.52,1.78,1.88,1.78h4.98v-6.22h-4.98ZM92.23,13.97h2.55v13.54h-8.56c-1.35-.09-2.52-.97-2.97-2.25-.56-1.83-.54-3.79.04-5.61.52-1.4,1.87-2.32,3.36-2.29h5.58v-3.39ZM67.61,24.31c0-1.6-1.42-1.58-3.81-1.58-2.26,0-3.17.1-3.17,1.47,0,1.61.98,1.69,3.17,1.69,1.9,0,3.81-.03,3.81-1.58M67.42,27.52v-.56c-.99.5-2.09.74-3.2.68-1.56.14-3.12-.09-4.58-.66-.85-.53-1.36-1.47-1.34-2.47-.14-1.12.38-2.21,1.33-2.82.35-.23,1.2-.68,4.58-.68,2.44,0,3.2.59,3.2.59v-.98c0-.83-.36-1.28-1.57-1.47-.55-.06-1.11-.07-1.66-.05h-.01c-.97,0-1.57.05-1.57.05-1.23.09-1.35.75-1.35.83,0,.27-.02.73-.02.73h-2.51c0-2.51,1.01-2.87,1.9-3.2,1.18-.24,2.38-.35,3.59-.33,1.48-.08,2.96.14,4.34.65.96.56,1.5,1.62,1.4,2.72v6.97h-2.54ZM43.93,22.46c-.06-1.11.1-2.21.46-3.26.5-.92,1.24-1.93,5.97-1.93,3.26,0,4.14.47,4.48.62,1.01.43,1.67,1.41,1.7,2.51v1.18h-2.69c-.08-2.29-.62-2.47-3.59-2.47-3.37,0-3.62.61-3.62,3.34h0c0,2.76.25,3.33,3.62,3.33,2.97,0,3.5-.17,3.59-2.45h2.69s0,1.18,0,1.18c-.02,1.1-.69,2.08-1.7,2.51-.33.16-1.22.63-4.48.63-4.72,0-5.47-1.01-5.97-1.93-.36-1.05-.52-2.16-.46-3.26M72.16,17.37h2.52v.56c.97-.57,2.1-.83,3.22-.74,2.55,0,3.16.81,3.5,1.23.35.44.59,1.21.51,2.89h-2.63s0-.73-.02-1.02c-.02-.24.1-1.15-1.5-1.15-1.16,0-3.07-.12-3.07,2.07v6.32h-2.52v-10.16Z"/>
</svg>