<?xml version="1.0" encoding="UTF-8"?>
<svg id="Calque_2" data-name="Calque 2" xmlns="http://www.w3.org/2000/svg" viewBox="0 0 1956.85 1869.54">
  <defs>
    <style>
      .cls-1 {
        fill: #7a716a;
        stroke: #7a716a;
      }

      .cls-1, .cls-2, .cls-3, .cls-4, .cls-5, .cls-6, .cls-7, .cls-8, .cls-9, .cls-10, .cls-11, .cls-12, .cls-13 {
        stroke-miterlimit: 8.3;
        stroke-width: .2px;
      }

      .cls-2 {
        fill: #080508;
        stroke: #080508;
      }

      .cls-3 {
        fill: #fffdee;
        stroke: #fffdee;
      }

      .cls-4 {
        fill: #797064;
        stroke: #797064;
      }

      .cls-5 {
        fill: #776f66;
        stroke: #776f66;
      }

      .cls-6 {
        fill: #070606;
        stroke: #070606;
      }

      .cls-7 {
        fill: #787065;
        stroke: #787065;
      }

      .cls-8 {
        fill: #797063;
        stroke: #797063;
      }

      .cls-9 {
        fill: #070607;
        stroke: #070607;
      }

      .cls-10 {
        fill: #796f63;
        stroke: #796f63;
      }

      .cls-11 {
        fill: #080607;
        stroke: #080607;
      }

      .cls-12 {
        fill: #787064;
        stroke: #787064;
      }

      .cls-13 {
        fill: #7a7064;
        stroke: #7a7064;
      }
    </style>
  </defs>
  <g id="katman_1" data-name="katman 1">
    <path class="cls-10" d="M.1.1h1956.66v1869.17c-652.16.37-1304.5,0-1956.66.18V.1Z"/>
    <path class="cls-11" d="M88.14,93.45c556.43-.18,1112.86,0,1669.29,0,34.41.18,69-.55,103.6.37-.55,248.75-.18,497.67-.18,746.42,0,311.16-.18,622.32,0,933.67-.18.92-.37,2.93-.55,4.03H106.26c-6.04,0-12.08.18-17.94-.18V292.96c-.18-66.44.19-132.88-.18-199.51Z"/>
    <path class="cls-10" d="M1466.4,143.23c67.72,1.46,135.45-2.38,202.99-4.03,32.95-.37,65.89.73,98.66,4.58,2.38.55,4.76.55,6.77,1.65,2.56,2.01.73,5.13-.18,7.32-3.29,6.77-8.97,11.9-13.91,17.39-22.51,23.79-46.49,46.13-69.92,69.19-23.25,22.51-47.22,44.11-69.92,66.99-22.51-.18-44.84,0-67.17-.18,16.29-17.94,34.96-34.04,52.35-50.88,24.34-22.15,48.69-44.48,75.23-63.88,2.38-2.56-2.93-3.84-4.58-4.94-17.2-5.49-35.33-5.31-53.08-6.41-21.96-.55-43.93-1.1-65.89-1.1-45.21-2.01-90.24-5.13-135.63-4.94-13.36-1.46-26.72.55-40.08,0-84.01,1.83-170.77,14.64-243.99,58.21-5.86,2.56-11.17,9.33-18.3,6.77-9.88-4.39-19.95-8.97-28.19-16.11-1.65-1.65-3.85-4.03-2.38-6.59,28.74-23.43,62.23-41,97.74-52.35,64.61-20.68,133.25-22.7,200.61-22.33,26.36.37,52.53.92,78.89,1.65h0ZM184.96,144.7c109.82-5.86,219.64-2.56,329.47,1.65,70.84,3.11,141.49,6.59,212.14,10.07,4.03-.73,7.32,5.86,2.75,7.32-9.33,2.38-17.75,7.5-25.26,13.36-6.22,5.31-11.9,11.53-19.04,15.74-2.38,1.46-5.12.55-7.69.37-53.81-9.33-108.54-11.53-163.09-11.35-64.79,0-129.22,5.13-193.84,6.22-11.53.37-23.24.55-34.78,1.1.92,2.56,2.38,4.58,4.03,6.41,30.39,33.13,61.5,65.53,92.8,97.74,3.66,4.39,8.79,7.69,11.53,13-19.58,0-38.99-.18-58.39,0-38.99-36.24-78.34-72.3-117.14-108.91-12.45-12.08-25.26-23.61-36.98-36.24-3.29-4.03-6.96-7.87-8.42-12.81,2.38-4.03,8.06-3.11,11.9-3.66ZM842.8,142.32c30.93-2.2,62.42-.37,92.25,8.42,2.93,1.1,7.14,1.46,8.42,4.94-.37,6.04-6.77,8.6-10.8,11.9-7.69,4.39-13.36,11.53-21.6,15.01-10.98,3.11-22.69,2.38-34.04,2.93-29.47,1.28-59.85-1.1-88.04,8.97-13.73,4.94-26.17,13.36-35.69,24.34-2.01,2.75-5.49,1.1-8.24.92-12.81-2.38-26.17-2.01-38.62-5.86-3.84-1.28-8.24-2.01-10.8-5.31-.55-2.56,2.2-3.84,3.66-5.31,20.32-17.39,40.82-36.24,66.63-44.84,24.89-8.24,50.7-14.09,76.88-16.11h0ZM1059.69,142.32c23.06-2.56,46.49-1.83,69.55,1.1,4.94.73,10.07,1.1,14.64,3.48-.18,3.29-2.38,5.49-5.31,6.77-12.81,6.77-25.26,14.28-38.44,20.68-7.14,3.29-13.73,8.24-21.96,8.97-9.15.55-18.49-.55-27.64,1.1-31.67,5.31-61.32,19.4-87.67,37.34-13.91,9.88-26.9,21.05-36.97,34.78-2.2-.55-4.58-.92-6.04-2.75-6.59-7.69-12.45-16.29-16.66-25.63-.92-2.38-2.01-5.67-.18-7.87,23.43-15.01,46.12-30.75,68.82-46.86,25.26-19.04,56.74-28,87.86-31.12h0ZM148.91,172.7c8.97-1.46,15.92,6.59,22.51,11.53,53.81,46.67,104.33,97.19,156.31,145.88-.18,21.23.18,42.46-.18,63.7-1.83-.37-3.29-1.28-4.58-2.56-37.34-34.23-74.31-68.64-108.72-105.61-6.96-7.87-14.28-15.56-20.5-23.98-5.68,2.38-6.22,9.7-7.87,14.83-6.04,35.14-3.84,70.84-5.13,106.16-4.21,80.9-10.43,162.54,1.46,243.26,8.24,57.29,27.27,113.85,61.13,161.44,4.76,6.96-2.2,13.91-5.13,19.95-4.21,6.77-8.6,15.74-16.84,17.75-19.22-19.77-34.23-43.56-45.94-68.46-25.44-54.73-32.4-115.86-33.5-175.53-1.65-55.83,2.75-111.47,1.1-167.3-.73-48.14-4.76-96.28-5.13-144.6.55-32.4,2.38-64.98,10.98-96.46h0ZM1794.04,175.45c2.01-1.46,4.39-2.01,6.96-1.65.73,2.38,1.46,4.76,1.65,7.32,5.12,75.04,4.76,150.27,3.84,225.5-2.01,95.73-6.59,191.46-11.53,287.18-.18,2.93-1.46,6.04-4.76,6.04-3.48.18-3.29-3.84-4.39-6.04-4.58-13-15.01-22.33-24.16-31.85-2.93-3.48-7.14-6.96-5.86-11.9,13.54-69.92,13.54-141.49,10.98-212.32-1.1-36.06-3.84-71.93-4.76-107.99,0-17.21-.92-34.23-1.28-51.43-50.88,41.37-100.67,84.2-149.72,127.76-15.01,12.81-28.92,27.09-44.66,38.99,0-17.94.18-36.06,0-54,13.91-12.26,27.27-25.44,40.27-38.8,12.26.18,24.71.37,37.16,0v-36.24c4.58-3.11,8.24-7.14,12.08-10.98,37.16-35.51,73.4-71.75,110.92-106.71,8.78-7.87,17.02-16.66,27.27-22.88Z"/>
    <path class="cls-10" d="M1226.44,211.5c7.32-.73,14.64-2.93,21.96-3.48,2.75-.55,4.39,2.01,6.04,3.66,34.41,36.61,43.2,92.62,28.55,139.66-4.76,1.28-8.97-1.28-13.18-2.93-6.04-2.56-13-4.58-17.57-9.7-3.48-5.67,0-12.26.73-18.3,5.86-37.34-6.22-77.79-33.5-104.33,1.83-2.2,4.03-4.39,6.96-4.58h0ZM803.44,229.08c12.81-8.79,28.55-13.36,44.11-12.45,4.21-.37,8.24,1.65,11.35,4.58,21.6,21.23,39.9,45.94,53.27,73.03,26.36,52.9,35.51,112.38,38.8,170.77.55,4.03-.55,8.24,1.65,11.71.92,6.41-.18,13-.18,19.4-.18,24.89.18,49.6-.37,74.31-1.1,58.21-3.66,116.59.55,174.8.55,2.75-.92,5.86-4.21,5.86-6.41-1.46-10.98-6.41-15.92-10.43-89.5-78.34-181.94-153.38-269.25-234.29-2.38-2.56-.37-6.22,2.01-7.87,6.59-5.31,14.46-8.6,21.23-13.54,2.02-.92,4.03-3.66,6.41-2.56,47.59,47.22,95.73,94.45,149.73,134.17,26.36,21.05,49.6,45.58,74.31,68.27,3.48,2.75,6.04,6.77,10.25,8.42,0-3.11-.36-6.04-1.1-8.97-10.98-51.43-9.7-104.51-12.45-156.86-1.65-43.38-3.85-87.13-11.9-130.14-6.59-34.96-17.94-69.37-36.79-99.75-15.74-25.08-36.97-46.67-61.5-63.33-2.2-.92-2.2-4.21,0-5.13h0Z"/>
    <path class="cls-10" d="M375.69,223.95c70.1,2.56,140.21-4.03,210.31-3.66,45.57.73,91.88,4.21,135.45,19.22,21.42,7.5,42.1,17.57,60.22,31.48-.55,12.26-10.62,21.23-19.77,28-5.12,3.11-9.15,8.05-14.64,10.62-33.13-27.09-75.59-39.35-117.51-44.11-50.52-5.86-101.59-1.46-152.1,2.56-3.11.18-6.22.73-9.33,1.1,7.69,10.62,17.02,19.77,26.9,28.19,42.65,37.89,86.76,74.31,126.48,115.13.92,5.31-3.66,10.25-7.69,13-7.5,3.84-15.74,7.87-24.34,8.05-14.09-13.54-26.17-29.29-40.82-42.28-.55,5.13.18,10.25-1.1,15.38-.18-6.77,0-13.36.18-20.13-1.65-22.33-12.08-44.66-29.65-58.94-15.56-13.36-36.06-19.95-56.19-21.23-25.63-23.61-52.53-45.76-77.42-70.29-3.29-3.66-9.15-6.41-8.97-12.08h0ZM999.48,234.75c5.68-4.94,13-6.77,20.13-8.79,4.76-1.83,9.7.37,14.28,1.46,23.06,6.59,42.46,21.42,61.13,35.88,6.96,5.49,14.83,9.7,21.6,15.56-7.14,10.43-15.01,20.68-23.79,29.83-21.78-12.08-42.1-26.72-62.05-41.55-11.35-8.97-22.88-17.94-32.22-29.1.18-.73.73-2.56.92-3.29h0Z"/>
    <path class="cls-10" d="M1297.82,231.27c64.79-.92,129.41-.73,194.02-1.83,26.36.55,52.72-1.46,78.89-.37,3.11,6.04-6.04,8.97-9.7,12.26-23.61,16.84-45.58,36.06-66.26,56.38-2.75,2.75-5.86,4.94-7.51,8.6-15.74-.18-31.3,0-46.86-.18-.37,15.38-.18,30.75-.18,46.13h3.84c-21.78,23.61-44.48,46.31-67.91,68.46-96.28,94.63-189.81,192.19-290.66,282.06-21.96,19.58-44.29,38.8-66.81,57.84-3.11,2.75-9.33,5.86-11.53.55-5.67-26.36-2.93-53.63-1.28-80.17-.36-36.24-4.02-72.3-7.32-108.36l1.47-1.65,1.65-1.65c0-54.73.37-109.27-.18-164,.73-2.38,1.65-4.76,2.2-7.14,4.58-32.03,12.08-64.06,25.63-93.71,1.65-4.58,7.14-5.31,10.8-2.75,8.79,5.13,17.94,10.07,24.89,17.39,3.66,3.84-.55,8.24-1.83,12.26-25.63,60.4-26.91,127.58-25.26,192.19.92,46.49,3.48,92.8.55,139.29-.18,10.98-2.38,21.96-2.2,33.13,2.38-1.1,4.39-3.11,6.22-5.12,101.59-99.76,207.93-194.57,308.23-295.61,42.65-43.93,84.75-88.59,122.09-137.09-39.17-4.39-77.61,6.59-116.41,9.7-15.92,1.46-31.85,2.38-47.77,1.1-4.39-.92-5.86-5.49-6.77-9.33-2.38-8.97-7.69-16.84-10.8-25.44.18-3.66,4.39-2.56,6.77-2.93h0Z"/>
    <path class="cls-10" d="M1200.08,253.79c4.21-.55,9.33-1.65,13.36.92,8.42,8.6,10.8,21.42,11.71,32.95-.18.73-.73,2.2-1.1,2.75-32.95,11.71-61.32,35.33-80.35,64.79-27.82,43.01-31.12,97.38-21.42,146.61,5.49-4.58,11.9-7.5,17.39-11.9,21.42-16.29,39.72-37.16,52.9-60.77,3.85-4.58,9.15-8.79,15.38-9.52,7.87,3.66,16.11,6.59,23.98,10.43,4.03,2.01,3.11,7.32.55,10.07-38.99,57.66-90.97,105.61-147.89,144.96-1.83,1.65-6.04,2.2-6.04-1.1-1.1-5.49-.55-10.98-.92-16.47-.55-37.89-4.39-75.59-2.56-113.48,1.28-36.06,6.22-72.85,21.41-105.98,7.51-16.11,17.39-31.12,29.84-43.75,12.81-14.28,27.46-27.09,44.66-35.51,9.88-4.76,19.58-9.7,29.1-15.01h0ZM821.38,281.61c2.2-2.75,6.41-1.1,9.34-1.28,5.12,9.7,14.28,16.66,19.95,25.99,0,.37-.18,1.46-.37,1.83-17.2,14.64-32.21,31.48-48.32,47.41-13.91,14.46-30.2,27.27-49.6,33.31-3.11.55-5.31-2.38-7.5-4.21-7.5-6.96-15.19-16.66-12.63-27.64,2.93-10.43,12.08-17.39,20.32-23.61,23.25-16.84,51.98-27.64,68.82-51.8h0Z"/>
    <path class="cls-10" d="M656.83,297.9c13.91-5.31,30.2-2.2,42.65,5.67,2.75,1.46,1.83,5.31,2.2,7.87.92,24.34,6.96,48.69,18.67,70.1,17.21,32.03,43.38,57.84,68.64,83.46,15.01,14.83,30.02,29.83,44.48,45.58.55-.18,1.83-.37,2.38-.37,4.58-23.98,3.84-48.87-1.1-72.67-4.94-24.89-11.53-49.6-14.46-74.86,7.87-4.03,13-12.45,21.78-15.01.73.18,2.2.55,2.93.55,8.05,15.19,10.43,32.58,14.09,49.05,8.97,46.49,13.36,93.71,15.37,140.94.55,17.57,1.83,35.51,0,53.08-4.03-.55-6.22-4.39-8.79-7.14-38.44-43.74-86.58-76.88-129.04-116.23-33.13-30.38-62.23-66.26-78.34-108.54-6.77-15.01-6.96-31.85-4.94-47.96.55-4.58.92-9.52,3.48-13.54h0Z"/>
    <path class="cls-3" d="M327.92,306.32h7.69c19.4-.18,38.8,0,58.39,0,22.7.18,45.39,0,68.09,0,20.13,1.28,40.63,7.87,56.19,21.23,17.57,14.28,28,36.61,29.65,58.94-.18,6.77-.37,13.36-.18,20.13-1.46,12.81-6.41,25.44-13.91,36.06-6.77,9.7-15.74,17.75-25.81,23.79-6.41,3.66-13.36,6.96-20.68,8.97.73,1.83,1.46,3.48,2.75,4.94,10.43,14.46,20.32,29.29,30.93,43.75,9.15,13.36,18.49,26.73,27.82,40.08,1.28,1.83,2.38,3.66,3.66,5.49-3.48,0-6.96,0-10.43.18-17.02-.18-34.05,0-51.25-.18-2.2-3.29-4.39-6.77-6.59-10.07-13.73-21.23-27.82-42.1-41.55-63.15-1.65-3.29-5.68-4.76-6.22-8.6-19.77-2.01-39.54-.37-59.3-.92,0,4.21,0,8.42.18,12.63-.18,16.29-.18,32.58-.18,48.87v21.23h-49.42v-82.73h-31.12v-3.84c0-14.28-.18-28.55,0-42.83,10.25.18,20.32.73,30.57.55l.37-.92c.18-15.38.37-30.75,0-46.13.37-21.23,0-42.46.18-63.7.18-7.87-.18-15.93.18-23.8h0ZM1440.41,306.13c15.56.18,31.12,0,46.86.18,22.15,0,44.29.18,66.44-.18,22.33.18,44.66,0,67.17.18,7.51.18,15.01.18,22.7,0,.18,3.11.18,6.41.18,9.7v36.24c-12.45.37-24.89.18-37.16,0-13,.18-25.81-.55-38.62.37-3.48,12.45-.92,25.63-1.65,38.44.18,17.94,0,36.06,0,54-.18,21.6-.18,43.01,0,64.61.18,15.01,0,30.2,0,45.39v1.28c-.37,4.39-.37,8.6-.55,13-16.11.37-32.21.55-48.32.37,0-5.49,0-11.17-.18-16.84.37-20.5.18-41,.18-61.68-.18-17.39.18-34.59-.18-51.98.18-12.26.18-24.53.18-36.79-.18-16.66.37-33.31-.18-50.15-4.03.18-7.87.18-11.71,0h-65.34c0-15.38-.18-30.75.18-46.13h0ZM952.44,324.07c.18-5.67-.37-11.35.36-17.02,16.29.55,32.58,0,48.87.18-.18,32.76.18,65.53-.18,98.11.55,54.73.18,109.27.18,164l-1.65,1.65c-15.92-1.1-31.85,0-47.96-.55.55-24.71.18-49.42.37-74.31,0-6.41,1.1-13,.18-19.4-.37-50.88,0-101.77-.18-152.65h0Z"/>
    <path class="cls-10" d="M1192.58,333.96c4.21-.73,7.87,2.01,11.71,3.29,30.38,13.54,54.73,36.61,82,55.09,4.03,3.29,9.15,5.86,11.9,10.43.92,8.97-4.39,17.02-10.98,22.51-5.31,4.21-9.7,10.8-16.84,12.08-5.31.73-12.08.55-15.37-4.39-20.5-27.82-51.25-45.39-80.72-62.23-5.49-2.2-4.94-8.97-2.01-13.18,5.31-8.79,11.72-17.57,20.32-23.61h0Z"/>
    <path class="cls-11" d="M377.34,352.08c2.93.18,5.86.18,8.79.18,30.02,27.64,60.22,54.91,89.32,83.28-11.17,4.58-23.43,5.67-35.51,4.76-11.17-12.45-23.79-23.61-35.51-35.51-9.33-8.42-17.57-17.75-27.09-25.81-.18-8.97-.37-17.94,0-26.91h0Z"/>
    <path class="cls-10" d="M386.12,352.26c15.92.18,31.85.18,47.77.18,6.22.18,12.45-1.46,18.49.18-3.29,0-6.59.18-9.88.37,6.41,8.05,14.28,14.46,21.23,21.78,11.71,10.98,22.51,22.7,34.41,33.13-2.93,12.08-11.53,22.33-22.7,27.64-29.1-28.37-59.31-55.64-89.33-83.28h0ZM1505.57,352.26c3.85.18,7.69.18,11.71,0,.55,16.84,0,33.5.18,50.15-29.47,27.27-58.94,54.73-88.59,81.82-1.83,2.2-4.39-.37-5.86-1.65-4.58-4.58-9.33-8.79-14.09-13.18-4.03-3.66-4.39-10.62-.37-14.46,23.61-25.63,47.77-50.88,72.12-76.14,8.05-9.15,17.75-16.47,24.89-26.54Z"/>
    <path class="cls-2" d="M1567.99,352.63c12.81-.92,25.63-.18,38.62-.37-13,13.36-26.36,26.54-40.27,38.8.73-12.81-1.83-25.99,1.65-38.44Z"/>
    <path class="cls-9" d="M442.5,352.99c3.29-.18,6.59-.37,9.88-.37,12.26.37,24.89,3.66,34.04,12.08,11.71,10.8,15.38,28.19,11.71,43.2-11.9-10.43-22.7-22.15-34.41-33.13-6.96-7.32-14.83-13.73-21.23-21.78h0Z"/>
    <path class="cls-10" d="M1716.25,365.25c1.83-1.83,4.03-3.66,7.14-3.11.73,4.21.18,8.6,0,13-2.38,68.46,6.22,136.73,3.48,205.18-1.46,35.69-5.86,71.57-18.12,105.43-7.87,21.96-19.22,42.83-34.23,60.95-4.03,1.65-8.24-.37-11.9-2.2-12.45-6.41-19.95-18.49-28.92-28.56v-1.83c24.53-27.64,38.44-63.15,44.29-99.39,8.97-54.54,3.29-109.82-1.83-164.55-5.67,2.38-10.07,6.96-15.01,10.43-24.71,23.98-48.32,49.24-72.66,73.58-7.14,7.14-13.54,15.38-22.15,20.87,0-15.19.18-30.38,0-45.39,24.16-20.87,47.04-43.01,69.74-64.98,26.72-26.54,52.35-54,80.17-79.44h0ZM234.75,366.54c2.93-1.28,4.94,1.28,6.77,3.11,19.95,25.44,41.92,49.24,66.08,70.65,6.59-.18,13.36-.18,19.95-.37l-.37.92c-10.25.18-20.32-.37-30.57-.55-.18,14.28,0,28.55,0,42.83-10.98-7.5-21.23-15.92-32.4-23.25-4.58,52.35,16.47,103.05,11.9,155.21-.37,4.58-4.76,6.41-8.79,7.14-9.88,2.19-18.85,8.05-28.55,10.8-.55-.55-1.65-1.46-2.2-1.83-1.28-28.37,0-57.11-1.1-85.48,0-51.43-1.28-102.68-1.46-154.12,0-8.23-1.83-17.02.73-25.07h0ZM377.34,378.98c9.52,8.05,17.75,17.39,27.09,25.81,11.71,11.9,24.34,23.06,35.51,35.51-20.68.37-41.73-.18-62.42.18-.73-20.5-.36-41-.18-61.5ZM654.27,418.15c2.38-1.83,5.31.73,7.5,2.01,11.35,8.24,20.68,20.13,23.43,34.04-.37.73-.92,2.01-1.28,2.75-18.67,8.42-30.93,27.27-50.52,34.04-10.25,3.84-19.4-4.39-25.07-11.9-2.56-3.66-7.51-7.69-4.76-12.63,10.62-21.78,33.5-32.76,50.7-48.32h0ZM1507.4,447.62c3.3-2.93,6.22-6.22,9.88-8.42.37,17.39,0,34.59.18,51.98-14.46,12.08-27.82,25.63-41.73,38.25-136,127.03-267.6,258.45-400.12,388.95-2.93,3.11-6.59,5.86-8.97,9.88-.37,2.56,2.2,4.21,3.66,6.04,19.22,18.49,38.25,37.34,57.11,56.38,17.21,15.74,32.95,32.95,49.79,48.87,71.75,71.02,143.5,142.04,214.88,213.42,1.83,1.65,4.03,3.66,3.11,6.59-3.84,8.79-11.53,15.38-18.67,21.42-3.29,2.75-8.97,5.68-11.9,1.28-28.55-30.57-58.02-60.4-88.22-89.5-70.1-67.72-143.87-131.79-213.42-200.06-1.83-1.1-3.48-4.94-5.67-2.93-11.53-28.92-24.16-57.66-36.24-86.39,31.12-29.1,61.13-59.3,92.07-88.77,89.5-86.76,179.92-172.79,272.36-256.43,40.82-36.79,82-73.03,121.9-110.55h0ZM508.02,466.47c10.07-6.04,19.04-14.09,25.81-23.79,136.36,129.41,277.12,254.42,416.41,381.08,5.31,5.31,11.9,9.88,16.47,16.11-27.09,0-54.36-.37-81.64.37.18,14.46-.55,28.92-.36,43.38,6.04.18,12.08.18,18.3,0,8.42,10.25,18.85,18.49,27.64,28.55l2.93-2.2c-13.36,29.47-25.99,59.3-38.99,88.96-40.27,37.71-79.44,76.69-119.7,114.58-86.39,82.36-174.07,163.27-263.21,242.7-13.28-7.73-27.86-13-43.01-15.56.92-.18,2.56-.37,3.3-.55,82.18-76.69,162.53-155.03,242.7-233.92,57.11-56.19,113.85-113.12,171.5-169.12-1.28-2.75-3.29-5.13-5.49-7.32-108.17-106.71-215.61-213.79-323.06-321.23-2.56-2.75.18-6.41,1.65-8.97,5.13-6.77,11.35-13,18.3-17.94,2.93-2.38,7.87-3.48,10.25.37,48.69,51.98,99.94,101.59,152.1,149.72,48.32,44.48,96.83,88.59,144.05,134.17.92-8.79.18-17.75.55-26.54,3.48.18,6.77.18,10.07.18-1.1-2.56-3.29-4.39-5.31-6.22-90.24-83.65-180.11-167.66-267.97-253.69-25.63-25.63-51.98-50.52-76.88-76.88-12.08-12.08-24.53-23.98-36.42-36.24ZM1360.61,463.73c11.9,1.65,20.86,11.17,28.92,19.4,8.05,7.14,14.64,15.92,21.6,24.34,2.38,2.2.37,5.31-1.28,7.32-6.41,8.79-15.19,15.56-24.34,21.23-4.58,3.11-10.07,1.1-14.28-1.83-14.28-9.7-25.63-23.06-38.07-34.96-1.65-1.83-5.31-3.48-3.85-6.41,4.58-8.05,12.08-13.73,18.67-19.95,3.84-3.66,7.32-7.87,12.63-9.15h0Z"/>
    <path class="cls-12" d="M302.11,486.97h25.63v20.13c-8.6-6.59-17.57-12.81-25.63-20.13Z"/>
    <path class="cls-10" d="M377.34,499.6c5.31,2.93,9.52,7.32,14.28,11.35,25.63,22.51,49.97,46.49,75.41,69.19,110.92,99.39,222.57,198.23,324.34,307.13,2.93,3.48,7.5,6.59,7.69,11.53-.36,3.66-4.21,4.03-6.96,4.58-25.99,3.66-52.17,2.01-78.16.37-51.25-.37-102.32,6.59-153.38,9.33.18-13.36,0-26.72,0-40.08,53.08-1.65,106.16-3.11,159.06,1.65,2.38.18,4.94.18,7.32,0-4.39-6.22-11.16-10.62-16.65-16.11-49.42-46.31-98.65-92.8-147.71-139.84-60.77-57.84-121.54-115.86-185.42-170.22,0-16.29,0-32.58.18-48.87Z"/>
    <path class="cls-13" d="M521.02,524.13c3.11-3.29,7.69-8.79,12.45-4.94,9.33,6.22,17.39,14.83,23.43,24.34,4.94,7.69-3.48,15.01-8.05,20.68-9.34-13.36-18.67-26.72-27.82-40.08h0Z"/>
    <path class="cls-10" d="M1028.21,799.6c96.46-88.41,192.92-177,289.75-265.22,7.87.73,13.73,6.77,19.4,11.71,4.39,4.58,10.62,8.97,10.07,15.92-45.58,37.71-88.77,78.52-131.06,119.89-67.91,66.81-135.08,134.17-205,198.59-5.67-13.54-11.53-27.27-17.39-40.82l-.36-.55c-2.38-.18-4.58-.55-6.96-.73,13.18-13.73,27.82-25.81,41.55-38.8h0Z"/>
    <path class="cls-13" d="M1501.91,565.68c4.21-5.31,9.7-9.33,15.38-12.81.18,5.67.18,11.35.18,16.84,16.11.18,32.22,0,48.32-.37.18-4.39.18-8.6.55-13,.18,4.39.55,8.79.37,13.18-5.12,2.56-12.63-2.19-16.84,2.93-8.42,7.87-17.02,15.92-25.99,23.43-8.05,0-13.91-7.14-16.84-14.09-1.83-5.31-4.39-10.62-5.13-16.11Z"/>
    <path class="cls-4" d="M484.23,559.64c2.2,3.29,4.39,6.77,6.59,10.07,17.2.18,34.23,0,51.25.18-1.28,3.29-4.21,5.49-6.77,7.69-6.96,6.22-13.73,12.63-20.68,18.85-10.8-5.12-18.3-14.46-26.91-22.15-4.21-3.66-7.87-9.7-3.48-14.64Z"/>
    <path class="cls-10" d="M1463.11,577.03c8.24,1.83,15.01,6.96,21.41,12.26,13.36,11.35,22.88,26.36,35.14,38.62-3.84,11.9-14.28,20.32-25.44,24.71-4.03,1.1-8.97,3.84-12.63,0-8.97-7.32-16.66-16.11-24.89-24.16-7.14-8.05-15.56-16.84-16.11-28.19,2.2-11.35,13.36-17.57,22.52-23.25h0ZM1552.98,641.64c20.32-9.7,42.28-18.67,65.34-17.21,8.97.73,18.49.55,26.91,4.21,6.22,13.73,2.19,31.12-7.51,42.46-25.99.92-52.17,4.76-75.96,15.92-30.2,13.54-56.01,34.78-80.54,56.56-18.67,16.66-37.34,33.5-56.38,49.79-1.65,1.65-3.66,2.93-4.76,5.12,30.2,5.49,61.32,3.11,91.15-3.11,21.6-4.39,43.2-8.79,65.16-11.53,3.11,2.75,4.94,6.59,8.05,9.33,3.84,3.85,8.79,8.05,8.42,14.09-16.29,7.87-34.41,10.07-51.98,13.54-64.98,11.35-131.24,15.01-197.31,15.74-2.75-.18-8.24,1.1-7.32-3.48,16.29-13.54,32.58-27.27,47.41-42.65,26.17-25.08,49.05-53.26,75.04-78.71,27.64-27.82,58.57-53.26,94.26-70.1h0ZM416.14,626.63c7.69-3.11,17.75-1.28,23.61,4.76,8.79,8.05,10.62,20.5,13.73,31.48-.73,2.93-4.21,3.85-6.41,5.68-27.64,18.85-46.13,47.77-63.7,75.78-2.93,4.94-9.7,3.85-14.09,1.28-8.6-5.12-17.2-10.62-23.79-18.12-2.38-1.83-.55-4.58.18-6.59,11.35-25.44,30.02-46.31,47.95-67.36,7.5-8.79,14.09-18.67,22.52-26.91ZM236.21,653.54c34.59-18.85,75.96-23.79,114.4-15.92,4.58,1.1,9.88,1.28,13.73,4.58-3.29,8.6-6.77,17.39-11.9,25.08-3.11,4.76-9.15,4.39-13.91,3.29-28.55-6.41-58.75-2.2-85.48,8.97-11.53,4.94-22.69,11.71-31.67,20.86-5.31,0-6.04-6.04-6.59-10.07-.92-6.22-3.48-12.26-2.93-18.49,6.23-8.05,15.56-13.18,24.35-18.3Z"/>
    <path class="cls-10" d="M1424.67,635.6c1.28-1.83,3.84-1.83,5.86-1.28,5.68,4.03,8.97,10.62,12.63,16.29,2.75,4.21,6.22,7.69,8.05,12.26-39.17,34.78-77.61,70.84-113.67,109.27-13.54,14.46-25.44,30.39-39.17,44.84-19.4,19.77-40.27,37.89-59.85,57.29-3.66,3.85-8.42,6.77-10.98,11.53,11.35-1.28,22.51-3.85,33.68-5.31,41.92-5.49,84.2-5.49,126.3-7.32,17.39-.18,34.96-1.28,52.35-1.83-.18,12.63-.18,25.08,0,37.71-38.25,1.83-76.33,0-114.4-.55-50.7-.73-101.59-2.2-152.1,1.28-2.75.37-5.86-.37-6.41-3.48.55-4.39,3.66-7.87,6.41-11.17,84.2-86.03,164.73-175.71,251.31-259.55ZM1734.18,676.6c1.46-4.21,2.38-9.15,6.41-11.71,8.24,6.77,15.01,15.37,22.51,23.06,11.9,13,23.43,26.91,29.29,43.75,19.95,52.17,25.63,111.65,7.14,165.1-.73,3.66-5.68,5.67-8.6,3.11-4.03-3.29-6.41-8.05-9.7-12.08-5.68-7.5-14.46-13.36-15.38-23.43-2.56-20.68-1.28-41.73-2.56-62.42-.73-20.86-3.85-42.65-15.19-60.58-4.94-8.24-11.9-15.01-19.22-21.23-2.75-2.02-.92-5.49-.73-8.24,2.38-11.71,2.2-23.98,6.04-35.33ZM446.89,688.31c2.01-3.48,6.59-2.2,9.33-.37,59.85,36.42,111.29,85.66,153.75,140.94,1.28,1.65,1.65,3.29,1.28,5.31-8.97,2.2-18.12.92-27.27,1.46-61.5,2.01-124.1,7.14-184.87-5.86-24.71-5.31-48.69-14.28-69.74-28.19-15.56-10.98-30.2-23.43-42.28-38.07-10.25-11.9-15.74-26.72-24.35-39.54-3.48-4.76-4.76-11.53-2.19-17.02,9.15-8.79,22.33-10.25,34.41-11.71,4.21-1.1,4.76,4.39,6.22,6.96,13.18,29.83,37.34,53.63,64.98,70.1,27.27,15.74,58.39,23.43,89.69,24.89,21.96,1.83,43.93-1.1,65.71-3.84-16.11-25.63-39.54-46.13-65.71-61.32-8.79-4.03-18.49-9.7-20.86-20.13,4.57-7.5,7.14-16.11,11.9-23.61h0ZM1551.33,714.85c6.41-5.86,11.71-14.83,21.05-15.01,9.7.73,18.49,5.86,25.63,12.08,25.99,20.86,35.88,56.92,65.89,73.58.37,2.93.37,5.86,0,8.6-10.25,4.76-17.75,13.73-27.64,19.04l-1.28-.18c-16.66-17.75-35.69-32.76-53.81-49.23-11.53-10.62-22.33-22.33-28.74-36.97-1.65-3.66-4.94-8.6-1.1-11.9Z"/>
    <path class="cls-10" d="M1708.56,773.43c2.2-2.38,3.84-5.67,6.77-7.14,2.56.37,3.48,2.93,4.94,4.58,7.87,11.71,12.08,26.18,11.17,40.27-.37,6.77-6.59,10.43-10.8,14.64-41.37,36.97-94.26,58.94-148.26,69.92-23.43,5.12-47.4,8.24-71.38,10.43-4.21.18-8.42,1.1-12.45.37.73-22.33-.92-44.48-.18-66.63,1.46,9.15,0,18.67.73,28,37.34-3.11,74.86-9.15,110.74-21.05,41.92-14.09,81.09-38.44,108.73-73.4h0ZM146.89,772.69c2.2.18,4.76.18,5.86,2.56,10.25,16.66,20.5,33.5,30.02,50.7,5.13,9.15,2.01,19.95,3.29,29.83,2.38,18.67,9.7,36.24,18.12,52.9,13.91,25.81,31.3,50.15,54.18,68.64,2.56,2.38,7.14,3.66,8.05,7.5-3.66,6.41-10.8,9.52-16.66,13.36-6.59,3.29-13.18,8.42-20.87,7.14-19.77-25.99-39.72-51.8-59.85-77.61-24.16-34.04-30.02-77.79-27.82-118.61,1.28-12.26,1.46-24.89,5.67-36.42h0ZM286.19,798.32c10.62,6.04,20.13,13.54,30.02,20.68.37.73.92,2.19,1.28,2.93-8.97,14.83-19.77,28.37-30.2,42.1-12.26,15.01-24.53,30.02-39.17,43.01-2.19,1.83-5.13,5.12-8.24,2.75-4.94-4.94-6.59-12.08-8.79-18.49-2.56-6.22.92-12.63,2.56-18.67,11.17-28.74,34.78-49.79,52.53-74.31h0Z"/>
    <path class="cls-3" d="M326.27,850.85c.18-3.66,0-7.5.73-11.17,16.11.55,32.21,0,48.32.18v20.5c-.18,13.18,0,26.36,0,39.54v69c0,13.54-.36,27.09,2.93,40.27,3.11,13.91,10.43,26.91,20.86,36.42,22.7,20.86,60.04,22.51,84.56,3.84,6.04-4.58,10.98-10.43,15.19-16.66,8.05-11.71,11.53-25.81,12.63-39.72.55-12.81,0-25.44.37-38.25.18-13.91,0-28,0-41.91-.37-13.18-.18-26.17,0-39.35.18-11.17-.18-22.33.18-33.68h48.5c0,11.17-.18,22.15,0,33.13,0,13.36.18,26.72,0,40.08v41.18c.37,16.84-.37,33.86-.18,50.7-.55,8.05-2.2,15.92-4.21,23.61-9.52,33.5-36.06,62.05-69.37,72.85-26.72,9.88-57.11,9.7-84.2.92-34.04-10.98-62.05-39.35-71.38-73.95-4.94-14.64-5.13-30.2-4.76-45.39.18-32.21.18-64.43,0-96.83-.18-11.72,0-23.43-.18-35.33h0ZM885.08,840.23c27.27-.73,54.55-.37,81.64-.37,9.15.73,18.12-.92,27.27-.18,5.86,13.54,11.71,27.27,17.39,40.82,3.11,7.69,6.41,15.38,9.7,22.88,12.08,28.74,24.71,57.47,36.24,86.39,9.7,20.86,17.39,42.46,27.27,62.96,6.41,17.21,14.28,33.68,21.05,50.52-10.62.18-21.05,0-31.48.18-7.14-.37-14.09-.37-21.23-.18-4.39-10.07-8.05-20.5-12.81-30.57-2.56-6.22-4.94-12.63-7.69-18.67-4.39-.18-8.79-.18-13-.18-28-.18-55.83-.18-83.65,0-4.94,0-9.7-.18-14.64.55-2.2,6.04-4.76,11.9-6.77,18.12-4.94,9.88-8.6,20.32-12.81,30.57-6.96.18-13.73,0-20.68.37-10.62,0-21.05-.18-31.67,0,6.96-18.49,15.92-36.06,23.06-54.36,8.05-16.47,15.01-33.5,22.33-50.15,13-29.65,25.63-59.49,38.99-88.96,3.66-8.79,7.51-17.39,11.35-26.17-14.09-.37-28-.18-41.91-.18-6.22.18-12.26.18-18.3,0-.18-14.46.55-28.92.36-43.38h0ZM1439.68,840.6c16.11-1.65,32.58-.18,48.69-.73-.73,22.15.92,44.29.18,66.63,0,15.56-.18,31.3,0,47.04.18,12.63,0,25.26,0,38.07-.18,21.78.18,43.56.73,65.34,34.04-.92,68.27.55,102.5-.73-.18-3.54-.18-7.08,0-10.62,0-17.21.37-34.41-.37-51.62,16.47,0,32.76.18,49.24-.18.36,12.45,0,24.89.18,37.34.55,15.19-1.1,30.39.18,45.76v1.1c0,8.42-.18,16.84,0,25.26-12.08.37-23.98,0-36.06.18-48.87-.37-97.74-.18-146.8-.18-6.22.18-12.26.18-18.49,0,.92-25.99-.55-51.98.18-77.98v-34.96c-.18-12.81-.18-25.81,0-38.62v-42.65c-.18-12.57-.18-25.14,0-37.71,0-10.25.18-20.5-.19-30.75h0Z"/>
    <path class="cls-12" d="M314.37,865.13c3.85-4.76,6.77-10.8,11.9-14.28.18,11.9,0,23.61.18,35.33-5.49-1.83-11.35-3.11-15.92-6.59-3.29-5.12,1.1-10.43,3.84-14.46Z"/>
    <path class="cls-10" d="M375.32,860.37c6.22.55,12.26,2.38,18.3,3.48,38.8,7.87,78.71,9.88,118.24,9.7-.18,13.18-.37,26.17,0,39.35-45.76-1.65-91.52-4.21-136.55-13,0-13.18-.18-26.36,0-39.53h0ZM1689.71,881.05c10.25-9.15,22.69-17.75,36.61-19.58,14.09,18.85,28.19,38.07,42.83,56.56,6.59,8.79,13.91,17.02,19.58,26.54,12.08,19.95,18.12,42.83,21.05,65.89,2.56,25.44,1.83,51.43-2.93,76.69-.18,2.75-2.93,4.94-5.49,3.66-4.21-4.03-6.41-9.52-9.34-14.28-5.67-9.15-11.35-18.3-16.47-27.82-4.58-7.69-10.07-15.92-9.33-25.26,1.83-22.69-6.22-44.66-15.74-64.79-14.64-28.56-34.23-55.64-60.77-74.31,0-.73,0-2.38,0-3.29h0Z"/>
    <path class="cls-6" d="M903.02,883.61c13.91,0,27.82-.18,41.91.18-3.84,8.79-7.69,17.39-11.35,26.17-.73.55-2.19,1.65-2.93,2.2-8.79-10.07-19.22-18.3-27.64-28.55Z"/>
    <path class="cls-11" d="M375.32,899.9c45.03,8.79,90.79,11.35,136.55,13,0,13.91.18,28,0,41.91-45.76.55-91.7,4.58-136.55,14.09v-69Z"/>
    <path class="cls-9" d="M976.78,917.84c.37-.18,1.1-.55,1.46-.55,6.22,16.66,13.18,32.95,19.95,49.6l-.55,2.75c-7.5-4.03-14.09-12.81-23.79-10.8-7.87,3.66-13,11.17-20.13,15.74,7.5-19.04,15.56-37.71,23.06-56.74Z"/>
    <path class="cls-10" d="M1706.55,950.79c2.38-2.75,6.77-5.31,9.33-1.47,4.58,6.77,7.5,14.83,8.6,22.7-6.04,27.64-23.98,50.7-41.73,72.12-6.22,6.59-10.62,14.83-17.21,21.05-8.79-3.66-15.56-11.71-24.34-15.56-.18,8.97.18,18.12-.18,27.27-1.28-15.37.37-30.57-.18-45.76,20.32-28,40.27-56.74,65.71-80.35ZM1241.08,960.31c49.06-.36,97.56-6.59,146.43-9.15,17.39.18,34.96-.92,52.35.55-.18,12.81-.18,25.81,0,38.62-71.38.18-142.95,5.67-213.97-1.65.18,2.02,1.1,3.66,2.93,4.94,83.64,76.51,164.55,156.13,247.46,233.55,67.17,62.42,136.36,123.37,211.22,176.81,2.56-20.32,0-40.63-2.93-60.77-4.58-28.92-10.07-58.02-8.97-87.49.18-4.03-.18-8.24,2.38-11.71,6.77-3.29,14.64-4.02,21.42-7.5,5.31-1.83,10.07-6.04,15.92-5.12,1.28,10.62.37,21.05.55,31.67,1.1,72.48,1.28,145.15,2.56,217.81.55,5.31.55,10.62-.37,15.92-4.58,2.2-7.14-2.38-9.7-5.31-20.5-26.17-43.75-50.33-68.64-72.48-22.15-20.13-46.31-37.89-69-57.29-30.02-25.44-57.66-53.26-87.13-79.44-111.47-99.94-224.04-199.33-325.99-309.15-2.38-2.75-5.86-6.22-4.03-10.07,1.83-1.65,4.21-2.19,6.59-2.56,26.9-3.66,54-1.83,80.9-.18ZM560.55,954.27c68.27.55,136.55,3.66,204.63.73,6.04-.18,11.9-1.46,17.94-.55,3.11,2.19,1.46,6.77-.37,9.33-6.22,7.87-13.73,14.46-20.32,21.78-71.2,73.03-139.29,148.63-212.14,220.01-7.87,7.87-15.56,16.29-23.98,23.61-3.29,2.93-7.14-1.28-9.15-3.66-5.49-7.5-10.43-15.56-15.92-23.06.55-3.66,4.58-5.31,6.96-7.87,38.8-34.96,77.06-70.65,112.02-109.27,12.63-13.73,23.79-28.92,37.34-41.73,17.39-17.94,36.06-34.41,53.81-51.98,4.39-4.39,9.52-7.87,12.81-13.18-10.25.37-20.32,3.29-30.38,4.58-43.93,6.04-88.22,6.04-132.52,7.69-1.1,4.58.73,9.7-.92,14.28-.18-16.84.55-33.86.18-50.7h0ZM1488.55,953.53c47.41,2.38,95,9.15,139.84,24.89,4.39,1.65,8.97,2.93,13,5.49,2.38,2.56,1.65,7.5-.73,9.88-16.47.36-32.76.18-49.24.18-.55,4.58-.55,9.15-.37,13.91-33.31-9.33-67.91-14.83-102.5-16.29,0-12.81.18-25.44,0-38.07h0ZM375.32,968.91c44.84-9.52,90.79-13.54,136.55-14.09-.37,12.81.18,25.44-.37,38.25-44.66,1.28-89.5,6.04-133.25,16.11-3.29-13.18-2.93-26.72-2.93-40.27ZM953.72,974.58c7.14-4.58,12.26-12.08,20.13-15.74,9.7-2.01,16.29,6.77,23.79,10.8l.55-2.75c5.49,14.09,10.98,28.55,17.2,42.46-.92.18-2.38.55-3.29.73-23.06,0-46.13-.18-69.37,0-.73-.18-2.56-.55-3.29-.73,4.94-11.53,9.52-23.06,14.28-34.78ZM154.58,963.78c4.03-2.93,8.05,1.28,10.43,4.39,4.94,6.59,10.25,13,15.74,19.22,4.58,4.76,5.68,11.53,6.22,17.75,1.65,24.53.73,49.24,3.11,73.77,2.01,22.33,10.62,44.66,27.64,59.85,2.75,3.11,8.6,5.49,6.59,10.62-2.93,15.56-2.38,32.03-9.7,46.31-1.1,3.29-4.94,3.11-6.59.55-16.84-18.12-35.51-35.51-45.94-58.39-21.05-51.98-28.19-111.29-11.16-165.46,1.1-2.93,1.46-6.41,3.66-8.6ZM229.26,1039.93c28-25.26,61.68-44.29,97.19-56.92-.37,15.19-.18,30.75,4.76,45.39l-2.93-2.2c-26.18,12.26-51.25,28.01-71.2,49.06-7.14,6.59-12.81,14.46-19.04,21.78-2.93,1.65-4.39-2.2-5.86-3.84-8.42-12.26-12.81-27.46-11.17-42.28.73-4.94,4.94-7.69,8.23-10.98h0Z"/>
    <path class="cls-11" d="M1488.55,991.6c34.59,1.46,69.19,6.96,102.5,16.29-.18-4.76-.18-9.33.37-13.91.73,17.21.37,34.41.37,51.62-32.58-12.45-67.54-18.12-102.32-19.22-.37,10.25,0,20.32-.18,30.57-.55-21.78-.92-43.56-.73-65.34h0ZM378.25,1009.18c43.74-10.07,88.59-14.83,133.25-16.11-1.1,13.91-4.58,28-12.63,39.72-3.48-.37-6.96-.37-10.25,0-30.02,3.29-60.04,6.22-89.5,12.81-10.43-9.52-17.75-22.51-20.87-36.42h0Z"/>
    <path class="cls-10" d="M1358.23,1028.4c27.09-.92,54.36-1.65,81.64-3.11-.73,25.99.73,51.98-.18,77.98,6.22.18,12.26.18,18.49,0,13.36,13.18,28.92,23.98,45.57,32.58,5.68,2.38,9.7,7.87,12.45,13.18,2.01,2.93-.92,5.86-1.83,8.42-3.85,6.22-5.13,13.91-10.25,19.4-3.29,2.19-6.96-.37-9.88-2.2-58.57-35.69-109.09-84.01-151-138.19-1.47-1.83-3.85-4.94-1.28-6.96,5.31-1.65,10.8-.92,16.29-1.1ZM556.16,1028.58c19.4-.73,38.99-1.65,58.39-.92,3.48,2.38-.92,5.31-2.93,6.96-45.39,35.33-81.27,80.9-121.9,121.35-34.23,33.68-73.76,63.33-119.89,78.34-13.91,5.31-29.29,5.49-44.11,4.58-6.41-.73-13.18-1.1-19.22-3.84-5.49-14.09-2.2-32.4,8.97-42.65,34.23.18,68.09-9.34,97.19-27.27,29.1-17.94,54.54-41,79.62-64.25-1.46.18-4.21.36-5.49.55,33.31-10.8,59.85-39.35,69.37-72.85h0ZM1489.46,1026.38c34.78,1.1,69.74,6.77,102.32,19.22-.18,3.54-.18,7.08,0,10.62-34.23,1.28-68.46-.18-102.5.73.18-10.25-.18-20.32.18-30.57Z"/>
    <path class="cls-8" d="M399.12,1045.6c29.47-6.59,59.49-9.52,89.5-12.81,3.29-.37,6.77-.37,10.25,0-4.21,6.22-9.15,12.08-15.19,16.66-24.53,18.67-61.87,17.02-84.56-3.84h0Z"/>
    <path class="cls-10" d="M1724.67,1041.94c1.83-1.83,4.03-4.21,6.96-2.38,25.44,27.27,44.11,60.4,56.38,95.73,14.83,42.83,20.13,88.22,21.78,133.25,2.56,52.53-1.46,104.88-1.1,157.41,0,50.15,3.84,100.12,5.31,150.09.37,38.62-.36,77.97-11.17,115.31-9.52.55-16.47-7.69-23.61-13-40.82-35.33-79.44-73.03-118.61-110.19-4.21-3.85-7.69-8.42-13-11.17-1.46-18.67-17.94-34.41-36.42-36.24-54.36-53.08-109.09-105.98-163.09-159.61-.92-3.66,3.48-5.49,5.67-7.87,5.49-4.03,8.97-11.35,15.92-13.36,5.67-1.65,10.07,2.93,14.09,6.22,56.19,46.86,111.29,94.81,164.92,144.41,37.71,35.33,75.78,70.84,109.09,110.37,3.11,2.93,4.94-3.11,6.04-5.3,5.49-18.12,5.67-37.52,6.41-56.38,1.28-26.73.37-53.63,2.38-80.35,4.39-82.37,9.15-166.01-7.32-247.28-9.7-47.96-27.82-94.63-56.19-134.53-2.93-3.66-2.38-8.6,0-12.26,4.76-7.87,8.79-16.47,15.56-22.88h0ZM869.34,1050.36c.73-.37,2.2-.92,2.93-1.28-7.14,18.3-16.11,35.88-23.06,54.36,10.62-.18,21.05,0,31.67,0-.55.73-1.83,2.56-2.38,3.48-80.17,73.21-160.34,146.24-240.51,219.28-1.83,1.28-3.84,4.03-6.59,2.93-9.33-3.11-15.92-10.8-22.7-17.57-2.75-2.75-6.41-8.24-2.19-11.17,44.84-37.34,86.39-78.52,127.57-119.71,43.56-45.03,88.59-88.59,135.26-130.32ZM288.2,1069.94c10.25-5.31,18.12-14.28,28.55-19.58,11.71,12.63,25.08,23.98,38.07,35.51,17.39,14.83,35.51,30.38,45.21,51.62,1.1,3.11,3.3,6.22,2.38,9.52-7.51,8.6-17.21,16.47-28.92,17.21-15.37-1.65-25.63-14.83-34.23-26.36-15.01-20.68-26.91-44.84-49.24-58.75-3.48-1.65-1.83-6.22-1.83-9.15ZM1084.59,1052.74c3.48,0,5.49,3.48,8.05,5.49,89.69,83.47,179.19,167.3,266.13,253.69,32.95,32.95,65.71,66.26,99.2,98.65,40.63,39.54,82.73,77.61,124.46,116.23l-1.1,1.28c-12.08,9.7-19.4,25.08-16.84,40.63-150.82-154.85-310.61-300.73-470.58-446.06-6.41-6.59-14.64-11.71-19.77-19.22,10.43-.18,20.86,0,31.48-.18-6.77-16.84-14.64-33.31-21.05-50.52h0Z"/>
    <path class="cls-5" d="M921.14,1054.39c4.94-.73,9.7-.55,14.64-.55-4.03,4.94-9.15,8.6-13.54,13-2.38,2.02-4.58,5.12-7.87,5.68,2.01-6.23,4.58-12.08,6.77-18.12h0Z"/>
    <path class="cls-1" d="M1019.43,1053.84c4.21,0,8.6,0,13,.18,2.75,6.04,5.13,12.45,7.69,18.67-7.69-5.31-14.83-11.53-20.68-18.85Z"/>
    <path class="cls-11" d="M1431.99,1070.13c2.38-.36,4.76-.55,7.14-.73.55,4.21,1.1,8.6-.55,12.63-2.01-4.03-7.14-7.32-6.59-11.9Z"/>
    <path class="cls-10" d="M1641.02,1078c3.48.55,5.68,3.48,8.24,5.67,7.51,7.32,15.01,14.64,20.68,23.25,7.87,10.8,12.81,23.43,20.32,34.59,3.11,4.21,3.29,10.62,1.28,15.38-9.88,9.15-23.98,10.8-36.79,11.71-2.75-2.56-3.48-6.77-5.31-10.07-9.52-19.58-23.61-37.16-40.63-50.89-1.65-1.28-2.93-2.56-3.84-4.21,12.08-.18,23.98.18,36.06-.18-.18-8.42,0-16.84,0-25.26h0ZM935.41,1101.79c3.11-3.3,9.52-2.56,10.25,2.38,2.75,16.84,2.93,33.86,2.38,50.88-4.76,47.59,2.2,95.18,6.04,142.59,2.93,26.17,1.46,52.53,1.46,78.89-2.01,60.22-7.14,121.9-30.38,178.09-1.83,4.21-4.21,10.43-10.07,8.79-8.42-3.11-15.38-8.97-22.88-13.91-3.29-2.75-8.79-6.59-5.67-11.35,8.79-19.58,15.01-40.08,19.4-60.95,12.63-63.33,8.05-128.31,6.96-192.37-.18-29.29-.73-58.57.92-87.86.18-9.7,3.11-19.77,1.28-29.29-44.66,43.74-90.24,86.76-135.63,129.77-78.52,74.13-157.78,147.34-230.81,226.78-2.75,2.56-1.65,6.77-3.11,9.88,2.02-17.39.18-36.61-10.62-51.07,19.04-19.22,39.17-37.52,58.21-56.93,16.47-15.19,31.48-31.85,47.59-47.4,95.18-95.36,190.91-190.72,294.69-276.93ZM999.48,1118.45c-.36-2.38.55-5.86,3.66-5.49,6.04.73,10.62,5.12,15.01,8.97,87.67,77.06,178.46,150.27,264.12,229.53,2.75,3.11,7.87,5.12,7.87,9.7-3.48,5.86-9.88,8.97-15.56,12.26-5.13,2.56-9.52,6.41-14.64,8.97-43.2-43.2-86.94-86.03-135.26-123.55-27.27-19.4-50.7-43.2-75.04-66.08-8.05-7.69-16.29-15.01-24.16-23.06-.55,3.48,0,7.14.73,10.62,8.6,39.72,9.52,80.54,10.8,121.17,2.93,66.63,2.93,134.53,21.42,199.14,1.65,7.32,5.31,13.91,6.22,21.23-14.09-3.3-30.39-.55-40.82,10.07-23.06-71.2-25.08-147.16-23.98-221.47.73-64.06,4.21-128.13-.36-192.01h0ZM278.31,1116.8c9.52-.73,17.57,6.04,23.98,12.26,5.49,6.22,10.98,12.63,16.29,19.04-.18.55-.73,1.83-.92,2.56-23.61,26.73-37.16,61.14-43.2,95.91-9.7,55.09-3.48,111.1,1.1,166.2,2.75.55,4.58-1.65,6.59-2.93,8.05-5.12,14.64-12.26,21.6-18.85,40.08-40.82,79.07-83.1,122.09-120.99,4.03-4.21,9.7-.37,13,2.75,6.77,6.77,8.79,16.47,11.71,25.26-4.21,4.94-9.7,8.6-14.64,13-11.17,8.97-21.97,18.67-33.13,27.64l1.65,1.65c-29.65,5.12-59.85,20.86-73.4,48.87-5.31,10.25-5.68,21.96-5.68,33.13-.55-3.48-.73-6.96-.92-10.25-3.84,1.83-6.22,5.67-9.52,8.42-26.54,25.99-51.61,53.26-79.25,78.34-1.83,1.65-4.21,3.85-7.14,2.56,1.1-41.37.18-82.92-2.02-124.28-2.01-47.4-3.66-95.18,3.11-142.22,6.04-42.46,20.14-85.29,48.69-118.06ZM1568.35,1120.28c2.75-5.86,10.43-4.58,15.01-1.65,8.97,5.49,18.67,10.98,24.71,19.95-9.52,25.08-27.46,45.76-44.48,65.89-10.25,11.35-18.85,23.98-29.47,34.96-3.85,4.03-10.07,1.1-14.28-.73-10.62-5.68-16.84-16.84-22.51-26.91-3.66-6.41,1.83-13.91,7.51-16.84,28-18.3,46.13-47.04,63.51-74.68h0Z"/>
    <path class="cls-10" d="M157.14,1169.7c-.55-4.39,3.48-6.59,7.32-5.31,2.93,11.9,10.43,22.15,19.22,30.39,4.58,4.76,9.7,9.15,12.63,15.19.37,6.96-2.01,13.54-2.93,20.32-9.34,57.84-10.43,116.78-8.79,175.35.92,43.38,4.39,86.58,5.49,129.96,1.28,16.47-.73,33.31,2.38,49.6,2.01-.92,4.03-1.83,5.67-3.29,47.77-39.54,95-79.81,141.49-121.17,9.52,10.8,22.7,17.39,36.24,21.78-44.66,42.28-88.77,85.11-132.7,127.94-24.89,25.08-49.42,50.7-75.41,74.86-4.39,3.66-9.34,9.33-15.74,7.69-1.83-2.02-2.01-4.76-2.38-7.32-5.13-69.92-4.58-139.84-4.21-209.76,1.65-102.13,6.41-204.27,11.72-306.22h0ZM1703.8,1182.15c10.43-4.58,19.4-11.71,28-18.85,2.2,1.46,4.76,3.11,4.94,6.04.55,7.87,3.84,15.56,3.48,23.61-16.66,15.56-37.89,25.63-59.67,31.48-30.02,7.5-62.23,7.5-91.88-1.47-.55-4.76,2.2-8.79,3.84-13,2.38-5.31,4.76-10.8,8.79-15.01,3.48-3.48,8.79-2.38,13.18-1.46,29.84,6.41,61.68,1.47,89.32-11.35h0ZM456.96,1212.9c5.31-2.38,10.8-5.12,16.84-4.58,4.58,6.96,8.97,14.09,14.83,19.95,8.42,8.79,17.57,17.75,21.96,29.29,3.48,10.07-4.94,18.49-12.63,23.61-3.84,2.38-8.42,6.96-13.36,4.39-21.05-8.97-33.13-29.1-48.14-45.21-1.28-1.83-4.58-3.66-3.11-6.41,5.49-9.15,14.46-15.74,23.61-21.05h0ZM1432.17,1271.28l1.1-.92c6.41.55,10.8,6.22,15.56,10.07,5.68,6.41,13.73,10.98,17.39,19.04.37,6.77-4.21,12.81-8.42,17.75-10.62,10.8-22.88,20.32-35.51,28.92-4.76-.37-8.6-4.03-12.08-6.96-7.14-6.77-14.64-13.73-17.94-23.24,0-4.39,3.11-8.05,5.67-11.53,10.25-12.08,22.7-22.33,34.23-33.13ZM1076.35,1277.69c-.36-2.56,1.1-4.21,3.11-5.31,10.98,11.17,20.87,23.25,32.58,33.68,40.27,39.35,87.49,70.65,125.75,112.02,24.16,25.44,44.48,55.09,56.74,88.22,3.66,8.24,4.94,17.39,5.31,26.36-9.52,8.97-13.91,22.7-12.08,35.51-13.18,1.65-27.27-1.46-37.52-10.07.73-32.4-9.7-64.79-27.82-91.52-28.19-41.37-66.99-73.4-100.67-109.82-1.47-1.65-3.11-3.29-4.94-4.58-2.93,13.36-3.84,27.09-3.48,40.82,1.28,36.79,15.01,71.57,18.12,107.99-7.14,4.39-12.45,11.9-20.32,14.83-2.93,1.83-4.94-1.46-5.86-3.66-6.41-14.64-8.79-30.38-12.26-45.76-12.08-62.23-15.74-125.56-16.66-188.71h0ZM867.14,1278.97c1.83-1.46,3.85-1.83,6.04-1.28,2.02,8.24.92,16.84,1.47,25.44,1.65,52.17,6.22,105.06-2.38,157.05-5.67,33.13-17.57,66.08-39.72,91.88-11.53,13.36-23.98,26.36-38.99,35.88-11.71,7.87-25.07,12.63-36.97,19.77-5.13,3.29-11.9,4.58-17.39,1.83-9.88-8.97-11.17-23.06-12.63-35.33,34.59-12.45,64.61-36.97,83.65-68.46,18.67-30.38,25.63-66.62,24.34-101.77-.18-14.09-2.56-27.82-4.21-41.73-29.29,17.02-53.63,41.91-70.29,71.38-2.56,4.58-7.5,7.32-11.9,9.7-3.84,2.38-7.5-.73-10.98-2.2-6.04-3.11-13-4.58-18.67-8.6-2.93-3.48.18-7.69,2.2-10.62,38.98-56.56,90.05-103.96,146.43-142.95ZM566.41,1328.03c5.31-3.48,11.35-.73,15.74,2.56,14.64,10.98,26.36,24.89,39.35,37.52,1.47,3.11-1.65,5.67-3.29,7.87-6.96,7.5-14.46,14.83-22.33,21.42-5.67,5.31-13.73.73-18.85-2.93-13.91-11.17-25.26-24.89-36.61-38.62-2.01-2.93.92-5.68,2.38-7.69,6.77-8.05,14.64-15.01,23.61-20.13Z"/>
    <path class="cls-3" d="M404.42,1340.29c21.05-4.21,43.2-3.85,64.25.37,15.16,2.55,29.73,7.82,43.01,15.56,10.07,6.04,19.58,13.18,27.82,21.6-2.56,2.2-5.12,4.21-7.5,6.41-9.52,8.79-19.04,17.57-28.92,26.17l-6.59-6.04c-6.59-5.86-13.73-11.17-21.6-15.19-13.91-7.69-29.83-10.43-45.58-10.62-14.83.73-30.57,3.48-42.1,13.54-9.33,7.87-13.73,21.96-8.24,33.31,8.24,13,24.53,15.74,38.44,18.67,10.8,1.46,21.42,3.48,32.22,3.84,16.29,3.11,33.13,4.39,48.87,10.43,13.91,4.76,27.64,12.45,36.42,24.71,10.8,14.46,12.63,33.68,10.62,51.07-2.19,18.67-12.45,35.88-26.72,48.14-11.17,9.88-24.71,17.02-38.8,21.78-24.53,8.24-51.25,10.43-76.69,5.31-14.83-2.02-29.29-7.32-42.83-13.91-15.19-7.5-29.65-17.39-41-30.2l-2.19-2.01c12.08-11.35,24.53-22.51,37.16-33.31,1.46,1.1,2.75,2.56,4.21,3.85,10.8,11.35,24.71,19.77,39.35,25.63,21.23,7.87,45.21,8.42,66.63,1.1,15.01-4.03,29.83-16.11,30.2-32.76.92-9.7-5.31-18.67-13.54-23.06-7.14-3.66-14.83-6.04-22.7-7.14-18.67-4.21-37.71-5.12-56.38-8.97-8.97-1.28-17.75-3.66-26.36-6.04-13.54-4.39-26.73-10.98-36.24-21.78-9.15-10.62-13.91-24.53-14.28-38.44,0-11.17.37-22.88,5.68-33.13,13.54-28,43.74-43.74,73.39-48.87Z"/>
    <path class="cls-8" d="M1291.78,1390.44c9.7-8.05,20.13-17.57,33.5-18.49,11.17,1.83,18.67,11.71,23.98,21.05-1.65,11.35-11.35,19.22-19.04,27.09-10.07,8.79-21.6,15.92-31.67,24.89-2.75,3.11-6.41-.18-8.97-1.83-11.17-8.6-20.86-20.87-22.88-35.14,8.79-5.31,17.57-10.43,25.07-17.57h0Z"/>
    <path class="cls-9" d="M387.22,1392.09c11.53-10.07,27.27-12.81,42.1-13.54-4.58,6.22-10.62,10.62-16.11,15.92-11.53,10.25-22.51,20.87-34.23,30.93-5.49-11.35-1.1-25.44,8.24-33.31Z"/>
    <path class="cls-10" d="M429.32,1378.54c15.74.18,31.67,2.93,45.58,10.62-17.39,16.29-35.14,32.58-52.71,48.87-1.83,1.83-3.29,3.85-4.76,6.04-13.91-2.93-30.2-5.68-38.44-18.67,11.71-10.07,22.7-20.68,34.23-30.93,5.49-5.31,11.53-9.7,16.11-15.93ZM503.08,1410.39c9.88-8.6,19.4-17.39,28.92-26.17,4.58,5.67,12.63,8.42,14.28,16.11,1.1,3.84-1.46,7.14-3.84,9.7-12.26,13.18-24.71,26.54-37.16,39.72-2.38,2.75-5.86,4.94-6.77,8.6-15.74-6.04-32.58-7.32-48.87-10.43,5.86-7.32,13.36-12.81,19.95-19.22,8.97-8.05,17.57-16.66,26.91-24.34l6.59,6.04Z"/>
    <path class="cls-6" d="M474.89,1389.16c7.87,4.02,15.01,9.33,21.6,15.19-9.33,7.69-17.94,16.29-26.91,24.34-6.59,6.41-14.09,11.9-19.95,19.22-10.8-.37-21.42-2.38-32.22-3.84,1.47-2.2,2.93-4.21,4.76-6.04,17.57-16.29,35.32-32.58,52.71-48.87Z"/>
    <path class="cls-10" d="M653.35,1460.73c1.1-15.74,8.97-31.85,24.16-38.44,7.69-1.65,15.56,2.75,19.95,9.15,20.68,27.64,51.25,45.03,80.72,61.87,4.76,2.02,4.76,8.05,2.2,11.9-4.39,8.05-10.25,15.38-16.84,21.6-2.02,1.65-4.58,4.58-7.51,3.11-30.93-11.53-56.01-33.86-82.37-52.9-6.95-5.31-15.01-9.34-20.32-16.29ZM1352.92,1431.99c3.66-.73,8.97-3.84,11.9.18,49.79,54.91,103.05,106.89,159.06,155.58,15.56,13.91,31.12,27.64,45.94,42.28,2.93,2.75,6.96,5.31,6.41,10.07-49.97-1.83-100.12.55-150.09,2.38-47.04,1.83-94.26,2.2-140.75-4.94-39.9-6.04-79.44-18.85-112.38-42.65-4.03-2.2-1.83-7.5-.55-10.8,6.77-13.36,20.5-20.87,31.85-29.65,10.98,7.5,21.78,15.37,33.86,20.86,19.58,9.7,40.63,15.74,62.23,19.77l.18-2.2c11.9,12.63,32.58,15.19,47.96,7.32,35.51,2.75,71.2-.37,106.89-2.93,9.15-.92,18.49-1.1,27.64-2.38-5.49-10.25-14.64-17.75-22.88-25.63-42.46-37.52-85.84-73.76-125.75-113.85-2.01-2.19-5.12-4.39-3.84-7.69,3.11-9.52,13.73-12.82,22.33-15.74ZM1156.15,1502.28c12.81-11.9,27.46-23.25,44.84-27.27,8.05,3.66,13.73,11.35,17.57,19.04,4.39,8.97.18,19.22-6.41,25.81-24.53,24.16-61.68,33.5-81.63,62.78-2.38,1.83-5.86.73-8.79,1.1-5.68-9.52-14.28-17.02-20.5-26.17l.37-1.65c19.22-16.84,36.24-35.88,54.54-53.63h0ZM402.23,1488.55c18.67,3.84,37.71,4.76,56.38,8.97-4.21,5.68-9.7,10.43-14.64,15.56-15.19,15.56-31.12,30.39-45.94,46.31-14.64-5.86-28.55-14.28-39.35-25.63v-2.56c12.08-11.53,24.53-22.7,36.61-34.23,2.56-2.56,6.41-4.58,6.96-8.42Z"/>
    <path class="cls-11" d="M458.6,1497.52c7.87,1.1,15.56,3.48,22.7,7.14,8.24,4.39,14.46,13.36,13.54,23.06-6.59,5.31-11.71,12.26-17.75,18.3-4.03,4.76-9.34,8.6-12.45,14.46-21.42,7.32-45.39,6.77-66.63-1.1,14.83-15.92,30.75-30.75,45.94-46.31,4.94-5.12,10.43-9.88,14.64-15.56h0Z"/>
    <path class="cls-8" d="M670.01,1511.79c9.52,1.28,18.3,6.04,26.73,10.43,5.12,2.38,5.49,8.79,4.03,13.73-6.04,23.61-3.11,48.69,5.49,71.38,5.12,13.18,12.26,26.18,22.69,36.06,1.28,1.46,3.66,2.75,2.93,5.31-3.48,4.94-10.25,3.84-15.56,5.12-5.13.55-10.43,3.11-15.38,1.46-24.34-23.25-36.79-57.11-38.44-90.24-.55-17.94.73-36.61,7.5-53.26h0Z"/>
    <path class="cls-3" d="M1023.82,1531.93c10.43-10.62,26.72-13.36,40.82-10.07,10.8,4.02,20.68,11.17,25.63,21.78,4.94,9.88,5.49,21.23,2.75,31.85-5.31,16.47-21.23,28.92-38.62,28.92-15.37,1.1-30.75-7.5-38.25-21.05-9.52-16.11-6.23-38.62,7.69-51.43ZM1299.84,1532.66c14.83-15.37,41.91-16.11,57.47-1.46,11.9,10.07,16.84,27.27,12.81,42.28-2.93,11.35-11.17,21.23-21.6,26.73-15.37,7.87-36.06,5.31-47.96-7.32-7.14-6.22-11.35-15.38-12.81-24.71-1.83-12.81,2.56-26.54,12.08-35.51ZM1581.35,1528.08c8.97-5.49,19.22-8.42,29.83-7.32,18.49,1.83,34.96,17.57,36.42,36.24,1.28,8.42-.37,17.21-4.03,24.89-7.87,16.47-27.64,25.63-45.39,21.96-17.21-3.29-31.12-17.75-33.68-35.14-2.56-15.56,4.76-30.93,16.84-40.64Z"/>
    <path class="cls-7" d="M477.09,1546.02c6.04-6.04,11.17-13,17.75-18.3-.37,16.66-15.19,28.74-30.2,32.76,3.11-5.86,8.42-9.7,12.45-14.46Z"/>
    <path class="cls-10" d="M835.47,1585.01c6.77-10.43,15.01-20.13,23.25-29.84,9.52,4.03,17.75,10.43,26.54,15.92,24.16,16.47,48.69,33.13,68.82,54.73-.73,2.56-2.2,4.94-4.76,6.04-6.77,3.11-13.91,5.67-21.23,6.59-26.17-4.21-48.14-20.32-68.64-36.06-7.68-6.22-16.47-10.98-23.98-17.39h0ZM319.5,1565.24c11.35,12.81,25.81,22.7,41,30.2-29.65,26.54-58.39,54.36-90.6,77.79,2.93,4.39,8.6,5.13,13.18,6.41,23.06,4.39,46.86,4.03,70.28,4.94,28.56-.18,57.29.92,86.03,2.75,74.86,3.29,150.64,6.04,225.13-5.12,54.18-8.24,107.99-24.71,154.85-53.63,3.84-2.2,8.05-5.86,12.81-4.03,6.59,2.93,13,6.41,19.22,9.88,4.58,3.29,10.98,6.22,12.45,12.26-45.58,38.44-103.6,59.12-161.8,67.91-44.48,6.77-89.69,7.87-134.53,7.87-67.72-1.83-135.45-3.11-203.17-.55-60.95,1.65-122.45,4.58-183.22-3.29-2.75-.18-6.22-2.2-5.31-5.49,1.83-8.05,7.87-13.91,13.18-19.77,41.92-43.2,86.21-83.83,129.77-125.19l.73-2.93h0ZM1054.39,1604.41c17.39,0,33.31-12.45,38.62-28.92,14.46,19.4,31.48,37.52,51.62,51.43,2.38,1.46,4.76,3.29,6.41,5.68-10.62,8.97-24.53,13.36-38.07,14.64-5.67.18-12.45,1.28-17.2-2.75-13.73-11.72-24.53-26.36-35.88-40.09h-5.49ZM1598.19,1603.86c17.75,3.66,37.52-5.49,45.39-21.96,40.27,39.54,83.46,76.33,123,116.59,3.11,4.21,8.24,8.6,8.24,14.09-5.12,3.3-11.71,2.38-17.57,2.93-100.67,5.49-201.52,5.49-302.19,2.93-76.33-2.01-152.65-5.67-228.8-10.98-4.03.73-8.42-5.31-3.66-7.32,13.18-3.48,24.16-11.71,33.86-20.86,4.94-4.21,10.25-10.43,17.57-8.79,66.44,11.35,134.17,12.45,201.34,10.98,47.04-.92,94.08-4.39,141.12-5.31,15.19-.73,30.57.18,45.76-2.02-6.77-10.43-16.66-18.3-24.53-27.82-13.18-14.28-26.54-28.19-39.54-42.47h0Z"/>
    <path class="cls-10" d="M573.18,1598.55c22.51-2.93,45.03-5.31,67.72-3.84,3.66,0,7.69,2.01,8.24,6.04,2.2,10.07,8.24,18.85,11.53,28.55,0,.73-.18,2.2-.18,2.93-30.93,1.1-62.05.73-92.98.92-17.2.92-34.23.18-51.25.55-20.13,1.1-40.27-.37-60.4.92-20.13-.18-40.27.37-60.4.37-4.94.37-9.88.37-14.64-.55-.55-2.56.18-5.31,2.75-6.59,6.96-5.12,14.28-10.07,21.05-15.56-.36-.73-.92-2.2-1.28-2.93,25.44,5.12,52.17,2.93,76.69-5.31,1.1,2.75,4.58,1.83,6.96,2.38,28.92,1.65,57.66-4.03,86.21-7.87h0ZM1029.31,1605.87c3.48-3.11,6.59,2.75,8.79,4.76,6.59,8.79,14.46,18.12,15.56,29.29-26.17,18.12-52.9,35.51-78.71,54.36-27.27,18.49-60.22,25.99-92.62,28.19-22.51.92-45.21.37-67.36-3.29-2.38-.55-6.77-.55-6.41-4.03.18-3.29,3.85-4.03,6.04-5.67,13.54-6.96,26.73-14.83,40.45-21.42,7.69-4.39,16.11-8.79,25.26-7.87,21.96,1.65,43.38-5.31,63.51-13.54,32.21-13.91,63.15-33.13,85.48-60.77ZM1184.34,1658.22c6.22-4.03,10.62-10.07,16.47-14.46,3.48-.73,7.14.73,10.62,1.1,12.45,1.65,25.07,1.83,36.79,5.86,3.29,1.28,6.96,2.2,8.97,5.49-14.28,13.36-29.1,26.17-45.39,36.79-13.36,8.97-28.92,13.91-44.29,17.94-50.33,14.09-104.88,16.47-155.03.73-4.58-.92-4.76-6.41-1.46-8.97,6.04-5.49,13.73-9.15,19.77-14.64,4.94-4.76,11.35-8.05,18.3-8.42,24.16-2.19,48.5-.92,72.85-2.75,21.78-1.1,44.48-5.67,62.41-18.67Z"/>
  </g>
</svg>