<?xml version="1.0" encoding="utf-8"?>
<!-- Generator: Adobe Illustrator 19.2.1, SVG Export Plug-In . SVG Version: 6.00 Build 0)  -->
<svg version="1.1" id="layer" xmlns="http://www.w3.org/2000/svg" xmlns:xlink="http://www.w3.org/1999/xlink" x="0px" y="0px"
	 viewBox="0 0 652 652" style="enable-background:new 0 0 652 652;" xml:space="preserve">
<style type="text/css">
	.st0{fill:#014E37;}
</style>
<path class="st0" d="M70.4,366.9c0,0,25.3-10.7,25.3-35.1c0-19.9-23.3-44.1-24.9-46.5c-0.3-0.3-0.8-0.3-0.8,0
	c0,36.1,0.4,74.8-0.3,81.5C69.7,367,69.9,367.1,70.4,366.9 M67.5,366.5c0-20.2-10.8-23-21.1-26.1c-10.2-3-16.4-5.1-19-11.1
	c-0.1-0.2-0.4-0.2-0.4,0c0.4,36.1,34.3,36.5,40.1,37.5C67.4,366.8,67.4,366.8,67.5,366.5 M80.7,366.7c8.1-1.6,34-7.6,34-33.6
	c0-10.1-3.5-23.6-5.9-39.6c0-0.3-0.3-0.3-0.5,0c-6.2,8.7-7.9,11.1-11.5,18.6c3.6,7.2,5.4,13.8,5.4,19.5c0,24.1-19.9,33.3-22.4,34.7
	C78.9,366.9,80.1,366.8,80.7,366.7 M451.6,337.4h19.9l-10.1-27.2L451.6,337.4z M492.1,356.3c3,7.1,6.6,7.3,6.6,7.3v1.3h-24.4v-1.2
	c0,0,6.2-1,3.7-9.7l-3.9-10.4h-24.6l-5.1,13.4c-1.8,5.4,2.6,6.4,2.6,6.4v1.5h-16.4v-1.3c0,0,2.8,0.3,6.2-6.6l23.1-60.3h9.4
	L492.1,356.3z M181.4,296.8v18.9h-1.2c-2-8.2-6.3-13.2-16.8-13.2h-4.9v50.4c0,6.7,1.5,9.4,4.1,10.8v1.1h-20.1v-1.1
	c2.7-1.5,4.1-4.1,4.1-10.8v-50.4H142c-10.7,0-14.8,5-16.8,13.3h-1.3v-19H181.4z M627,296.8v18.9h-1.2c-2-8.3-6.3-13.3-16.8-13.3H604
	v50.5c0,6.7,1.5,9.4,4.1,10.8v1.1H588v-1.1c2.7-1.5,4.1-4.1,4.1-10.8v-50.4h-4.5c-10.7,0-14.8,5-16.8,13.3h-1.3v-19H627z
	 M259.1,341.3v-32.5c0-6.8-1.5-9.5-4.2-10.8v-1.1H275v1.1c-2.6,1.5-4.2,4.1-4.2,10.8v31.5c0,13.9,4.4,21,16.6,21
	c8.5,0,16.1-7.1,16-20.6v-27.1c-0.1-10.1-2.6-13.7-6.2-15.5v-1.1h19.6v1.1c-3.6,1.7-5.9,5.2-6.1,15.2v27.4
	c-0.5,15.3-8,25.2-25.1,25.2S259,358.8,259.1,341.3 M505.5,341.3v-32.5c0-6.8-1.5-9.5-4.2-10.8v-1.1h20.2v1.1
	c-2.6,1.5-4.2,4.1-4.2,10.8v31.5c0,13.9,4.4,21,16.6,21c8.5,0,16.1-7.1,16-20.6v-27.1c-0.1-10.1-2.6-13.7-6.2-15.5v-1.1h19.7v1.1
	c-3.6,1.7-5.9,5.2-6.1,15.2v27.4c-0.5,15.3-8,25.2-25.1,25.2C514.9,365.7,505.5,358.8,505.5,341.3 M374.5,312.4h-1.2
	c-3.2-8.2-5-9.9-19.2-9.9h-10.8v26h8c6.6-0.5,9.6-2,11.7-8h1.1v21.8H363c-2.2-5.9-5.4-6.8-11.8-7.2h-7.9v17.8c0,6.9,1.7,9.5,5,10.8
	v1.1h-21v-1.1c2.6-1.3,4.1-4,4.1-10.8v-44.2c0-6.8-1.5-9.5-4.1-10.8v-1.1h47.1V312.4z M432.4,312.4h-1.2c-3.2-8.2-5-9.8-19.1-9.8
	h-10.8v26h8c6.6-0.5,9.6-2,11.7-8h1.1v21.8h-1.2c-2.2-5.9-5.4-6.8-11.8-7.2h-7.9v17.8c0,6.9,1.7,9.5,5,10.8v1.1h-20.9v-1.1
	c2.6-1.3,4.1-4,4.1-10.8v-44.2c0-6.8-1.5-9.5-4.1-10.8v-1.1h47.1V312.4z M242.6,366.7c4.1-0.1,8.2-0.8,12.2-2v-1.5
	c-11.5-1.2-24.3-18.9-31.3-28.9c9.7-1.5,17.8-7.9,17.8-18.8c0-11.5-8.7-18.7-26.9-18.7h-23.2v1.1c2.6,1.3,4.1,4,4.1,10.8v44.1
	c0,6.7-1.5,9.4-4.1,10.8v1.1h20.1v-1.1c-2.5-1.3-4.1-4-4.1-10.8v-50.4h4c11.6,0,17.2,4.9,17.2,14.8c0,7.7-5.7,14.4-18.4,15.8v1
	c4.4,6.3,8.4,12.1,12.6,17.3C231,362.3,235.8,366.8,242.6,366.7L242.6,366.7z"/>
</svg>
