<?xml version="1.0" encoding="UTF-8"?>
<svg id="Calque_2" data-name="Calque 2" xmlns="http://www.w3.org/2000/svg" viewBox="0 0 433.94 410.23">
  <defs>
    <style>
      .cls-1 {
        fill: #e42313;
      }

      .cls-2 {
        fill: #fff;
      }

      .cls-3 {
        fill: #5bc5f2;
      }

      .cls-4 {
        fill: #007e92;
      }

      .cls-5 {
        fill: #54bbab;
      }
    </style>
  </defs>
  <g id="svg8">
    <g id="layer1">
      <g id="g6699">
        <path id="Shape" class="cls-2" d="M213.27,391.13c-102.43,0-185.41-82.85-185.41-185.04S110.85,21.13,213.27,21.13s185.41,82.8,185.41,184.95-83.03,185.04-185.41,185.04"/>
        <path id="path6063" class="cls-5" d="M242.04,1.8c-5.59-.47-8.46-.65-13.98-.65,9.89.29,19.84,1.38,29.79,3.36,105.54,20.51,173.1,126.77,150.92,237.36-22.2,110.55-125.73,183.57-231.28,163.09-4.7-.93-9.33-2.02-13.87-3.29,17.95,5.53,37.23,8.55,57.56,8.55s36.09-2.75,51.12-6.13c65.18-14.77,117.95-60.45,144.29-117.66,11.18-25.01,17.35-52.65,17.35-81.64,0-113.22-88.87-194.26-191.9-202.99"/>
        <path id="path6065" class="cls-3" d="M.49,189.48c-7.77,111.24,78.44,208.08,196.01,218.14-6.28-.55-12.63-1.44-19.02-2.66C71.94,384.47,4.38,278.16,26.56,167.57,48.6,57.75,150.89-15,255.68,4.08c-8.8-1.69-17.73-2.89-26.86-3.54C109.21-7.63,8.28,76.93.49,189.48"/>
        <path id="path6067" class="cls-4" d="M257.85,4.5C152.31-16.03,48.75,57,26.55,167.57c-22.18,110.62,45.38,216.9,150.92,237.38,105.56,20.49,209.12-52.52,231.3-163.09,22.18-110.57-45.36-216.86-150.92-237.36M213.27,391.13c-102.43,0-185.41-82.85-185.41-185.04S110.85,21.13,213.27,21.13s185.41,82.8,185.41,184.95-83.03,185.04-185.41,185.04"/>
        <path id="path6069" class="cls-1" d="M316.23,117.93h-63.46c-11.62,0-13.23,4.71-13.23,11.82,0,0,.02,102.93.02,103.06-.8,23.6-9.57,31.15-26.43,31.15s-26.07-7.96-26.43-33.06v-101.15c0-7.11-1.67-11.82-13.27-11.82h-63.48v122.57c0,27.12,5.25,38.59,16.5,50.23,17.39,18.11,47.83,25.73,86.68,25.73s69.31-7.62,86.75-25.73c11.2-11.64,16.5-23.1,16.5-50.23l-.15-122.58Z"/>
      </g>
    </g>
  </g>
</svg>