<?xml version="1.0" encoding="UTF-8"?>
<svg id="Calque_1" xmlns="http://www.w3.org/2000/svg" version="1.1" viewBox="0 0 2500 2493">
  <!-- Generator: Adobe Illustrator 29.4.0, SVG Export Plug-In . SVG Version: 2.1.0 Build 152)  -->
  <defs>
    <style>
      .st0 {
        fill: #fff;
      }
    </style>
  </defs>
  <path class="st0" d="M1840.4,340.1h160v787.5h-160V340.1ZM840.2,866c0,147.8-112.7,261.7-260,261.7s-262.5-114-262.5-261.7V340.1h156.1v525.8c0,59.7,47.4,107.9,106.4,107.9s106.3-48.1,106.3-107.9V340.1h153.8v525.8h0ZM1579.7,2153.5h-526v-787.3h159.4v627.1h366.5v160.1ZM1579.7,1127.6h-159.8l-206.7-451.2v451.2h-159.4V340h159.4l206.7,450.5v-450.5h159.8v787.5h0ZM580,1366.3c-146.9,0-262.4,117.7-262.4,260.1v267c0,140.6,115.5,260.1,262.4,260.1s35.1-1.9,51.6-4.9l54.8,164.4h153.7l-72.8-236.6c42.6-48.7,72.8-115,72.8-183v-267c0-142.5-112.7-260.1-260.1-260.1M686.4,1893.4c0,51.8-47.1,100-106.4,100s-106.3-48.2-106.3-100v-267c0-58.5,47.3-106,105.8-106.1.2,0,.3,0,.5,0,59.3,0,106.4,47.2,106.4,106.1v267ZM1920.1,1366.3c-147.2,0-260.2,117.7-260.2,260.1v267c0,140.6,113,260.1,260.2,260.1s260.1-119.6,260.1-260.1v-267c0-142.5-113.2-260.1-260.1-260.1M2026.8,1893.4c0,51.8-48.1,100-106.7,100s-106.7-48.2-106.7-100v-267c0-58.8,47.8-106.1,106.7-106.1s106.7,47.2,106.7,106.1v267Z"/>
</svg>