<?xml version="1.0" encoding="UTF-8"?>
<svg id="Calque_1" xmlns="http://www.w3.org/2000/svg" version="1.1" viewBox="0 0 294 144">
  <!-- Generator: Adobe Illustrator 29.4.0, SVG Export Plug-In . SVG Version: 2.1.0 Build 152)  -->
  <defs>
    <style>
      .st0 {
        fill: #c6846d;
      }

      .st1 {
        fill: #6c7c59;
      }
    </style>
  </defs>
  <path class="st1" d="M234.3,50.6h-11.3c-1.6,0-2.4.5-3.1,1.8l-2.7,4.5c-3.4-5-9.2-7.5-16.5-7.5-13.3,0-22.2,8.3-25.2,24.7l-2.6,15c-2.9,16.3,7.4,23.4,18.9,24.7,7.1.8,13.2-2.5,17.5-7.4,2.1,6.5,8.3,7.8,13.8,7.5l11.3-63.3ZM212.7,74.1l-2.5,13.8c-1.3,7-6.5,11-12.3,11s-9-2.7-7.9-8.6l3.1-17.4c1.1-5.8,4.2-8.6,10.2-8.6,6,0,10.5,3.9,9.5,9.8Z"/>
  <path class="st1" d="M259,29.9h-15.5c-1.2,0-2.1.8-2.4,2.3l-10.3,58.5c-2.3,13.3.4,21.9,13.4,23.2l14.8-84.1Z"/>
  <path class="st1" d="M94.6,90.6c-2.3,13.3.3,22,13.3,23.3l11.2-63.3h-15.4c-1.2,0-2.2.7-2.6,2.4l-6.5,37.6Z"/>
  <path class="st1" d="M80.2,52.9l-17.1,33.6-7.7-47.5c-1.5-8-9.3-9.2-9.3-9.2h0s-11.1,0-11.1,0l9.9,65c1,6.3,5.5,15.6,14.5,18.5,1,.2,3.5.5,6.3.6h3.8l31.6-63.3h-17.5c-1.8,0-2.6.5-3.4,2.3Z"/>
  <path class="st0" d="M121.1,38.7v-4.6c0-3.3-.8-4.2-4.3-4.2h-4.6c-4.9,0-8.9,4-8.9,8.9s4,8.9,8.9,8.9,8.9-4,8.9-8.9Z"/>
  <path class="st1" d="M163.6,52.7l-19.5,37.3-5.3-31.3c-1.4-7.2-8.7-8.2-8.7-8.2h0s-10.4,0-10.4,0l7.4,46.2c1,5.6,5.8,14,14.2,16.6.9.1,3.3.4,5.9.5h3.5l32.5-63.2h-16.4c-1.7,0-2.5.7-3.2,2.1Z"/>
</svg>