<?xml version="1.0" encoding="UTF-8"?>
<svg xmlns="http://www.w3.org/2000/svg" xmlns:svg="http://www.w3.org/2000/svg" xmlns:sodipodi="http://sodipodi.sourceforge.net/DTD/sodipodi-0.dtd" xmlns:rdf="http://www.w3.org/1999/02/22-rdf-syntax-ns#" xmlns:inkscape="http://www.inkscape.org/namespaces/inkscape" xmlns:dc="http://purl.org/dc/elements/1.1/" xmlns:cc="http://creativecommons.org/ns#" version="1.1" viewBox="0 0 700 185">
  <!-- Generator: Adobe Illustrator 29.4.0, SVG Export Plug-In . SVG Version: 2.1.0 Build 152)  -->
  <defs>
    <style>
      .st0 {
        fill: #fff;
      }
    </style>
  </defs>
  <g id="svg2" inkscape:version="0.91 r13725" sodipodi:docname="Logo Weldom.svg">
    <sodipodi:namedview id="namedview4" bordercolor="#666666" borderopacity="1" gridtolerance="10" guidetolerance="10" inkscape:current-layer="g10" inkscape:cx="276.3923" inkscape:cy="28.741113" inkscape:pageopacity="0" inkscape:pageshadow="2" inkscape:window-height="788" inkscape:window-maximized="1" inkscape:window-width="1440" inkscape:window-x="0" inkscape:window-y="1" inkscape:zoom="0.75198702" objecttolerance="10" pagecolor="#ffffff" showgrid="false"/>
    <g id="g10" inkscape:groupmode="layer" inkscape:label="Logo">
      <path id="path304" class="st0" d="M31.2,70.9v-10.4l44.4-26.8,44.4,26.8v10.4h31.1v-19.2c0-5.4-2.8-10.5-7.5-13.3L83.6,2.2c-4.9-3-11.1-3-16.1,0L7.6,38.5C2.9,41.3,0,46.3,0,51.8v19.2h31.1Z" inkscape:connector-curvature="0"/>
      <path id="path306" class="st0" d="M522.8,94.8c-9.9-9.8-22.3-14.8-36.7-14.8s-26.8,5-36.7,14.8c-9.9,9.9-14.9,22.2-14.9,36.6s5,26.8,14.9,36.7c9.9,9.9,22.2,14.9,36.7,14.9s26.8-5,36.8-14.9c9.9-9.9,15-22.3,15-36.7s-5-26.8-15-36.6M468,113.3c4.9-4.9,11-7.4,18.1-7.4s13.2,2.5,18.2,7.4c5,4.9,7.5,11,7.5,18s-2.5,13.1-7.6,18.2c-5,5-11.1,7.6-18.2,7.6s-13.2-2.5-18.1-7.6c-4.9-5-7.4-11.1-7.4-18.2s2.5-13.1,7.4-18" inkscape:connector-curvature="0"/>
      <path id="path308" class="st0" d="M310.6,160.4c-3.6-2-4.1-6.2-4.1-8.6V46.6h-29.9v105.1c0,13.5,6.8,24.6,18.6,30.4,1.6.9,3.3,1.6,4.8,2h.4c1.5.4,3.3.8,5,.8,9,0,14.6-6.8,14.6-13.1s-3.6-9.6-9.3-11.5" inkscape:connector-curvature="0"/>
      <path id="path310" class="st0" d="M394.3,46.6v37.8c-6.6-3-13.9-4.5-21.8-4.5-14.5,0-26.8,5-36.7,14.8-9.9,9.9-14.9,22.2-14.9,36.6s5,26.8,14.9,36.7c9.9,9.9,22.2,14.9,36.7,14.9s26.8-5,36.7-14.9c9.5-9.4,14.5-21.1,14.9-34.7V46.6s-29.9,0-29.9,0ZM354.4,113.3c4.9-4.9,11-7.4,18.1-7.4s13.2,2.5,18.2,7.4c5,4.9,7.5,11,7.5,18s-2.5,13.2-7.5,18.2c-5,5-11.1,7.6-18.2,7.6s-13.2-2.5-18.1-7.6c-4.9-5-7.4-11.1-7.4-18.2s2.5-13.1,7.4-18" inkscape:connector-curvature="0"/>
      <path id="path312" class="st0" d="M252.3,96.3c-9.4-10.4-23-16.1-38.1-16.1-28.7,0-52,23-52,51.4s23.3,51,52,51,41.9-12.2,48.5-32h-32.4c-3.8,4.2-9.6,6.6-16.3,6.6-9.8,0-17.8-5.4-21.3-14.2h72.3l.2-2c1.8-18.1-2.7-33.6-12.9-44.8M191.5,123.4c2.5-10.6,11.8-18.5,22.8-18.5s20.2,7.9,22.8,18.5c0,0-45.5,0-45.5,0Z" inkscape:connector-curvature="0"/>
      <path id="path314" class="st0" d="M120.1,80.1v58c0,9-5.9,15.4-14.7,15.9-12.3-.5-14.1-10.2-14.1-15.9v-58h-31.1v58c0,9-5.9,15.4-14.7,15.9-12.9-.6-14.3-11.3-14.3-15.9v-58H0v57.4c0,27.2,17.3,44.8,44.1,44.8s.5,0,.8,0h.2s.5,0,.5,0c.3,0,.6,0,.9,0,10.9,0,21-4,28.7-11.2,7.4,7.2,17.6,11.2,28.8,11.2s.6,0,.9,0h.4s.4,0,.4,0c.2,0,.5,0,.8,0,26.3,0,44.7-18.4,44.7-44.8v-57.4h-31.1Z" inkscape:connector-curvature="0"/>
      <path id="path316" class="st0" d="M668.9,182.3v-57.9c0-9-5.9-15.4-14.7-15.9-12.3.6-14.1,10.2-14.1,15.9v58h-31.1v-58c0-9-5.9-15.4-14.7-15.9-12.9.6-14.3,11.3-14.3,15.9v57.9h-31.1v-57.4c0-27.2,17.3-44.8,44.1-44.8s.5,0,.8,0h.2s.5,0,.5,0c.3,0,.6,0,.9,0,10.9,0,21,4,28.7,11.2,7.4-7.3,17.5-11.2,28.8-11.2s.6,0,.9,0h.4s.4,0,.4,0c.2,0,.5,0,.8,0,26.3,0,44.7,18.4,44.7,44.8v57.4s-31.1,0-31.1,0Z" inkscape:connector-curvature="0"/>
    </g>
  </g>
</svg>