<?xml version="1.0" encoding="utf-8"?>
<!-- Generator: Adobe Illustrator 29.4.0, SVG Export Plug-In . SVG Version: 9.03 Build 0)  -->
<svg version="1.0" id="svg8168" xmlns:svg="http://www.w3.org/2000/svg"
	 xmlns="http://www.w3.org/2000/svg" xmlns:xlink="http://www.w3.org/1999/xlink" x="0px" y="0px" viewBox="-1.6 -1.6 1024 435"
	 style="enable-background:new -1.6 -1.6 1024 435;" xml:space="preserve">
<style type="text/css">
	.st0{fill:#889840;}
	.st1{fill-rule:evenodd;clip-rule:evenodd;fill:#68513F;}
</style>
<path id="path2558" class="st0" d="M158.3,227.5c-38.2-10.9-66.2-46.1-66.2-87.8c0-6.9,0.8-13.5,2.2-20l0.4,0
	c35.7,3.4,63.6,32.3,63.6,70.3L158.3,227.5 M221.8,88.9c1.9,31.6-16.2,56.5-43.9,70.1c16.1,26.2,41.8,41,73,42.3
	c-16.7,18.3-40.7,29.8-67.4,29.8c-2.6,0-5.1-0.1-7.6-0.3l0-72.9C175.9,128.2,192.2,100,221.8,88.9 M99.7,103.1
	c14.1-32.1,46.3-54.7,83.7-54.7c19.5,0,37.6,6.1,52.5,16.6c23.5,16.5,38.8,43.8,38.8,74.7c0,16.1-4.2,31.2-11.5,44.3
	c-24.6,2.3-48.3-7.1-60.3-20.4c31.4-21.4,40-60.3,33.9-97.9c-37.3,9.8-70.7,34.2-76.4,74.6C146.9,120.2,125,106.2,99.7,103.1
	 M56.1,139.7c0-70.4,57-127.4,127.4-127.4s127.4,57,127.4,127.4c0,70.4-57,127.4-127.4,127.4S56.1,210.1,56.1,139.7 M183.5,31.3
	c-59.9,0-108.4,48.5-108.4,108.4c0,59.9,48.5,108.4,108.4,108.4c59.9,0,108.4-48.5,108.4-108.4C291.9,79.8,243.3,31.3,183.5,31.3"/>
<path id="path2562" class="st1" d="M1011.3,420.6l-2.5,0h-18l-17.7-35.8h-21.4v35.8h-18.3v-89.9h49c14.9,0,27,12.1,27,27.1
	c0,11.6-7.3,21.5-17.5,25.3L1011.3,420.6 M951.7,346.5v24h27.2c6.6,0,12-5.4,12-12c0-6.6-5.3-12-11.9-12H951.7 M223.9,369.4h33.8
	v15.5h-33.8v19.7h47.4v16.1h-65.7v-89.9h65.7v16.1h-47.4V369.4 M505.3,420.6l-2.5,0h-18l-17.7-35.8h-21.4v35.8h-18.3v-89.9h49
	c14.9,0,27,12.1,27,27.1c0,11.6-7.3,21.5-17.5,25.3L505.3,420.6 M445.7,346.5v24h27.2c6.6,0,12-5.4,12-12c0-6.6-5.3-12-11.9-12
	H445.7 M537.4,375.7c0,16.8,13.2,30.4,29.4,30.4c16.1,0,29.3-13.6,29.3-30.4c0-16.6-13.1-30.2-29.3-30.2
	C550.6,345.4,537.4,359,537.4,375.7 M614.8,375.7c0,26.4-21.2,47-48,47c-27.2,0-48.1-20.3-48.1-46.8c0-26.4,21.2-47.2,48.1-47.2
	C593.7,328.8,614.8,349.4,614.8,375.7 M863.2,369.4H897v15.5h-33.8v19.7h47.4v16.1h-65.7v-89.9h65.7v16.1h-47.4V369.4 M797.9,384.9
	h-36.6v35.8H743v-89.9h18.3v38h36.6v-38h18.3v89.9h-18.3V384.9 M309,354.6c0,5.6,1.1,7.1,20.8,11.6c11.6,2.7,17.1,4.6,21.9,7.8
	c7,4.8,10.7,11.6,10.7,19.9c0,18.1-14.2,28.8-36.3,28.8c-22.3,0-36.4-10.9-37.8-29.9h18.2c1.6,9.9,8.3,14.7,20.8,14.7
	c11.2,0,17.1-4.9,17.1-12.1c0-3.9-1.6-6.3-6.4-8.8c-1.8-0.8-4.6-1.7-7.5-2.5l-3.4-0.8l-1.8-0.4c-11.8-3-20.6-5.9-24.5-8.7
	c-6.2-4.1-9.4-10.5-9.4-18.3c0-16.7,13.6-27.1,33.7-27.1c19.8,0,32.2,9.5,33.8,26.6h-17.9c-1.9-8-7.1-11.5-16.8-11.5
	C314.1,343.9,309,348.1,309,354.6 M123.3,330.8l22.3,66.5l22.5-66.5h19.6l-32.5,89.9h-19.5l-32.1-89.9H123.3 M46.5,420.6V386
	l-33.9-55.2h21.2L56,369.6l21.9-38.8h20.7l-33.7,55.4v34.5H46.5 M631,375.9c0-26.4,21.1-47.2,48-47.2c20.8,0,38.1,12.3,44.9,30
	l0.8,2.1h-20.1c-5.6-9.6-14.9-15.4-25.6-15.4c-16.2,0-29.4,13.6-29.4,30.2c0,16.6,13.2,30.4,29.4,30.4c10.7,0,20-5.9,25.6-15.4h20.1
	l-0.8,2.1c-6.8,17.7-24.1,30-44.9,30C652.1,422.7,631,402.3,631,375.9"/>
</svg>
